<?xml version="1.0" encoding="UTF-8" standalone="no"?>
<!DOCTYPE svg PUBLIC "-//W3C//DTD SVG 1.1 Tiny//EN" "http://www.w3.org/Graphics/SVG/1.1/DTD/svg11-tiny.dtd">
<svg xmlns="http://www.w3.org/2000/svg" xmlns:xlink="http://www.w3.org/1999/xlink" width="30" height="30" viewBox="0 0 30 30">
<rect fill="none" height="30" width="30"/>
<circle cx="15" cy="15" r="13.5"/>
<radialGradient id="SVGID_1" gradientUnits="userSpaceOnUse" cx="14.77" cy="9.23" r="16.13">
<stop stop-color="#FFF000" offset="0"/>
<stop stop-color="#FFBF00" offset="1"/>
</radialGradient>
<circle cx="15" cy="15" fill="url(#SVGID_1)" r="12.536"/>
<path d="M12.628,10.056h-0.004c-0.451,0.874-1.376,1.45-2.413,1.45c-0.143,0-0.295-0.017-0.441-0.038 c-1.209-0.19-2.085-1.113-2.282-2.215L6.065,9.5c0.039,0.219,0.138,0.413,0.21,0.618c-0.76,0.437-1.599,0.904-2.446,0.904 c0.943,0.376,2.037,0.525,3.217,0.459c0.625,0.721,1.478,1.256,2.505,1.42c0.217,0.03,0.436,0.045,0.66,0.045 c1.574,0,2.991-0.878,3.695-2.228L12.628,10.056z"/>
<path d="M17.211,10.056h0.004c0.452,0.874,1.378,1.45,2.415,1.45c0.143,0,0.294-0.017,0.44-0.038 c1.209-0.192,2.085-1.115,2.283-2.217L23.774,9.5c-0.04,0.219-0.137,0.413-0.209,0.618c0.761,0.437,1.597,0.904,2.445,0.904 c-0.942,0.376-2.038,0.525-3.217,0.459c-0.625,0.721-1.477,1.256-2.505,1.42c-0.217,0.03-0.437,0.045-0.659,0.045 c-1.575,0-2.991-0.878-3.696-2.228L17.211,10.056z"/>
<path d="M17.863,17.593c-1.624-0.45-2.78,1.298-2.78,1.298s-1.157-1.748-2.779-1.298 c-1.622,0.452-3.138,2.774-4.845,2.622c4.403,1.505,4.514,3.967,7.624,4.328c3.107-0.363,3.22-2.823,7.624-4.328 C21,20.366,19.486,18.045,17.863,17.593z" fill="#ED2F42"/>
<path d="M15.081,18.151c-1.852-1.995-3.5-0.955-5.122,0.33c-0.86,0.682-2.041,1.431-3.093,1.672 c0.33,0.226,3.164,1.627,4.568,3.014c2.835,2.493,4.557,2.407,7.295,0c1.155-1.146,3.985-2.712,4.434-2.952 c-1.081-0.423-2.098-1.055-2.957-1.734C18.14,16.844,16.771,16.33,15.081,18.151z M17.733,18.057 c0.794,0.198,2.825,1.844,3.684,2.213c-1.44,0.684-2.569,1.514-3.324,2.173c-2.483,2.183-3.648,2.083-6.022,0 c-0.752-0.659-1.739-1.488-3.18-2.173c0.939-0.399,2.768-2.047,3.541-2.213c1.279-0.277,2.652,1.313,2.652,1.313 S16.461,17.74,17.733,18.057z"/>
<radialGradient id="SVGID_2" gradientUnits="userSpaceOnUse" cx="6.02" cy="15.72" r="2.73">
<stop stop-color="#F15A24" offset="0"/>
<stop stop-color="#F78614" offset="0.42"/>
<stop stop-color="#FFBF00" offset="1"/>
</radialGradient>
<circle cx="6.016" cy="15.725" fill="url(#SVGID_2)" r="2.733"/>
<radialGradient id="SVGID_3" gradientUnits="userSpaceOnUse" cx="24.18" cy="15.72" r="2.73">
<stop stop-color="#F15A24" offset="0"/>
<stop stop-color="#F78614" offset="0.42"/>
<stop stop-color="#FFBF00" offset="1"/>
</radialGradient>
<circle cx="24.178" cy="15.725" fill="url(#SVGID_3)" r="2.733"/>
</svg>