<?xml version="1.0" encoding="utf-8"?>
<!-- Generator: Adobe Illustrator 14.0.0, SVG Export Plug-In  -->
<!DOCTYPE svg PUBLIC "-//W3C//DTD SVG 1.1//EN" "http://www.w3.org/Graphics/SVG/1.1/DTD/svg11.dtd" [
	<!ENTITY ns_flows "http://ns.adobe.com/Flows/1.0/">
]>
<svg version="1.1"
	 xmlns="http://www.w3.org/2000/svg" xmlns:xlink="http://www.w3.org/1999/xlink" xmlns:a="http://ns.adobe.com/AdobeSVGViewerExtensions/3.0/"
	 x="0px" y="0px" width="30px" height="30px" viewBox="0 0 30 30" enable-background="new 0 0 30 30" xml:space="preserve">
<defs>
</defs>
<path opacity="0.6" d="M15,24.393l-9.27,4.873L7.5,18.943L0,11.632l10.365-1.506L15,0.734l4.635,9.392L30,11.632l-7.5,7.311
	l1.77,10.322L15,24.393z M19.621,22.867l-0.881-5.146l3.738-3.645l-5.168-0.751L15,8.643l-2.311,4.683l-5.168,0.751l3.739,3.645
	l-0.882,5.146L15,20.438L19.621,22.867z"/>
<linearGradient id="SVGID_1_" gradientUnits="userSpaceOnUse" x1="15" y1="2.9937" x2="15" y2="27.438">
	<stop  offset="0" style="stop-color:#F0F0F0"/>
	<stop  offset="1" style="stop-color:#C8C8C8"/>
</linearGradient>
<path fill="url(#SVGID_1_)" d="M27.852,12.331l-8.881-1.291L15,2.994l-3.971,8.046l-8.88,1.291l6.425,6.263l-1.516,8.844L15,23.262
	l7.941,4.176l-1.516-8.844L27.852,12.331z M15,21.567l-5.95,3.128l1.136-6.625l-4.814-4.692l6.653-0.967L15,6.383l2.975,6.028
	l6.653,0.967l-4.813,4.692l1.135,6.625L15,21.567z"/>
<rect fill="none" width="30" height="30"/>
</svg>
