<?xml version="1.0" encoding="utf-8"?>
<!-- Generator: Adobe Illustrator 14.0.0, SVG Export Plug-In  -->
<!DOCTYPE svg PUBLIC "-//W3C//DTD SVG 1.1//EN" "http://www.w3.org/Graphics/SVG/1.1/DTD/svg11.dtd" [
	<!ENTITY ns_flows "http://ns.adobe.com/Flows/1.0/">
]>
<svg version="1.1"
	 xmlns="http://www.w3.org/2000/svg" xmlns:xlink="http://www.w3.org/1999/xlink" xmlns:a="http://ns.adobe.com/AdobeSVGViewerExtensions/3.0/"
	 x="0px" y="0px" width="30px" height="30px" viewBox="0 0 30 30" enable-background="new 0 0 30 30" xml:space="preserve">
<defs>
</defs>
<polygon opacity="0.6" points="15,0.734 19.635,10.126 30,11.632 22.5,18.943 24.27,29.266 15,24.393 5.73,29.266 7.5,18.943 
	0,11.632 10.365,10.126 "/>
<linearGradient id="SVGID_1_" gradientUnits="userSpaceOnUse" x1="15" y1="2.9937" x2="15" y2="27.438">
	<stop  offset="0" style="stop-color:#FFE896"/>
	<stop  offset="1" style="stop-color:#FFB701"/>
</linearGradient>
<polygon fill="url(#SVGID_1_)" points="15,23.262 7.058,27.438 8.574,18.594 2.149,12.331 11.029,11.04 15,2.994 18.971,11.04 
	27.852,12.331 21.426,18.594 22.941,27.438 "/>
<polygon fill="#FFFFFF" fill-opacity="0.4" points="11.693,11.954 15,5.253 18.307,11.954 26.959,13.201 27.852,12.331 
	18.971,11.04 15,2.994 11.029,11.04 2.149,12.331 3.042,13.201 "/>
<rect fill="none" width="30" height="30"/>
</svg>
