<?xml version="1.0" encoding="utf-8"?>
<!-- Generator: Adobe Illustrator 14.0.0, SVG Export Plug-In  -->
<!DOCTYPE svg PUBLIC "-//W3C//DTD SVG 1.1//EN" "http://www.w3.org/Graphics/SVG/1.1/DTD/svg11.dtd" [
	<!ENTITY ns_flows "http://ns.adobe.com/Flows/1.0/">
]>
<svg version="1.1"
	 xmlns="http://www.w3.org/2000/svg" xmlns:xlink="http://www.w3.org/1999/xlink" xmlns:a="http://ns.adobe.com/AdobeSVGViewerExtensions/3.0/"
	 x="0px" y="0px" width="338px" height="224px" viewBox="0 0 338 224" enable-background="new 0 0 338 224" xml:space="preserve">
<defs>
</defs>
<linearGradient id="SVGID_1_" gradientUnits="userSpaceOnUse" x1="169" y1="103" x2="169" y2="0">
	<stop  offset="0" style="stop-color:#3E6DA3"/>
	<stop  offset="1" style="stop-color:#E0EFFF"/>
</linearGradient>
<path fill="url(#SVGID_1_)" fill-opacity="0.4" d="M332,0H6C2.691,0,0,2.691,0,6v83.972C48.129,98.19,106.315,103,169,103
	s120.871-4.81,169-13.028V6C338,2.691,335.309,0,332,0z"/>
<linearGradient id="SVGID_2_" gradientUnits="userSpaceOnUse" x1="0" y1="112" x2="338" y2="112">
	<stop  offset="0" style="stop-color:#00000D;stop-opacity:0.7"/>
	<stop  offset="0.25" style="stop-color:#00000D;stop-opacity:0"/>
	<stop  offset="0.75" style="stop-color:#00000D;stop-opacity:0"/>
	<stop  offset="1" style="stop-color:#00000D;stop-opacity:0.7"/>
</linearGradient>
<path fill="url(#SVGID_2_)" d="M6,224c-3.309,0-6-2.691-6-6V6c0-3.309,2.691-6,6-6h326c3.309,0,6,2.691,6,6v212c0,3.309-2.691,6-6,6
	H6z"/>
<path fill="#FFFFFF" fill-opacity="0.2" d="M332,0H6C2.7,0,0,2.7,0,6v212c0,3.3,2.7,6,6,6h326c3.3,0,6-2.7,6-6V6
	C338,2.7,335.3,0,332,0z M337,218c0,2.757-2.243,5-5,5H6c-2.757,0-5-2.243-5-5V6c0-2.757,2.243-5,5-5h326c2.757,0,5,2.243,5,5V218z"
	/>
</svg>
