<?xml version="1.0" encoding="utf-8"?>
<!-- Generator: Adobe Illustrator 14.0.0, SVG Export Plug-In  -->
<!DOCTYPE svg PUBLIC "-//W3C//DTD SVG 1.1//EN" "http://www.w3.org/Graphics/SVG/1.1/DTD/svg11.dtd" [
	<!ENTITY ns_flows "http://ns.adobe.com/Flows/1.0/">
]>
<svg version="1.1"
	 xmlns="http://www.w3.org/2000/svg" xmlns:xlink="http://www.w3.org/1999/xlink" xmlns:a="http://ns.adobe.com/AdobeSVGViewerExtensions/3.0/"
	 x="0px" y="0px" width="338px" height="224px" viewBox="0 0 338 224" enable-background="new 0 0 338 224" xml:space="preserve">
<defs>
</defs>
<linearGradient id="SVGID_1_" gradientUnits="userSpaceOnUse" x1="169.0005" y1="223" x2="169.0005" y2="1.0005">
	<stop  offset="0" style="stop-color:#365E8F"/>
	<stop  offset="0.3758" style="stop-color:#20344E"/>
	<stop  offset="1" style="stop-color:#09090D"/>
</linearGradient>
<path fill="url(#SVGID_1_)" d="M6,223c-2.757,0-5-2.243-5-5V6c0-2.757,2.243-5,5-5h326c2.757,0,5,2.243,5,5v212c0,2.757-2.243,5-5,5
	H6z"/>
<linearGradient id="SVGID_2_" gradientUnits="userSpaceOnUse" x1="0" y1="112" x2="338" y2="112">
	<stop  offset="0" style="stop-color:#09090D;stop-opacity:0.5"/>
	<stop  offset="0.4" style="stop-color:#09090D;stop-opacity:0"/>
	<stop  offset="0.6" style="stop-color:#09090D;stop-opacity:0"/>
	<stop  offset="1" style="stop-color:#09090D;stop-opacity:0.5"/>
</linearGradient>
<path fill="url(#SVGID_2_)" d="M6,224c-3.309,0-6-2.691-6-6V6c0-3.309,2.691-6,6-6h326c3.309,0,6,2.691,6,6v212c0,3.309-2.691,6-6,6
	H6z"/>
<linearGradient id="SVGID_3_" gradientUnits="userSpaceOnUse" x1="2.0254" y1="222" x2="335.9746" y2="222">
	<stop  offset="0" style="stop-color:#376294"/>
	<stop  offset="0.5" style="stop-color:#BAE6FF"/>
	<stop  offset="1" style="stop-color:#376294"/>
</linearGradient>
<path fill="url(#SVGID_3_)" fill-opacity="0.8" d="M335.975,221H2.025c0.914,1.207,2.348,2,3.975,2h326
	C333.627,223,335.061,222.207,335.975,221z"/>
</svg>
