<?xml version="1.0" encoding="UTF-8"?>
<!DOCTYPE svg PUBLIC "-//W3C//DTD SVG 1.1 Tiny//EN" "http://www.w3.org/Graphics/SVG/1.1/DTD/svg11-tiny.dtd">
<svg baseProfile="tiny" height="60px" version="1.1" viewBox="0 0 60 60" width="60px" x="0px" xmlns="http://www.w3.org/2000/svg" xmlns:xlink="http://www.w3.org/1999/xlink" y="0px">
<rect fill="none" height="60" width="60"/>
<path d="M2.438,60c0,0,2.38-18.308,4.263-19c1.884-0.693,11.444-3.266,12.336-3.859  c0.893-0.594,1.388-1.781,2.875-2.771c1.487-0.989,2.677-1.484,2.677-1.484l-0.297-2.276c0,0-1.982-3.959-2.082-4.651  s-1.586-1.188-2.28-2.771c-0.694-1.583,0.396-12.568,0.396-12.568s7.931-8.609,11.004-8.016s2.577,1.781,3.568,1.979  c0.992,0.198,1.785,0.099,3.768,0.891c1.983,0.792,3.668,1.286,3.966,3.464c0.297,2.177,0.297,6.63,0.198,7.224  c-0.1,0.594,0.793,0.594,0.892,1.287c0.1,0.693-0.099,1.583-0.396,2.771s-1.883,3.662-2.181,4.255s-1.784,4.651-1.884,6.037  c-0.099,1.386,0.396,2.969,0.991,3.067s0.595,0.099,2.28,1.979s3.073,2.771,4.659,3.266c1.587,0.495,6.307,2.573,7.199,5.048  c0.892,2.474-0.198,2.275,0.595,3.562c0.794,1.287,1.884,4.157,1.982,6.434C57.066,56.14,57.562,60,57.562,60H2.438z" fill="#4D4D4D"/>
</svg>
