<?xml version="1.0" encoding="utf-8"?>
<!-- Generator: Adobe Illustrator 13.0.0, SVG Export Plug-In . SVG Version: 6.00 Build 14948)  -->
<!DOCTYPE svg PUBLIC "-//W3C//DTD SVG 1.0//EN" "http://www.w3.org/TR/2001/REC-SVG-20010904/DTD/svg10.dtd">
<svg version="1.0" id="Layer_1" xmlns="http://www.w3.org/2000/svg" xmlns:xlink="http://www.w3.org/1999/xlink" x="0px" y="0px"
	 width="50px" height="50px" viewBox="0 0 50 50" enable-background="new 0 0 50 50" xml:space="preserve">
<g>
	<rect x="3.208" y="2.854" fill="none" width="44" height="44"/>
	<path opacity="0.15" d="M32.209,44.854h-14c-2.205,0-4-1.795-4-4v-26c0-2.205,1.795-4,4-4h11.149l1.914-5.912
		c0.132-0.406,0.504-0.685,0.931-0.693c0.007,0,0.013,0,0.019,0c0.42,0,0.795,0.26,0.94,0.654l2.57,6.975l6.971,0.013
		c0.42,0,0.795,0.264,0.938,0.658c0.144,0.396,0.024,0.838-0.297,1.108l-5.543,4.658l1.86,6.666c0.113,0.402-0.037,0.83-0.373,1.076
		c-0.176,0.129-0.383,0.193-0.59,0.193c-0.19,0-0.383-0.054-0.549-0.164l-1.941-1.275v16.042
		C36.208,43.059,34.413,44.854,32.209,44.854L32.209,44.854z"/>
	<path opacity="0.5" d="M36.663,17.962l6.036-5.071l-7.667-0.014L32.224,5.25l-2.138,6.604H18.208c-1.654,0-3,1.346-3,3v26
		c0,1.654,1.346,3,3,3h14c1.654,0,3-1.346,3-3V22.956l3.489,2.294L36.663,17.962z"/>
	
		<linearGradient id="SVGID_1_" gradientUnits="userSpaceOnUse" x1="142.6875" y1="-59.4478" x2="142.6875" y2="-101.7325" gradientTransform="matrix(1 0 0 -1 -117.4805 -52.0195)">
		<stop  offset="0" style="stop-color:#3687FF"/>
		<stop  offset="1" style="stop-color:#051F7D"/>
	</linearGradient>
	<path fill="url(#SVGID_1_)" d="M32.208,10.854h-14c-1.654,0-3,1.346-3,3v26c0,1.654,1.346,3,3,3h14c1.654,0,3-1.346,3-3v-26
		C35.208,12.2,33.862,10.854,32.208,10.854z"/>
	
		<linearGradient id="SVGID_2_" gradientUnits="userSpaceOnUse" x1="142.6875" y1="-59.8735" x2="142.6875" y2="-96.8744" gradientTransform="matrix(1 0 0 -1 -117.4805 -52.0195)">
		<stop  offset="0" style="stop-color:#F2F2F2"/>
		<stop  offset="0.1364" style="stop-color:#E4EDF0"/>
		<stop  offset="0.3929" style="stop-color:#C0DFEB"/>
		<stop  offset="0.7391" style="stop-color:#86C8E3"/>
		<stop  offset="0.9945" style="stop-color:#57B6DD"/>
		<stop  offset="1" style="stop-color:#57B6DD"/>
	</linearGradient>
	<rect x="18.208" y="14.854" fill="url(#SVGID_2_)" width="14" height="18"/>
	<polygon fill="#FFFFFF" fill-opacity="0.4" points="18.208,27.889 32.208,20.889 32.208,14.854 18.208,14.854 	"/>
	
		<linearGradient id="SVGID_3_" gradientUnits="userSpaceOnUse" x1="142.6875" y1="-87.873" x2="142.6875" y2="-91.873" gradientTransform="matrix(1 0 0 -1 -117.4805 -52.0195)">
		<stop  offset="0" style="stop-color:#FFFFFF"/>
		<stop  offset="1" style="stop-color:#B2B2B2"/>
	</linearGradient>
	<rect x="23.208" y="35.854" fill="url(#SVGID_3_)" width="4" height="4"/>
	<path fill="#FFFFFF" fill-opacity="0.25" d="M33.62,12.442l0.709-0.708c-0.544-0.544-1.294-0.88-2.121-0.88h-14
		c-1.654,0-3,1.346-3,3v26c0,0.828,0.336,1.578,0.879,2.121l0.709-0.707c-0.363-0.363-0.588-0.863-0.588-1.414v-26c0-1.1,0.9-2,2-2
		h14C32.758,11.854,33.258,12.079,33.62,12.442z"/>
	<path fill-opacity="0.2" d="M34.317,11.724l-0.717,0.7c0.373,0.365,0.607,0.869,0.607,1.43v26c0,1.102-0.9,2-2,2h-14
		c-0.55,0-1.051-0.225-1.412-0.586l-0.709,0.707c0.544,0.543,1.294,0.879,2.121,0.879h14c1.654,0,3-1.346,3-3v-26
		C35.208,13.022,34.866,12.268,34.317,11.724z"/>
	<polygon fill="#FFFFFF" fill-opacity="0.2" points="32.208,14.854 32.208,32.854 18.208,32.854 17.208,33.854 33.208,33.854 
		33.208,13.854 	"/>
	<polygon fill-opacity="0.25" points="18.208,32.854 18.208,14.854 32.208,14.854 33.208,13.854 17.208,13.854 17.208,33.854 	"/>
	<path fill="#FFFFFF" fill-opacity="0.2" d="M27.862,35.098l-0.654,0.756v4h-4l-0.771,0.637c0.183,0.221,0.46,0.363,0.771,0.363h4
		c0.553,0,1-0.449,1-1v-4C28.208,35.553,28.074,35.281,27.862,35.098z"/>
	<path fill-opacity="0.25" d="M23.208,39.854v-4h4l0.654-0.756c-0.176-0.152-0.404-0.244-0.654-0.244h-4c-0.553,0-1,0.449-1,1v4
		c0,0.242,0.086,0.463,0.229,0.637L23.208,39.854z"/>
	<path opacity="0.3" d="M35.166,23.55v-9.701c0-1.654-1.346-3-3-3h-2.324l-0.492,1.522l-7.646,0.014
		c-0.213,0-0.402,0.134-0.471,0.335c-0.071,0.201-0.006,0.425,0.16,0.557l6.107,4.855l-2.268,6.958
		c-0.065,0.199,0.002,0.418,0.167,0.548c0.089,0.071,0.199,0.106,0.306,0.106c0.092,0,0.186-0.025,0.268-0.076l6.371-3.977
		L35.166,23.55z"/>
	<g>
		
			<linearGradient id="SVGID_4_" gradientUnits="userSpaceOnUse" x1="-126.7969" y1="301.3916" x2="-126.7969" y2="329.7876" gradientTransform="matrix(1 0 0 1 159.02 -299.4092)">
			<stop  offset="0" style="stop-color:#FFE23D"/>
			<stop  offset="1" style="stop-color:#E48717"/>
		</linearGradient>
		<polygon fill="url(#SVGID_4_)" points="32.224,4.25 35.032,11.877 42.699,11.891 36.663,16.962 38.697,24.25 32.394,20.105 
			25.75,24.25 28.125,16.962 21.747,11.891 29.755,11.877 		"/>
		<path fill-opacity="0.2" d="M29.291,16.611c0,0-2.8-2.227-4.686-3.727c0.001,0,0.002,0,0.004,0l-2.862-0.994l6.378,5.071
			L29.291,16.611z"/>
		<path fill-opacity="0.2" d="M42.699,11.891l-2.741,0.998c-1.786,1.5-4.432,3.723-4.432,3.723s0.889,3.184,1.49,5.338
			c-1.863-1.225-4.609-3.03-4.609-3.03s-2.891,1.804-4.855,3.028c0.002-0.002,0.002-0.004,0.002-0.006L25.75,24.25l6.644-4.145
			l6.304,4.145l-2.034-7.288L42.699,11.891z"/>
		<path fill="#FFFFFF" fill-opacity="0.25" d="M42.699,11.891l-7.667-0.014L32.224,4.25l-2.469,7.627l-8.008,0.014l2.862,0.996
			c2.365-0.005,5.875-0.011,5.875-0.011s1.072-3.317,1.801-5.565c0.83,2.252,2.051,5.565,2.051,5.565s3.361,0.006,5.625,0.011
			c0,0-0.001,0-0.002,0.002L42.699,11.891z"/>
		<path fill="#FFFFFF" fill-opacity="0.25" d="M25.75,24.25l1.804-2.309c0.701-2.15,1.737-5.33,1.737-5.33l-1.166,0.351L25.75,24.25
			z"/>
	</g>
</g>
</svg>
