<?xml version="1.0" encoding="utf-8"?>
<!-- Generator: Adobe Illustrator 15.0.0, SVG Export Plug-In . SVG Version: 6.00 Build 0)  -->
<!DOCTYPE svg PUBLIC "-//W3C//DTD SVG 1.1//EN" "http://www.w3.org/Graphics/SVG/1.1/DTD/svg11.dtd">
<svg version="1.1" id="Layer_1" xmlns="http://www.w3.org/2000/svg" xmlns:xlink="http://www.w3.org/1999/xlink" x="0px" y="0px"
	 width="64px" height="64px" viewBox="0 0 64 64" enable-background="new 0 0 64 64" xml:space="preserve">
		<path fill="#FFFFFF" d="M4.153,40.188v-3.934H7.33v3.934H4.153z"/>
		<path fill="#FFFFFF" d="M21.053,29.718l-3.131,0.7c-0.105-0.774-0.345-1.358-0.718-1.75c-0.373-0.392-0.857-0.588-1.453-0.588
			c-0.791,0-1.422,0.338-1.894,1.015c-0.471,0.677-0.707,1.808-0.707,3.395c0,1.764,0.239,3.01,0.718,3.737
			c0.479,0.729,1.121,1.092,1.927,1.092c0.603,0,1.096-0.212,1.481-0.637c0.384-0.424,0.655-1.154,0.813-2.19l3.12,0.657
			c-0.324,1.773-0.946,3.113-1.865,4.018c-0.919,0.906-2.151,1.358-3.696,1.358c-1.756,0-3.156-0.687-4.2-2.058
			c-1.044-1.372-1.565-3.271-1.565-5.698c0-2.454,0.523-4.365,1.571-5.732c1.047-1.367,2.464-2.051,4.25-2.051
			c1.462,0,2.624,0.39,3.487,1.169C20.056,26.934,20.676,28.122,21.053,29.718z"/>
		<path fill="#FFFFFF" d="M22.726,32.545c0-1.307,0.26-2.571,0.78-3.794c0.52-1.222,1.256-2.156,2.21-2.799
			c0.953-0.644,2.018-0.966,3.193-0.966c1.816,0,3.305,0.73,4.466,2.191c1.16,1.461,1.74,3.306,1.74,5.537
			c0,2.25-0.586,4.113-1.758,5.592s-2.647,2.219-4.426,2.219c-1.1,0-2.149-0.308-3.148-0.924c-0.999-0.616-1.758-1.519-2.278-2.709
			C22.986,35.702,22.726,34.253,22.726,32.545z M25.981,32.755c0,1.475,0.283,2.604,0.848,3.387
			c0.565,0.784,1.262,1.176,2.091,1.176s1.524-0.392,2.086-1.176c0.561-0.783,0.842-1.922,0.842-3.416
			c0-1.456-0.281-2.576-0.842-3.359c-0.562-0.784-1.257-1.176-2.086-1.176s-1.526,0.392-2.091,1.176
			C26.264,30.151,25.981,31.281,25.981,32.755z"/>
		<path fill="#FFFFFF" d="M37.365,25.322h2.928v2.03c1.047-1.577,2.295-2.366,3.741-2.366c0.769,0,1.436,0.196,2.001,0.588
			c0.564,0.392,1.029,0.984,1.391,1.777c0.527-0.793,1.096-1.386,1.707-1.777c0.609-0.392,1.262-0.588,1.955-0.588
			c0.882,0,1.628,0.222,2.238,0.665c0.61,0.443,1.066,1.094,1.368,1.953c0.218,0.634,0.327,1.661,0.327,3.08v9.505h-3.176v-8.497
			c0-1.475-0.109-2.426-0.328-2.856c-0.294-0.56-0.746-0.84-1.356-0.84c-0.444,0-0.862,0.168-1.255,0.504
			c-0.392,0.336-0.674,0.829-0.848,1.477c-0.174,0.649-0.26,1.673-0.26,3.072v7.14h-3.177v-8.147c0-1.447-0.057-2.38-0.169-2.8
			c-0.113-0.42-0.289-0.732-0.526-0.938c-0.237-0.205-0.56-0.308-0.966-0.308c-0.49,0-0.932,0.164-1.323,0.49
			s-0.673,0.798-0.843,1.414c-0.169,0.616-0.254,1.638-0.254,3.066v7.223h-3.176V25.322z"/>
</svg>
