<?xml version="1.0" encoding="UTF-8"?>
<!DOCTYPE svg PUBLIC "-//W3C//DTD SVG 1.1 Tiny//EN" "http://www.w3.org/Graphics/SVG/1.1/DTD/svg11-tiny.dtd">
<svg baseProfile="tiny" height="30" viewBox="0 0 30 30" width="30" xmlns="http://www.w3.org/2000/svg" xmlns:xlink="http://www.w3.org/1999/xlink">
<rect fill="none" height="30" width="30"/>
<path d="M28.58,7.523l-7.359,4.248c-0.364,0.152-0.771,0.057-0.953-0.256l-1.277-2.142c-0.002,0.002-0.006,0.007-0.007,0.008-0.001-0.001,0-0.003-0.001-0.004-1.119,0.582-3.617,2.223-5.187,3.79-1.632,1.635-3.149,3.394-4.417,5.576,0,0-0.006,0.008-0.008,0.01,0.009,0.002,0.018,0.002,0.027,0.003l2.725,1.743c0.344,0.222,0.412,0.706,0.158,1.078l-4.794,7.05c-0.254,0.37-0.736,0.491-1.081,0.268,0,0-0.298-0.194-1.021-0.83h-0.003c-0.394-0.347-0.411-0.476-0.785-0.925-0.319-0.385-0.573-0.765-0.783-1.114-0.001-0.001-0.004,0-0.005-0.002-0.043-0.071-0.081-0.139-0.119-0.207-0.005-0.009-0.01-0.018-0.015-0.024-0.391-0.698-0.56-1.211-0.56-1.211-0.178-0.688-0.252-3.057,0.563-5.205,0.52-1.364,3.24-5.672,6.42-8.854,3.181-3.182,8.125-6.349,10.3-7.005,2.176-0.656,3.903-0.556,4.417-0.374,0,0,1.326,0.434,2.53,1.536,0.401,0.367,0.439,0.382,0.751,0.765,0.002,0.003,0,0.006,0.002,0.008-0.002-0.002-0.002-0.004-0.004-0.005,0.615,0.757,0.818,1.062,0.818,1.062,0.19,0.327,0.04,0.787-0.34,1.006z"/>
</svg>
