<?xml version="1.0" encoding="UTF-8"?>
<!DOCTYPE svg PUBLIC "-//W3C//DTD SVG 1.1 Tiny//EN" "http://www.w3.org/Graphics/SVG/1.1/DTD/svg11-tiny.dtd">
<svg baseProfile="tiny" height="60" viewBox="0 0 60 60" width="60" xmlns="http://www.w3.org/2000/svg" xmlns:xlink="http://www.w3.org/1999/xlink">
<g>
<linearGradient gradientUnits="userSpaceOnUse" id="SVGID_1_" x1="29.9995" x2="29.9995" y1="15.4229" y2="47.4519">
<stop offset="0" style="stop-color:#FF7236"/>
<stop offset="0.7939" style="stop-color:#BA1212"/>
<stop offset="1" style="stop-color:#E8522A"/>
</linearGradient>
<path d="M52.041,46.225c0,0.676-0.549,1.225-1.225,1.225H9.184c-0.677,0-1.225-0.549-1.225-1.225V16.837  c0-0.677,0.548-1.225,1.225-1.225h41.633c0.676,0,1.225,0.548,1.225,1.225V46.225z" fill="url(#SVGID_1_)"/>
<path d="M50.816,15.612H9.184c-0.677,0-1.225,0.548-1.225,1.225v9.49l44.082-4.848v-4.642  C52.041,16.16,51.492,15.612,50.816,15.612z" fill="#FFFFFF" fill-opacity="0.1" stroke-opacity="0.1"/>
<path d="M50.816,16.225c0.337,0,0.612,0.274,0.612,0.612v29.388c0,0.337-0.275,0.612-0.612,0.612H9.184  c-0.338,0-0.612-0.275-0.612-0.612V16.837c0-0.338,0.274-0.612,0.612-0.612H50.816 M50.816,15.612H9.184  c-0.677,0-1.225,0.548-1.225,1.225v29.388c0,0.676,0.548,1.225,1.225,1.225h41.633c0.676,0,1.225-0.549,1.225-1.225V16.837  C52.041,16.16,51.492,15.612,50.816,15.612L50.816,15.612z" fill="#D83506"/>
<path d="M50.816,46.837H9.184c-0.677,0-1.225-0.549-1.225-1.225v0.612c0,0.676,0.548,1.225,1.225,1.225h41.633  c0.676,0,1.225-0.549,1.225-1.225v-0.612C52.041,46.288,51.492,46.837,50.816,46.837z" fill="#600909"/>
<path d="M50.816,15.612H9.184c-0.677,0-1.225,0.548-1.225,1.225v0.612  c0-0.677,0.548-1.225,1.225-1.225h41.633c0.676,0,1.225,0.547,1.225,1.225v-0.612C52.041,16.16,51.492,15.612,50.816,15.612z" fill="#FFFFFF" fill-opacity="0.6" stroke-opacity="0.6"/>
<linearGradient gradientUnits="userSpaceOnUse" id="SVGID_2_" x1="42.5508" x2="42.5508" y1="31.9482" y2="22.7159">
<stop offset="0" style="stop-color:#444243"/>
<stop offset="1" style="stop-color:#231F20"/>
</linearGradient>
<circle cx="42.55" cy="27.203" fill="url(#SVGID_2_)" r="5.468"/>
<linearGradient gradientUnits="userSpaceOnUse" id="SVGID_3_" x1="42.5508" x2="42.5508" y1="32.9951" y2="28.7968">
<stop offset="0" style="stop-color:#D9D9D9"/>
<stop offset="1" style="stop-color:#413F3F"/>
</linearGradient>
<path d="M42.551,32.67c-2.955,0-5.354-2.345-5.458-5.272c-0.003,0.066-0.011,0.128-0.011,0.194  c0,3.02,2.448,5.468,5.469,5.468c3.02,0,5.468-2.449,5.468-5.468c0-0.066-0.009-0.128-0.009-0.194  C47.904,30.325,45.504,32.67,42.551,32.67z" fill="url(#SVGID_3_)"/>
<linearGradient gradientUnits="userSpaceOnUse" id="SVGID_4_" x1="42.5508" x2="42.5508" y1="34.0615" y2="19.981">
<stop offset="0" style="stop-color:#FF4D00"/>
<stop offset="1" style="stop-color:#9D1010"/>
</linearGradient>
<path d="M42.551,34.285c-3.883,0-7.041-3.158-7.041-7.04c0-3.883,3.158-7.041,7.041-7.041  s7.041,3.158,7.041,7.041C49.592,31.127,46.434,34.285,42.551,34.285L42.551,34.285z M42.551,21.123  c-3.377,0-6.122,2.746-6.122,6.123c0,3.375,2.745,6.122,6.122,6.122c3.376,0,6.123-2.747,6.123-6.122  C48.674,23.868,45.927,21.123,42.551,21.123L42.551,21.123z" fill="url(#SVGID_4_)"/>
<linearGradient gradientUnits="userSpaceOnUse" id="SVGID_5_" x1="42.5508" x2="42.5508" y1="22.4209" y2="32.0317">
<stop offset="0" style="stop-color:#CBCBCB"/>
<stop offset="1" style="stop-color:#4F4F4F"/>
</linearGradient>
<circle cx="42.551" cy="27.227" fill="url(#SVGID_5_)" r="4.805"/>
<linearGradient gradientUnits="userSpaceOnUse" id="SVGID_6_" x1="42.5508" x2="42.5508" y1="22.7642" y2="31.689">
<stop offset="0" style="stop-color:#FFFFFF"/>
<stop offset="0.2848" style="stop-color:#FFFFFF"/>
<stop offset="0.7212" style="stop-color:#7B7B7B"/>
<stop offset="1" style="stop-color:#A7A7A7"/>
</linearGradient>
<circle cx="42.551" cy="27.227" fill="url(#SVGID_6_)" r="4.462"/>
<linearGradient gradientUnits="userSpaceOnUse" id="SVGID_7_" x1="42.5508" x2="42.5508" y1="23.1587" y2="31.3975">
<stop offset="0" style="stop-color:#D9D9D9"/>
<stop offset="0.8242" style="stop-color:#636363"/>
<stop offset="1" style="stop-color:#636363"/>
</linearGradient>
<path d="M46.299,25.514c0.238,0.522,0.371,1.101,0.371,1.712c0,2.273-1.844,4.119-4.119,4.119  c-2.273,0-4.118-1.846-4.118-4.119c0-2.274,1.845-4.119,4.118-4.119C44.215,23.107,45.648,24.095,46.299,25.514z" fill="url(#SVGID_7_)"/>
<linearGradient gradientUnits="userSpaceOnUse" id="SVGID_8_" x1="42.5508" x2="42.5508" y1="26.3252" y2="24.3086">
<stop offset="0" style="stop-color:#636363"/>
<stop offset="1" style="stop-color:#323232"/>
</linearGradient>
<polygon fill="url(#SVGID_8_)" points="41.521,26.248 42.551,24.188 43.58,26.248 "/>
<linearGradient gradientUnits="userSpaceOnUse" id="SVGID_9_" x1="22.3472" x2="22.3472" y1="30.4082" y2="22.5226">
<stop offset="0" style="stop-color:#636363"/>
<stop offset="0.6667" style="stop-color:#515151"/>
<stop offset="1" style="stop-color:#323232"/>
</linearGradient>
<rect fill="url(#SVGID_9_)" height="8.571" width="22.041" x="11.327" y="22.041"/>
<rect fill="#D9D9D9" height="0.612" width="22.041" x="11.327" y="30.612"/>
<polygon fill="#A6A8AB" points="31.531,26.327 31.531,28.163 29.694,28.163 29.694,26.939 29.082,26.939 29.082,28.163   27.245,28.163 27.245,26.939 26.633,26.939 26.633,28.163 24.796,28.163 24.796,26.939 24.184,26.939 24.184,28.163 22.347,28.163   22.347,26.327 21.735,26.327 21.735,28.163 19.898,28.163 19.898,26.939 19.286,26.939 19.286,28.163 17.449,28.163 17.449,26.939   16.837,26.939 16.837,28.163 15,28.163 15,26.939 14.388,26.939 14.388,28.163 13.163,28.163 13.163,26.327 12.551,26.327   12.551,28.775 13.163,28.775 14.388,28.775 15,28.775 16.837,28.775 17.449,28.775 19.286,28.775 19.898,28.775 21.735,28.775   22.347,28.775 24.184,28.775 24.796,28.775 26.633,28.775 27.245,28.775 29.082,28.775 29.694,28.775 31.531,28.775 32.143,28.775   32.143,28.163 32.143,26.327 "/>
<rect fill="#E00000" height="8.571" width="1.224" x="22.366" y="22.041"/>
<linearGradient gradientUnits="userSpaceOnUse" id="SVGID_10_" x1="13.5698" x2="13.5698" y1="37.9336" y2="40.3828">
<stop offset="0" style="stop-color:#BA1212"/>
<stop offset="1" style="stop-color:#FF7236"/>
</linearGradient>
<circle cx="13.57" cy="39.184" fill="url(#SVGID_10_)" r="1.225"/>
<linearGradient gradientUnits="userSpaceOnUse" id="SVGID_11_" x1="13.5698" x2="13.5698" y1="38.3496" y2="39.9824">
<stop offset="0" style="stop-color:#000000"/>
<stop offset="1" style="stop-color:#383838"/>
</linearGradient>
<circle cx="13.57" cy="39.184" fill="url(#SVGID_11_)" r="0.817"/>
<linearGradient gradientUnits="userSpaceOnUse" id="SVGID_12_" x1="17.1929" x2="17.1929" y1="37.9336" y2="40.3828">
<stop offset="0" style="stop-color:#BA1212"/>
<stop offset="1" style="stop-color:#FF7236"/>
</linearGradient>
<circle cx="17.193" cy="39.184" fill="url(#SVGID_12_)" r="1.224"/>
<linearGradient gradientUnits="userSpaceOnUse" id="SVGID_13_" x1="17.1929" x2="17.1929" y1="38.3496" y2="39.9824">
<stop offset="0" style="stop-color:#000000"/>
<stop offset="1" style="stop-color:#383838"/>
</linearGradient>
<circle cx="17.193" cy="39.184" fill="url(#SVGID_13_)" r="0.817"/>
<linearGradient gradientUnits="userSpaceOnUse" id="SVGID_14_" x1="20.8667" x2="20.8667" y1="37.9336" y2="40.3828">
<stop offset="0" style="stop-color:#BA1212"/>
<stop offset="1" style="stop-color:#FF7236"/>
</linearGradient>
<circle cx="20.866" cy="39.184" fill="url(#SVGID_14_)" r="1.224"/>
<linearGradient gradientUnits="userSpaceOnUse" id="SVGID_15_" x1="20.8667" x2="20.8667" y1="38.3496" y2="39.9824">
<stop offset="0" style="stop-color:#000000"/>
<stop offset="1" style="stop-color:#383838"/>
</linearGradient>
<circle cx="20.866" cy="39.184" fill="url(#SVGID_15_)" r="0.817"/>
<linearGradient gradientUnits="userSpaceOnUse" id="SVGID_16_" x1="24.54" x2="24.54" y1="37.9336" y2="40.3828">
<stop offset="0" style="stop-color:#BA1212"/>
<stop offset="1" style="stop-color:#FF7236"/>
</linearGradient>
<circle cx="24.54" cy="39.184" fill="url(#SVGID_16_)" r="1.225"/>
<linearGradient gradientUnits="userSpaceOnUse" id="SVGID_17_" x1="24.54" x2="24.54" y1="38.3496" y2="39.9824">
<stop offset="0" style="stop-color:#000000"/>
<stop offset="1" style="stop-color:#383838"/>
</linearGradient>
<circle cx="24.54" cy="39.184" fill="url(#SVGID_17_)" r="0.817"/>
<linearGradient gradientUnits="userSpaceOnUse" id="SVGID_18_" x1="28.2134" x2="28.2134" y1="37.9336" y2="40.3828">
<stop offset="0" style="stop-color:#BA1212"/>
<stop offset="1" style="stop-color:#FF7236"/>
</linearGradient>
<circle cx="28.213" cy="39.184" fill="url(#SVGID_18_)" r="1.225"/>
<linearGradient gradientUnits="userSpaceOnUse" id="SVGID_19_" x1="28.2134" x2="28.2134" y1="38.3496" y2="39.9824">
<stop offset="0" style="stop-color:#000000"/>
<stop offset="1" style="stop-color:#383838"/>
</linearGradient>
<circle cx="28.214" cy="39.184" fill="url(#SVGID_19_)" r="0.817"/>
<linearGradient gradientUnits="userSpaceOnUse" id="SVGID_20_" x1="31.8867" x2="31.8867" y1="37.9336" y2="40.3828">
<stop offset="0" style="stop-color:#BA1212"/>
<stop offset="1" style="stop-color:#FF7236"/>
</linearGradient>
<circle cx="31.887" cy="39.184" fill="url(#SVGID_20_)" r="1.224"/>
<linearGradient gradientUnits="userSpaceOnUse" id="SVGID_21_" x1="31.8867" x2="31.8867" y1="38.3496" y2="39.9824">
<stop offset="0" style="stop-color:#000000"/>
<stop offset="1" style="stop-color:#383838"/>
</linearGradient>
<circle cx="31.887" cy="39.184" fill="url(#SVGID_21_)" r="0.816"/>
<linearGradient gradientUnits="userSpaceOnUse" id="SVGID_22_" x1="13.5698" x2="13.5698" y1="41.6074" y2="44.0566">
<stop offset="0" style="stop-color:#BA1212"/>
<stop offset="1" style="stop-color:#FF7236"/>
</linearGradient>
<circle cx="13.57" cy="42.857" fill="url(#SVGID_22_)" r="1.225"/>
<linearGradient gradientUnits="userSpaceOnUse" id="SVGID_23_" x1="13.5698" x2="13.5698" y1="42.0234" y2="43.6563">
<stop offset="0" style="stop-color:#000000"/>
<stop offset="1" style="stop-color:#383838"/>
</linearGradient>
<circle cx="13.57" cy="42.857" fill="url(#SVGID_23_)" r="0.817"/>
<linearGradient gradientUnits="userSpaceOnUse" id="SVGID_24_" x1="17.1929" x2="17.1929" y1="41.6074" y2="44.0566">
<stop offset="0" style="stop-color:#BA1212"/>
<stop offset="1" style="stop-color:#FF7236"/>
</linearGradient>
<circle cx="17.193" cy="42.857" fill="url(#SVGID_24_)" r="1.224"/>
<linearGradient gradientUnits="userSpaceOnUse" id="SVGID_25_" x1="17.1929" x2="17.1929" y1="42.0234" y2="43.6563">
<stop offset="0" style="stop-color:#000000"/>
<stop offset="1" style="stop-color:#383838"/>
</linearGradient>
<circle cx="17.193" cy="42.857" fill="url(#SVGID_25_)" r="0.817"/>
<linearGradient gradientUnits="userSpaceOnUse" id="SVGID_26_" x1="20.8667" x2="20.8667" y1="41.6074" y2="44.0566">
<stop offset="0" style="stop-color:#BA1212"/>
<stop offset="1" style="stop-color:#FF7236"/>
</linearGradient>
<circle cx="20.866" cy="42.857" fill="url(#SVGID_26_)" r="1.224"/>
<linearGradient gradientUnits="userSpaceOnUse" id="SVGID_27_" x1="20.8667" x2="20.8667" y1="42.0234" y2="43.6563">
<stop offset="0" style="stop-color:#000000"/>
<stop offset="1" style="stop-color:#383838"/>
</linearGradient>
<circle cx="20.866" cy="42.857" fill="url(#SVGID_27_)" r="0.817"/>
<linearGradient gradientUnits="userSpaceOnUse" id="SVGID_28_" x1="24.54" x2="24.54" y1="41.6074" y2="44.0566">
<stop offset="0" style="stop-color:#BA1212"/>
<stop offset="1" style="stop-color:#FF7236"/>
</linearGradient>
<circle cx="24.54" cy="42.857" fill="url(#SVGID_28_)" r="1.225"/>
<linearGradient gradientUnits="userSpaceOnUse" id="SVGID_29_" x1="24.54" x2="24.54" y1="42.0234" y2="43.6563">
<stop offset="0" style="stop-color:#000000"/>
<stop offset="1" style="stop-color:#383838"/>
</linearGradient>
<circle cx="24.54" cy="42.857" fill="url(#SVGID_29_)" r="0.817"/>
<linearGradient gradientUnits="userSpaceOnUse" id="SVGID_30_" x1="28.2134" x2="28.2134" y1="41.6074" y2="44.0566">
<stop offset="0" style="stop-color:#BA1212"/>
<stop offset="1" style="stop-color:#FF7236"/>
</linearGradient>
<circle cx="28.213" cy="42.857" fill="url(#SVGID_30_)" r="1.225"/>
<linearGradient gradientUnits="userSpaceOnUse" id="SVGID_31_" x1="28.2134" x2="28.2134" y1="42.0234" y2="43.6563">
<stop offset="0" style="stop-color:#000000"/>
<stop offset="1" style="stop-color:#383838"/>
</linearGradient>
<circle cx="28.214" cy="42.857" fill="url(#SVGID_31_)" r="0.817"/>
<linearGradient gradientUnits="userSpaceOnUse" id="SVGID_32_" x1="31.8867" x2="31.8867" y1="41.6074" y2="44.0566">
<stop offset="0" style="stop-color:#BA1212"/>
<stop offset="1" style="stop-color:#FF7236"/>
</linearGradient>
<circle cx="31.887" cy="42.857" fill="url(#SVGID_32_)" r="1.224"/>
<linearGradient gradientUnits="userSpaceOnUse" id="SVGID_33_" x1="31.8867" x2="31.8867" y1="42.0234" y2="43.6563">
<stop offset="0" style="stop-color:#000000"/>
<stop offset="1" style="stop-color:#383838"/>
</linearGradient>
<circle cx="31.887" cy="42.857" fill="url(#SVGID_33_)" r="0.816"/>
<linearGradient gradientUnits="userSpaceOnUse" id="SVGID_34_" x1="35.5098" x2="35.5098" y1="37.9336" y2="40.3828">
<stop offset="0" style="stop-color:#BA1212"/>
<stop offset="1" style="stop-color:#FF7236"/>
</linearGradient>
<circle cx="35.51" cy="39.184" fill="url(#SVGID_34_)" r="1.225"/>
<linearGradient gradientUnits="userSpaceOnUse" id="SVGID_35_" x1="35.5098" x2="35.5098" y1="38.3496" y2="39.9824">
<stop offset="0" style="stop-color:#000000"/>
<stop offset="1" style="stop-color:#383838"/>
</linearGradient>
<circle cx="35.51" cy="39.184" fill="url(#SVGID_35_)" r="0.817"/>
<linearGradient gradientUnits="userSpaceOnUse" id="SVGID_36_" x1="39.1836" x2="39.1836" y1="37.9336" y2="40.3828">
<stop offset="0" style="stop-color:#BA1212"/>
<stop offset="1" style="stop-color:#FF7236"/>
</linearGradient>
<circle cx="39.184" cy="39.184" fill="url(#SVGID_36_)" r="1.225"/>
<linearGradient gradientUnits="userSpaceOnUse" id="SVGID_37_" x1="39.1836" x2="39.1836" y1="38.3496" y2="39.9824">
<stop offset="0" style="stop-color:#000000"/>
<stop offset="1" style="stop-color:#383838"/>
</linearGradient>
<circle cx="39.184" cy="39.184" fill="url(#SVGID_37_)" r="0.816"/>
<linearGradient gradientUnits="userSpaceOnUse" id="SVGID_38_" x1="42.8574" x2="42.8574" y1="37.9336" y2="40.3828">
<stop offset="0" style="stop-color:#BA1212"/>
<stop offset="1" style="stop-color:#FF7236"/>
</linearGradient>
<circle cx="42.857" cy="39.184" fill="url(#SVGID_38_)" r="1.225"/>
<linearGradient gradientUnits="userSpaceOnUse" id="SVGID_39_" x1="42.8574" x2="42.8574" y1="38.3496" y2="39.9824">
<stop offset="0" style="stop-color:#000000"/>
<stop offset="1" style="stop-color:#383838"/>
</linearGradient>
<circle cx="42.857" cy="39.184" fill="url(#SVGID_39_)" r="0.816"/>
<linearGradient gradientUnits="userSpaceOnUse" id="SVGID_40_" x1="46.5313" x2="46.5313" y1="37.9336" y2="40.3828">
<stop offset="0" style="stop-color:#BA1212"/>
<stop offset="1" style="stop-color:#FF7236"/>
</linearGradient>
<circle cx="46.531" cy="39.184" fill="url(#SVGID_40_)" r="1.224"/>
<linearGradient gradientUnits="userSpaceOnUse" id="SVGID_41_" x1="46.5313" x2="46.5313" y1="38.3496" y2="39.9824">
<stop offset="0" style="stop-color:#000000"/>
<stop offset="1" style="stop-color:#383838"/>
</linearGradient>
<circle cx="46.531" cy="39.184" fill="url(#SVGID_41_)" r="0.817"/>
<linearGradient gradientUnits="userSpaceOnUse" id="SVGID_42_" x1="35.5098" x2="35.5098" y1="41.6074" y2="44.0566">
<stop offset="0" style="stop-color:#BA1212"/>
<stop offset="1" style="stop-color:#FF7236"/>
</linearGradient>
<circle cx="35.51" cy="42.857" fill="url(#SVGID_42_)" r="1.225"/>
<linearGradient gradientUnits="userSpaceOnUse" id="SVGID_43_" x1="35.5098" x2="35.5098" y1="42.0234" y2="43.6563">
<stop offset="0" style="stop-color:#000000"/>
<stop offset="1" style="stop-color:#383838"/>
</linearGradient>
<circle cx="35.51" cy="42.857" fill="url(#SVGID_43_)" r="0.817"/>
<linearGradient gradientUnits="userSpaceOnUse" id="SVGID_44_" x1="39.1836" x2="39.1836" y1="41.6074" y2="44.0566">
<stop offset="0" style="stop-color:#BA1212"/>
<stop offset="1" style="stop-color:#FF7236"/>
</linearGradient>
<circle cx="39.184" cy="42.857" fill="url(#SVGID_44_)" r="1.225"/>
<linearGradient gradientUnits="userSpaceOnUse" id="SVGID_45_" x1="39.1836" x2="39.1836" y1="42.0234" y2="43.6563">
<stop offset="0" style="stop-color:#000000"/>
<stop offset="1" style="stop-color:#383838"/>
</linearGradient>
<circle cx="39.184" cy="42.857" fill="url(#SVGID_45_)" r="0.816"/>
<linearGradient gradientUnits="userSpaceOnUse" id="SVGID_46_" x1="42.8574" x2="42.8574" y1="41.6074" y2="44.0566">
<stop offset="0" style="stop-color:#BA1212"/>
<stop offset="1" style="stop-color:#FF7236"/>
</linearGradient>
<circle cx="42.857" cy="42.857" fill="url(#SVGID_46_)" r="1.225"/>
<linearGradient gradientUnits="userSpaceOnUse" id="SVGID_47_" x1="42.8574" x2="42.8574" y1="42.0234" y2="43.6563">
<stop offset="0" style="stop-color:#000000"/>
<stop offset="1" style="stop-color:#383838"/>
</linearGradient>
<circle cx="42.857" cy="42.857" fill="url(#SVGID_47_)" r="0.816"/>
<linearGradient gradientUnits="userSpaceOnUse" id="SVGID_48_" x1="46.5313" x2="46.5313" y1="41.6074" y2="44.0566">
<stop offset="0" style="stop-color:#BA1212"/>
<stop offset="1" style="stop-color:#FF7236"/>
</linearGradient>
<circle cx="46.531" cy="42.857" fill="url(#SVGID_48_)" r="1.224"/>
<linearGradient gradientUnits="userSpaceOnUse" id="SVGID_49_" x1="46.5313" x2="46.5313" y1="42.0234" y2="43.6563">
<stop offset="0" style="stop-color:#000000"/>
<stop offset="1" style="stop-color:#383838"/>
</linearGradient>
<circle cx="46.531" cy="42.857" fill="url(#SVGID_49_)" r="0.817"/>
<linearGradient gradientUnits="userSpaceOnUse" id="SVGID_50_" x1="45.6123" x2="45.6123" y1="15.3745" y2="11.2014">
<stop offset="0" style="stop-color:#CBCBCB"/>
<stop offset="0.1576" style="stop-color:#808080"/>
<stop offset="0.6545" style="stop-color:#E5E5E5"/>
<stop offset="1" style="stop-color:#4F4F4F"/>
</linearGradient>
<rect fill="url(#SVGID_50_)" height="4.286" width="5.51" x="42.857" y="11.327"/>
<linearGradient gradientUnits="userSpaceOnUse" id="SVGID_51_" x1="35.8164" x2="35.8164" y1="14.252" y2="11.8675">
<stop offset="0" style="stop-color:#CBCBCB"/>
<stop offset="0.1576" style="stop-color:#808080"/>
<stop offset="0.6545" style="stop-color:#E5E5E5"/>
<stop offset="1" style="stop-color:#4F4F4F"/>
</linearGradient>
<rect fill="url(#SVGID_51_)" height="2.449" width="14.082" x="28.775" y="11.939"/>
<linearGradient gradientUnits="userSpaceOnUse" id="SVGID_52_" x1="21.4282" x2="21.4282" y1="13.7075" y2="12.5151">
<stop offset="0" style="stop-color:#CBCBCB"/>
<stop offset="0.1576" style="stop-color:#808080"/>
<stop offset="0.6545" style="stop-color:#E5E5E5"/>
<stop offset="1" style="stop-color:#4F4F4F"/>
</linearGradient>
<rect fill="url(#SVGID_52_)" height="1.225" width="14.694" x="14.082" y="12.551"/>
<linearGradient gradientUnits="userSpaceOnUse" id="SVGID_53_" x1="13.1636" x2="13.1636" y1="14.252" y2="11.8675">
<stop offset="0" style="stop-color:#CBCBCB"/>
<stop offset="0.1576" style="stop-color:#808080"/>
<stop offset="0.6545" style="stop-color:#E5E5E5"/>
<stop offset="1" style="stop-color:#4F4F4F"/>
</linearGradient>
<rect fill="url(#SVGID_53_)" height="2.449" width="1.836" x="12.245" y="11.939"/>
<path d="M45.612,15.306c-1.013,0-1.837-0.825-1.837-1.837c0-1.013,0.824-1.836,1.837-1.836  c1.012,0,1.837,0.824,1.837,1.836C47.449,14.481,46.624,15.306,45.612,15.306L45.612,15.306z" fill-opacity="0.2" stroke-opacity="0.2"/>
<circle cx="45.612" cy="13.469" fill-opacity="0.2" r="1.53" stroke-opacity="0.2"/>
<linearGradient gradientUnits="userSpaceOnUse" id="SVGID_54_" x1="45.6123" x2="45.6123" y1="12.5771" y2="14.3623">
<stop offset="0" style="stop-color:#E5E5E5"/>
<stop offset="0.7576" style="stop-color:#A7A7A7"/>
<stop offset="1" style="stop-color:#CBCBCB"/>
</linearGradient>
<circle cx="45.612" cy="13.469" fill="url(#SVGID_54_)" r="1.225"/>
<linearGradient gradientUnits="userSpaceOnUse" id="SVGID_55_" x1="45.6123" x2="45.6123" y1="12.2832" y2="14.6557">
<stop offset="0" style="stop-color:#FFFFFF"/>
<stop offset="0.2848" style="stop-color:#FFFFFF"/>
<stop offset="0.7212" style="stop-color:#7B7B7B"/>
<stop offset="1" style="stop-color:#A7A7A7"/>
</linearGradient>
<path d="M45.612,12.551c0.506,0,0.919,0.412,0.919,0.918c0,0.506-0.413,0.918-0.919,0.918  c-0.507,0-0.919-0.413-0.919-0.918C44.693,12.962,45.105,12.551,45.612,12.551 M45.612,12.245c-0.677,0-1.225,0.547-1.225,1.224  c0,0.676,0.548,1.225,1.225,1.225c0.676,0,1.225-0.549,1.225-1.225C46.837,12.792,46.288,12.245,45.612,12.245L45.612,12.245z" fill="url(#SVGID_55_)"/>
<rect fill="none" height="60" width="60"/>
</g>
<g transform="matrix(0.5 0 0 0.5 30 30)">
<path d="M30,54.705C16.376,54.705,5.294,43.623,5.294,30  C5.294,16.376,16.376,5.294,30,5.294c13.623,0,24.705,11.083,24.705,24.706C54.705,43.623,43.623,54.705,30,54.705L30,54.705z" style="opacity:0.6;enable-background:new    ;"/>
<radialGradient cx="2.7217" cy="-242.9165" gradientTransform="matrix(0.618 0 0 -0.618 28.3176 -128.0637)" gradientUnits="userSpaceOnUse" id="SVGID_1__" r="48.9069">
<stop offset="0" style="stop-color:#94FFFF"/>
<stop offset="0.5" style="stop-color:#36B5FF"/>
<stop offset="1" style="stop-color:#1B66D8"/>
</radialGradient>
<circle cx="30" cy="30" r="22.941" style="fill:url(#SVGID_1__);"/>
<path d="M52.122,28.744c-0.509-8.961-6.312-16.677-14.788-19.661l-1.032,0.169  l-5.995-1.147l-7.474,4.456l-0.281,1.878h-4.336l1.714,2.914l-4.643,3.787l-1.082,4.675l3.834,6.795l3.914-0.799l1.429,1.229  l1.117,0.111l0.738,2.883l-0.974,2.527l3.552,9.086h3.623l3.592-2.9v-1.185l0.947-1.47l0.783-0.4  c-0.199,0.303-0.512,0.998-0.512,0.998c-0.033,0.236,0.51,4.862,2.104,4.5c1.211-0.273,5.533-8.303,5.615-9.066  c0.164-1.51-0.658-2.134-1.162-2.37l-0.562-0.265l-2.58,2.587c-0.276,0.021-0.526,0.067-0.751,0.134v-2.147l2.802-2.737l1.426-4.595  l2.173-1.769l-0.477-0.866l1.639-1.578l-0.916-1.669l0.697,0.084l4.082,9.138l0.836-0.666c-0.025-0.447-0.074-0.887-0.125-1.329  L52.122,28.744z M30.275,18.466l-0.341-0.911h2.049l0.997,2.243h-1.484v-1.333H30.275z M37.035,22.983l1.637,2.388l0.111,0.286  l-1.677-1.013l-0.401-1.445L37.035,22.983z M39.496,27.155l0.494,0.494l-0.639,0.143l-0.145-0.177L39.496,27.155z M26.695,11.093  l1.041,1.611l-1.183,0.362l-0.462-0.263L26.695,11.093z" style="opacity:0.3;enable-background:new    ;"/>
<path d="M30,7.059C17.331,7.059,7.059,17.331,7.059,30  c0,12.674,10.272,22.941,22.941,22.941c12.674,0,22.941-10.268,22.941-22.941C52.941,17.331,42.674,7.059,30,7.059z M30,51.176  C18.323,51.176,8.823,41.677,8.823,30c0-11.677,9.5-21.177,21.177-21.177c11.677,0,21.176,9.5,21.176,21.177  C51.176,41.677,41.677,51.176,30,51.176z" style="opacity:0.3;fill:url(#SVGID_2__);enable-background:new    ;"/>
<radialGradient cx="182.1514" cy="-162.9028" gradientTransform="matrix(1.7647 0 0 -1.7647 -290.1173 -274.2362)" gradientUnits="userSpaceOnUse" id="SVGID_3__" r="15.4155">
<stop offset="0" style="stop-color:#94FF26"/>
<stop offset="0.3152" style="stop-color:#94FF26"/>
<stop offset="0.7273" style="stop-color:#1FC211"/>
<stop offset="1" style="stop-color:#0BA133"/>
</radialGradient>
<path d="M42.431,36.555l-2.388,2.391c0,0-1.443,0-1.511,0.572c-0.032,0.246-0.111,1.313-0.354,1.863  c-0.48,0.332-1.054,1.434-1.054,1.434s-0.298,2.129,1.296,1.768C40.004,44.224,44.883,37.707,42.431,36.555z" style="fill:url(#SVGID_3__);"/>
<radialGradient cx="182.1514" cy="-162.9023" gradientTransform="matrix(1.7647 0 0 -1.7647 -290.1173 -274.2362)" gradientUnits="userSpaceOnUse" id="SVGID_4__" r="17.8322">
<stop offset="0" style="stop-color:#94FF26"/>
<stop offset="0.3152" style="stop-color:#94FF26"/>
<stop offset="0.7273" style="stop-color:#1FC211"/>
<stop offset="1" style="stop-color:#0BA133"/>
</radialGradient>
<path d="M37.041,9.916c-0.392,0.148-0.66,0.25-0.66,0.25L30.48,9.037l-2.894,1.811l1.523,2.356  l-2.663,0.819l-1.435-0.819l0.504-1.431l-1.871,1.295l-0.333,2.255h-3.554l1.314,2.238l-4.996,4.073l-0.94,4.066l1.855,3.591  L18.104,30l3.914-0.799l1.43,1.228l1.299,0.127l1.414,5.53l-0.941,2.446l2.079,4.595l0.585,1.908h3.623l2.048-1.108l1.543-1.793  v-2.169l2.936-1.498v-3.213l1.16-2.208l2.59-2.329l0.619-2.7l-3.387,0.755l-0.891-1.085l0.633-1.013l-2.404-1.454l-1.025-3.687  l1.776-1.158l1.636,2.388l0.613,1.572l1.228,1.229l1.435,0.75l1.594-0.258l1.77-1.703l-1.246-2.273l-1.568,0.409L41.146,20.8  l1.349-0.94l4.23,0.512v1.505l3.681,7.585l0.837-0.669C50.746,20.045,44.965,12.704,37.041,9.916z M35.119,20.169l-1.932,0.512  h-2.573v-1.333h-2.46l-1.946,0.514l-2.966-0.821l-0.821-1.535l4.096-0.921h4.098L30,14.945h2.049l1.14,2.561l1.933,0.678v1.985  H35.119z M39.523,16.79l-3.482-0.616v-1.228l1.741-0.41l0.512-0.614l1.229,1.023L39.523,16.79L39.523,16.79z" style="fill:url(#SVGID_4__);"/>
<rect height="60" style="fill:none;" width="60"/>
<defs>
<linearGradient gradientTransform="matrix(1.7647 0 0 -1.7647 -290.1173 -274.2362)" gradientUnits="userSpaceOnUse" id="SVGID_2__" x1="181.4004" x2="181.4004" y1="-159.4634" y2="-185.5335">
<stop offset="0" style="stop-color:#31A7F8"/>
<stop offset="0.497" style="stop-color:#1E74DC"/>
<stop offset="1" style="stop-color:#C8E4EB"/>
</linearGradient>
</defs>
</g>
</svg>
