<?xml version="1.0" encoding="UTF-8" standalone="no"?>
<!-- Created with Inkscape (http://www.inkscape.org/) -->
<svg
   xmlns:dc="http://purl.org/dc/elements/1.1/"
   xmlns:cc="http://creativecommons.org/ns#"
   xmlns:rdf="http://www.w3.org/1999/02/22-rdf-syntax-ns#"
   xmlns:svg="http://www.w3.org/2000/svg"
   xmlns="http://www.w3.org/2000/svg"
   xmlns:sodipodi="http://sodipodi.sourceforge.net/DTD/sodipodi-0.dtd"
   xmlns:inkscape="http://www.inkscape.org/namespaces/inkscape"
   width="64px"
   height="64px"
   id="svg2425"
   sodipodi:version="0.32"
   inkscape:version="0.46"
   sodipodi:docname="littlecheck.svg"
   inkscape:output_extension="org.inkscape.output.svg.inkscape">
  <defs
     id="defs2427">
    <inkscape:perspective
       sodipodi:type="inkscape:persp3d"
       inkscape:vp_x="0 : 32 : 1"
       inkscape:vp_y="0 : 1000 : 0"
       inkscape:vp_z="64 : 32 : 1"
       inkscape:persp3d-origin="32 : 21.333333 : 1"
       id="perspective2433" />
  </defs>
  <sodipodi:namedview
     id="base"
     pagecolor="#ffffff"
     bordercolor="#666666"
     borderopacity="1.0"
     inkscape:pageopacity="0.0"
     inkscape:pageshadow="2"
     inkscape:zoom="5.5"
     inkscape:cx="41.434135"
     inkscape:cy="30.383938"
     inkscape:current-layer="layer1"
     showgrid="true"
     inkscape:document-units="px"
     inkscape:grid-bbox="true"
     inkscape:window-width="1680"
     inkscape:window-height="960"
     inkscape:window-x="-4"
     inkscape:window-y="-4" />
  <metadata
     id="metadata2430">
    <rdf:RDF>
      <cc:Work
         rdf:about="">
        <dc:format>image/svg+xml</dc:format>
        <dc:type
           rdf:resource="http://purl.org/dc/dcmitype/StillImage" />
      </cc:Work>
    </rdf:RDF>
  </metadata>
  <g
     id="layer1"
     inkscape:label="Layer 1"
     inkscape:groupmode="layer">
    <g
       style="opacity:1"
       id="g2392"
       inkscape:label="Taso 1"
       transform="translate(142.14286,-114.28572)">
      <path
         id="path2380"
         d="M 88.571429,669.50504 C 157.14286,706.6479 165.71429,755.21933 165.71429,755.21933 L 260,755.21933 L 377.14286,498.07647 L 297.14286,520.93361 L 220,683.79075 L 137.14286,615.21933 L 88.571429,669.50504 z"
         style="fill:none;fill-rule:evenodd;stroke:#000000;stroke-width:1px;stroke-linecap:butt;stroke-linejoin:miter;stroke-opacity:1" />
      <path
         id="path2382"
         d="M 166.13825,753.72414 C 160.59283,734.93105 150.56818,718.85592 134.09168,702.33551 C 122.39811,690.61077 109.94955,681.0295 95.667678,672.7617 C 92.528095,670.9442 90.022074,669.29624 90.098744,669.09959 C 90.391504,668.34866 136.88523,616.64733 137.26775,616.64733 C 137.48928,616.64733 156.25397,632.01906 178.96703,650.80675 L 220.26352,684.96615 L 221.01814,683.36302 C 221.43318,682.48128 238.8474,645.7167 259.71641,601.66393 L 297.66005,521.56799 L 336.5681,510.41987 C 357.96753,504.2884 375.52719,499.31453 375.58957,499.3668 C 375.65196,499.41909 349.60366,556.8017 317.70448,626.88374 L 259.70597,754.3056 L 213.01297,754.32277 C 176.07199,754.33635 166.282,754.21133 166.13824,753.72414 L 166.13825,753.72414 z"
         style="fill:#808080;stroke:none;stroke-width:1px;stroke-linecap:butt;stroke-linejoin:miter;stroke-opacity:1" />
    </g>
    <g
       style="opacity:1"
       id="g2438"
       inkscape:label="Taso 1"
       transform="matrix(0.2179694,0,0,0.244371,-19.028457,-120.49825)">
      <path
         id="path2440"
         d="M 88.571429,669.50504 C 157.14286,706.6479 165.71429,755.21933 165.71429,755.21933 L 260,755.21933 L 377.14286,498.07647 L 297.14286,520.93361 L 220,683.79075 L 137.14286,615.21933 L 88.571429,669.50504 z"
         style="fill:none;fill-rule:evenodd;stroke:#000000;stroke-width:1px;stroke-linecap:butt;stroke-linejoin:miter;stroke-opacity:1" />
      <path
         id="path2442"
         d="M 166.13825,753.72414 C 160.59283,734.93105 150.56818,718.85592 134.09168,702.33551 C 122.39811,690.61077 109.94955,681.0295 95.667678,672.7617 C 92.528095,670.9442 90.022074,669.29624 90.098744,669.09959 C 90.391504,668.34866 136.88523,616.64733 137.26775,616.64733 C 137.48928,616.64733 156.25397,632.01906 178.96703,650.80675 L 220.26352,684.96615 L 221.01814,683.36302 C 221.43318,682.48128 238.8474,645.7167 259.71641,601.66393 L 297.66005,521.56799 L 336.5681,510.41987 C 357.96753,504.2884 375.52719,499.31453 375.58957,499.3668 C 375.65196,499.41909 349.60366,556.8017 317.70448,626.88374 L 259.70597,754.3056 L 213.01297,754.32277 C 176.07199,754.33635 166.282,754.21133 166.13824,753.72414 L 166.13825,753.72414 z"
         style="fill:#808080;stroke:none;stroke-width:1px;stroke-linecap:butt;stroke-linejoin:miter;stroke-opacity:1" />
    </g>
  </g>
</svg>
