<?xml version="1.0" encoding="UTF-8"?>
<!DOCTYPE svg PUBLIC "-//W3C//DTD SVG 1.1 Tiny//EN" "http://www.w3.org/Graphics/SVG/1.1/DTD/svg11-tiny.dtd">
<svg baseProfile="tiny" xmlns="http://www.w3.org/2000/svg" xmlns:xlink="http://www.w3.org/1999/xlink" width="100%" height="100%" viewBox="0 0 88 88">
	<defs>
		<linearGradient id="linearGradient17394" x1="0%" y1="0%" x2="100%"
			y2="66.6667%" spreadMethod="pad" gradientUnits="objectBoundingBox">
			<stop id="stop17396" style="stop-opacity:1;stop-color:rgb(242,255,86)"
				offset="0"/>
			<stop id="stop17398" style="stop-opacity:1;stop-color:rgb(212,230,7)"
				offset="1"/>
		</linearGradient>
		<linearGradient id="linearGradient17400_1" x1="36.5869" y1="-20.085"
			x2="117.956" y2="59.4589" xlink:href="#linearGradient17394"
			gradientUnits="userSpaceOnUse"
			gradientTransform="matrix(0.53761 0 0 0.926099 1.6227 25.866)">
		</linearGradient>
		<linearGradient x1="36.5869" y1="-20.085" x2="117.956" y2="59.4589"
			xlink:href="#linearGradient17394" gradientUnits="userSpaceOnUse"
			gradientTransform="matrix(0.53761 0 0 0.926099 1.6227 25.866)">
		</linearGradient>
	</defs>
	<g>
		<linearGradient id="XMLID_7_" gradientUnits="userSpaceOnUse" x1="30.5986"
			y1="26.9722" x2="53.4647" y2="54.4606">
			<stop offset="0" style="stop-opacity:0;stop-color:rgb(255,128,128)"/>
			<stop offset="1" style="stop-opacity:0;stop-color:rgb(8,66,150)"/>
		</linearGradient>
		<linearGradient id="XMLID_8_" gradientUnits="userSpaceOnUse" x1="37.7549"
			y1="20.2007" x2="60.648" y2="20.2007">
			<stop offset="0" style="stop-color:rgb(0,92,254)"/>
			<stop offset="1" style="stop-color:rgb(0,92,230)"/>
		</linearGradient>
		<path
			d="M21.184 21.318 C31.419 9.612 43.98 7.844 53.009 9.984 C62.034 12.124 71.898 19.381
				72.456 31.2 C67.843 23.4 57.101 19.847 50.403 21.056 C43.972 22.217 38.445
				25.849 36.84 28.571 C31.699 30.642 23.047 27.536 21.184 21.318 z"
			 style="fill:url(#XMLID_8_)"/>
		<polygon points="59.157,31.968 66.832,43.086 78.696,41.706 70.564,31.787"
			 style="fill:rgb(255,0,0)"/>
		<radialGradient id="XMLID_10_" cx="-48.0791" cy="39.3374" r="10.3877"
			fx="-48.0791" fy="39.3374"
			gradientTransform="matrix(1.0025 0.1408 -0.2587 0.9612 82.2902 3.6922)"
			gradientUnits="userSpaceOnUse">
			<stop offset="0" style="stop-color:rgb(194,249,143)"/>
			<stop offset="1" style="stop-color:rgb(23,139,0)"/>
		</radialGradient>
		<path
			d="M31.926 40.793 C30.315 46.775 23.949 50.912 17.711 50.035 C11.472 49.159 7.714 43.602
				9.325 37.62 C10.934 31.635 17.301 27.494 23.542 28.368 C29.778 29.244 33.534
				34.808 31.926 40.793 z"
			 style="fill:url(#XMLID_10_)"/>
		<linearGradient id="XMLID_12_" gradientUnits="userSpaceOnUse" x1="37.165"
			y1="24.022" x2="59.6654" y2="24.022">
			<stop offset="0" style="stop-color:rgb(81,140,247)"/>
			<stop offset="1" style="stop-color:rgb(51,102,204)"/>
		</linearGradient>
		<path
			d="M29.906 28.778 C34.77 22.174 43.702 16.404 52.82 16.87 C61.941 17.335 70.128 24.313
				72.456 31.2 C67.245 24.313 59.706 20.871 53.194 20.965 C47.69 21.043 40.539
				24.128 36.84 28.571 C34.77 29.432 30.536 29.147 29.906 28.778 z"
			 style="fill:url(#XMLID_12_)"/>
		<path id="path19050"
			d="M40.8495 45.7047 L45.6374 42.2346 L41.7423 36.4286 L43.6873 42.0156 z"
			 style="stroke-opacity:1;stroke-miterlimit:4;stroke-linejoin:miter;stroke-linecap:butt;stroke-width:0;
			fill-rule:evenodd;fill:rgb(255,0,0)"
			transform="matrix(1 0 0 1 0 0) translate(-10.5 -11) translate(45.717 45.6311) scale(1.22417 1.22417) translate(-45.717 -45.6311) translate(40.563 41.1383) scale(0.876322 1) translate(-40.563 -41.1383) translate(46.0671 41.1383) scale(1.16936 1) translate(-46.0671 -41.1383) translate(46.0671 35.7119) scale(0.879308 0.962365) translate(-46.0671 -35.7119) translate(46.0671 46.5647) scale(1.10981 0.986965) translate(-46.0671 -46.5647) translate(40.563 41.1383) scale(0.950529 1) translate(-40.563 -41.1383)"
			/>
		<path id="path17526"
			d="M47.4959 34.1139 L42.1697 41.213 L48.3432 46.4067 L44.6166 41.0903 z"
			 style="stroke-opacity:1;stroke-miterlimit:4;stroke-linejoin:miter;stroke-linecap:butt;stroke-width:0;
			fill-rule:evenodd;fill:rgb(255,0,0)"
			transform="matrix(1 0 0 1 0 0) translate(5 -1) translate(48.5099 40.0936) scale(0.860598 1) translate(-48.5099 -40.0936) translate(41.3364 40.0936) scale(1.16198 1) translate(-41.3364 -40.0936)"
			/>
		<path id="path18288"
			d="M45.0758 39.3423 L41.8151 46.0623 L43.0468 39.5597 L40.012 34.2418 z"
			 style="stroke-opacity:1;stroke-miterlimit:4;stroke-linejoin:miter;stroke-linecap:butt;stroke-width:0;
			fill-rule:evenodd;fill:rgb(255,0,0)"
			transform="matrix(1 0 0 1 0 0) translate(-10.3333 9.83333) translate(39.1149 40.4273) scale(0.857902 1) translate(-39.1149 -40.4273) translate(46.1523 47.7134) scale(1.08282 0.908502) translate(-46.1523 -47.7134)"
			/>
		<path id="path16634"
			d="M22.0745 5.81657 L37.3876 30.5355 L27.8687 39.6137 L37.3876 49.4575 L30.9727 61.5982
				L66.2549 82.3796 L48.0447 60.0669 L56.3221 50.5512 L44.5268 40.7074 L53.6319
				28.2386 z"
			 style="fill-opacity:1;fill-rule:evenodd;stroke-linecap:butt;stroke-linejoin:miter;stroke-width:0.705606px;
			stroke:rgb(0,0,0);fill:url(#linearGradient17394)"
			transform="matrix(1 0 0 1 0 0)"/>
		<linearGradient id="XMLID_9_" gradientUnits="userSpaceOnUse" x1="49.4912"
			y1="61.1475" x2="28.1645" y2="61.1475">
			<stop offset="0" style="stop-color:rgb(0,86,228)"/>
			<stop offset="1" style="stop-color:rgb(0,67,206)"/>
		</linearGradient>
		<path
			d="M11.744 50.158 C12.907 61.196 21.379 70.149 33.682 71.877 C45.074 73.476 57.106 67.547
				64.156 58.925 L54.005 62.075 L48.376 52.774 C38.759 60.212 17.646 66.188
				11.744 50.158 z"
			 style="fill:url(#XMLID_9_)"/>
		<linearGradient id="XMLID_11_" gradientUnits="userSpaceOnUse" x1="49.1025"
			y1="59.4443" x2="20.5393" y2="59.4443">
			<stop offset="0" style="stop-color:rgb(99,147,244)"/>
			<stop offset="1" style="stop-color:rgb(72,133,254)"/>
		</linearGradient>
		<polygon points="47.515,51.789 54.005,62.075 64.156,58.925 57.456,49.496"
			 style="fill:rgb(77,136,255)"/>
		<path
			d="M54.005 62.075 C42.815 72.325 14.88 74.004 11.602 49.722 C16.285 59.661 35.918 64.892
				47.763 51.583 z"
			 style="fill:url(#XMLID_11_)"/>
		<polygon points="58.778,54.839 69.851,53.393 78.73,41.72 66.832,43.086"
			 style="fill:rgb(153,0,0)"/>
		<polygon points="58.778,54.839 51.896,44.684 59.119,31.944 67.085,43.071"
			 style="fill:rgb(255,102,153)"/>
	</g>
</svg>
