<?xml version="1.0" encoding="UTF-8" standalone="no"?>
<!DOCTYPE svg PUBLIC "-//W3C//DTD SVG 1.1 Tiny//EN" "http://www.w3.org/Graphics/SVG/1.1/DTD/svg11-tiny.dtd">
<svg xmlns="http://www.w3.org/2000/svg" xmlns:xlink="http://www.w3.org/1999/xlink" width="44" height="44" viewBox="0 0 44 44">
<rect fill="none" height="44" width="44"/>
<circle cx="16.782" cy="22.024" fill="#0360A8" r="9.291"/>
<path d="M4.518,17.73c0.18,0.019,0.272-0.093,0.379-0.323c0.119-0.258,0.648-1.375,0.735-1.551 c0.231-0.471,1.167-1.821,1.349-2.031c0.863-1.013,1.889-1.956,3.134-2.73c1.509-0.926,3.344-1.63,5.262-1.864 c0.462-0.061,1.577-0.099,1.793-0.087c0.427,0.012,1.587,0.132,1.617,0.131c0.085,0.004,0.271-0.014,0.313-0.167 c0.016-0.052-0.005-0.125-0.032-0.156c-0.004-0.004-0.012-0.015-0.014-0.02c-0.019-0.028-0.09-0.087-0.104-0.098 c-0.138-0.105-1.564-0.922-1.657-0.977c-1.035-0.593-9.261-5.346-9.288-5.362C7.279,2.08,6.6,1.943,6.048,2.021 c-0.405,0.057-0.777,0.255-1.045,0.55C4.74,2.853,4.545,3.249,4.441,3.717C4.385,3.978,4.356,4.3,4.356,4.615 c0,0.485-0.01,12.065-0.006,12.406C4.353,17.416,4.326,17.697,4.518,17.73z" fill="#0360A8"/>
<path d="M19.096,34.852c-0.078-0.121-0.215-0.131-0.438-0.109c-0.053,0-0.107,0.014-0.155,0.018 c-1.094,0.143-2.195,0.131-3.269-0.012c-1.696-0.223-3.345-0.786-4.828-1.652c-1.494-0.877-2.82-2.066-3.885-3.531 c-0.253-0.356-0.496-0.729-0.715-1.111C5.504,27.93,4.97,26.734,4.94,26.669c-0.065-0.136-0.055-0.131-0.143-0.278 c-0.042-0.06-0.091-0.101-0.154-0.117c-0.062-0.017-0.1-0.012-0.135-0.004c-0.079,0.026-0.097,0.045-0.124,0.135 c-0.005,0.029-0.009,0.113-0.017,0.193c-0.002,0.029-0.004,0.135-0.007,0.262c-0.005,0.205-0.003,0.16-0.003,0.355 c0,0.165,0,0.328,0,0.495c0,0.181,0,0.358,0,0.537c0,0.106,0,0.219,0,0.333c0,0.466,0,0.938,0.005,1.411c0,0.725,0,1.446,0,2.174 c0,1.194,0,2.388,0.003,3.58c0,1.196,0,2.392,0,3.584c0,0.034,0,0.065,0,0.103c0,1.418,0.623,2.315,1.571,2.524 c0.376,0.08,0.797,0.06,1.25-0.088c0.256-0.078,0.525-0.199,0.798-0.354c0.427-0.244,10.373-5.979,10.896-6.285 c0.016-0.004,0.068-0.045,0.122-0.097C19.067,35.061,19.154,34.964,19.096,34.852z" fill="#0360A8"/>
<path d="M26.605,30.391c-0.17-0.162-0.008-0.394,0.256-0.738c0.143-0.188,0.679-0.938,0.773-1.09 c0.336-0.537,0.648-1.09,0.912-1.662c0.123-0.264,0.232-0.531,0.326-0.807c0.456-1.345,0.786-2.753,0.786-4.181 c-0.015-1.726-0.251-3.33-0.929-5.03c-0.158-0.406-0.66-1.395-0.722-1.507c-0.223-0.418-0.538-0.869-0.884-1.364 c-0.282-0.362-0.24-0.553-0.137-0.604c0.021-0.012,0.078-0.031,0.152-0.009c0.03,0.009,0.09,0.021,0.192,0.077 c0.071,0.033,0.205,0.105,0.325,0.174c0.135,0.081,1.1,0.656,1.195,0.708c1.027,0.604,2.023,1.21,3.054,1.812 c1.036,0.596,6.225,3.678,6.251,3.693c0.722,0.426,1.178,0.953,1.373,1.472c0.143,0.379,0.154,0.779,0.031,1.16 c-0.111,0.366-0.349,0.724-0.701,1.044c-0.199,0.184-0.44,0.35-0.715,0.506c-0.422,0.242-10.662,6.021-10.969,6.189 C26.891,30.393,26.738,30.503,26.605,30.391z" fill="#0360A8"/>
<path d="M15.184,40.294c0,0.92,0.72,1.646,1.634,1.646c0.895,0,1.644-0.752,1.644-1.646 c0-0.938-0.706-1.647-1.644-1.647C15.918,38.646,15.184,39.387,15.184,40.294z M15.435,40.275c0-0.77,0.624-1.393,1.383-1.393 c0.759,0,1.382,0.637,1.382,1.424c0,0.771-0.623,1.396-1.382,1.396C16.069,41.704,15.435,41.051,15.435,40.275z" fill="#0360A8"/>
<path d="M17.127,40.645l-0.215-0.31l0.05-0.008c0.289-0.031,0.464-0.224,0.464-0.515 c0-0.293-0.201-0.441-0.592-0.441c0,0-0.479,0-0.532,0v1.816h0.301c0-0.059-0.004-0.84-0.004-0.84l0.026,0.006l0.529,0.834 c0,0,0.25,0.006,0.327,0.004C17.432,41.111,17.127,40.645,17.127,40.645z M16.592,40.145v-0.518c0.044,0,0.209,0.005,0.209,0.005 c0.241,0,0.286,0.077,0.286,0.222c0,0.071-0.027,0.295-0.366,0.295C16.721,40.148,16.624,40.145,16.592,40.145z" fill="#0360A8"/>
</svg>