<?xml version="1.0" encoding="UTF-8"?>
<!DOCTYPE svg PUBLIC "-//W3C//DTD SVG 1.1 Tiny//EN" "http://www.w3.org/Graphics/SVG/1.1/DTD/svg11-tiny.dtd">
<svg baseProfile="tiny" height="44" viewBox="0 0 44 44" width="44" xmlns="http://www.w3.org/2000/svg" xmlns:xlink="http://www.w3.org/1999/xlink">
<rect fill="none" height="44" width="44"/>
<path d="M41.659,29.844c0.031-0.087,0.043-0.177,0.019-0.264c-0.026-0.098-0.086-0.189-0.177-0.272 L29.867,19.001c-0.023-0.02-0.047-0.037-0.074-0.055c-0.005-0.003-0.009-0.007-0.016-0.01c-0.024-0.018-0.045-0.033-0.073-0.046 c0,0-0.003-0.002-0.006-0.002c-0.019-0.012-0.04-0.021-0.062-0.031c-0.005-0.003-0.01-0.006-0.014-0.008 c-0.005-0.003-0.01-0.006-0.014-0.007h-0.004c-0.031-0.015-0.064-0.028-0.099-0.038c-0.019-0.006-0.041-0.006-0.06-0.011 c-0.087-0.026-0.177-0.042-0.271-0.053c-0.041-0.002-0.076-0.009-0.116-0.01c-0.058-0.003-0.116,0.002-0.175,0.008 c-0.098,0-0.195,0-0.291,0.022l-5.439,1.181L8.11,23.209l-5.179,1.125c-0.238,0.053-0.424,0.162-0.552,0.301 c0.021,0.002,0.043,0.005,0.063,0.01C2.428,24.66,2.4,24.673,2.387,24.693C2.334,24.768,2.306,24.85,2.3,24.931 c-0.001,0.006,0,0.015,0,0.022c0,0.002,0,0.008,0,0.013c0,0.013-0.001,0.026,0,0.039l0,0c0.003,0.023,0.008,0.046,0.014,0.069 c0,0.003,0,0.006,0.002,0.01c0.006,0.017,0.012,0.036,0.021,0.054c-0.037,0.128-0.035,0.26,0.05,0.38l8.566,12.457 c0.17,0.248,0.559,0.398,0.963,0.398c0.06,0,0.116-0.018,0.176-0.024c0.358,0.091,0.771,0.142,1.192,0.075l27.823-7.514 c0,0,0.716-0.213,0.564-0.938C41.667,29.93,41.672,29.888,41.659,29.844z" fill="#666666" fill-opacity="0.2"/>
<path d="M41.5,23.102L29.867,6.472c-0.271-0.387-0.755-0.547-1.197-0.391 L3.005,15.075c-0.275,0.095-0.5,0.308-0.617,0.579c-0.12,0.274-0.12,0.584-0.002,0.857l8.566,20.095 c0.17,0.402,0.559,0.645,0.963,0.645c0.138,0,0.278-0.03,0.412-0.087l28.728-12.456c0.291-0.126,0.513-0.382,0.601-0.696 C41.739,23.701,41.683,23.367,41.5,23.102z" fill="#8A2003" stroke="#A34C2E" stroke-width="2.1197"/>
<linearGradient gradientUnits="userSpaceOnUse" id="SVGID_1" x1="21.7" x2="26.4" y1="19.74" y2="29.72">
<stop offset="0" stop-color="#F8F9FB"/>
<stop offset="0.59" stop-color="#E3EBED"/>
<stop offset="1" stop-color="#B9CDD3"/>
</linearGradient>
<path d="M41.5,22.625L29.867,5.995c-0.271-0.385-0.755-0.543-1.197-0.39L3.005,14.599 c-0.275,0.096-0.5,0.307-0.617,0.581c-0.12,0.272-0.12,0.583-0.002,0.857l8.566,20.095c0.17,0.402,0.559,0.642,0.963,0.642 c0.138,0,0.278-0.026,0.412-0.085l28.728-12.456c0.291-0.126,0.513-0.38,0.601-0.696C41.739,23.226,41.683,22.889,41.5,22.625z" fill="url(#SVGID_1)"/>
<path d="M11.011,36.504c0,0,1.107,1.123,2.273,0.828L41.107,25.21c0,0,0.798-0.371,0.545-1.675L11.011,36.504z" fill="#783126"/>
<radialGradient cx="14.93" cy="12.09" gradientUnits="userSpaceOnUse" id="SVGID_2" r="29.02">
<stop offset="0" stop-color="#D0564B"/>
<stop offset="0.59" stop-color="#C33A2F"/>
<stop offset="1" stop-color="#98110C"/>
</radialGradient>
<path d="M41.497,22.625l-11.63-16.63c-0.023-0.031-0.047-0.059-0.074-0.089 c-0.005-0.007-0.009-0.012-0.016-0.017c-0.024-0.029-0.045-0.052-0.073-0.074c0-0.001-0.003-0.002-0.006-0.004 c-0.025-0.028-0.06-0.051-0.089-0.076h-0.004c-0.031-0.023-0.064-0.044-0.099-0.06l0,0c-0.25-0.14-0.556-0.171-0.837-0.071 L23.227,7.51l-3.4,7.568l-9.326-3.106l-7.496,2.626c-0.276,0.096-0.502,0.307-0.619,0.581c-0.052,0.122-0.081,0.254-0.087,0.383l0,0 c-0.002,0.039-0.002,0.08,0,0.118c0,0.001,0,0.001,0,0.003c0.003,0.037,0.008,0.073,0.014,0.112c0,0.003,0,0.008,0.002,0.013 c0.006,0.032,0.014,0.064,0.024,0.098c0,0.009,0.002,0.015,0.003,0.02c0.013,0.038,0.026,0.077,0.042,0.111l8.566,20.095 c0.172,0.402,0.558,0.642,0.962,0.642c0.138,0,0.277-0.026,0.412-0.085l5.064-2.195L9.315,17.474l13.36,3.635l4.789-10.822 l10.242,15.394l3.346-1.45c0.294-0.126,0.516-0.38,0.6-0.696C41.736,23.226,41.681,22.889,41.497,22.625z" fill="url(#SVGID_2)"/>
<radialGradient cx="15.1" cy="16.91" gradientUnits="userSpaceOnUse" id="SVGID_3" r="23.61">
<stop offset="0" stop-color="#D0564B"/>
<stop offset="0.59" stop-color="#C33A2F"/>
<stop offset="1" stop-color="#98110C"/>
</radialGradient>
<polygon fill="url(#SVGID_3)" points="15.323,33.494 39.354,23.747 39.354,24.937 15.323,35.395 "/>
<polygon fill="url(#SVGID_2)" points="18.656,19.848 11.835,35.735 12.291,35.801 19.045,19.917 "/>
<polygon fill="url(#SVGID_2)" points="22.627,17.119 38.791,22.527 38.815,22.06 22.652,16.719 "/>
<path d="M41.5,22.625L29.867,5.995c-0.271-0.385-0.757-0.543-1.197-0.389L3.005,14.599 c-0.275,0.096-0.5,0.307-0.617,0.581c-0.12,0.273-0.12,0.583-0.004,0.857l8.568,20.095c0.17,0.402,0.559,0.642,0.963,0.642 c0.138,0,0.278-0.026,0.412-0.085l28.728-12.456c0.291-0.126,0.513-0.38,0.601-0.696C41.739,23.226,41.683,22.891,41.5,22.625z M3.114,16.57c0.005-0.335,0.088-1.548,1.034-2.007l-0.016-0.008l23.592-8.27c0.348,0.006,1.596,0.057,2.259,0.596l10.746,15.362 c0.368,0.922-0.364,1.841-0.53,2.035L13.043,36.051c-1.06,0.09-1.645-0.311-1.818-0.459L3.114,16.57z" fill="#FFFFFF" fill-opacity="0.3"/>
<linearGradient gradientUnits="userSpaceOnUse" id="SVGID_6" x1="12.82" x2="18.64" y1="22.32" y2="25.43">
<stop offset="0" stop-color="#FFFFFF"/>
<stop offset="1" stop-color="#99B5BE"/>
</linearGradient>
<polygon fill="url(#SVGID_6)" points="14.749,28.569 18.411,20.091 13.883,18.932 12.483,23.686 "/>
<linearGradient gradientUnits="userSpaceOnUse" id="SVGID_7" x1="30.35" x2="28.64" y1="14.91" y2="20.4">
<stop offset="0" stop-color="#FFFFFF"/>
<stop offset="1" stop-color="#99B5BE"/>
</linearGradient>
<polygon fill="url(#SVGID_7)" points="24.542,17.168 26.073,14.114 30.67,15.606 33.799,20.222 "/>
<linearGradient gradientUnits="userSpaceOnUse" id="SVGID_8" x1="24.26" x2="27.25" y1="23.19" y2="29.78">
<stop offset="0" stop-color="#FFFFFF"/>
<stop offset="1" stop-color="#99B5BE"/>
</linearGradient>
<polygon fill="url(#SVGID_8)" points="15.281,29.656 16.681,32.71 36.797,24.565 34.599,21.376 30.67,20.02 17.213,24.977 "/>
<path d="M29.719,5.906c-0.006-0.007-0.01-0.012-0.019-0.017c-0.021-0.029-0.044-0.052-0.071-0.074 c-0.003-0.001-0.003-0.002-0.003-0.004c-0.021-0.021-0.044-0.036-0.065-0.053c-0.002-0.003-0.005-0.006-0.008-0.009 c-0.002-0.001-0.006-0.003-0.008-0.004c-0.005-0.002-0.008-0.006-0.013-0.009H29.53c-0.028-0.023-0.062-0.044-0.101-0.06 c-0.017-0.011-0.039-0.01-0.063-0.02c-0.084-0.041-0.175-0.069-0.27-0.084c-0.038-0.005-0.074-0.015-0.11-0.017 c-0.131-0.007-0.263,0.004-0.394,0.05L23.154,7.51L8.11,12.783l-5.179,1.815c-0.238,0.086-0.424,0.263-0.552,0.483 c5.409,1.588,11.858,2.513,18.791,2.513c5.6,0,10.884-0.605,15.563-1.673l-6.942-9.926C29.769,5.964,29.747,5.937,29.719,5.906z" fill="#FFFFFF" fill-opacity="0.1"/>
</svg>
