<?xml version="1.0" encoding="UTF-8" standalone="no"?>
<!DOCTYPE svg PUBLIC "-//W3C//DTD SVG 1.1 Tiny//EN" "http://www.w3.org/Graphics/SVG/1.1/DTD/svg11-tiny.dtd">
<svg xmlns="http://www.w3.org/2000/svg" xmlns:xlink="http://www.w3.org/1999/xlink" width="88" height="88" viewBox="0 0 88 88">
<rect fill="none" height="88" width="88"/>
<polygon fill="#84A8CB" points="13.797,59.469 15.453,62.75 10.761,64.775 "/>
<polygon fill="#7BA1C7" points="62.822,60.844 67.454,57.852 79.166,59.672 74.484,64.297 "/>
<polygon fill="#7BA1C7" points="10.021,49.15 15.95,47.283 28.258,50.204 22.063,53.797 "/>
<polygon fill="#9BB8D5" points="11.714,59.057 10.761,64.775 10.021,49.15 11.435,53.034 "/>
<linearGradient id="_11" gradientUnits="userSpaceOnUse" x1="72.77" y1="62.84" x2="72.14" y2="80.04">
<stop stop-color="#97B5D3" offset="0"/>
<stop stop-color="#7EA4C9" offset="1"/>
</linearGradient>
<path d="M79.166,59.672c-2.936,9.025-9.674,13.959-13.182,16.893l8.62-13.314L79.166,59.672z" fill="url(#_11)"/>
<polygon fill="#7BA1C7" points="12.876,56.288 14.328,60.688 10.761,64.775 11.203,58 "/>
<polygon fill="#7BA1C7" points="15.25,54 23.313,51.859 18.859,56.875 13.844,55.891 "/>
<polygon fill="#84A7CB" points="22.529,52.333 28.258,50.204 24.414,53.982 18.668,56.223 "/>
<linearGradient id="_12" gradientUnits="userSpaceOnUse" x1="30.28" y1="61.64" x2="43.78" y2="69.31">
<stop stop-color="#A0BBD7" offset="0"/>
<stop stop-color="#7EA4C9" offset="1"/>
</linearGradient>
<path d="M48.67,70.793c3.58,0,6.643-0.996,8.811-2.109c-4.15,4.209-9.992,5.7-13.953,5.7 c-13.027,0-22.402-12.509-24.75-18.286l5.745-2.24C31.158,65.936,40.203,70.793,48.67,70.793z" fill="url(#_12)"/>
<polygon fill="#90B0D0" points="11,53.781 10.021,49.15 22.529,52.333 14.453,54.641 "/>
<polygon fill="#91B1D1" points="63.875,66.016 62.822,60.844 75.003,62.926 68.781,66.984 "/>
<linearGradient id="_13" gradientUnits="userSpaceOnUse" x1="22.31" y1="65.7" x2="44.83" y2="68.75">
<stop stop-color="#DDE7F1" offset="0"/>
<stop stop-color="#C2D4E5" offset="1"/>
</linearGradient>
<path d="M62.822,60.844c-2.621,6.602-9.156,13.252-19.223,13.252 c-10.282,0-19.287-7.408-24.821-17.998l-5.184-0.488C15.917,59.743,25.484,78.7,43.75,78.7c13.297,0,19.408-9.746,20.422-12.669 L62.822,60.844z" fill="url(#_13)"/>
<linearGradient id="_14" gradientUnits="userSpaceOnUse" x1="69.5" y1="70.31" x2="15.38" y2="70.31">
<stop stop-color="#A8C1DA" offset="0"/>
<stop stop-color="#98B6D4" offset="0.14"/>
<stop stop-color="#97B5D3" offset="0.67"/>
<stop stop-color="#A0BBD7" offset="1"/>
</linearGradient>
<path d="M75.003,62.926c-4.901,13.627-16.201,20.838-27.737,20.838 c-17.267,0-28.895-15-33.075-22.945l-1.535-3.959c8.831,15.174,18.64,24.109,32.393,24.109c11.688,0,20.42-6.422,23.295-14.047 L75.003,62.926z" fill="url(#_14)"/>
<path d="M10.844,53.034l4.701,1.284l-1.294,1.35c3.103,5.018,11.175,22.555,30.467,22.555 c8.979,0,16.841-6.492,19.351-12.586l4.85,0.922c-3.79,10.387-15.307,14.918-23.868,14.918c-15.613,0-25.775-12.442-32.281-24.39 l-1.644,1.968L10.844,53.034z" fill="#98B6D4"/>
<linearGradient id="_15" gradientUnits="userSpaceOnUse" x1="43.19" y1="24.29" x2="54.76" y2="58.04">
<stop stop-color="#87AACD" offset="0"/>
<stop stop-color="#9DB9D6" offset="0.17"/>
<stop stop-color="#A8C1DA" offset="0.5"/>
<stop stop-color="#A2BDD8" offset="0.76"/>
<stop stop-color="#87AACD" offset="1"/>
</linearGradient>
<path d="M58.648,44.975c0,6.789-2.688,10.896-5.711,13.146c-1.797,1.335-5.822,3.345-5.822,3.345 c12.443-9.374,5.458-34.56-12.553-34.823c3.625-0.734,5.781-1.129,7.201-1.129C51.613,25.512,58.648,36.182,58.648,44.975z" fill="url(#_15)"/>
<path d="M49.459,47.875c0,6.898-3.8,13.334-11.084,13.334c-4.325,0-14.333-5.535-14.333-18.709 c0-7.689,5.275-12.375,10.792-12.375C43.271,30.125,49.459,39.787,49.459,47.875z" fill="#98B6D4"/>
<linearGradient id="_16" gradientUnits="userSpaceOnUse" x1="47.25" y1="34.33" x2="32.25" y2="52.33">
<stop stop-color="#DDE7F1" offset="0"/>
<stop stop-color="#97B5D3" offset="1"/>
</linearGradient>
<path d="M49.25,47.875c0,6.898-3.633,12.917-10.917,12.917c-4.325,0-14.125-5.076-14.125-18.25 c0-7.689,5.109-12.125,10.625-12.125C41.978,30.417,49.25,38.554,49.25,47.875z M35.875,26.542c-6.564,0-12.75,5.983-12.75,15.625 c0,9.617,7.249,21.167,17.708,21.167c4.284,0,12.708-3.243,12.708-15.834C53.542,35.913,44.502,26.542,35.875,26.542z" fill="url(#_16)"/>
<path d="M46.318,46.104c0,4.533-2.313,6.504-4.754,6.504c-0.954-0.016-2.277-0.233-3.086-1.102 c-0.129,0.041-0.56,0.102-0.693,0.102c-3.618,0-5.7-4.024-5.7-7.065c0.001-1.983,1.022-4.791,3.8-4.798 c1.886,0,3.457,1.442,4.319,2.572c0.137,0.18,0.258,0.379,0.26,0.566c0.002,0.21,0.068,5.999,0.072,6.243 c0.002,0.221,0.644,0.26,0.713,0.262c1.188,0,2.484-1.259,2.524-3.605c0-4.724-4.501-9.12-8.524-9.083 c-3.271,0.03-5.488,3.223-5.509,7.067c-0.023,3.882,2.681,10.765,9.667,11.157c0.005,0.777,0.028,2.767,0.03,2.938 c-8.344-0.688-12.106-9.104-12.106-14.776c0.01-5.028,2.711-9.441,7.336-9.441C40.878,33.642,46.318,40.912,46.318,46.104z M38.082,43.448c-0.445-0.491-1.098-0.779-1.707-0.779c-1.438,0-1.866,1.331-1.866,2.269c0,2.203,1.426,3.826,3.068,3.826 c0.29,0,0.566-0.062,0.563-0.277C38.141,48.486,38.127,43.552,38.082,43.448z" fill="#4879AA"/>
<linearGradient id="_17" gradientUnits="userSpaceOnUse" x1="23.68" y1="31.81" x2="28.74" y2="16.09">
<stop stop-color="#97B5D3" offset="0"/>
<stop stop-color="#7EA4C9" offset="1"/>
</linearGradient>
<path d="M21.841,31.093c1.517-7.152,7.593-14.731,15.543-16.523 c-12.223-1.207-19.357,8.29-21.665,16.711c0,0,0.073,1.031,0.073,1.03L21.841,31.093z" fill="url(#_17)"/>
<linearGradient id="_18" gradientUnits="userSpaceOnUse" x1="46.98" y1="6.55" x2="62.61" y2="15.12">
<stop stop-color="#8FB0D0" offset="0"/>
<stop stop-color="#A0BBD7" offset="1"/>
</linearGradient>
<path d="M72.594,20.86C58.841,1.271,42.613,3.297,37.359,3.297 c11.892,0.92,21.475,5.828,32.032,20.813L72.594,20.86z" fill="url(#_18)"/>
<linearGradient id="_19" gradientUnits="userSpaceOnUse" x1="69.16" y1="22.16" x2="24.08" y2="17.66">
<stop stop-color="#DDE7F1" offset="0"/>
<stop stop-color="#C2D4E5" offset="1"/>
</linearGradient>
<path d="M67.594,31.625C57.518,15.184,46.482,7.656,35.022,7.656 c-12.503,0-23.295,10.224-25.272,22.031l-1.426,2.146c2.287-17.459,15.323-28.53,27.877-28.53c14.976,0,25.434,8.804,33.017,20.477 L67.594,31.625z" fill="url(#_19)"/>
<polygon fill="#85A8CC" points="76.529,16.32 68.609,35.047 61.375,33.172 54.84,36.833 73.666,39.793 78.023,37.797 80.902,15.665 "/>
<polygon fill="#7CA2C8" points="69.531,27.641 76.529,16.32 73.666,39.793 69.084,35.577 "/>
<linearGradient id="_20" gradientUnits="userSpaceOnUse" x1="12.53" y1="22" x2="64.94" y2="22">
<stop stop-color="#A8C1DA" offset="0"/>
<stop stop-color="#98B6D4" offset="0.14"/>
<stop stop-color="#97B5D3" offset="0.67"/>
<stop stop-color="#A0BBD7" offset="1"/>
</linearGradient>
<path d="M15.792,32.312c2.844-11.856,11.524-17.781,19.958-17.781 c12.076,0,18.857,7.519,25.261,17.316l4.885,1.809C58.951,22.865,49.361,10.346,35.05,10.346c-11.049,0-20.77,8.923-22.987,19.171 L15.792,32.312z" fill="url(#_20)"/>
<polygon fill="#82A6CA" points="12.422,29.234 15.792,32.312 8.325,31.834 9.578,29.063 "/>
<path d="M69.169,23.729l-1.745,6.592c-4.197-6.592-14.98-23.219-32.395-23.219 c-15.737,0-25.085,15.032-25.526,22.091l3.059,0.151c0.745-5.328,7.952-18.523,22.528-18.523c16.141,0,25.055,15.369,29.51,21.796 l-3.828-1.145l-5.933,5.361l7.396-2.13l6.961,0.985l0.897-7.997l6.437-11.371L69.169,23.729z" fill="#98B6D4"/>
</svg>