<?xml version="1.0" encoding="UTF-8" standalone="no"?>
<!DOCTYPE svg PUBLIC "-//W3C//DTD SVG 1.1 Tiny//EN" "http://www.w3.org/Graphics/SVG/1.1/DTD/svg11-tiny.dtd">
<svg xmlns="http://www.w3.org/2000/svg" xmlns:xlink="http://www.w3.org/1999/xlink" width="44" height="44" viewBox="-15.664 -15.326 44 44">
<rect fill="none" height="44" width="44" x="-15.664" y="-15.326"/>
<rect fill="#44AA33" height="27.563" width="38" x="-12.664" y="-7.107"/>
<path d="M-2.885,1.168c-4.142,0-6.321,2.842-6.321,6.89c0,4.098,1.604,7.323,6.278,7.323 c4.306,0,6.296-2.916,6.296-7.229C3.37,4.031,1.407,1.168-2.885,1.168z M-2.928,13.166c-2.208,0-2.304-3.134-2.304-5.185 c0-2,0.167-4.603,2.304-4.603c2.034,0,2.322,2.747,2.322,4.603C-0.606,10.366-0.727,13.166-2.928,13.166z" fill="#FFFFFF"/>
<path d="M8.655,15.381c1.682,0,2.275-0.844,2.676-2.069L14.952,1.36h-3.38l-2.59,10.341L6.538,1.36H2.536 l3.438,11.952C6.352,14.537,6.971,15.381,8.655,15.381z" fill="#FFFFFF"/>
<path d="M18.44-3.66c-1.246,0-2.106,0.625-2.106,1.784c0,1.157,0.884,1.782,2.106,1.782 c1.222,0,2.105-0.625,2.105-1.782C20.546-3.007,19.614-3.66,18.44-3.66z" fill="#FFFFFF"/>
<path d="M17.044,14.996c0.282,0.202,0.73,0.385,1.358,0.385c0.659,0,1.091-0.183,1.371-0.385 c0.543-0.384,0.543-1.03,0.543-1.38V1.36h-3.773c0,0-0.141,0-0.262,0c-0.364,0-0.67,0.009-0.876,0.297 c-0.102,0.134-0.246,0.375-0.246,0.812c0,0.453,0.145,0.673,0.246,0.81c0.206,0.291,0.512,0.293,0.876,0.293 c0.121,0,0.225-0.002,0.225-0.002v10.047C16.506,13.966,16.506,14.612,17.044,14.996z" fill="#FFFFFF"/>
<path d="M-2.928,3.382c-2.137,0-2.304,2.603-2.304,4.601c0,2.053,0.096,5.184,2.304,5.184 c2.202,0,2.322-2.8,2.322-5.184C-0.606,6.129-0.892,3.382-2.928,3.382z" fill="#44A51C"/>
</svg>