<?xml version="1.0" encoding="UTF-8" standalone="no"?>
<!DOCTYPE svg PUBLIC "-//W3C//DTD SVG 1.1 Tiny//EN" "http://www.w3.org/Graphics/SVG/1.1/DTD/svg11-tiny.dtd">
<svg xmlns="http://www.w3.org/2000/svg" xmlns:xlink="http://www.w3.org/1999/xlink" baseProfile="tiny" height="44px" version="1.1" viewBox="0 0 44 44" width="44px" x="0px" y="0px">
<radialGradient cx="16.6729" cy="32.6836" gradientTransform="matrix(1 0 0 0.1855 0 26.6218)" gradientUnits="userSpaceOnUse" id="SVGID_1_" r="12.1104">
<stop offset="0" style="stop-color:#636466"/>
<stop offset="0.4817" style="stop-color:#636466"/>
<stop offset="1" style="stop-color:#636466;stop-opacity:0"/>
</radialGradient>
<path d="M16.757,35.012c-7.248,0-12.307-1.365-12.307-2.553s5.06-1.479,12.307-1.479  c7.246,0.002,12.306,0.291,12.306,1.479S24.003,35.012,16.757,35.012z" fill="url(#SVGID_1_)"/>
<radialGradient cx="36.9902" cy="32.4746" gradientTransform="matrix(1 0 0 0.2569 0 24.1333)" gradientUnits="userSpaceOnUse" id="SVGID_2_" r="4.0342">
<stop offset="0" style="stop-color:#636466"/>
<stop offset="0.3636" style="stop-color:#636466"/>
<stop offset="1" style="stop-color:#636466;stop-opacity:0"/>
</radialGradient>
<path d="M37.045,31.314c1.98,0.074,3.793,0.375,3.979,1.062c0,0.702-1.664,1.167-3.906,1.108  c-2.961,0-4.122-0.41-4.159-1.053C32.906,31.643,34.661,31.229,37.045,31.314z" fill="url(#SVGID_2_)"/>
<linearGradient gradientTransform="matrix(1 0 0 1 -144.0156 -532.127)" gradientUnits="userSpaceOnUse" id="SVGID_3_" x1="160.8359" x2="160.8359" y1="542.251" y2="562.5588">
<stop offset="0" style="stop-color:#88449A"/>
<stop offset="0.231" style="stop-color:#824094"/>
<stop offset="0.5333" style="stop-color:#723684"/>
<stop offset="0.8737" style="stop-color:#582569"/>
<stop offset="1" style="stop-color:#4C1E5D"/>
</linearGradient>
<path d="M16.821,33.165c-9.292,0-15.779-4.858-15.779-11.826c0-6.957,6.487-11.819,15.779-11.819  c9.289,0,15.777,4.862,15.777,11.819C32.6,28.305,26.109,33.165,16.821,33.165z" fill="url(#SVGID_3_)"/>
<linearGradient gradientTransform="matrix(1 0 0 1 -144.0156 -532.127)" gradientUnits="userSpaceOnUse" id="SVGID_4_" x1="180.7793" x2="180.7793" y1="541.584" y2="566.3591">
<stop offset="0" style="stop-color:#88449A"/>
<stop offset="0.2697" style="stop-color:#844296"/>
<stop offset="0.517" style="stop-color:#7A3B8B"/>
<stop offset="0.7554" style="stop-color:#672F79"/>
<stop offset="0.9871" style="stop-color:#4E1F5F"/>
<stop offset="1" style="stop-color:#4C1E5D"/>
</linearGradient>
<polygon fill="url(#SVGID_4_)" points="38.678,32.711 34.385,32.184 34.85,28.375 39.143,28.902 "/>
<linearGradient gradientTransform="matrix(1 0 0 1 -144.0156 -532.127)" gradientUnits="userSpaceOnUse" id="SVGID_5_" x1="183.3213" x2="183.3213" y1="541.585" y2="566.3589">
<stop offset="0" style="stop-color:#88449A"/>
<stop offset="0.231" style="stop-color:#824094"/>
<stop offset="0.5333" style="stop-color:#723684"/>
<stop offset="0.8737" style="stop-color:#582569"/>
<stop offset="1" style="stop-color:#4C1E5D"/>
</linearGradient>
<polygon fill="url(#SVGID_5_)" points="35.654,8.989 35.68,25.984 38.83,26.366 42.957,9.911 "/>
<path d="M26.029,18.421c-0.348,0.036-1.766,0.354-2.242,0.456c-0.51,0.134-5.184,3.747-5.49,4.635  c-0.07,0.307-0.103,0.775-0.103,1.221l-0.036,0.715c0,0.516,0.143,1.335,0.211,1.779c0.304,0.067,2.529,0.008,2.94,0.076  l-0.051,0.916c-0.401-0.027-3.223-0.019-4.836-0.019c-0.821,0-3.452,0.089-4.259,0.062l0.151-0.869  c0.445-0.033,2.278,0.078,2.684-0.348c0.201-0.211,0.135-0.436,0.135-1.666V24.8c0-0.276,0-0.786-0.066-1.263  c-0.172-0.512-4.286-5.651-5.346-6.471c-0.306-0.101-2.229-0.291-2.708-0.394L6.99,15.885c0.241-0.118,2.377,0.031,4.455-0.048  c1.363-0.053,4.479,0,4.862,0.045l-0.098,0.691c-0.412,0.107-2.38,0.144-2.894,0.281c1.329,1.976,3.436,4.522,4.116,5.513  c0.377-0.548,3.674-2.815,3.778-3.602C20.695,18.663,19,18.42,18.73,18.42l-0.166-0.893c0.465-0.072,2.909,0,4.122,0  c1.047,0,3.285,0,3.924,0.053L26.029,18.421z" fill="#FFFFFF"/>
<polygon fill="#DCBCDA" fill-opacity="0.5" points="36.04,11.116 36.09,9.583 42.396,10.301 41.98,11.645   41.928,11.07 36.296,10.396 " stroke-opacity="0.5"/>
<path d="M30.77,16.643c-2.438-3.875-7.81-6.567-14.048-6.567  c-6.238,0-11.613,2.692-14.05,6.567c3.298-2.664,8.366-4.371,14.05-4.371C22.404,12.272,27.473,13.979,30.77,16.643z" fill="#DCBCDA" fill-opacity="0.5" stroke-opacity="0.5"/>
<rect fill="none" height="44" width="44"/>
</svg>