<?xml version="1.0" encoding="UTF-8"?>
<!DOCTYPE svg PUBLIC "-//W3C//DTD SVG 1.1 Tiny//EN" "http://www.w3.org/Graphics/SVG/1.1/DTD/svg11-tiny.dtd">
<svg baseProfile="tiny" height="16px" version="1.1" viewBox="0 0 16 16" width="16px" x="0px" xmlns="http://www.w3.org/2000/svg" xmlns:xlink="http://www.w3.org/1999/xlink" y="0px">
<polygon fill="none" points="16,16 0.008,16 0,0 15.992,0 "/>
<path d="M5,0C3.897,0,3,0.896,3,2v11c0,1.104,0.897,2,2,2h6  c1.104,0,2-0.896,2-2V2c0-1.104-0.896-2-2-2H5z" fill="#030303" fill-opacity="0.7" stroke-opacity="0.7"/>
<linearGradient gradientTransform="matrix(1 0 0 -1 0.1377 14.834)" gradientUnits="userSpaceOnUse" id="SVGID_1_" x1="7.8623" x2="7.8623" y1="15.2266" y2="-1.9516">
<stop offset="0" style="stop-color:#3687FF"/>
<stop offset="1" style="stop-color:#051F7D"/>
</linearGradient>
<path d="M5,1C4.448,1,4,1.447,4,2v11c0,0.553,0.448,1,1,1h6c0.553,0,1-0.447,1-1V2c0-0.553-0.447-1-1-1H5z" fill="url(#SVGID_1_)"/>
<linearGradient gradientTransform="matrix(1 0 0 -1 0.1377 14.834)" gradientUnits="userSpaceOnUse" id="SVGID_2_" x1="7.8623" x2="7.8623" y1="15.9453" y2="-0.4995">
<stop offset="0" style="stop-color:#F2F2F2"/>
<stop offset="0.1364" style="stop-color:#E4EDF0"/>
<stop offset="0.3929" style="stop-color:#C0DFEB"/>
<stop offset="0.7391" style="stop-color:#86C8E3"/>
<stop offset="0.9945" style="stop-color:#57B6DD"/>
<stop offset="1" style="stop-color:#57B6DD"/>
</linearGradient>
<rect fill="url(#SVGID_2_)" height="8" width="6" x="5" y="2"/>
<linearGradient gradientTransform="matrix(1 0 0 -1 0.1377 14.834)" gradientUnits="userSpaceOnUse" id="SVGID_3_" x1="7.8623" x2="7.8623" y1="3.8335" y2="1.8335">
<stop offset="0" style="stop-color:#FFFFFF"/>
<stop offset="1" style="stop-color:#B2B2B2"/>
</linearGradient>
<rect fill="url(#SVGID_3_)" height="2" width="2" x="7" y="11"/>
</svg>
