<?xml version="1.0" encoding="UTF-8"?>
<!DOCTYPE svg PUBLIC "-//W3C//DTD SVG 1.1 Tiny//EN" "http://www.w3.org/Graphics/SVG/1.1/DTD/svg11-tiny.dtd">
<svg baseProfile="tiny" height="16px" version="1.1" viewBox="0 0 16 16" width="16px" x="0px" xmlns="http://www.w3.org/2000/svg" xmlns:xlink="http://www.w3.org/1999/xlink" y="0px">
<path d="M16,4h-4V3H2.769C1.24,3,0,5.239,0,8c0,2.762,1.24,5,2.769,5H12  v-1h4V4z" fill="#030303" fill-opacity="0.7" stroke-opacity="0.7"/>
<linearGradient gradientTransform="matrix(1 0 0 -1 0.1377 14.834)" gradientUnits="userSpaceOnUse" id="SVGID_1_" x1="13.8613" x2="13.8613" y1="9.834" y2="5.9063">
<stop offset="0" style="stop-color:#FFFFFF"/>
<stop offset="1" style="stop-color:#B2B2C9"/>
</linearGradient>
<rect fill="url(#SVGID_1_)" height="2" width="2" x="13" y="5"/>
<linearGradient gradientTransform="matrix(1 0 0 -1 0.1377 14.834)" gradientUnits="userSpaceOnUse" id="SVGID_2_" x1="13.8613" x2="13.8613" y1="5.8335" y2="1.9049">
<stop offset="0" style="stop-color:#FFFFFF"/>
<stop offset="1" style="stop-color:#B2B2C9"/>
</linearGradient>
<rect fill="url(#SVGID_2_)" height="2" width="2" x="13" y="9"/>
<linearGradient gradientTransform="matrix(1 0 0 -1 0.1377 14.834)" gradientUnits="userSpaceOnUse" id="SVGID_3_" x1="5.8623" x2="5.8623" y1="10.834" y2="-4.8804">
<stop offset="0" style="stop-color:#FFFFFF"/>
<stop offset="1" style="stop-color:#B2B2C9"/>
</linearGradient>
<path d="M2.818,4C1.959,4,1,5.71,1,8c0,2.289,0.959,4,1.818,4H11V4H2.818z" fill="url(#SVGID_3_)"/>
<linearGradient gradientTransform="matrix(1 0 0 -1 0.1377 14.834)" gradientUnits="userSpaceOnUse" id="SVGID_4_" x1="5.7031" x2="5.7031" y1="9.6699" y2="3.834">
<stop offset="0" style="stop-color:#5487E3"/>
<stop offset="1" style="stop-color:#051F7D"/>
</linearGradient>
<path d="M8.445,8.869V8.376H5.513l1.219,1.836h0.517V9.854H8.45V11H7.249v-0.252h-0.65L4.856,8.376h-1.33  c-0.097,0.369-0.396,0.64-0.747,0.64C2.348,9.016,2,8.616,2,8.122C2,7.63,2.348,7.229,2.777,7.229c0.347,0,0.638,0.256,0.741,0.609  h0.599l1.582-2.275l0.96-0.015C6.757,5.32,6.961,5.165,7.194,5.165c0.501,0,0.702,0.309,0.702,0.688  c0,0.381-0.189,0.688-0.702,0.689c-0.26,0-0.48-0.194-0.564-0.459H6.027l-1.25,1.754h3.667V7.226l1.238,0.823L8.445,8.869z" fill="url(#SVGID_4_)"/>
<rect fill="none" height="16" width="16"/>
</svg>
