<?xml version="1.0" encoding="utf-8"?>
<!-- Generator: Adobe Illustrator 13.0.2, SVG Export Plug-In . SVG Version: 6.00 Build 14948)  -->
<!DOCTYPE svg [
	<!ENTITY ns_flows "http://ns.adobe.com/Flows/1.0/">
	<!ENTITY ns_extend "http://ns.adobe.com/Extensibility/1.0/">
	<!ENTITY ns_ai "http://ns.adobe.com/AdobeIllustrator/10.0/">
	<!ENTITY ns_graphs "http://ns.adobe.com/Graphs/1.0/">
]>
<svg version="1.2" baseProfile="tiny" id="Layer_1" xmlns:x="&ns_extend;" xmlns:i="&ns_ai;" xmlns:graph="&ns_graphs;"
	 xmlns="http://www.w3.org/2000/svg" xmlns:xlink="http://www.w3.org/1999/xlink" xmlns:a="http://ns.adobe.com/AdobeSVGViewerExtensions/3.0/"
	 x="0px" y="0px" width="88px" height="72px" viewBox="0 0 88 72" xml:space="preserve">
<path fill="#0066CC" d="M78.046,61.925c0,3.808-3.084,6.892-6.89,6.892H18.724c-3.805,0-6.889-3.084-6.889-6.892V9.491
	c0-3.805,3.084-6.889,6.889-6.889h52.434c3.807,0,6.891,3.084,6.891,6.889v52.434H78.046z"/>
<path fill="#FFFFFF" d="M54.366,9.872c1.655,1.371,5.118,4.253,5.118,9.734c0,5.334-3.027,7.858-6.057,10.237
	c-0.938,0.938-2.021,1.948-2.021,3.533c0,1.586,1.083,2.452,1.875,3.101l2.597,2.019c3.172,2.667,6.057,5.12,6.057,10.095
	c0,6.777-6.563,13.627-18.962,13.627c-10.453,0-15.502-4.976-15.502-10.311c0-2.597,1.299-6.273,5.555-8.8
	c4.469-2.736,10.525-3.098,13.769-3.313c-1.01-1.299-2.163-2.669-2.163-4.902c0-1.226,0.361-1.947,0.724-2.812
	c-0.793,0.069-1.586,0.146-2.31,0.146c-7.642,0-11.967-5.699-11.967-11.322c0-3.314,1.514-6.994,4.614-9.66
	c4.108-3.389,9.013-3.965,12.903-3.965h14.854l-4.614,2.595L54.366,9.872L54.366,9.872z M49.247,41.884
	c-0.577-0.071-0.938-0.071-1.656-0.071c-0.647,0-4.545,0.146-7.572,1.154c-1.586,0.576-6.199,2.307-6.199,7.428
	c0,5.115,4.975,8.793,12.688,8.793c6.924,0,10.602-3.314,10.602-7.783C57.104,47.725,54.729,45.777,49.247,41.884z M51.339,28.187
	c1.656-1.66,1.804-3.967,1.804-5.265c0-5.19-3.103-13.266-9.086-13.266c-1.873,0-3.893,0.938-5.047,2.381
	c-1.225,1.514-1.586,3.459-1.586,5.333c0,4.83,2.812,12.835,9.013,12.835C48.236,30.205,50.184,29.34,51.339,28.187z"/>
</svg>
