<?xml version="1.0" encoding="utf-8"?>
<!-- Generator: Adobe Illustrator 14.0.0, SVG Export Plug-In . SVG Version: 6.00 Build 43363)  -->
<!DOCTYPE svg PUBLIC "-//W3C//DTD SVG 1.1//EN" "http://www.w3.org/Graphics/SVG/1.1/DTD/svg11.dtd">
<svg version="1.1" id="Layer_1" xmlns="http://www.w3.org/2000/svg" xmlns:xlink="http://www.w3.org/1999/xlink" x="0px" y="0px"
	 width="88px" height="88px" viewBox="0 0 88 88" enable-background="new 0 0 88 88" xml:space="preserve">
<path fill="#FFFFFF" stroke="#BCBEC0" stroke-width="2" d="M83.223,43.183c0.264,0.461,0.264,1.214,0,1.678L61.998,81.624
	c-0.27,0.462-0.918,0.836-1.455,0.836H4.947c-0.534,0-0.969-0.434-0.969-0.968l0-74.94c0-0.533,0.436-0.969,0.97-0.969h55.596
	c0.537,0,1.186,0.377,1.455,0.839L83.223,43.183z"/>
<path fill="#ED1C24" d="M42.917,17.242h-8.12c-7.973,0-14.736,6.071-14.736,17.854c0,7.071,3.275,12.28,9.111,14.855L18.284,69.657
	c-0.356,0.65,0,1.144,0.567,1.144h5.056c0.425,0,0.709-0.143,0.852-0.493l9.898-19.357h3.561v19.357
	c0,0.211,0.213,0.493,0.493,0.493h4.414c0.428,0,0.574-0.211,0.574-0.569V17.958C43.699,17.457,43.412,17.242,42.917,17.242z
	 M38.218,46.381h-2.992c-4.703,0-9.253-3.427-9.253-11.999c0-8.927,4.267-12.571,8.611-12.571h3.634V46.381z"/>
</svg>
