<?xml version="1.0" encoding="UTF-8"?>
<!DOCTYPE svg PUBLIC "-//W3C//DTD SVG 1.1 Tiny//EN" "http://www.w3.org/Graphics/SVG/1.1/DTD/svg11-tiny.dtd">
<svg baseProfile="tiny" height="57px" version="1.1" viewBox="0 0 67 57" width="67px" x="0px" xmlns="http://www.w3.org/2000/svg" xmlns:xlink="http://www.w3.org/1999/xlink" y="0px">
<path d="M63.977,26.966c0.079-1.848-0.215-3.706-0.903-5.479c-1.959-5.042-6.597-8.367-11.943-8.646  c-0.548-1.742-2.165-3.016-4.086-3.016H9.106c-2.369,0-4.296,1.927-4.296,4.296V40.49c0,2.369,1.927,4.296,4.296,4.296h2.296V44.9  c0,1.158,0.941,2.1,2.099,2.1h29.665c1.157,0,2.099-0.941,2.099-2.1v-0.114h1.779c2.208,0,4.031-1.674,4.27-3.819  c1.369-0.092,2.717-0.392,4.012-0.895c3.379-1.313,6.046-3.865,7.512-7.191C63.672,30.986,64.042,28.973,63.977,26.966z" fill-opacity="0.15" stroke-opacity="0.15"/>
<path d="M62.606,22.666c-1.911-4.92-6.472-8.151-11.767-8.341v-0.204c0-2.093-1.703-3.796-3.796-3.796H9.106  c-2.093,0-3.796,1.703-3.796,3.796V40.49c0,2.094,1.703,3.796,3.796,3.796h2.796V44.9c0,0.883,0.717,1.6,1.599,1.6h29.665  c0.882,0,1.599-0.717,1.599-1.6v-0.614h2.279c2.093,0,3.796-1.702,3.796-3.796c1.471-0.049,2.917-0.346,4.305-0.884  c3.254-1.264,5.823-3.724,7.234-6.927S63.871,25.921,62.606,22.666z M50.874,28.611c-0.012,0.005-0.022,0.01-0.034,0.014v-2.439  c0.349,0.122,0.632,0.391,0.772,0.752C51.87,27.602,51.538,28.354,50.874,28.611z" fill-opacity="0.15" stroke-opacity="0.15"/>
<path d="M62.141,22.848c-1.896-4.881-56.33,16.535-56.33,16.535v1.107c0,1.82,1.475,3.296,3.296,3.296h3.296V44.9  c0,0.604,0.495,1.1,1.099,1.1h29.665c0.604,0,1.099-0.495,1.099-1.1v-1.114h2.779c1.819,0,3.296-1.476,3.296-3.296v-0.495  c0.023,0,0.045,0.003,0.068,0.003c0.001,0,0.001,0,0.001,0c1.558,0,3.09-0.289,4.555-0.857  C61.434,36.627,64.654,29.318,62.141,22.848z M50.406,29.2c-0.023,0-0.044-0.009-0.066-0.01v-3.573c0.022,0,0.044-0.006,0.066-0.006  c0.745,0,1.402,0.449,1.672,1.145c0.357,0.922-0.102,1.964-1.023,2.322C50.846,29.159,50.628,29.2,50.406,29.2z" fill-opacity="0.4" stroke-opacity="0.4"/>
<linearGradient gradientUnits="userSpaceOnUse" id="SVGID_1_" x1="51.7969" x2="58.3651" y1="25.7554" y2="22.6821">
<stop offset="0" style="stop-color:#FFFFFF"/>
<stop offset="0.5401" style="stop-color:#B3B3B3"/>
<stop offset="1" style="stop-color:#FFFFFF"/>
</linearGradient>
<path d="M61.544,22.079c-2.391-6.15-9.313-9.199-15.464-6.81c-6.151,2.389-9.2,9.312-6.812,15.462  c2.389,6.151,9.313,9.2,15.463,6.812C60.883,35.154,63.933,28.23,61.544,22.079z M51.567,29.395c-1.65,0.642-3.51-0.178-4.15-1.828  c-0.642-1.65,0.178-3.508,1.828-4.149c1.651-0.642,3.509,0.178,4.149,1.827C54.037,26.895,53.218,28.754,51.567,29.395z" fill="url(#SVGID_1_)"/>
<path d="M49.551,13.843c0.283-0.02,0.568-0.029,0.854-0.029c5.233,0,9.841,3.153,11.736,8.034  c2.514,6.471-0.707,13.779-7.177,16.293c-1.465,0.568-2.997,0.857-4.555,0.857c0,0,0,0-0.001,0c-0.373,0-0.742-0.017-1.108-0.049  L49.551,13.843z M50.404,24.295c-0.26,0-2.387,1.791-1.966,2.875c0.318,0.818,1.091,1.347,1.968,1.347  c0.261,0,0.518-0.048,0.764-0.144c0.526-0.205,0.94-0.602,1.168-1.117c0.227-0.516,0.239-1.088,0.035-1.614  C52.055,24.823,51.282,24.295,50.404,24.295L50.404,24.295z" fill="#F2F2F2"/>
<path d="M49.883,38.176c1.586,0.07,3.212-0.18,4.787-0.791c6.063-2.355,9.07-9.181,6.716-15.243  c-1.888-4.86-6.646-7.756-11.581-7.503L49.883,38.176z M51.551,29.352c-1.628,0.633-3.459-0.174-4.092-1.801  c-0.632-1.627,0.176-3.459,1.803-4.092c1.627-0.631,3.458,0.176,4.091,1.802C53.985,26.889,53.179,28.721,51.551,29.352z" fill="url(#SVGID_2_)"/>
<linearGradient gradientUnits="userSpaceOnUse" id="SVGID_3_" x1="45.5869" x2="54.5387" y1="20.1924" y2="31.7645">
<stop offset="0" style="stop-color:#FFFFFF"/>
<stop offset="0.546" style="stop-color:#B2B2B2"/>
<stop offset="1" style="stop-color:#FFFFFF"/>
</linearGradient>
<path d="M50.402,15.176c-6.208,0-11.24,5.033-11.24,11.241s5.032,11.241,11.24,11.241  s11.24-5.033,11.24-11.241S56.61,15.176,50.402,15.176z M51.135,28.282c-1.035,0.402-2.201-0.112-2.604-1.147  c-0.403-1.036,0.111-2.202,1.147-2.605c1.035-0.402,2.202,0.112,2.604,1.148C52.686,26.713,52.171,27.879,51.135,28.282z" fill="url(#SVGID_3_)"/>
<linearGradient gradientUnits="userSpaceOnUse" id="SVGID_4_" x1="57.3125" x2="57.6039" y1="29.4717" y2="26.0613">
<stop offset="0" style="stop-color:#EEE3B1;stop-opacity:0.5918"/>
<stop offset="1" style="stop-color:#D8A9A9;stop-opacity:0.57"/>
</linearGradient>
<path d="M61.643,26.417c0-0.136-0.005-0.269-0.011-0.401l-8.021,0.289c0.027,0.516-0.106,0.985-0.253,1.334  l7.539,2.805C61.377,29.193,61.643,27.836,61.643,26.417z" fill="url(#SVGID_4_)"/>
<linearGradient gradientUnits="userSpaceOnUse" id="SVGID_5_" x1="55.5752" x2="58.5098" y1="31.2334" y2="28.1805">
<stop offset="0" style="stop-color:#B7B4E6;stop-opacity:0"/>
<stop offset="0.1879" style="stop-color:#B7B4E6;stop-opacity:0.5"/>
<stop offset="0.4036" style="stop-color:#BAEABA;stop-opacity:0.75"/>
<stop offset="0.9036" style="stop-color:#BAEABA;stop-opacity:0.247"/>
<stop offset="1" style="stop-color:#BAEABA;stop-opacity:0"/>
</linearGradient>
<path d="M61.069,29.961l-7.635-2.525c-0.135,0.378-0.302,0.658-0.37,0.763l5.303,6.149  C59.582,33.129,60.515,31.632,61.069,29.961z" fill="url(#SVGID_5_)"/>
<path d="M53.827,25.077c-0.734-1.89-2.86-2.827-4.75-2.093s-2.826,2.86-2.093,4.75s2.861,2.827,4.75,2.093  C53.625,29.094,54.562,26.967,53.827,25.077z M51.485,29.182c-1.533,0.596-3.259-0.166-3.854-1.697  c-0.596-1.533,0.166-3.26,1.697-3.855c1.534-0.595,3.259,0.166,3.854,1.699C53.778,26.859,53.018,28.586,51.485,29.182z" fill="url(#SVGID_6_)"/>
<path d="M53.282,25.289c-0.617-1.59-2.405-2.377-3.993-1.76c-1.589,0.617-2.377,2.405-1.76,3.994  c0.617,1.588,2.405,2.376,3.994,1.759S53.899,26.877,53.282,25.289z M51.055,28.078c-0.209,0.081-0.427,0.122-0.648,0.122  c-0.746,0-1.402-0.449-1.672-1.145c-0.174-0.446,0.575-2.148,1.021-2.321c0.21-0.082,0.429-0.123,0.65-0.123  c0.745,0,1.402,0.449,1.672,1.145C52.436,26.678,51.977,27.72,51.055,28.078z" fill="url(#SVGID_7_)"/>
<linearGradient gradientTransform="matrix(-0.0913 -0.2351 0.2351 -0.0913 -494.9365 2956.155)" gradientUnits="userSpaceOnUse" id="SVGID_8_" x1="10037.0195" x2="10053.5957" y1="6220.8838" y2="6220.8838">
<stop offset="0" style="stop-color:#FFFFFF"/>
<stop offset="0.5401" style="stop-color:#B3B3B3"/>
<stop offset="1" style="stop-color:#FFFFFF"/>
</linearGradient>
<path d="M53.527,25.193c-0.67-1.724-2.61-2.578-4.334-1.908c-1.724,0.669-2.577,2.609-1.909,4.332  c0.67,1.725,2.61,2.578,4.334,1.91C53.342,28.857,54.196,26.917,53.527,25.193z M51.417,29.01c-1.438,0.559-3.057-0.154-3.615-1.592  c-0.559-1.439,0.154-3.059,1.593-3.616c1.438-0.56,3.058,0.154,3.616,1.593C53.568,26.833,52.855,28.451,51.417,29.01z" fill="url(#SVGID_8_)"/>
<path d="M49.756,24.734c0.21-0.082,0.429-0.123,0.65-0.123c0.581,0,1.102,0.279,1.434,0.729V13.902  c-0.473-0.053-2.006-0.079-2.289-0.06l0.08,25.132c0.258,0.016,1.734-0.014,2.209-0.068V27.475  c-0.194,0.262-0.459,0.477-0.785,0.604c-0.209,0.081-0.427,0.122-0.648,0.122c-0.187,0-0.367-0.028-0.539-0.081L49.756,24.734z" fill-opacity="0.1" stroke-opacity="0.1"/>
<path d="M49.756,24.734c0.21-0.082,0.429-0.123,0.65-0.123c0.341,0,0.658,0.104,0.934,0.272V13.849  c-0.31-0.022-1.282-0.032-1.455-0.024l-0.254,25.15c0.258,0.016,1.399,0.003,1.709-0.021V27.933  c-0.09,0.056-0.184,0.106-0.285,0.146c-0.209,0.081-0.427,0.122-0.648,0.122c-0.186,0-0.365-0.028-0.534-0.08L49.756,24.734z" fill-opacity="0.1" stroke-opacity="0.1"/>
<path d="M49.799,38.982c0.202,0.01,0.897,0,1.041-0.005V28.14c-0.143,0.036-0.286,0.061-0.434,0.061  c-0.186,0-0.365-0.028-0.534-0.08c-0.514-0.157-0.935-0.542-1.138-1.064c-0.174-0.446-0.163-0.935,0.03-1.373  c0.192-0.438,0.545-0.775,0.991-0.948c0.099-0.039,0.199-0.068,0.302-0.089c0.114-0.022,0.231-0.034,0.349-0.034  c0.15,0,0.293,0.03,0.434,0.065V13.83c-0.146-0.005-0.782-0.014-0.955-0.006L49.799,38.982z" fill-opacity="0.3" stroke-opacity="0.3"/>
<linearGradient gradientUnits="userSpaceOnUse" id="SVGID_9_" x1="28.0747" x2="28.0747" y1="1.3354" y2="49.4483">
<stop offset="0" style="stop-color:#E6E6E6"/>
<stop offset="1" style="stop-color:#808080"/>
</linearGradient>
<path d="M50.34,39.49c0,1.82-1.477,3.296-3.296,3.296H9.106c-1.821,0-3.296-1.476-3.296-3.296V13.121  c0-1.821,1.475-3.296,3.296-3.296h37.938c1.819,0,3.296,1.475,3.296,3.296V39.49z" fill="url(#SVGID_9_)"/>
<linearGradient gradientUnits="userSpaceOnUse" id="SVGID_10_" x1="5.7827" x2="7.8687" y1="26.3057" y2="26.3057">
<stop offset="0" style="stop-color:#000000"/>
<stop offset="1" style="stop-color:#000000;stop-opacity:0"/>
</linearGradient>
<path d="M9.106,9.825c-1.821,0-3.296,1.475-3.296,3.296V39.49c0,1.82,1.475,3.296,3.296,3.296  V9.825z" fill="url(#SVGID_10_)" fill-opacity="0.2" stroke-opacity="0.2"/>
<linearGradient gradientUnits="userSpaceOnUse" id="SVGID_11_" x1="48.4219" x2="50.5078" y1="26.3057" y2="26.3057">
<stop offset="0" style="stop-color:#000000;stop-opacity:0"/>
<stop offset="1" style="stop-color:#000000"/>
</linearGradient>
<path d="M47.044,9.825v32.961c1.819,0,3.296-1.476,3.296-3.296V13.121  C50.34,11.3,48.863,9.825,47.044,9.825z" fill="url(#SVGID_11_)" fill-opacity="0.2" stroke-opacity="0.2"/>
<linearGradient gradientTransform="matrix(0 1 -1 0 709.498 -875.5039)" gradientUnits="userSpaceOnUse" id="SVGID_12_" x1="885.5039" x2="887.4564" y1="681.4229" y2="681.4229">
<stop offset="0" style="stop-color:#000000"/>
<stop offset="1" style="stop-color:#000000;stop-opacity:0"/>
</linearGradient>
<path d="M50.34,13.121c0-1.821-1.475-3.296-3.296-3.296H9.106  c-1.819,0-3.296,1.475-3.296,3.296H50.34z" fill="url(#SVGID_12_)" fill-opacity="0.2" stroke-opacity="0.2"/>
<linearGradient gradientUnits="userSpaceOnUse" id="SVGID_13_" x1="28.0747" x2="28.0747" y1="8.6724" y2="28.815">
<stop offset="0" style="stop-color:#FFFFFF"/>
<stop offset="1" style="stop-color:#FFFFFF;stop-opacity:0"/>
</linearGradient>
<path d="M49.34,21.205v-8.084c0-1.266-1.03-2.296-2.296-2.296H9.106  c-1.266,0-2.296,1.03-2.296,2.296v17.393C13.689,26.037,36.434,22.624,49.34,21.205z" fill="url(#SVGID_13_)" fill-opacity="0.2" stroke-opacity="0.2"/>
<linearGradient gradientUnits="userSpaceOnUse" id="SVGID_14_" x1="28.0435" x2="28.0435" y1="42.6533" y2="39.7841">
<stop offset="0" style="stop-color:#FFFFFF"/>
<stop offset="1" style="stop-color:#FFFFFF;stop-opacity:0"/>
</linearGradient>
<path d="M48.11,40.039c0,0.91-0.738,1.648-1.648,1.648H9.624  c-0.912,0-1.648-0.738-1.648-1.648l0,0c0-0.909,0.736-1.647,1.648-1.647h36.838C47.372,38.392,48.11,39.13,48.11,40.039  L48.11,40.039z" fill="url(#SVGID_14_)" fill-opacity="0.5" stroke-opacity="0.5"/>
<path d="M43.166,35.809H13.501c-1.433,0-2.599,1.166-2.599,2.6v4.378h34.862v-4.378  C45.765,36.975,44.599,35.809,43.166,35.809z" fill-opacity="0.1" stroke-opacity="0.1"/>
<path d="M43.166,36.309H13.501c-1.157,0-2.099,0.941-2.099,2.1v4.378h33.862v-4.378  C45.265,37.25,44.323,36.309,43.166,36.309z" fill-opacity="0.1" stroke-opacity="0.1"/>
<path d="M43.166,36.809H13.501c-0.882,0-1.599,0.718-1.599,1.6v4.378h32.862v-4.378  C44.765,37.526,44.048,36.809,43.166,36.809z" fill-opacity="0.3" stroke-opacity="0.3"/>
<linearGradient gradientUnits="userSpaceOnUse" id="SVGID_15_" x1="28.3335" x2="28.3335" y1="26.687" y2="52.4374">
<stop offset="0" style="stop-color:#FFFFFF"/>
<stop offset="0.6688" style="stop-color:#565656"/>
<stop offset="1" style="stop-color:#000000"/>
</linearGradient>
<path d="M44.265,43.9c0,0.604-0.494,1.1-1.099,1.1H13.501c-0.604,0-1.099-0.495-1.099-1.1v-5.492  c0-0.604,0.495-1.1,1.099-1.1h29.665c0.604,0,1.099,0.495,1.099,1.1V43.9z" fill="url(#SVGID_15_)"/>
<linearGradient gradientUnits="userSpaceOnUse" id="SVGID_16_" x1="12.3906" x2="13.2769" y1="41.1543" y2="41.1543">
<stop offset="0" style="stop-color:#000000"/>
<stop offset="1" style="stop-color:#000000;stop-opacity:0"/>
</linearGradient>
<path d="M13.501,45h0.302v-7.691h-0.302c-0.604,0-1.099,0.495-1.099,1.1V43.9  C12.402,44.505,12.897,45,13.501,45z" fill="url(#SVGID_16_)" fill-opacity="0.2" stroke-opacity="0.2"/>
<linearGradient gradientUnits="userSpaceOnUse" id="SVGID_17_" x1="43.4502" x2="44.3365" y1="41.1543" y2="41.1543">
<stop offset="0" style="stop-color:#000000;stop-opacity:0"/>
<stop offset="1" style="stop-color:#000000"/>
</linearGradient>
<path d="M43.166,37.309h-0.302V45h0.302c0.604,0,1.099-0.495,1.099-1.1v-5.492  C44.265,37.804,43.771,37.309,43.166,37.309z" fill="url(#SVGID_17_)" fill-opacity="0.2" stroke-opacity="0.2"/>
<linearGradient gradientUnits="userSpaceOnUse" id="SVGID_18_" x1="28.3335" x2="28.3335" y1="37.3086" y2="38.466">
<stop offset="0" style="stop-color:#000000"/>
<stop offset="1" style="stop-color:#000000;stop-opacity:0"/>
</linearGradient>
<path d="M43.166,37.309H13.501c-0.604,0-1.099,0.495-1.099,1.1h31.862  C44.265,37.804,43.771,37.309,43.166,37.309z" fill="url(#SVGID_18_)" fill-opacity="0.2" stroke-opacity="0.2"/>
<linearGradient gradientUnits="userSpaceOnUse" id="SVGID_19_" x1="28.3335" x2="28.3335" y1="37.793" y2="42.6174">
<stop offset="0" style="stop-color:#FFFFFF"/>
<stop offset="1" style="stop-color:#FFFFFF;stop-opacity:0"/>
</linearGradient>
<path d="M43.166,38.309H13.501c-0.052,0-0.099,0.047-0.099,0.1v4.616  c5.909-1.655,20.551-2.927,29.862-3.53v-1.086C43.265,38.355,43.218,38.309,43.166,38.309z" fill="url(#SVGID_19_)" fill-opacity="0.2" stroke-opacity="0.2"/>
<linearGradient gradientUnits="userSpaceOnUse" id="SVGID_20_" x1="28.1343" x2="28.1343" y1="44.5771" y2="43.2538">
<stop offset="0" style="stop-color:#FFFFFF"/>
<stop offset="1" style="stop-color:#FFFFFF;stop-opacity:0"/>
</linearGradient>
<path d="M42.963,43.468c0,0.386-0.177,0.699-0.865,0.699H14.173  c-0.69,0-0.868-0.313-0.868-0.699l0,0c0-0.388,0.178-0.7,0.868-0.7h27.925C42.786,42.768,42.963,43.08,42.963,43.468L42.963,43.468z  " fill="url(#SVGID_20_)" fill-opacity="0.5" stroke-opacity="0.5"/>
<rect fill="none" height="57" width="67"/>
</svg>
