<?xml version="1.0" encoding="UTF-8"?>
<!DOCTYPE svg PUBLIC "-//W3C//DTD SVG 1.1 Tiny//EN" "http://www.w3.org/Graphics/SVG/1.1/DTD/svg11-tiny.dtd">
<svg baseProfile="tiny" height="57px" version="1.1" viewBox="0 0 67 57" width="67px" x="0px" xmlns="http://www.w3.org/2000/svg" xmlns:xlink="http://www.w3.org/1999/xlink" y="0px">
<path d="M49.375,9.715c-0.012,0-0.029-0.002-0.041-0.002l-38.13,0.004h38.027  C49.231,9.717,49.289,9.713,49.375,9.715z M60.67,19.506l-8.727-8.727c-0.896-0.896-1.979-1.046-2.498-1.063  c0.371,0.018,1.154,0.133,1.791,0.77l8.728,8.728c0,0,0.366,0.316,0.637,0.97C60.6,20.182,60.6,20.18,60.6,20.179  c0.314,0.412,0.783,1.231,0.783,2.49v23.125c0,2.044-1.662,3.706-3.706,3.706H11.204c-2.042,0-3.704-1.662-3.704-3.706V13.922  c0-0.823,0.279-1.577,0.735-2.193c-0.002,0.004-0.002,0.01-0.004,0.014c0.394-0.99,1.262-1.742,2.328-1.961  C8.547,10.096,7,11.824,7,13.922v31.872C7,48.113,8.886,50,11.204,50h46.473c2.319,0,4.206-1.887,4.206-4.206V22.669  C61.883,20.556,60.694,19.524,60.67,19.506z" fill-opacity="0.08" stroke-opacity="0.08"/>
<path d="M60.6,20.179c0.157,0.38,0.283,0.874,0.283,1.49v24.125c0,1.771-1.436,3.206-3.206,3.206H11.204  C9.436,49,8,47.564,8,45.794V12.922c0-0.422,0.086-0.824,0.235-1.193C7.779,12.345,7.5,13.099,7.5,13.922v31.872  c0,2.044,1.662,3.706,3.704,3.706h46.473c2.044,0,3.706-1.662,3.706-3.706V22.669C61.383,21.41,60.914,20.591,60.6,20.179z" fill-opacity="0.15" stroke-opacity="0.15"/>
<path d="M57.677,48H11.204C9.436,48,8,46.564,8,44.794v1C8,47.564,9.436,49,11.204,49h46.473  c1.771,0,3.206-1.436,3.206-3.206v-1C60.883,46.564,59.447,48,57.677,48z" fill-opacity="0.3" stroke-opacity="0.3"/>
<linearGradient gradientUnits="userSpaceOnUse" id="SVGID_1_" x1="34.4414" x2="34.4414" y1="-6.5947" y2="62.0571">
<stop offset="0" style="stop-color:#FFFFFF"/>
<stop offset="1" style="stop-color:#000000"/>
</linearGradient>
<path d="M59.257,19.921l-8.728-8.728c-0.446-0.445-1.028-0.48-1.195-0.48l-38.13,0.004  C9.988,10.717,9,11.706,9,12.922v31.872C9,46.01,9.988,47,11.204,47h46.473c1.217,0,2.206-0.99,2.206-2.206V21.669  C59.883,20.521,59.321,19.982,59.257,19.921z M58.065,45H47.78v-5.144h10.285V45z M58.065,38.743H47.78V33.6h10.285V38.743z   M58.065,32.48H47.78v-5.143h10.285V32.48z M58.065,26.219H47.78v-5.143h10.285V26.219z" fill="url(#SVGID_1_)" fill-opacity="0.5" stroke-opacity="0.5"/>
<linearGradient gradientUnits="userSpaceOnUse" id="SVGID_2_" x1="34.4414" x2="34.4414" y1="-0.6313" y2="58.201">
<stop offset="0" style="stop-color:#FFFFFF"/>
<stop offset="1" style="stop-color:#000000"/>
</linearGradient>
<path d="M59.964,19.214l-8.728-8.728c-0.865-0.865-2.005-0.77-2.005-0.77H11.204  C9.436,9.717,8,11.151,8,12.922v31.872C8,46.564,9.436,48,11.204,48h46.473c1.771,0,3.206-1.436,3.206-3.206V21.669  C60.883,20,59.964,19.214,59.964,19.214z M59.883,44.794c0,1.216-0.989,2.206-2.206,2.206H11.204C9.988,47,9,46.01,9,44.794V12.922  c0-1.216,0.988-2.205,2.204-2.205l38.13-0.004c0.167,0,0.749,0.035,1.195,0.48l8.728,8.728c0.064,0.062,0.626,0.601,0.626,1.748  V44.794z" fill="url(#SVGID_2_)" fill-opacity="0.5" stroke-opacity="0.5"/>
<linearGradient gradientUnits="userSpaceOnUse" id="SVGID_3_" x1="33.27" x2="33.27" y1="35.7666" y2="7.9984">
<stop offset="0" style="stop-color:#FFFFFF;stop-opacity:0"/>
<stop offset="1" style="stop-color:#FFFFFF"/>
</linearGradient>
<path d="M9,12.922v26.053c7.021-11.342,26.082-20.758,48.54-20.771l-7.011-7.01  c-0.446-0.445-1.028-0.48-1.195-0.48l-38.13,0.004C9.988,10.717,9,11.706,9,12.922z" fill="url(#SVGID_3_)" fill-opacity="0.1" stroke-opacity="0.1"/>
<path d="M59.065,21.076c0-0.553-0.447-1-1-1H47.78c-0.553,0-1,0.447-1,1v5.143c0,0.207,0.063,0.4,0.171,0.56  c-0.107,0.159-0.171,0.353-0.171,0.56v5.143c0,0.208,0.063,0.4,0.171,0.561C46.844,33.2,46.78,33.393,46.78,33.6v5.144  c0,0.206,0.063,0.397,0.169,0.557c-0.106,0.159-0.169,0.351-0.169,0.557V45c0,0.552,0.447,1,1,1h10.285c0.553,0,1-0.448,1-1v-5.144  c0-0.206-0.063-0.397-0.169-0.557c0.106-0.159,0.169-0.351,0.169-0.557V33.6c0-0.207-0.063-0.399-0.171-0.559  c0.107-0.16,0.171-0.353,0.171-0.561v-5.143c0-0.207-0.063-0.4-0.171-0.56c0.107-0.159,0.171-0.353,0.171-0.56V21.076z M58.065,45  H47.78v-5.144h10.285V45z M58.065,38.743H47.78V33.6h10.285V38.743z M58.065,32.48H47.78v-5.143h10.285V32.48z M58.065,26.219H47.78  v-5.143h10.285V26.219z" fill-opacity="0.1" stroke-opacity="0.1"/>
<linearGradient gradientUnits="userSpaceOnUse" id="SVGID_4_" x1="52.9229" x2="52.9229" y1="49.0088" y2="25.5829">
<stop offset="0" style="stop-color:#FFFFFF"/>
<stop offset="1" style="stop-color:#000000"/>
</linearGradient>
<rect fill="url(#SVGID_4_)" fill-opacity="0.5" height="5.144" stroke-opacity="0.5" width="10.285" x="47.78" y="39.856"/>
<linearGradient gradientUnits="userSpaceOnUse" id="SVGID_5_" x1="52.9229" x2="52.9229" y1="42.752" y2="19.3261">
<stop offset="0" style="stop-color:#FFFFFF"/>
<stop offset="1" style="stop-color:#000000"/>
</linearGradient>
<rect fill="url(#SVGID_5_)" fill-opacity="0.5" height="5.144" stroke-opacity="0.5" width="10.285" x="47.78" y="33.6"/>
<linearGradient gradientUnits="userSpaceOnUse" id="SVGID_6_" x1="52.9229" x2="52.9229" y1="36.4883" y2="13.0691">
<stop offset="0" style="stop-color:#FFFFFF"/>
<stop offset="1" style="stop-color:#000000"/>
</linearGradient>
<rect fill="url(#SVGID_6_)" fill-opacity="0.5" height="5.143" stroke-opacity="0.5" width="10.285" x="47.78" y="27.338"/>
<linearGradient gradientUnits="userSpaceOnUse" id="SVGID_7_" x1="52.9229" x2="52.9229" y1="30.2275" y2="6.8061">
<stop offset="0" style="stop-color:#FFFFFF"/>
<stop offset="1" style="stop-color:#000000"/>
</linearGradient>
<rect fill="url(#SVGID_7_)" fill-opacity="0.5" height="5.143" stroke-opacity="0.5" width="10.285" x="47.78" y="21.076"/>
<path d="M47.78,44.99l1-0.99v-3.144h8.285l1-1H47.78V44.99z M47.78,38.724l1-0.991V34.59h8.285l1-1H47.78V38.724z   M47.78,32.461l1-0.99v-3.144h8.285l1-1H47.78V32.461z M48.78,22.065h8.285l1-1H47.78v5.134l1-0.99V22.065z" fill-opacity="0.15" stroke-opacity="0.15"/>
<path d="M57.065,44H48.78l-0.99,1h10.275v-5.132l-1,0.988V44z M57.065,37.732H48.78l-0.99,1h10.275  v-5.131l-1,0.988V37.732z M57.065,31.471H48.78l-0.99,1h10.275v-5.132l-1,0.988V31.471z M57.065,22.065v3.144H48.78l-0.99,1h10.275  v-5.132L57.065,22.065z" fill="#FFFFFF" fill-opacity="0.25" stroke-opacity="0.25"/>
<rect fill="none" height="57" width="67"/>
</svg>
