<?xml version="1.0" encoding="UTF-8"?>
<!DOCTYPE svg PUBLIC "-//W3C//DTD SVG 1.1 Tiny//EN" "http://www.w3.org/Graphics/SVG/1.1/DTD/svg11-tiny.dtd">
<svg baseProfile="tiny" height="16px" version="1.1" viewBox="0 0 16 16" width="16px" x="0px" xmlns="http://www.w3.org/2000/svg" xmlns:xlink="http://www.w3.org/1999/xlink" y="0px">
<rect fill="none" height="16" width="16"/>
<path d="M15.713,4.934l-2.843-2.89c-0.185-0.208-0.452-0.34-0.751-0.34c0,0,0,0-0.002,0  H1.824C0.819,1.703,0,2.522,0,3.525v8.648C0,13.182,0.819,14,1.824,14h12.352C15.182,14,16,13.182,16,12.174V5.635  C16,5.371,15.896,5.121,15.713,4.934z" fill-opacity="0.7" stroke-opacity="0.7"/>
<linearGradient gradientTransform="matrix(-1 0 0 -1 -1181.5664 14.834)" gradientUnits="userSpaceOnUse" id="SVGID_1_" x1="-1189.5679" x2="-1189.5679" y1="9.6611" y2="0.1897">
<stop offset="0" style="stop-color:#B2B2B2"/>
<stop offset="1" style="stop-color:#666666"/>
</linearGradient>
<path d="M12.119,2.704L12.119,2.704H1.824c-0.452,0-0.823,0.37-0.823,0.822v8.648  c0,0.453,0.371,0.824,0.823,0.824h12.354c0.452,0,0.823-0.371,0.823-0.824V5.635L12.119,2.704z" fill="url(#SVGID_1_)"/>
<linearGradient gradientTransform="matrix(1 0 0 -1 0.1377 14.834)" gradientUnits="userSpaceOnUse" id="SVGID_2_" x1="12.2109" x2="12.2109" y1="8.7246" y2="0.6938">
<stop offset="0" style="stop-color:#FFE23D"/>
<stop offset="0.2239" style="stop-color:#FAD337"/>
<stop offset="0.6537" style="stop-color:#EFAB26"/>
<stop offset="1" style="stop-color:#E48717"/>
</linearGradient>
<path d="M11.32,11.762h2.06v-1.234h-2.06V11.762z M11.32,9.703h2.06V8.469h-2.06V9.703z M11.32,6.408v1.236  h2.06V6.408H11.32z" fill="url(#SVGID_2_)"/>
</svg>
