<?xml version="1.0" encoding="UTF-8"?>
<!DOCTYPE svg PUBLIC "-//W3C//DTD SVG 1.1 Tiny//EN" "http://www.w3.org/Graphics/SVG/1.1/DTD/svg11-tiny.dtd">
<svg baseProfile="tiny" height="16px" version="1.1" viewBox="0 0 16 16" width="16px" x="0px" xmlns="http://www.w3.org/2000/svg" xmlns:xlink="http://www.w3.org/1999/xlink" y="0px">
<rect fill="none" height="16" width="16"/>
<path d="M15.713,4.934L12.87,2.043c-0.185-0.208-0.452-0.34-0.751-0.34c0,0,0,0-0.002,0  H1.824C0.819,1.703,0,2.521,0,3.524v8.648c0,1.008,0.819,1.826,1.824,1.826h3.673v1C5.497,15.553,5.945,16,6.498,16h7.501  c0.553,0,1-0.447,1-1.001v-1.205C15.59,13.491,16,12.882,16,12.173V5.634C16,5.37,15.896,5.12,15.713,4.934z" fill-opacity="0.7" stroke-opacity="0.7"/>
<linearGradient gradientTransform="matrix(-1 0 0 -1 -1181.5664 14.834)" gradientUnits="userSpaceOnUse" id="SVGID_1_" x1="-1189.5679" x2="-1189.5679" y1="9.6611" y2="0.1906">
<stop offset="0" style="stop-color:#B2B2B2"/>
<stop offset="1" style="stop-color:#666666"/>
</linearGradient>
<path d="M12.119,2.704L12.119,2.704H1.824c-0.452,0-0.823,0.37-0.823,0.822v8.648  c0,0.452,0.371,0.823,0.823,0.823h12.354c0.452,0,0.823-0.371,0.823-0.823V5.635L12.119,2.704z" fill="url(#SVGID_1_)"/>
<path d="M14.001,7.57h-0.073V5.891c0-1.229-0.974-1.892-1.892-1.892H8.463  c-0.917,0-1.892,0.663-1.892,1.892V7.57H6.499c-0.553,0-1.001,0.448-1.001,1v4.427h8.68c0.452,0,0.823-0.371,0.823-0.823V8.57  C15.001,8.018,14.555,7.57,14.001,7.57z M10.857,7.57H9.643V7.072h1.215V7.57L10.857,7.57z" fill-opacity="0.4" stroke-opacity="0.4"/>
<linearGradient gradientTransform="matrix(1 0 0 -1 0.1377 14.834)" gradientUnits="userSpaceOnUse" id="SVGID_2_" x1="10.1123" x2="10.1123" y1="10.6953" y2="2.1215">
<stop offset="0" style="stop-color:#E3E3E3"/>
<stop offset="1" style="stop-color:#404040"/>
</linearGradient>
<path d="M12.928,9.643h-1.07V6.07H8.643v3.573H7.572v-3.75c0-0.707,0.585-0.893,0.893-0.893h3.572  c0.309,0,0.893,0.186,0.893,0.893v3.75H12.928z" fill="url(#SVGID_2_)"/>
<linearGradient gradientTransform="matrix(1 0 0 -1 0.1377 14.834)" gradientUnits="userSpaceOnUse" id="SVGID_3_" x1="10.1113" x2="10.1113" y1="7.2837" y2="0.3186">
<stop offset="0" style="stop-color:#E6E6E6"/>
<stop offset="1" style="stop-color:#B2B2B2"/>
</linearGradient>
<rect fill="url(#SVGID_3_)" height="6.429" width="7.5" x="6.5" y="8.57"/>
<path d="M11.32,10.893c0-0.593-0.479-1.072-1.07-1.072S9.18,10.3,9.18,10.893c0,0.396,0.215,0.735,0.534,0.922v1.936h1.072v-1.936  C11.104,11.628,11.32,11.287,11.32,10.893z"/>
</svg>
