<?xml version="1.0" encoding="UTF-8"?>
<!DOCTYPE svg PUBLIC "-//W3C//DTD SVG 1.1 Tiny//EN" "http://www.w3.org/Graphics/SVG/1.1/DTD/svg11-tiny.dtd">
<svg baseProfile="tiny" height="60" viewBox="0 0 60 60" width="60" xmlns="http://www.w3.org/2000/svg" xmlns:xlink="http://www.w3.org/1999/xlink">
<g>
<path d="M6.917,52.783v-1.5c0-4.818,2.172-8.519,6.283-10.699  c1.059-0.564,3.787-1.602,6.194-2.518c0.87-0.33,1.66-0.631,2.299-0.881l0.986-0.43c0.268-0.776,0.156-2.01-0.009-2.316l-0.609-0.99  l0.006-0.005c-0.477-0.811-0.928-1.653-1.347-2.516c-1.481-0.104-2.916-1.358-3.614-3.185c-0.731-1.911-0.45-3.901,0.643-4.98  c-0.984-4.118-0.784-7.288,0.595-9.426c0.821-1.273,2.087-2.172,3.585-2.55c1.423-1.708,3.591-3.575,7.675-3.575  c4.679,0.156,8.319,1.761,10.55,4.641c2.173,2.806,2.864,6.706,1.954,11.001c1.044,1.116,1.256,3.072,0.488,4.962  c-0.677,1.671-1.935,2.824-3.292,3.062c-0.272,0.561-0.566,1.127-0.875,1.689c-0.381,0.694-0.74,1.304-1.099,1.863  c-0.177,0.303-0.299,1.717,0.037,2.46l1.25,0.499l1.473,0.547c2.69,0.999,5.678,2.108,6.696,2.639  c1.05,0.547,6.29,3.635,6.289,10.707v1.5H6.917z" fill="#231F20" fill-opacity="0.15" stroke-opacity="0.15"/>
<path d="M7.667,52.033v-0.75c0-4.523,2.035-7.994,5.884-10.037  c1.021-0.544,3.739-1.577,6.136-2.489c0.844-0.32,1.638-0.622,2.279-0.873l1.283-0.559c0.522-1,0.371-2.794,0.048-3.299  l-0.151-0.245l-0.104-0.169c0,0-1.311-2.285-1.853-3.443c-0.088,0.012-0.178,0.017-0.268,0.017c-1.243,0-2.495-1.089-3.115-2.71  c-0.702-1.834-0.35-3.688,0.783-4.433c-1.058-4.136-0.93-7.262,0.384-9.298c0.764-1.185,1.954-1.988,3.373-2.283  c1.427-1.767,3.432-3.499,7.257-3.499c4.433,0.148,7.868,1.652,9.958,4.351c2.067,2.669,2.696,6.425,1.771,10.577  c0,0-0.016,0.081-0.049,0.229c1.057,0.794,1.344,2.627,0.617,4.417c-0.635,1.568-1.874,2.625-3.092,2.64  c-0.316,0.673-0.664,1.354-1.037,2.032c-0.373,0.68-0.724,1.274-1.073,1.82c-0.352,0.6-0.471,2.557,0.146,3.464l1.495,0.596  l1.488,0.554c2.507,0.931,5.627,2.088,6.611,2.601s5.887,3.408,5.886,10.042v0.75H7.667z" fill="#231F20" fill-opacity="0.3" stroke-opacity="0.3"/>
<rect fill="none" height="60" width="60"/>
<path d="M34.994,27.07c0.014-0.011,0.029-0.026,0.041-0.038  c0.002,0.009,0.005,0.016,0.008,0.026C35.025,27.061,35.012,27.068,34.994,27.07z M38.518,22.661L38.518,22.661  c-0.018-0.003-0.041-0.014-0.061-0.015C38.477,22.646,38.499,22.657,38.518,22.661z" fill="#231F20" fill-opacity="0.15" stroke-opacity="0.15"/>
<radialGradient cx="297.79" cy="-375.7397" gradientTransform="matrix(1 0 0 -1 -267.4805 -330.0195)" gradientUnits="userSpaceOnUse" id="SVGID_1_" r="16.2293">
<stop offset="0" style="stop-color:#FFA98E"/>
<stop offset="0.2" style="stop-color:#FFA98E"/>
<stop offset="0.96" style="stop-color:#D45D36"/>
<stop offset="1" style="stop-color:#D45D36"/>
</radialGradient>
<path d="M36.914,38.52c-1.525-0.664-1.477-3.914-0.848-4.897c0.108-0.171,0.209-0.345,0.314-0.515H23.614  c0.105,0.17,0.204,0.344,0.314,0.515c0.63,0.983,0.679,4.233-0.848,4.897c-1.527,0.662,7.098,6.437,7.098,6.437  S38.441,39.182,36.914,38.52z" fill="url(#SVGID_1_)"/>
<linearGradient gradientTransform="matrix(1 0 0 -1 -267.4805 -330.0195)" gradientUnits="userSpaceOnUse" id="SVGID_2_" x1="297.4756" x2="297.4756" y1="-367.9355" y2="-381.3027">
<stop offset="0" style="stop-color:#3BC8EB"/>
<stop offset="0.39" style="stop-color:#2D9BD2"/>
<stop offset="0.89" style="stop-color:#1347BA"/>
<stop offset="1" style="stop-color:#1347BA"/>
</linearGradient>
<path d="M46.094,41.906c-1.605-0.834-9.564-3.621-9.715-3.795L30.3,43.163l-6.531-5.247  c-0.18,0.27-8.046,3.023-9.866,3.992c-2.083,1.105-5.486,3.646-5.486,9.375h43.158C51.576,45.555,47.695,42.742,46.094,41.906z" fill="url(#SVGID_2_)"/>
<polygon fill="#020202" fill-opacity="0.3" stroke-opacity="0.3" points="22.282,38.564 30.3,44.955 37.832,38.695 36.379,38.111   30.3,43.163 23.77,37.916 "/>
<linearGradient gradientUnits="userSpaceOnUse" id="SVGID_3_" x1="9.5718" x2="22.6592" y1="45.0781" y2="45.0781">
<stop offset="0" style="stop-color:#3BC8EB"/>
<stop offset="1" style="stop-color:#2D9BD2"/>
</linearGradient>
<path d="M22.659,39.577c0,0-11.44,2.987-11.44,11.002c0,0-1.635,0.001-1.647,0  C9.572,45.65,13.418,41.818,22.659,39.577z" fill="url(#SVGID_3_)"/>
<linearGradient gradientUnits="userSpaceOnUse" id="SVGID_4_" x1="37.1855" x2="50.2734" y1="44.8936" y2="44.8936">
<stop offset="0" style="stop-color:#3BC8EB"/>
<stop offset="1" style="stop-color:#2D9BD2"/>
</linearGradient>
<path d="M37.186,39.393c0,0,11.441,2.986,11.441,11.002c0,0,1.637,0,1.646,0  C50.273,45.465,46.428,41.633,37.186,39.393z" fill="url(#SVGID_4_)"/>
<linearGradient gradientTransform="matrix(1 0 0 -1 -267.4805 -330.0195)" gradientUnits="userSpaceOnUse" id="SVGID_5_" x1="297.5371" x2="297.5371" y1="-375.5508" y2="-368.1697">
<stop offset="0" style="stop-color:#3BC8EB"/>
<stop offset="1" style="stop-color:#2D9BD2"/>
</linearGradient>
<polygon fill="url(#SVGID_5_)" points="30.3,44.955 22.281,38.564 21.815,38.77 30.3,45.531 38.3,38.879 37.834,38.691 "/>
<radialGradient cx="298.5801" cy="-345.8398" gradientTransform="matrix(1 0 0 -1 -267.4805 -330.0195)" gradientUnits="userSpaceOnUse" id="SVGID_6_" r="21.7801">
<stop offset="0" style="stop-color:#FFE2D9"/>
<stop offset="0.51" style="stop-color:#FFC6B3"/>
<stop offset="0.76" style="stop-color:#FFA98E"/>
<stop offset="1" style="stop-color:#E88160"/>
</radialGradient>
<path d="M40.584,23.573c-0.055-0.026-0.113-0.03-0.17-0.046c0-0.001,0-0.002,0-0.002  c-0.012-0.002-0.021-0.004-0.033-0.007c-0.084-0.021-0.168-0.041-0.256-0.045c-10.658-1.854-15.548-7.759-15.916-6.195  c-0.294,1.244-3.281,3.935-4.847,5.276c0.013,0.06,0.02,0.114,0.034,0.174c0,0,0.056,0.275,0.174,0.744  c-0.125,0.013-0.246,0.039-0.365,0.089c-0.995,0.42-1.308,2.053-0.698,3.647c0.61,1.594,1.913,2.548,2.909,2.13  c0.061-0.027,0.113-0.071,0.169-0.107c0.579,1.301,1.289,2.697,2.159,4.094c1.458,1.731,3.691,3.766,6.157,3.766  c2.983,0,4.808-1.633,6.063-3.278c0.031-0.068,0.063-0.133,0.103-0.189c0.931-1.453,1.684-2.911,2.293-4.268  c0.975,0.337,2.226-0.569,2.846-2.102C41.85,25.666,41.57,24.017,40.584,23.573z" fill="url(#SVGID_6_)"/>
<linearGradient gradientTransform="matrix(1 0 0 -1 -267.4805 -330.0195)" gradientUnits="userSpaceOnUse" id="SVGID_7_" x1="293.6279" x2="302.8386" y1="-368.1089" y2="-358.9682">
<stop offset="0" style="stop-color:#FFC6B3"/>
<stop offset="1" style="stop-color:#FFA98E"/>
</linearGradient>
<path d="M29.463,36.254c-1.816,0-3.646-0.846-4.993-2.121c1.425,1.498,3.343,2.957,5.432,2.957  c2.982,0,4.809-1.633,6.064-3.279c0.031-0.067,0.063-0.133,0.101-0.188c0.932-1.453,1.684-2.911,2.295-4.268  C34.967,35.283,32.447,36.254,29.463,36.254z" fill="url(#SVGID_7_)"/>
<linearGradient gradientTransform="matrix(1 0 0 -1 -267.4805 -330.0195)" gradientUnits="userSpaceOnUse" id="SVGID_8_" x1="297.2969" x2="297.2969" y1="-338.9307" y2="-352.4902">
<stop offset="0" style="stop-color:#8A5D3B"/>
<stop offset="0.38" style="stop-color:#632F00"/>
<stop offset="1" style="stop-color:#361700"/>
</linearGradient>
<path d="M29.603,8.713c-3.695,0-5.473,1.68-6.845,3.436c-2.23,0.345-5.768,2.39-3.27,11.35  c1.565-1.341,4.427-4.978,4.722-6.222c0.371-1.577,5.343,4.451,16.205,6.248c0.127-0.501,0.185-0.797,0.185-0.797  C42.305,15.077,38.594,9.014,29.603,8.713z" fill="url(#SVGID_8_)"/>
<linearGradient gradientTransform="matrix(1 0 0 -1 -267.4805 -330.0195)" gradientUnits="userSpaceOnUse" id="SVGID_9_" x1="301.9326" x2="289.6528" y1="-351.9048" y2="-344.6049">
<stop offset="0" style="stop-color:#8A5D3B"/>
<stop offset="0.36" style="stop-color:#632F00"/>
<stop offset="1" style="stop-color:#361700"/>
</linearGradient>
<path d="M24.221,16.543c0,0,5.316,6.983,16.117,6.971C40.338,23.514,35.251,22.716,24.221,16.543z" fill="url(#SVGID_9_)"/>
<linearGradient gradientTransform="matrix(1 0 0 -1 -267.4805 -330.0195)" gradientUnits="userSpaceOnUse" id="SVGID_10_" x1="288.5391" x2="288.6491" y1="-343.1895" y2="-350.9899">
<stop offset="0" style="stop-color:#8A5D3B"/>
<stop offset="0.38" style="stop-color:#632F00"/>
<stop offset="1" style="stop-color:#361700"/>
</linearGradient>
<path d="M22.943,12.668c0,0-5.204,0.312-3.273,9.132C19.67,21.8,19.034,15.76,22.943,12.668z" fill="url(#SVGID_10_)"/>
<linearGradient gradientTransform="matrix(1 0 0 -1 -267.4805 -330.0195)" gradientUnits="userSpaceOnUse" id="SVGID_11_" x1="299.0225" x2="298.6326" y1="-340.0913" y2="-343.6304">
<stop offset="0" style="stop-color:#A87C4F"/>
<stop offset="1" style="stop-color:#632F00"/>
</linearGradient>
<path d="M32.126,13.891c-2.423-0.346-6.521-2.493-8.129-1.726c0,0,5.26-6,14.538,0.831  C38.535,12.997,36.326,14.489,32.126,13.891z" fill="url(#SVGID_11_)"/>
<rect fill="none" height="59.996" width="59.996"/>
</g>
</svg>
