<?xml version="1.0" encoding="utf-8"?>
<!-- Generator: Adobe Illustrator 14.0.0, SVG Export Plug-In . SVG Version: 6.00 Build 43363)  -->
<!DOCTYPE svg PUBLIC "-//W3C//DTD SVG 1.1//EN" "http://www.w3.org/Graphics/SVG/1.1/DTD/svg11.dtd">
<svg version="1.1" id="レイヤー_1" xmlns="http://www.w3.org/2000/svg" xmlns:xlink="http://www.w3.org/1999/xlink" x="0px"
	 y="0px" width="86px" height="86px" viewBox="0 0 86 86" enable-background="new 0 0 86 86" xml:space="preserve">
<g>
	<g>
		<rect y="0" fill="none" stroke="#FF0000" width="86" height="86"/>
	</g>
</g>
<linearGradient id="SVGID_1_" gradientUnits="userSpaceOnUse" x1="77.3838" y1="-338.5713" x2="128.4909" y2="-399.4785" gradientTransform="matrix(0.9773 0 0 -0.9773 -254.6002 -293.9144)">
	<stop  offset="0" style="stop-color:#B3DDFF"/>
	<stop  offset="0.8146" style="stop-color:#084296"/>
	<stop  offset="1" style="stop-color:#084296"/>
</linearGradient>
<path fill="url(#SVGID_1_)" d="M-159.595,26.247l-17.368,9.789v22.641c0,0,8.723,15.002,10.23,17.592
	c-2.332,1.665-15.089,10.779-15.089,10.779l21.122,12.364c0,0,12.614-9.626,14.376-10.971c1.934,1.084,15.861,8.895,15.861,8.895
	l16.285-14.788c0,0-13.746-6.771-16.504-8.129c1.434-2.942,10.291-21.113,10.291-21.113l-21.791-9.372c0,0-1.451,3.102-2.045,4.365
	c-2-0.859-6.424-2.762-6.424-2.762s-3.628,2.407-5.566,3.692c-0.32-0.728-0.53-1.205-0.642-1.461
	c0.007-0.806,0.208-23.181,0.208-23.181L-159.595,26.247z"/>
<linearGradient id="SVGID_2_" gradientUnits="userSpaceOnUse" x1="178.5576" y1="-312.0112" x2="153.9297" y2="-280.9551" gradientTransform="matrix(0.9773 0 0 -0.9773 -254.6002 -293.9144)">
	<stop  offset="0" style="stop-color:#5AA7E0"/>
	<stop  offset="1" style="stop-color:#3366CC"/>
</linearGradient>
<polygon fill="url(#SVGID_2_)" points="-62.291,16.313 -52.045,-4.709 -70.214,-12.523 -72.258,-8.159 -79.45,-11.25 -86.07,-6.859 
	-87.816,-10.829 -87.636,-31.051 -104.009,-21.821 -104.009,-0.85 -93.148,17.824 -107.233,27.885 -89.845,38.064 -75.489,27.109 
	-59.734,35.942 -46.617,24.032 "/>
<linearGradient id="SVGID_3_" gradientUnits="userSpaceOnUse" x1="171.71" y1="-361.2764" x2="164.9832" y2="-374.5129" gradientTransform="matrix(0.9773 0 0 -0.9773 -254.6002 -293.9144)">
	<stop  offset="0" style="stop-color:#5AA7E0"/>
	<stop  offset="1" style="stop-color:#3366CC"/>
</linearGradient>
<polygon fill="url(#SVGID_3_)" points="-105.678,75.675 -96.214,55.477 -78.045,63.291 -88.291,84.313 "/>
<polygon fill="#0046B7" points="-94.009,58.15 -83.148,76.824 -69.678,66.675 -77.816,48.171 "/>
<polygon fill="#3366CC" points="-109.009,69.15 -109.009,48.179 -92.636,38.949 -92.816,59.171 "/>
<polygon fill="#CFECFF" points="-86.911,42.339 -72.45,32.75 -54.83,40.324 -68.489,50.865 "/>
<path fill="#5AA7E0" stroke="#FF0000" d="M41,54.029"/>
<polygon fill="#3366CC" points="-107.911,50.339 -107.148,69.824 -89.489,79.109 -89.489,58.865 "/>
<linearGradient id="SVGID_4_" gradientUnits="userSpaceOnUse" x1="163.8691" y1="-396.1548" x2="183.3704" y2="-388.6689" gradientTransform="matrix(0.9773 0 0 -0.9773 -254.6002 -293.9144)">
	<stop  offset="0" style="stop-color:#5AA7E0"/>
	<stop  offset="0.0056" style="stop-color:#5AA7E0"/>
	<stop  offset="0.85" style="stop-color:#3366CC"/>
	<stop  offset="1" style="stop-color:#3366CC"/>
</linearGradient>
<polygon fill="url(#SVGID_4_)" points="-80.564,76.904 -96.148,88.824 -78.489,98.109 -78.489,77.865 "/>
<polygon fill="#0046B7" points="-94.489,64.865 -94.489,85.109 -81.291,74.313 -80.83,54.324 "/>
<linearGradient id="SVGID_5_" gradientUnits="userSpaceOnUse" x1="188.2412" y1="-377.6636" x2="201.8975" y2="-377.6636" gradientTransform="matrix(0.9773 0 0 -0.9773 -254.6002 -293.9144)">
	<stop  offset="0" style="stop-color:#0046B7"/>
	<stop  offset="1" style="stop-color:#3366CC"/>
</linearGradient>
<polygon fill="url(#SVGID_5_)" points="-70.638,66.224 -70.489,84.109 -57.291,73.313 "/>
<linearGradient id="SVGID_6_" gradientUnits="userSpaceOnUse" x1="191.4629" y1="-406.2676" x2="187.8638" y2="-396.3791" gradientTransform="matrix(0.9773 0 0 -0.9773 -254.6002 -293.9144)">
	<stop  offset="0" style="stop-color:#5AA7E0"/>
	<stop  offset="0.4101" style="stop-color:#5AA7E0"/>
	<stop  offset="1" style="stop-color:#3366CC"/>
</linearGradient>
<polygon fill="url(#SVGID_6_)" points="-66.734,111.942 -82.489,103.109 -69.291,92.313 -53.617,100.032 "/>
<image overflow="visible" width="99" height="61" xlink:href="79E366C1.jpg"  transform="matrix(0.7739 0 0 0.8457 3.167 21.4995)">
</image>
<line fill="none" stroke="#FF0000" x1="21.833" y1="26.167" x2="4.166" y2="39.167"/>
<line fill="none" stroke="#FF0000" x1="22.166" y1="26.167" x2="79.166" y2="29.833"/>
<line fill="none" stroke="#FF0000" x1="8.166" y1="35.5" x2="69.833" y2="39.833"/>
<line fill="none" stroke="#FF0000" x1="77.499" y1="29.833" x2="69.833" y2="39.167"/>
<line fill="none" stroke="#FF0000" x1="80.166" y1="29.833" x2="83.166" y2="32.833"/>
<line fill="none" stroke="#FF0000" x1="83.166" y1="32.833" x2="74.166" y2="44.833"/>
<line fill="none" stroke="#FF0000" x1="73.833" y1="44.833" x2="3.833" y2="39.167"/>
<line fill="none" stroke="#FF0000" x1="30.5" y1="22.833" x2="25.833" y2="35.833"/>
<line fill="none" stroke="#FF0000" x1="30.833" y1="22.833" x2="58.166" y2="24.833"/>
<line fill="none" stroke="#FF0000" x1="58.499" y1="24.5" x2="53.833" y2="37.833"/>
<line fill="none" stroke="#FF0000" x1="53.499" y1="37.5" x2="24.5" y2="35.833"/>
<line fill="none" stroke="#FF0000" x1="4.166" y1="38.833" x2="4.5" y2="59.5"/>
<line fill="none" stroke="#FF0000" x1="4.833" y1="59.5" x2="11.166" y2="61.167"/>
<line fill="none" stroke="#FF0000" x1="12.833" y1="42.5" x2="12.833" y2="60.5"/>
<line fill="none" stroke="#FF0000" x1="13.166" y1="42.833" x2="62.166" y2="47.833"/>
<line fill="none" stroke="#FF0000" x1="61.833" y1="47.167" x2="61.833" y2="64.833"/>
<line fill="none" stroke="#FF0000" x1="62.166" y1="65.833" x2="73.833" y2="66.167"/>
<line fill="none" stroke="#FF0000" stroke-width="2.1812" x1="74.166" y1="66.167" x2="83.833" y2="52.167"/>
<line fill="none" stroke="#FF0000" stroke-width="1.5904" x1="83.167" y1="56.834" x2="73.166" y2="71.167"/>
<line fill="none" stroke="#FF0000" x1="73.166" y1="71.5" x2="7.166" y2="65.167"/>
<line fill="none" stroke="#FF0000" x1="4.5" y1="58.833" x2="7.5" y2="64.833"/>
<line fill="none" stroke="#FF0000" x1="11.833" y1="60.833" x2="61.499" y2="65.833"/>
<line fill="none" stroke="#FF0000" x1="24.833" y1="52.833" x2="7.5" y2="67.833"/>
<line fill="none" stroke="#FF0000" x1="24.5" y1="53.167" x2="56.499" y2="56.5"/>
<line fill="none" stroke="#FF0000" x1="56.499" y1="56.167" x2="42.5" y2="72.167"/>
<line fill="none" stroke="#FF0000" x1="8.5" y1="68.167" x2="41.833" y2="72.167"/>
<line fill="none" stroke="#FF0000" x1="83.499" y1="33.167" x2="83.166" y2="57.833"/>
<path fill="none" stroke="#FF0000" d="M-33.159,34.084c-0.408,2.751-2.008,4.082-5.008,7.749c-2.596,3.173-4.594,6.777-6.89,10.201
	c8.002,0.428,23.514,0.468,31.557,0.466c2.141,0-1.263,0.412,0.517-0.532c1.139-0.604,3.694-4.268,4.776-5.299
	c2.897-2.759,4.751-6.604,6.815-9.958c-5.925,0.212-10.649-0.661-16.44-1.878c-3.856-0.811-11.589-2.165-15.325-0.082"/>
</svg>
