<?xml version="1.0" encoding="utf-8"?>
<!-- Generator: Adobe Illustrator 14.0.0, SVG Export Plug-In . SVG Version: 6.00 Build 43363)  -->
<!DOCTYPE svg PUBLIC "-//W3C//DTD SVG 1.1//EN" "http://www.w3.org/Graphics/SVG/1.1/DTD/svg11.dtd">
<svg version="1.1" id="レイヤー_1" xmlns="http://www.w3.org/2000/svg" xmlns:xlink="http://www.w3.org/1999/xlink" x="0px"
	 y="0px" width="86px" height="86px" viewBox="0 0 86 86" enable-background="new 0 0 86 86" xml:space="preserve">
<polyline fill="#FFFFCC" points="23.125,28.375 5.375,41.75 5.25,65.25 6.25,66.75 7.334,67.5 8.25,68.375 17.25,69.375 
	13.625,73.75 42.141,79.134 46.75,72.75 62.75,74.375 72.001,74 73.001,73.334 73.75,73 81.5,62.75 81.5,61.375 81.5,33.5 81,32.5 
	80.25,31.75 79.25,31.375 58.125,30.625 58.729,24.499 29.852,23.5 28.875,28.5 "/>
<linearGradient id="SVGID_1_" gradientUnits="userSpaceOnUse" x1="19.6255" y1="53.1055" x2="72.8606" y2="19.8405">
	<stop  offset="0" style="stop-color:#A8B0B3"/>
	<stop  offset="0.2537" style="stop-color:#A6AEB0"/>
	<stop  offset="0.4063" style="stop-color:#9EA5A8"/>
	<stop  offset="0.5322" style="stop-color:#90979A"/>
	<stop  offset="0.6435" style="stop-color:#7D8385"/>
	<stop  offset="0.7453" style="stop-color:#65696B"/>
	<stop  offset="0.84" style="stop-color:#464A4B"/>
	<stop  offset="0.9275" style="stop-color:#232525"/>
	<stop  offset="1" style="stop-color:#000000"/>
	<stop  offset="1" style="stop-color:#060606"/>
	<stop  offset="1" style="stop-color:#151515"/>
	<stop  offset="1" style="stop-color:#303030"/>
	<stop  offset="1" style="stop-color:#545454"/>
	<stop  offset="1" style="stop-color:#838383"/>
	<stop  offset="1" style="stop-color:#BCBCBC"/>
	<stop  offset="1" style="stop-color:#C8C8C8"/>
</linearGradient>
<polygon fill="url(#SVGID_1_)" points="20.833,30.833 10.5,38.5 12.167,40.167 69.166,44.167 81.501,33.667 79.5,31.833 
	28.167,28.833 24.5,28.833 22.167,29.5 "/>
<linearGradient id="SVGID_2_" gradientUnits="userSpaceOnUse" x1="5.1665" y1="44.167" x2="71.334" y2="44.167">
	<stop  offset="0.0909" style="stop-color:#000000"/>
	<stop  offset="0.3465" style="stop-color:#020202"/>
	<stop  offset="0.4804" style="stop-color:#0A0A0A"/>
	<stop  offset="0.5862" style="stop-color:#181818"/>
	<stop  offset="0.6771" style="stop-color:#2B2B2B"/>
	<stop  offset="0.7586" style="stop-color:#444444"/>
	<stop  offset="0.8334" style="stop-color:#626262"/>
	<stop  offset="0.9029" style="stop-color:#868686"/>
	<stop  offset="0.9666" style="stop-color:#AFAFAF"/>
	<stop  offset="1" style="stop-color:#C8C8C8"/>
	<stop  offset="1" style="stop-color:#FFFCFF"/>
</linearGradient>
<polygon fill="url(#SVGID_2_)" points="5.167,42.167 7.125,43.375 9.158,44.537 11.833,45.167 62.334,49.334 70.167,49.834 
	71.334,49 69.166,44.167 12.167,40.167 10.5,38.5 "/>
<linearGradient id="SVGID_3_" gradientUnits="userSpaceOnUse" x1="62.166" y1="51.333" x2="81.5" y2="51.333">
	<stop  offset="0" style="stop-color:#9C9C96;stop-opacity:0.56"/>
	<stop  offset="0.2262" style="stop-color:#9E9E98;stop-opacity:0.7507"/>
	<stop  offset="0.3077" style="stop-color:#A5A59F;stop-opacity:0.8194"/>
	<stop  offset="0.3658" style="stop-color:#B0B0AA;stop-opacity:0.8683"/>
	<stop  offset="0.4128" style="stop-color:#C1C1BB;stop-opacity:0.9079"/>
	<stop  offset="0.453" style="stop-color:#D7D7D1;stop-opacity:0.9418"/>
	<stop  offset="0.488" style="stop-color:#F1F1EC;stop-opacity:0.9713"/>
	<stop  offset="0.503" style="stop-color:#FFFFFA;stop-opacity:0.984"/>
	<stop  offset="0.6882" style="stop-color:#FDFDF8;stop-opacity:0.99"/>
	<stop  offset="0.7549" style="stop-color:#F6F6F2;stop-opacity:0.9921"/>
	<stop  offset="0.8025" style="stop-color:#EBEBE6;stop-opacity:0.9936"/>
	<stop  offset="0.841" style="stop-color:#DADAD5;stop-opacity:0.9949"/>
	<stop  offset="0.8739" style="stop-color:#C4C4C0;stop-opacity:0.9959"/>
	<stop  offset="0.9031" style="stop-color:#A8A8A5;stop-opacity:0.9969"/>
	<stop  offset="0.9295" style="stop-color:#888885;stop-opacity:0.9977"/>
	<stop  offset="0.9537" style="stop-color:#626260;stop-opacity:0.9985"/>
	<stop  offset="0.9763" style="stop-color:#373736;stop-opacity:0.9992"/>
	<stop  offset="0.9963" style="stop-color:#090909;stop-opacity:0.9999"/>
	<stop  offset="1" style="stop-color:#000000"/>
	<stop  offset="1" style="stop-color:#050506"/>
	<stop  offset="1" style="stop-color:#141415"/>
	<stop  offset="1" style="stop-color:#2D2D30"/>
	<stop  offset="1" style="stop-color:#505054"/>
	<stop  offset="1" style="stop-color:#7D7D83"/>
	<stop  offset="1" style="stop-color:#B2B2BC"/>
	<stop  offset="1" style="stop-color:#BDBDC7"/>
</linearGradient>
<polyline fill="url(#SVGID_3_)" points="74.001,48.5 74.166,48.5 80.166,41.5 81.5,38.833 81.5,33.5 81.5,38.833 81.5,60.833 
	74.666,67.666 73.166,69.166 62.166,69.166 62.166,51.167 70.875,51.125 72,50.375 74.166,48.5 80.166,41.5 "/>
<linearGradient id="SVGID_4_" gradientUnits="userSpaceOnUse" x1="5.2915" y1="53.333" x2="13.0005" y2="53.333">
	<stop  offset="0" style="stop-color:#C9C9BF;stop-opacity:0.56"/>
	<stop  offset="0.4091" style="stop-color:#CBCBC1;stop-opacity:0.772"/>
	<stop  offset="0.5565" style="stop-color:#D1D1C8;stop-opacity:0.8484"/>
	<stop  offset="0.6615" style="stop-color:#DCDCD3;stop-opacity:0.9028"/>
	<stop  offset="0.7458" style="stop-color:#EBEBE4;stop-opacity:0.9465"/>
	<stop  offset="0.8182" style="stop-color:#FFFFFA;stop-opacity:0.984"/>
	<stop  offset="0.8859" style="stop-color:#FDFDF8;stop-opacity:0.99"/>
	<stop  offset="0.9103" style="stop-color:#F6F6F2;stop-opacity:0.9921"/>
	<stop  offset="0.9277" style="stop-color:#EBEBE6;stop-opacity:0.9936"/>
	<stop  offset="0.9418" style="stop-color:#DADAD5;stop-opacity:0.9949"/>
	<stop  offset="0.9539" style="stop-color:#C4C4C0;stop-opacity:0.9959"/>
	<stop  offset="0.9645" style="stop-color:#A8A8A5;stop-opacity:0.9969"/>
	<stop  offset="0.9742" style="stop-color:#888885;stop-opacity:0.9977"/>
	<stop  offset="0.9831" style="stop-color:#626260;stop-opacity:0.9985"/>
	<stop  offset="0.9913" style="stop-color:#373736;stop-opacity:0.9992"/>
	<stop  offset="0.9987" style="stop-color:#090909;stop-opacity:0.9999"/>
	<stop  offset="1" style="stop-color:#000000"/>
	<stop  offset="1" style="stop-color:#060606"/>
	<stop  offset="1" style="stop-color:#151515"/>
	<stop  offset="1" style="stop-color:#303030"/>
	<stop  offset="1" style="stop-color:#545454"/>
	<stop  offset="1" style="stop-color:#838383"/>
	<stop  offset="1" style="stop-color:#BCBCBC"/>
	<stop  offset="1" style="stop-color:#F7F7F7"/>
</linearGradient>
<polygon fill="url(#SVGID_4_)" points="5.292,42.167 5.5,62.833 6.833,63.833 9.833,64.5 12.833,64.167 13,45.334 9.283,44.537 "/>
<linearGradient id="SVGID_5_" gradientUnits="userSpaceOnUse" x1="12.834" y1="48.25" x2="71.75" y2="48.25">
	<stop  offset="0" style="stop-color:#C9C9BF;stop-opacity:0.56"/>
	<stop  offset="0.4091" style="stop-color:#CBCBC1;stop-opacity:0.772"/>
	<stop  offset="0.5565" style="stop-color:#D1D1C8;stop-opacity:0.8484"/>
	<stop  offset="0.6615" style="stop-color:#DCDCD3;stop-opacity:0.9028"/>
	<stop  offset="0.7458" style="stop-color:#EBEBE4;stop-opacity:0.9465"/>
	<stop  offset="0.8182" style="stop-color:#FFFFFA;stop-opacity:0.984"/>
	<stop  offset="0.8859" style="stop-color:#FDFDF8;stop-opacity:0.99"/>
	<stop  offset="0.9103" style="stop-color:#F6F6F2;stop-opacity:0.9921"/>
	<stop  offset="0.9277" style="stop-color:#EBEBE6;stop-opacity:0.9936"/>
	<stop  offset="0.9418" style="stop-color:#DADAD5;stop-opacity:0.9949"/>
	<stop  offset="0.9539" style="stop-color:#C4C4C0;stop-opacity:0.9959"/>
	<stop  offset="0.9645" style="stop-color:#A8A8A5;stop-opacity:0.9969"/>
	<stop  offset="0.9742" style="stop-color:#888885;stop-opacity:0.9977"/>
	<stop  offset="0.9831" style="stop-color:#626260;stop-opacity:0.9985"/>
	<stop  offset="0.9913" style="stop-color:#373736;stop-opacity:0.9992"/>
	<stop  offset="0.9987" style="stop-color:#090909;stop-opacity:0.9999"/>
	<stop  offset="1" style="stop-color:#000000"/>
	<stop  offset="1" style="stop-color:#060606"/>
	<stop  offset="1" style="stop-color:#151515"/>
	<stop  offset="1" style="stop-color:#303030"/>
	<stop  offset="1" style="stop-color:#545454"/>
	<stop  offset="1" style="stop-color:#838383"/>
	<stop  offset="1" style="stop-color:#BCBCBC"/>
	<stop  offset="1" style="stop-color:#F7F7F7"/>
</linearGradient>
<polygon fill="url(#SVGID_5_)" points="70.5,51.167 62.166,51.167 12.834,47 13,45.334 70.167,49.834 71.25,49.125 71.75,50.625 "/>
<linearGradient id="SVGID_6_" gradientUnits="userSpaceOnUse" x1="5.4995" y1="60.584" x2="81.5" y2="60.584">
	<stop  offset="0" style="stop-color:#C9C9BF;stop-opacity:0.56"/>
	<stop  offset="0.0042" style="stop-color:#C5C5BB;stop-opacity:0.5619"/>
	<stop  offset="0.0499" style="stop-color:#9C9C94;stop-opacity:0.5819"/>
	<stop  offset="0.0998" style="stop-color:#777771;stop-opacity:0.6039"/>
	<stop  offset="0.1556" style="stop-color:#575752;stop-opacity:0.6284"/>
	<stop  offset="0.2171" style="stop-color:#3B3B38;stop-opacity:0.6555"/>
	<stop  offset="0.2867" style="stop-color:#252524;stop-opacity:0.6861"/>
	<stop  offset="0.3679" style="stop-color:#141413;stop-opacity:0.7219"/>
	<stop  offset="0.4683" style="stop-color:#090908;stop-opacity:0.7661"/>
	<stop  offset="0.6091" style="stop-color:#020202;stop-opacity:0.828"/>
	<stop  offset="1" style="stop-color:#000000"/>
</linearGradient>
<polygon fill="url(#SVGID_6_)" points="81.5,60.833 81.167,63.334 73.001,73.334 72.001,74 68.834,74 65.001,74.167 61.834,74.167 
	10,68.5 8.834,68.334 7.334,67.5 5.834,65.667 5.5,62.833 6.833,63.833 9.833,64.5 12.833,64.167 12.834,47 62.166,51.167 
	62.166,69.166 70,69.25 71.75,69 72.875,68.625 74,67.875 "/>
<g>
	<polygon fill="#FFFFFF" points="14.951,73.339 28.827,57.106 54.441,60.101 41.928,78.618 	"/>
	<path fill="#CCCCCC" d="M29.019,57.597l24.609,2.877l-11.913,17.63l-25.893-5.068L29.019,57.597 M28.635,56.616L14.081,73.642
		l28.06,5.492l13.113-19.406L28.635,56.616L28.635,56.616z"/>
</g>
<linearGradient id="SVGID_7_" gradientUnits="userSpaceOnUse" x1="43.6719" y1="40.2466" x2="44.2267" y2="24.3573" gradientTransform="matrix(0.9998 -0.0179 0.0179 0.9998 -0.6087 0.1803)">
	<stop  offset="0.49" style="stop-color:#E0E0DE"/>
	<stop  offset="0.6851" style="stop-color:#DEDEDC"/>
	<stop  offset="0.7553" style="stop-color:#D7D7D5"/>
	<stop  offset="0.8054" style="stop-color:#CBCBCA"/>
	<stop  offset="0.8459" style="stop-color:#BBBBB9"/>
	<stop  offset="0.8806" style="stop-color:#A5A5A3"/>
	<stop  offset="0.9114" style="stop-color:#898988"/>
	<stop  offset="0.9392" style="stop-color:#696968"/>
	<stop  offset="0.9647" style="stop-color:#434343"/>
	<stop  offset="0.9875" style="stop-color:#1A1A1A"/>
	<stop  offset="1" style="stop-color:#000000"/>
	<stop  offset="1" style="stop-color:#060606;stop-opacity:0.9437"/>
	<stop  offset="1" style="stop-color:#151515;stop-opacity:0.8718"/>
	<stop  offset="1" style="stop-color:#303030;stop-opacity:0.7914"/>
	<stop  offset="1" style="stop-color:#545454;stop-opacity:0.7049"/>
	<stop  offset="1" style="stop-color:#838383;stop-opacity:0.6134"/>
	<stop  offset="1" style="stop-color:#BCBCBC;stop-opacity:0.5192"/>
	<stop  offset="1" style="stop-color:#C8C8C8;stop-opacity:0.5"/>
</linearGradient>
<polygon fill="url(#SVGID_7_)" stroke="#FFFFFF" stroke-width="0.75" points="29.852,23.5 29.104,38.224 57.748,39.875 
	58.729,24.499 57.979,24.512 "/>
<linearGradient id="SVGID_8_" gradientUnits="userSpaceOnUse" x1="25.834" y1="41.75" x2="57.5" y2="41.75">
	<stop  offset="0" style="stop-color:#C8C8C8;stop-opacity:0.5"/>
	<stop  offset="0" style="stop-color:#BCBCBC;stop-opacity:0.5192"/>
	<stop  offset="0" style="stop-color:#838383;stop-opacity:0.6134"/>
	<stop  offset="0" style="stop-color:#545454;stop-opacity:0.7049"/>
	<stop  offset="0" style="stop-color:#303030;stop-opacity:0.7914"/>
	<stop  offset="0" style="stop-color:#151515;stop-opacity:0.8718"/>
	<stop  offset="0" style="stop-color:#060606;stop-opacity:0.9437"/>
	<stop  offset="0" style="stop-color:#000000"/>
	<stop  offset="0.0125" style="stop-color:#1A1A1A"/>
	<stop  offset="0.0353" style="stop-color:#434343"/>
	<stop  offset="0.0608" style="stop-color:#696968"/>
	<stop  offset="0.0886" style="stop-color:#898988"/>
	<stop  offset="0.1194" style="stop-color:#A5A5A3"/>
	<stop  offset="0.1541" style="stop-color:#BBBBB9"/>
	<stop  offset="0.1946" style="stop-color:#CBCBCA"/>
	<stop  offset="0.2447" style="stop-color:#D7D7D5"/>
	<stop  offset="0.3149" style="stop-color:#DEDEDC"/>
	<stop  offset="0.51" style="stop-color:#E0E0DE"/>
</linearGradient>
<polygon fill="url(#SVGID_8_)" stroke="#666666" stroke-width="0.5" points="25.834,42.667 29.167,38.833 57.5,40.375 
	54.667,44.667 "/>
<polygon fill="#FFFFFF" points="36.375,29.375 36,29.375 35.667,34.875 49.834,35.708 50,29.875 "/>
<polygon points="23.75,29.375 6.5,42.75 5.375,41.75 22.167,29.5 22.875,29 23.625,28.875 "/>
<linearGradient id="SVGID_9_" gradientUnits="userSpaceOnUse" x1="69.2783" y1="45.7109" x2="83.5552" y2="36.7898">
	<stop  offset="0" style="stop-color:#A8B0B3"/>
	<stop  offset="0.1726" style="stop-color:#7B8183"/>
	<stop  offset="0.3672" style="stop-color:#4F5355"/>
	<stop  offset="0.5533" style="stop-color:#2D2F30"/>
	<stop  offset="0.7258" style="stop-color:#141516"/>
	<stop  offset="0.8799" style="stop-color:#050506"/>
	<stop  offset="1" style="stop-color:#000000"/>
	<stop  offset="1" style="stop-color:#060606"/>
	<stop  offset="1" style="stop-color:#151515"/>
	<stop  offset="1" style="stop-color:#303030"/>
	<stop  offset="1" style="stop-color:#545454"/>
	<stop  offset="1" style="stop-color:#838383"/>
	<stop  offset="1" style="stop-color:#BCBCBC"/>
	<stop  offset="1" style="stop-color:#C8C8C8"/>
</linearGradient>
<polygon fill="url(#SVGID_9_)" points="69.166,44.167 71.334,49 81.5,38.833 81.5,33.5 "/>
<g>
	<path d="M30.569,60.508c1.881,0.611,3.933,1.166,5.257,1.355l0.652,1.387c-0.071,0.004-0.2-0.045-0.365-0.183
		c-1.438-0.296-3.623-0.968-5.577-1.644l-1.485,2.334l4.729,3.011l-0.5,0.786l-4.729-3.012l-1.934,3.036l4.94,3.146l-0.492,0.773
		l-4.94-3.146l-0.63,0.988l-1.094-0.695l5.595-8.787L30.569,60.508z M43.425,68.324l-4.473,7.024
		c-0.659,1.036-1.451,0.55-3.962-1.05c0.08-0.268,0.118-0.762,0.092-1.079c0.433,0.292,0.856,0.562,1.215,0.79
		c1.387,0.883,1.387,0.883,1.554,0.621l3.964-6.227L37.411,65.6l-5.799,9.108l-1.109-0.705l6.3-9.895L43.425,68.324z"/>
</g>
<linearGradient id="SVGID_10_" gradientUnits="userSpaceOnUse" x1="71.334" y1="49" x2="71.334" y2="49">
	<stop  offset="0" style="stop-color:#A8B0B3"/>
	<stop  offset="0.1726" style="stop-color:#7B8183"/>
	<stop  offset="0.3672" style="stop-color:#4F5355"/>
	<stop  offset="0.5533" style="stop-color:#2D2F30"/>
	<stop  offset="0.7258" style="stop-color:#141516"/>
	<stop  offset="0.8799" style="stop-color:#050506"/>
	<stop  offset="1" style="stop-color:#000000"/>
	<stop  offset="1" style="stop-color:#060606"/>
	<stop  offset="1" style="stop-color:#151515"/>
	<stop  offset="1" style="stop-color:#303030"/>
	<stop  offset="1" style="stop-color:#545454"/>
	<stop  offset="1" style="stop-color:#838383"/>
	<stop  offset="1" style="stop-color:#BCBCBC"/>
	<stop  offset="1" style="stop-color:#C8C8C8"/>
</linearGradient>
<path fill="url(#SVGID_10_)" d="M71.334,49"/>
</svg>
