<?xml version="1.0" encoding="UTF-8"?>
<!DOCTYPE svg PUBLIC "-//W3C//DTD SVG 1.1 Tiny//EN" "http://www.w3.org/Graphics/SVG/1.1/DTD/svg11-tiny.dtd">
<svg baseProfile="tiny" version="1.1" xmlns="http://www.w3.org/2000/svg" xmlns:xlink="http://www.w3.org/1999/xlink" x="0px" y="0px" width="320px" height="210px" viewBox="0 0 320 210">
<g>
<path fill-opacity="0.4" stroke-opacity="0.4" d="M160,187.164c-45.306,0-82.163-36.856-82.163-82.163S114.694,22.835,160,22.835   c45.307,0,82.162,36.86,82.162,82.166S205.307,187.164,160,187.164L160,187.164z"/>
<linearGradient id="SVGID_1_" gradientUnits="userSpaceOnUse" x1="409.04" y1="1018.6201" x2="409.04" y2="1182.7592" gradientTransform="matrix(1 0 0 1 -249.04 -995.9609)">
<stop offset="0" style="stop-color:#DCDCDC"/>
<stop offset="0.6" style="stop-color:#C0C0C0"/>
<stop offset="1" style="stop-color:#A7A7A7"/>
</linearGradient>
<circle fill="url(#SVGID_1_)" cx="160" cy="105" r="81.404"/>
<path fill-opacity="0.4" stroke-opacity="0.4" fill="#FFFFFF" d="M160,23.596c-44.958,0-81.405,36.444-81.405,81.405   c0,44.956,36.446,81.402,81.405,81.402c44.958,0,81.404-36.446,81.404-81.402C241.404,60.042,204.958,23.596,160,23.596z    M160,185.642c-44.467,0-80.643-36.176-80.643-80.644c0-44.467,36.176-80.644,80.643-80.644c44.465,0,80.643,36.176,80.643,80.644   S204.465,185.642,160,185.642z"/>
<path fill="#E5E5E5" d="M160,179.556c-41.111,0-74.557-33.443-74.557-74.558c0-41.112,33.445-74.557,74.557-74.557   s74.556,33.445,74.556,74.557C234.556,146.112,201.111,179.556,160,179.556L160,179.556z"/>
<linearGradient id="SVGID_2_" gradientUnits="userSpaceOnUse" x1="409.0391" y1="1173.9941" x2="409.0391" y2="1027.9258" gradientTransform="matrix(1 0 0 1 -249.04 -995.9609)">
<stop offset="0" style="stop-color:#FFFFFF"/>
<stop offset="0.4121" style="stop-color:#DCDCDC"/>
<stop offset="0.9455" style="stop-color:#CBCBCB"/>
<stop offset="1" style="stop-color:#CBCBCB"/>
</linearGradient>
<circle fill="url(#SVGID_2_)" cx="160" cy="104.999" r="73.034"/>
<path fill-opacity="0.5" stroke-opacity="0.5" d="M160,31.964c-40.338,0-73.036,32.699-73.036,73.037   c0,40.333,32.698,73.032,73.036,73.032c40.336,0,73.035-32.698,73.035-73.032C233.035,64.663,200.336,31.964,160,31.964z    M160,177.282c-39.854,0-72.283-32.425-72.283-72.281c0-39.856,32.427-72.283,72.283-72.283c39.855,0,72.285,32.426,72.285,72.283   C232.285,144.857,199.857,177.282,160,177.282z"/>
<linearGradient id="SVGID_3_" gradientUnits="userSpaceOnUse" x1="409.04" y1="1165.6299" x2="409.04" y2="1036.293" gradientTransform="matrix(1 0 0 1 -249.04 -995.9609)">
<stop offset="0" style="stop-color:#B4B4B4"/>
<stop offset="1" style="stop-color:#A0A0A0"/>
</linearGradient>
<circle fill="url(#SVGID_3_)" cx="160" cy="105.001" r="64.668"/>
<linearGradient id="SVGID_4_" gradientUnits="userSpaceOnUse" x1="409.041" y1="1037.8115" x2="409.041" y2="1164.1035" gradientTransform="matrix(1 0 0 1 -249.04 -995.9609)">
<stop offset="0" style="stop-color:#FFFFFF"/>
<stop offset="0.9455" style="stop-color:#CBCBCB"/>
<stop offset="1" style="stop-color:#CBCBCB"/>
</linearGradient>
<path fill="url(#SVGID_4_)" d="M160,168.144c-34.819,0-63.146-28.323-63.146-63.146c0-34.818,28.325-63.147,63.146-63.147   c34.818,0,63.146,28.329,63.146,63.147C223.146,139.819,194.82,168.144,160,168.144L160,168.144z"/>
<circle fill="#C8C8C8" cx="160" cy="105" r="2.282"/>
<path fill="none" d="M160,168.144c-34.819,0-63.146-28.323-63.146-63.146c0-34.818,28.325-63.147,63.146-63.147   c34.818,0,63.146,28.329,63.146,63.147C223.146,139.819,194.82,168.144,160,168.144L160,168.144z"/>
<circle fill="#646464" cx="160" cy="45.657" r="2.283"/>
<path fill="#646464" d="M155.424,51.53h-0.033l-1.951,1.053l-0.293-1.158l2.451-1.311h1.294v11.221h-1.467L155.424,51.53   L155.424,51.53z"/>
<path fill="#646464" d="M159.689,61.335v-0.933l1.19-1.157c2.862-2.726,4.181-4.176,4.181-5.869c0-1.14-0.535-2.193-2.21-2.193   c-1.018,0-1.864,0.52-2.382,0.951l-0.486-1.068c0.762-0.64,1.885-1.14,3.16-1.14c2.416,0,3.438,1.657,3.438,3.262   c0,2.07-1.504,3.746-3.864,6.024l-0.881,0.828v0.035h5.021v1.26H159.689z"/>
<circle fill="#646464" cx="189.67" cy="53.61" r="2.282"/>
<circle fill="#646464" cx="211.39" cy="75.329" r="2.281"/>
<circle fill="#646464" cx="219.342" cy="105" r="2.282"/>
<path fill="#646464" d="M208.58,108.819c0.425,0.256,1.392,0.68,2.447,0.68c1.898,0,2.51-1.205,2.496-2.141   c-0.019-1.545-1.41-2.207-2.854-2.207h-0.829v-1.121h0.829c1.086,0,2.463-0.562,2.463-1.867c0-0.882-0.563-1.664-1.938-1.664   c-0.883,0-1.733,0.391-2.207,0.729l-0.408-1.085c0.595-0.423,1.715-0.85,2.904-0.85c2.172,0,3.157,1.292,3.157,2.633   c0,1.153-0.696,2.124-2.038,2.616v0.031c1.358,0.255,2.446,1.273,2.461,2.82c0,1.765-1.393,3.312-4.025,3.312   c-1.238,0-2.323-0.392-2.868-0.747L208.58,108.819z"/>
<path fill="#646464" d="M211.39,132.386c1.263,0,2.284,1.023,2.284,2.285c0,1.258-1.021,2.282-2.284,2.282   c-1.262,0-2.282-1.024-2.282-2.282C209.107,133.41,210.13,132.386,211.39,132.386z"/>
<rect x="199.037" y="122.135" transform="matrix(-0.5001 0.8659 -0.8659 -0.5001 411.3268 19.0048)" fill="#646464" width="2.283" height="12.17"/>
<path fill="#646464" d="M189.67,154.108c1.262,0,2.281,1.025,2.281,2.281c0,1.263-1.021,2.285-2.281,2.285   c-1.264,0-2.284-1.022-2.284-2.285C187.386,155.134,188.408,154.108,189.67,154.108z"/>
<rect x="182.08" y="139.113" transform="matrix(-0.8658 0.5005 -0.5005 -0.8658 414.5156 179.2164)" fill="#646464" width="2.283" height="12.179"/>
<circle fill="#646464" cx="159.998" cy="164.343" r="2.283"/>
<path fill="#646464" d="M162.701,149.888c-0.308-0.021-0.697,0.017-1.119,0.08c-2.366,0.377-3.59,2.078-3.844,3.912h0.031   c0.528-0.715,1.465-1.291,2.688-1.291c1.956,0,3.336,1.43,3.336,3.57c0,2.041-1.376,3.91-3.688,3.91   c-2.349,0-3.896-1.835-3.896-4.71c0-2.179,0.766-3.896,1.868-4.983c0.92-0.898,2.146-1.462,3.539-1.631   c0.442-0.07,0.815-0.084,1.091-0.084v1.227H162.701z M162.277,156.263c0-1.582-0.897-2.53-2.276-2.53c-0.9,0-1.75,0.543-2.16,1.358   c-0.083,0.172-0.151,0.373-0.151,0.646c0.016,1.821,0.866,3.183,2.449,3.183C161.412,158.917,162.277,157.847,162.277,156.263z"/>
<circle fill="#646464" cx="130.33" cy="156.391" r="2.282"/>
<rect x="135.673" y="139.116" transform="matrix(-0.8649 -0.5019 0.5019 -0.8649 182.2667 339.4583)" fill="#646464" width="2.284" height="12.171"/>
<rect x="182.27" y="57.743" transform="matrix(-0.8657 -0.5006 0.5006 -0.8657 310.2312 210.9045)" fill="#646464" width="2.283" height="12.172"/>
<path fill="#646464" d="M108.61,132.386c1.259,0,2.28,1.023,2.28,2.285c0,1.258-1.021,2.282-2.28,2.282   c-1.262,0-2.284-1.024-2.284-2.282C106.326,133.41,107.349,132.386,108.61,132.386z"/>
<rect x="118.682" y="122.11" transform="matrix(-0.501 -0.8654 0.8654 -0.501 68.9082 296.1266)" fill="#646464" width="2.281" height="12.176"/>
<rect x="199.694" y="75.09" transform="matrix(-0.5005 -0.8658 0.8658 -0.5005 231.0666 295.6795)" fill="#646464" width="2.283" height="12.176"/>
<circle fill="#646464" cx="100.658" cy="105" r="2.282"/>
<path fill="#646464" d="M106.733,109.507c0.323,0.032,0.701,0,1.215-0.053c0.873-0.119,1.694-0.463,2.327-1.076   c0.737-0.668,1.267-1.646,1.474-2.943h-0.052c-0.617,0.754-1.507,1.179-2.637,1.179c-1.986,0-3.27-1.506-3.27-3.405   c0-2.105,1.523-3.954,3.799-3.954c2.276,0,3.681,1.833,3.681,4.708c0,2.431-0.819,4.14-1.916,5.202   c-0.856,0.843-2.036,1.356-3.235,1.491c-0.548,0.085-1.028,0.104-1.387,0.085L106.733,109.507L106.733,109.507z M107.28,103.121   c0,1.388,0.84,2.364,2.141,2.364c1.009,0,1.798-0.499,2.192-1.165c0.084-0.155,0.136-0.31,0.136-0.566   c0-1.899-0.703-3.354-2.295-3.354C108.186,100.4,107.28,101.529,107.28,103.121z"/>
<circle fill="#646464" cx="108.61" cy="75.329" r="2.281"/>
<rect x="118.688" y="75.73" transform="matrix(0.5005 -0.8658 0.8658 0.5005 -10.9739 144.6138)" fill="#646464" width="2.283" height="12.173"/>
<circle fill="#646464" cx="130.33" cy="53.608" r="2.283"/>
<rect x="135.664" y="58.733" transform="matrix(0.8661 -0.5 0.5 0.8661 -14.0812 77.0793)" fill="#646464" width="2.283" height="12.171"/>
<rect x="152.465" y="34.622" transform="matrix(0.9947 -0.1031 0.1031 0.9947 -2.9898 15.9509)" fill="#646464" width="0.758" height="4.564"/>
<rect x="166.781" y="170.8" transform="matrix(0.9942 -0.1079 0.1079 0.9942 -17.6988 19.0461)" fill="#646464" width="0.76" height="4.567"/>
<rect x="145.386" y="35.751" transform="matrix(0.9783 -0.2073 0.2073 0.9783 -4.7182 31.0491)" fill="#646464" width="0.761" height="4.564"/>
<rect x="173.859" y="169.688" transform="matrix(0.9771 -0.2126 0.2126 0.9771 -32.5762 40.9726)" fill="#646464" width="0.763" height="4.564"/>
<rect x="138.457" y="37.598" transform="matrix(0.9513 -0.3082 0.3082 0.9513 -5.5328 44.7255)" fill="#646464" width="0.764" height="4.564"/>
<rect x="180.774" y="167.848" transform="matrix(0.9507 -0.31 0.31 0.9507 -43.8184 64.5433)" fill="#646464" width="0.756" height="4.564"/>
<rect x="131.773" y="40.167" transform="matrix(0.9144 -0.4048 0.4048 0.9144 -5.8719 57.1258)" fill="#646464" width="0.764" height="4.563"/>
<rect x="187.461" y="165.269" transform="matrix(0.914 -0.4058 0.4058 0.914 -51.8284 90.6373)" fill="#646464" width="0.763" height="4.56"/>
<rect x="119.373" y="47.327" transform="matrix(0.8099 -0.5866 0.5866 0.8099 -6.3341 79.6745)" fill="#646464" width="0.761" height="4.566"/>
<rect x="199.879" y="158.11" transform="matrix(0.8096 -0.5869 0.5869 0.8096 -56.0172 148.0756)" fill="#646464" width="0.759" height="4.564"/>
<rect x="113.799" y="51.834" transform="matrix(0.7445 -0.6676 0.6676 0.7445 -6.9562 90.0548)" fill="#646464" width="0.762" height="4.563"/>
<rect x="205.434" y="153.598" transform="matrix(0.742 -0.6704 0.6704 0.742 -51.402 178.1881)" fill="#646464" width="0.763" height="4.564"/>
<rect x="108.736" y="56.902" transform="matrix(0.6685 -0.7437 0.7437 0.6685 -7.8437 100.77)" fill="#646464" width="0.76" height="4.564"/>
<rect x="210.48" y="148.555" transform="matrix(0.6697 -0.7426 0.7426 0.6697 -42.373 206.4011)" fill="#646464" width="0.764" height="4.568"/>
<rect x="104.222" y="62.489" transform="matrix(0.5862 -0.8102 0.8102 0.5862 -9.1904 111.55)" fill="#646464" width="0.763" height="4.565"/>
<rect x="215.034" y="142.94" transform="matrix(0.588 -0.8088 0.8088 0.588 -28.7162 234.0664)" fill="#646464" width="0.761" height="4.565"/>
<rect x="97.076" y="74.865" transform="matrix(0.4074 -0.9132 0.9132 0.4074 -12.7047 134.7127)" fill="#646464" width="0.76" height="4.563"/>
<rect x="222.191" y="130.6" transform="matrix(0.4104 -0.9119 0.9119 0.4104 10.0494 281.3069)" fill="#646464" width="0.761" height="4.563"/>
<rect x="94.501" y="81.561" transform="matrix(0.3058 -0.9521 0.9521 0.3058 -13.9611 148.5399)" fill="#646464" width="0.76" height="4.566"/>
<rect x="224.746" y="123.89" transform="matrix(0.3124 -0.95 0.95 0.3124 34.9469 300.6219)" fill="#646464" width="0.757" height="4.564"/>
<rect x="92.643" y="88.476" transform="matrix(0.2066 -0.9784 0.9784 0.2066 -14.9956 163.0256)" fill="#646464" width="0.761" height="4.567"/>
<rect x="226.604" y="116.941" transform="matrix(0.2055 -0.9787 0.9787 0.2055 63.6602 316.8646)" fill="#646464" width="0.76" height="4.567"/>
<rect x="91.525" y="95.564" transform="matrix(0.1015 -0.9948 0.9948 0.1015 -14.7675 179.3414)" fill="#646464" width="0.76" height="4.566"/>
<rect x="227.712" y="109.901" transform="matrix(0.1104 -0.9939 0.9939 0.1104 91.4231 326.5013)" fill="#646464" width="0.761" height="4.563"/>
<rect x="91.526" y="109.874" transform="matrix(-0.1041 -0.9946 0.9946 -0.1041 -10.0743 215.2361)" fill="#646464" width="0.76" height="4.563"/>
<rect x="227.73" y="95.544" transform="matrix(-0.1005 -0.9949 0.9949 -0.1005 153.7093 334.614)" fill="#646464" width="0.758" height="4.564"/>
<rect x="92.642" y="116.962" transform="matrix(-0.2043 -0.9789 0.9789 -0.2043 -4.7056 234.6612)" fill="#646464" width="0.76" height="4.562"/>
<rect x="226.609" y="88.465" transform="matrix(-0.2071 -0.9783 0.9783 -0.2071 185.2206 331.6101)" fill="#646464" width="0.759" height="4.566"/>
<rect x="94.498" y="123.878" transform="matrix(-0.3089 -0.9511 0.9511 -0.3089 4.1975 255.3723)" fill="#646464" width="0.762" height="4.565"/>
<rect x="224.747" y="81.55" transform="matrix(-0.3058 -0.9521 0.9521 -0.3058 214.1556 323.8108)" fill="#646464" width="0.76" height="4.564"/>
<rect x="97.058" y="130.565" transform="matrix(-0.4078 -0.9131 0.9131 -0.4078 15.876 275.9901)" fill="#646464" width="0.762" height="4.564"/>
<rect x="222.19" y="74.854" transform="matrix(-0.4061 -0.9138 0.9138 -0.4061 242.4765 311.8519)" fill="#646464" width="0.76" height="4.565"/>
<rect x="104.229" y="142.964" transform="matrix(-0.5868 -0.8097 0.8097 -0.5868 48.3844 315.1844)" fill="#646464" width="0.762" height="4.566"/>
<rect x="215.003" y="62.46" transform="matrix(-0.5843 -0.8115 0.8115 -0.5843 288.702 277.3557)" fill="#646464" width="0.759" height="4.561"/>
<rect x="108.753" y="148.511" transform="matrix(-0.6716 -0.7409 0.7409 -0.6716 70.6991 332.9232)" fill="#646464" width="0.761" height="4.564"/>
<rect x="210.512" y="56.891" transform="matrix(-0.6699 -0.7424 0.7424 -0.6699 308.2413 255.3895)" fill="#646464" width="0.761" height="4.567"/>
<rect x="113.822" y="153.608" transform="matrix(-0.744 -0.6682 0.6682 -0.744 95.0044 348.1786)" fill="#646464" width="0.76" height="4.563"/>
<rect x="205.449" y="51.851" transform="matrix(-0.7401 -0.6725 0.6725 -0.7401 321.7531 232.619)" fill="#646464" width="0.759" height="4.566"/>
<rect x="119.359" y="158.119" transform="matrix(-0.8102 -0.5862 0.5862 -0.8102 122.7238 360.5475)" fill="#646464" width="0.763" height="4.567"/>
<rect x="199.878" y="47.321" transform="matrix(-0.8088 -0.588 0.588 -0.8088 333.0692 207.4829)" fill="#646464" width="0.761" height="4.566"/>
<rect x="131.785" y="165.269" transform="matrix(-0.9129 -0.4083 0.4083 -0.9129 184.4057 374.4613)" fill="#646464" width="0.761" height="4.563"/>
<rect x="187.46" y="40.138" transform="matrix(-0.9129 -0.4083 0.4083 -0.9129 341.9913 157.8347)" fill="#646464" width="0.761" height="4.564"/>
<rect x="138.449" y="167.854" transform="matrix(-0.9518 -0.3066 0.3066 -0.9518 218.8126 374.6401)" fill="#646464" width="0.761" height="4.562"/>
<rect x="180.768" y="37.601" transform="matrix(-0.9507 -0.31 0.31 -0.9507 341.001 133.9623)" fill="#646464" width="0.756" height="4.566"/>
<rect x="145.384" y="169.696" transform="matrix(-0.979 -0.204 0.204 -0.979 253.3792 370.0781)" fill="#646464" width="0.761" height="4.567"/>
<rect x="173.89" y="35.722" transform="matrix(-0.9777 -0.2102 0.2102 -0.9777 336.6534 111.7981)" fill="#646464" width="0.757" height="4.566"/>
<rect x="152.472" y="170.807" transform="matrix(-0.995 -0.1003 0.1003 -0.995 287.5774 360.6373)" fill="#646464" width="0.76" height="4.57"/>
<rect x="166.782" y="34.628" transform="matrix(-0.9942 -0.1073 0.1073 -0.9942 329.3942 91.5465)" fill="#646464" width="0.755" height="4.565"/>
<path fill="#646464" d="M158.271,33.417c0.573,0,1.006,0.202,1.299,0.61c0.293,0.406,0.437,1.123,0.437,2.152   c0,1.125-0.147,1.892-0.444,2.293c-0.296,0.403-0.732,0.603-1.31,0.603c-0.505,0-0.888-0.132-1.146-0.401   c-0.257-0.265-0.424-0.603-0.502-1.012c-0.078-0.409-0.117-0.905-0.117-1.483c0-1.008,0.147-1.719,0.449-2.136   C157.238,33.625,157.683,33.417,158.271,33.417z M158.246,38.458c0.253,0,0.437-0.141,0.556-0.426   c0.117-0.283,0.177-0.902,0.177-1.855c0-0.917-0.062-1.504-0.182-1.76c-0.124-0.254-0.305-0.384-0.551-0.384   c-0.223,0-0.387,0.089-0.492,0.268c-0.105,0.178-0.174,0.413-0.198,0.698c-0.024,0.289-0.039,0.68-0.039,1.18   c0,0.979,0.058,1.606,0.175,1.877C157.808,38.322,157.994,38.458,158.246,38.458z"/>
<path fill="#646464" d="M162.14,33.417c0.569,0,1.005,0.202,1.298,0.61c0.293,0.406,0.438,1.123,0.438,2.152   c0,1.125-0.147,1.892-0.442,2.293c-0.297,0.403-0.732,0.603-1.313,0.603c-0.51,0-0.887-0.132-1.146-0.401   c-0.257-0.265-0.423-0.603-0.503-1.012c-0.075-0.409-0.116-0.905-0.116-1.483c0-1.008,0.15-1.719,0.45-2.136   C161.107,33.625,161.549,33.417,162.14,33.417z M162.111,38.458c0.252,0,0.438-0.141,0.558-0.426   c0.116-0.283,0.174-0.902,0.174-1.855c0-0.917-0.062-1.504-0.181-1.76c-0.118-0.254-0.305-0.384-0.551-0.384   c-0.225,0-0.389,0.089-0.492,0.268c-0.104,0.178-0.172,0.413-0.193,0.698c-0.025,0.289-0.04,0.68-0.04,1.18   c0,0.979,0.06,1.606,0.175,1.877C161.675,38.322,161.857,38.458,162.111,38.458z"/>
<path fill="#646464" d="M97.489,71.503l1.193,0.688c0.028-0.06,0.086-0.165,0.176-0.316c0.272-0.477,0.613-0.771,1.014-0.881   c0.402-0.11,0.843-0.027,1.326,0.253c0.55,0.315,0.875,0.691,0.98,1.125c0.106,0.435-0.01,0.939-0.342,1.517   c-0.188,0.326-0.439,0.651-0.753,0.971l-0.568-0.328l0.006-0.006c0.334-0.336,0.563-0.612,0.687-0.825   c0.186-0.323,0.24-0.609,0.163-0.858s-0.297-0.475-0.658-0.684c-0.316-0.183-0.604-0.237-0.862-0.161   c-0.258,0.076-0.484,0.285-0.681,0.625c-0.135,0.233-0.26,0.474-0.373,0.721l-2.333-1.347l1.432-2.477l0.555,0.32L97.489,71.503z"/>
<path fill="#646464" d="M99.076,67.355c0.286-0.495,0.677-0.767,1.176-0.818c0.498-0.049,1.192,0.183,2.082,0.698   c0.977,0.563,1.564,1.071,1.766,1.53c0.199,0.46,0.157,0.935-0.132,1.436c-0.252,0.438-0.561,0.704-0.92,0.79   c-0.36,0.09-0.739,0.068-1.129-0.071c-0.395-0.136-0.84-0.351-1.343-0.64c-0.872-0.504-1.414-0.99-1.625-1.457   C98.74,68.355,98.781,67.865,99.076,67.355z M103.429,69.899c0.126-0.221,0.096-0.453-0.09-0.696   c-0.186-0.241-0.692-0.603-1.519-1.081c-0.793-0.457-1.331-0.698-1.613-0.721c-0.283-0.022-0.486,0.073-0.608,0.283   c-0.11,0.194-0.115,0.38-0.015,0.561c0.104,0.18,0.271,0.354,0.507,0.52c0.235,0.168,0.569,0.373,0.999,0.623   c0.851,0.491,1.42,0.751,1.713,0.787C103.093,70.209,103.302,70.117,103.429,69.899z"/>
<path fill="#646464" d="M92.157,104.909h0.639v0.57h1.22v1.003h-1.22v2.229h-0.61l-2.847-1.744l-0.893-0.543v-0.945h3.711V104.909z    M92.157,107.936v-1.454h-2.439L92.157,107.936z"/>
<path fill="#646464" d="M89.116,103.373h1.378c-0.006-0.067-0.009-0.187-0.009-0.363c0-0.552,0.146-0.975,0.438-1.272   c0.291-0.296,0.717-0.444,1.273-0.444c0.635,0,1.106,0.162,1.414,0.487c0.308,0.323,0.462,0.816,0.462,1.482   c0,0.38-0.057,0.785-0.167,1.218h-0.653v-0.006c0.121-0.459,0.18-0.813,0.18-1.061c0-0.373-0.096-0.647-0.287-0.822   c-0.192-0.176-0.496-0.268-0.913-0.268c-0.366,0-0.642,0.099-0.826,0.294c-0.186,0.195-0.277,0.491-0.277,0.878   c0,0.272,0.014,0.543,0.038,0.814h-2.694v-2.857h0.641v1.919L89.116,103.373L89.116,103.373z"/>
<path fill="#646464" d="M101.206,138.851l0.554-0.32l0.286,0.497l1.056-0.612l0.502,0.867l-1.058,0.611l1.114,1.931l-0.525,0.304   l-3.34-0.08l-1.044-0.029l-0.472-0.814l3.214-1.857L101.206,138.851z M102.72,141.472l-0.725-1.258l-2.115,1.221L102.72,141.472z"/>
<path fill="#646464" d="M96.938,138.941c-0.286-0.497-0.325-0.976-0.121-1.433c0.207-0.455,0.754-0.938,1.644-1.453   c0.977-0.563,1.71-0.817,2.208-0.765c0.498,0.058,0.889,0.332,1.178,0.83c0.252,0.438,0.326,0.839,0.224,1.192   c-0.103,0.355-0.312,0.668-0.625,0.938c-0.317,0.271-0.724,0.559-1.227,0.848c-0.872,0.502-1.563,0.729-2.073,0.678   C97.634,139.729,97.234,139.446,96.938,138.941z M101.315,136.441c-0.125-0.222-0.342-0.31-0.646-0.271   c-0.305,0.036-0.87,0.297-1.696,0.771c-0.793,0.459-1.271,0.809-1.433,1.033c-0.161,0.234-0.179,0.463-0.057,0.668   c0.109,0.195,0.271,0.295,0.477,0.295c0.208,0.002,0.442-0.057,0.702-0.18c0.264-0.119,0.61-0.304,1.042-0.551   c0.849-0.49,1.361-0.855,1.537-1.092C101.419,136.886,101.443,136.661,101.315,136.441z"/>
<path fill="#646464" d="M127.951,166.431c-0.63-0.367-1.062-0.526-1.293-0.487c-0.23,0.034-0.422,0.19-0.576,0.454   c-0.134,0.232-0.174,0.443-0.118,0.634c0.058,0.188,0.212,0.358,0.461,0.501c0.221,0.13,0.559,0.253,1.019,0.371l0.006,0.004   l-0.325,0.568c-0.461-0.133-0.856-0.293-1.182-0.479c-0.492-0.282-0.805-0.596-0.936-0.938c-0.133-0.338-0.085-0.707,0.144-1.104   c0.156-0.271,0.365-0.466,0.627-0.57c0.261-0.115,0.554-0.125,0.876-0.049c-0.271-0.228-0.427-0.484-0.472-0.775   s0.02-0.586,0.19-0.883c0.284-0.488,0.641-0.772,1.067-0.856c0.428-0.078,0.927,0.045,1.501,0.379   c0.343,0.19,0.667,0.449,0.965,0.756l-0.322,0.562l-0.005-0.004c-0.361-0.35-0.663-0.592-0.903-0.729   c-0.293-0.17-0.555-0.224-0.787-0.163c-0.23,0.064-0.429,0.244-0.603,0.536c-0.181,0.315-0.225,0.592-0.126,0.83   c0.097,0.235,0.464,0.543,1.1,0.909L127.951,166.431z"/>
<path fill="#646464" d="M123.149,165.574l0.689-1.194c-0.062-0.029-0.167-0.088-0.317-0.174c-0.478-0.273-0.771-0.613-0.882-1.014   c-0.111-0.4-0.024-0.844,0.251-1.328c0.32-0.545,0.694-0.875,1.128-0.98s0.939,0.015,1.517,0.344   c0.328,0.189,0.653,0.439,0.972,0.759l-0.329,0.563l-0.006-0.004c-0.336-0.332-0.612-0.564-0.825-0.688   c-0.321-0.185-0.608-0.233-0.856-0.159c-0.25,0.072-0.478,0.297-0.687,0.652c-0.183,0.32-0.235,0.607-0.158,0.863   c0.075,0.262,0.284,0.485,0.622,0.682c0.234,0.133,0.477,0.263,0.724,0.375l-1.348,2.33l-2.477-1.432l0.32-0.556L123.149,165.574z"/>
<path fill="#646464" d="M162.969,174.224c-0.729,0-1.184,0.072-1.363,0.222c-0.182,0.147-0.271,0.376-0.271,0.687   c0,0.271,0.074,0.471,0.22,0.61c0.144,0.14,0.36,0.206,0.647,0.206c0.254,0,0.607-0.066,1.063-0.191h0.009v0.655   c-0.467,0.118-0.889,0.173-1.263,0.173c-0.567,0-0.995-0.115-1.276-0.339c-0.285-0.229-0.429-0.571-0.429-1.026   c0-0.316,0.086-0.588,0.259-0.813c0.172-0.225,0.414-0.389,0.734-0.48c-0.348-0.06-0.611-0.207-0.798-0.435   c-0.185-0.229-0.276-0.519-0.276-0.864c0-0.566,0.166-0.99,0.497-1.275c0.326-0.279,0.824-0.426,1.485-0.426   c0.396,0,0.806,0.061,1.219,0.176v0.646h-0.008c-0.486-0.12-0.867-0.179-1.146-0.179c-0.337,0-0.59,0.083-0.764,0.258   c-0.171,0.171-0.253,0.422-0.253,0.764c0,0.36,0.101,0.625,0.302,0.78c0.206,0.16,0.676,0.239,1.411,0.239L162.969,174.224   L162.969,174.224z"/>
<path fill="#646464" d="M157.859,176.581c-0.572,0-1.002-0.201-1.295-0.609c-0.291-0.402-0.437-1.119-0.437-2.148   c0-1.125,0.146-1.895,0.442-2.296c0.297-0.403,0.732-0.604,1.311-0.604c0.506,0,0.887,0.133,1.145,0.4   c0.26,0.271,0.426,0.605,0.504,1.016c0.076,0.412,0.115,0.902,0.115,1.481c0,1.01-0.148,1.724-0.447,2.136   C158.895,176.376,158.449,176.581,157.859,176.581z M157.888,171.542c-0.253,0-0.438,0.145-0.556,0.428   c-0.117,0.279-0.176,0.901-0.176,1.854c0,0.916,0.06,1.503,0.183,1.761c0.121,0.258,0.304,0.383,0.55,0.383   c0.223,0,0.385-0.086,0.491-0.271c0.104-0.177,0.172-0.415,0.196-0.696c0.025-0.289,0.041-0.684,0.041-1.18   c0-0.982-0.062-1.607-0.176-1.878C158.322,171.677,158.141,171.542,157.888,171.542z"/>
<path fill="#646464" d="M193.443,162.63l-0.324-0.558l2.871-1.658l0.201,0.351c0.195,0.336,0.309,0.664,0.342,0.992   s0.018,0.631-0.047,0.91c-0.063,0.282-0.16,0.611-0.295,0.977c-0.158,0.438-0.238,0.76-0.236,0.947   c0.006,0.188,0.046,0.355,0.125,0.498c0.144,0.248,0.318,0.396,0.523,0.448c0.203,0.048,0.438-0.002,0.7-0.155   c0.276-0.162,0.574-0.424,0.892-0.802l0.006-0.003l0.328,0.573c-0.336,0.37-0.709,0.67-1.102,0.897   c-0.488,0.281-0.917,0.387-1.294,0.318c-0.376-0.064-0.685-0.311-0.929-0.723c-0.131-0.233-0.209-0.493-0.223-0.787   c-0.021-0.293,0.08-0.74,0.299-1.338c0.123-0.334,0.209-0.608,0.271-0.814c0.056-0.213,0.081-0.421,0.08-0.634   c-0.002-0.213-0.052-0.418-0.155-0.615L193.443,162.63z"/>
<path fill="#646464" d="M194.033,167.202l-0.689-1.193c-0.055,0.035-0.16,0.102-0.309,0.187c-0.479,0.274-0.918,0.362-1.32,0.256   c-0.4-0.104-0.743-0.396-1.021-0.879c-0.313-0.552-0.412-1.037-0.285-1.47c0.125-0.422,0.476-0.807,1.056-1.141   c0.328-0.191,0.711-0.347,1.14-0.463l0.325,0.563l-0.007,0.007c-0.458,0.124-0.791,0.246-1.01,0.373   c-0.319,0.187-0.512,0.405-0.567,0.657c-0.056,0.257,0.021,0.564,0.229,0.927c0.183,0.313,0.403,0.506,0.666,0.567   c0.265,0.063,0.563-0.004,0.904-0.201c0.231-0.131,0.463-0.278,0.686-0.438l1.349,2.333l-2.478,1.431l-0.32-0.555L194.033,167.202z   "/>
<path fill="#646464" d="M217.779,138.177l-0.558-0.322l1.655-2.866l0.352,0.204c0.336,0.188,0.598,0.422,0.79,0.686   c0.192,0.27,0.335,0.536,0.417,0.813c0.086,0.271,0.166,0.605,0.233,0.99c0.08,0.463,0.173,0.774,0.271,0.939   s0.217,0.287,0.358,0.369c0.249,0.145,0.472,0.186,0.676,0.127c0.199-0.061,0.376-0.223,0.528-0.484   c0.16-0.279,0.283-0.66,0.369-1.142l0.006-0.007l0.57,0.332c-0.11,0.49-0.275,0.933-0.506,1.328   c-0.279,0.486-0.603,0.796-0.961,0.926c-0.359,0.128-0.748,0.074-1.164-0.169c-0.234-0.132-0.432-0.322-0.592-0.568   c-0.16-0.243-0.297-0.682-0.408-1.308c-0.063-0.354-0.121-0.631-0.176-0.84c-0.059-0.209-0.14-0.406-0.244-0.592   c-0.109-0.183-0.255-0.334-0.438-0.453L217.779,138.177z"/>
<path fill="#646464" d="M220.921,142.644c-0.285,0.492-0.677,0.767-1.177,0.816c-0.496,0.049-1.188-0.184-2.08-0.695   c-0.973-0.563-1.563-1.073-1.762-1.532c-0.201-0.457-0.158-0.935,0.129-1.437c0.254-0.438,0.562-0.699,0.92-0.787   c0.361-0.092,0.738-0.067,1.129,0.069c0.395,0.136,0.841,0.353,1.343,0.644c0.872,0.502,1.415,0.99,1.628,1.457   C221.26,141.642,221.218,142.132,220.921,142.644z M216.57,140.103c-0.125,0.216-0.098,0.445,0.09,0.691   c0.188,0.242,0.69,0.604,1.52,1.082c0.794,0.456,1.332,0.697,1.609,0.717c0.283,0.022,0.488-0.068,0.613-0.283   c0.11-0.191,0.113-0.377,0.016-0.559c-0.104-0.18-0.271-0.354-0.508-0.521c-0.234-0.17-0.568-0.372-1.002-0.618   c-0.849-0.491-1.418-0.757-1.709-0.788C216.904,139.79,216.695,139.882,216.57,140.103z"/>
<path fill="#646464" d="M122.619,44.73l0.688,1.193c0.057-0.038,0.159-0.1,0.31-0.185c0.479-0.276,0.918-0.365,1.322-0.258   c0.399,0.107,0.743,0.399,1.02,0.881c0.318,0.55,0.414,1.037,0.286,1.468c-0.125,0.426-0.477,0.81-1.054,1.143   c-0.328,0.186-0.708,0.343-1.14,0.462l-0.326-0.567l0.008-0.004c0.459-0.121,0.793-0.246,1.007-0.371   c0.323-0.184,0.511-0.405,0.568-0.663c0.059-0.254-0.018-0.56-0.226-0.92c-0.183-0.316-0.405-0.509-0.667-0.569   c-0.261-0.065-0.563,0.003-0.901,0.199c-0.233,0.134-0.463,0.281-0.687,0.441l-1.345-2.333l2.476-1.431l0.321,0.552L122.619,44.73z   "/>
<path fill="#646464" d="M125.968,42.798l0.689,1.192c0.054-0.037,0.159-0.099,0.308-0.186c0.479-0.275,0.919-0.363,1.321-0.256   c0.402,0.104,0.743,0.399,1.021,0.881c0.317,0.549,0.414,1.036,0.286,1.465c-0.124,0.429-0.477,0.81-1.054,1.144   c-0.328,0.19-0.708,0.344-1.138,0.464l-0.328-0.564l0.007-0.007c0.457-0.124,0.793-0.246,1.008-0.371   c0.322-0.187,0.512-0.408,0.569-0.663c0.057-0.254-0.019-0.563-0.227-0.92c-0.184-0.319-0.405-0.51-0.667-0.569   c-0.263-0.065-0.562,0.002-0.902,0.197c-0.234,0.135-0.463,0.282-0.686,0.44l-1.348-2.333l2.478-1.428l0.319,0.551L125.968,42.798z   "/>
<path fill="#646464" d="M226.58,104.96h-0.596v-3.28h0.596v1.166h4.145l-0.271-1.166h0.597l0.519,1.636v0.54h-4.988V104.96   L226.58,104.96z"/>
<path fill="#646464" d="M230.882,106.626h-1.377c0.006,0.067,0.009,0.188,0.009,0.36c0,0.553-0.146,0.976-0.438,1.274   c-0.293,0.295-0.717,0.442-1.275,0.442c-0.633,0-1.104-0.163-1.41-0.485c-0.311-0.322-0.464-0.817-0.464-1.484   c0-0.377,0.056-0.783,0.17-1.219h0.651v0.01c-0.123,0.458-0.182,0.813-0.182,1.061c0,0.37,0.098,0.645,0.286,0.822   c0.192,0.178,0.494,0.268,0.912,0.268c0.368,0,0.646-0.1,0.827-0.297c0.186-0.193,0.275-0.488,0.275-0.877   c0-0.271-0.014-0.543-0.037-0.813h2.691v2.857h-0.64V106.626L230.882,106.626L230.882,106.626z"/>
<path fill="#646464" d="M195.176,43.458l-0.688,1.195c0.063,0.027,0.166,0.085,0.313,0.173c0.479,0.276,0.772,0.616,0.886,1.015   c0.109,0.402,0.023,0.845-0.255,1.326c-0.315,0.549-0.692,0.875-1.127,0.982c-0.435,0.104-0.938-0.009-1.514-0.343   c-0.328-0.187-0.652-0.44-0.97-0.752l0.326-0.567l0.008,0.004c0.332,0.332,0.613,0.563,0.824,0.687   c0.321,0.185,0.606,0.238,0.856,0.161s0.476-0.297,0.687-0.655c0.18-0.318,0.234-0.605,0.158-0.865   c-0.076-0.256-0.285-0.482-0.621-0.677c-0.234-0.135-0.475-0.261-0.725-0.374l1.348-2.333l2.479,1.428l-0.317,0.556L195.176,43.458   z"/>
<path fill="#646464" d="M217.636,71.669l-0.515,0.297l-1.641-2.84l0.514-0.297l0.586,1.01l3.589-2.073l-0.817-0.876l0.52-0.297   l1.266,1.16l0.27,0.467l-4.319,2.495L217.636,71.669z"/>
<path fill="#646464" d="M223.063,71.061c0.287,0.497,0.324,0.969,0.12,1.428c-0.204,0.456-0.753,0.94-1.646,1.456   c-0.973,0.563-1.711,0.817-2.207,0.761c-0.494-0.056-0.889-0.332-1.176-0.832c-0.254-0.435-0.326-0.835-0.226-1.189   c0.104-0.357,0.313-0.672,0.625-0.944c0.315-0.271,0.726-0.553,1.226-0.842c0.873-0.505,1.564-0.73,2.076-0.679   C222.365,70.269,222.768,70.55,223.063,71.061z M218.684,73.558c0.125,0.22,0.342,0.309,0.646,0.267   c0.304-0.037,0.869-0.297,1.695-0.774c0.795-0.458,1.271-0.806,1.434-1.035c0.16-0.234,0.18-0.458,0.058-0.669   c-0.11-0.192-0.271-0.291-0.478-0.292c-0.206-0.002-0.44,0.058-0.703,0.178c-0.264,0.121-0.609,0.304-1.041,0.554   c-0.85,0.489-1.36,0.854-1.537,1.089C218.582,73.113,218.556,73.341,218.684,73.558z"/>
<circle fill="none" cx="160" cy="104.999" r="73.034"/>
<rect x="77.074" y="22.073" fill="none" width="165.852" height="165.854"/>
<path fill-opacity="0.4" d="M178.83,124.903c-0.299,0.297-0.776,0.297-1.072,0.005l-60.259-60.261   c-0.295-0.294-0.293-0.771,0.003-1.069l1.075-1.076c0.297-0.297,0.777-0.299,1.07-0.007l60.263,60.262   c0.291,0.295,0.291,0.773-0.008,1.068L178.83,124.903z"/>
<rect x="147.946" y="51.095" transform="matrix(-0.7065 0.7077 -0.7077 -0.7065 320.0809 54.657)" fill="#FFFFFF" width="1.521" height="85.22"/>
<linearGradient id="SVGID_5_" gradientUnits="userSpaceOnUse" x1="426.8613" y1="1063.6152" x2="426.8613" y2="1099.1973" gradientTransform="matrix(1 0 0 1 -249.04 -995.9609)">
<stop offset="0" style="stop-color:#FFFFFF"/>
<stop offset="0.9455" style="stop-color:#CBCBCB"/>
<stop offset="1" style="stop-color:#CBCBCB"/>
</linearGradient>
<path display="none" fill="url(#SVGID_5_)" d="M163.73,103.988c-3.875,0-6.007-2.244-6.007-6.319v-13.96   c0-4.23,3.511-5.73,6.517-5.73h0.287c0.248,0,0.271-0.002,0.474-0.01l0.163-0.006c1.625-0.056,3.359-1.23,3.357-4.359   c-0.002-2.646,0.717-4.59,2.139-5.769c1.217-1.011,2.662-1.222,3.664-1.222c0.711,0,1.211,0.107,1.229,0.112   c14.013,2.417,21.495,14.197,22.323,21.788c0.234,2.158-0.549,4.538-2.045,6.206c-1.002,1.117-2.793,2.45-5.637,2.45   c-4.256,0-5.938,1.468-6.84,2.57l-0.255,0.317c-1.168,1.471-3.125,3.933-7.319,3.933L163.73,103.988L163.73,103.988z"/>
<linearGradient id="SVGID_6_" gradientUnits="userSpaceOnUse" x1="426.8613" y1="1099.5459" x2="426.8613" y2="1062.8889" gradientTransform="matrix(1 0 0 1 -249.04 -995.9609)">
<stop offset="0" style="stop-color:#B4B4B4"/>
<stop offset="1" style="stop-color:#A0A0A0"/>
</linearGradient>
<path display="none" fill="url(#SVGID_6_)" d="M197.877,88.514c-0.828-7.591-8.313-19.371-22.323-21.788   c-0.021-0.005-0.521-0.112-1.229-0.112c-1.002,0-2.447,0.211-3.664,1.222c-1.422,1.179-2.141,3.122-2.139,5.769   c0.002,3.129-1.732,4.304-3.357,4.359l-0.163,0.006c-0.2,0.008-0.226,0.01-0.474,0.01h-0.287c-3.006,0-6.517,1.5-6.517,5.73v13.96   c0,4.075,2.134,6.319,6.007,6.319h12.055c4.193,0,6.149-2.462,7.318-3.931l0.254-0.317c0.897-1.104,2.586-2.57,6.842-2.57   c2.844,0,4.634-1.333,5.638-2.45C197.326,93.051,198.113,90.672,197.877,88.514z M190.195,96.529c-4.494,0-6.334,1.576-7.336,2.807   c-1.164,1.436-2.896,4.014-7.076,4.014c-4.183,0-7.479,0-12.057,0s-5.365-3.25-5.365-5.681c0-2.429,0-13.96,0-13.96   c0-3.771,3.051-5.091,5.877-5.091c0.639,0,0.479,0.002,0.945-0.015c2.119-0.072,3.979-1.645,3.977-4.998   c-0.006-7.635,6.252-6.255,6.252-6.255c13.789,2.379,21.035,13.987,21.824,21.231C197.609,91.963,195.219,96.529,190.195,96.529z"/>
<polygon fill-opacity="0.4" points="172.523,96.783 127.42,141.884 122.601,142.13 123.136,137.562 168.218,92.478  "/>
<polygon points="168.218,93.554 171.447,96.783 127.087,141.14 123.463,141.325 123.86,137.911  "/>
<polygon fill-opacity="0.4" points="154.207,93.823 188.01,127.628 187.72,132.985 182.611,132.988 148.826,99.202  "/>
<polygon fill="#1A1A1A" points="149.902,99.202 154.207,94.899 187.267,127.958 186.914,132.123 182.962,132.265  "/>
<path fill-opacity="0.4" d="M155.16,100.157c2.668-2.672,7.013-2.669,9.684,0c2.669,2.669,2.669,7.012,0,9.68   c-2.671,2.672-7.014,2.674-9.684,0.002C152.49,107.171,152.49,102.824,155.16,100.157L155.16,100.157z"/>
<linearGradient id="SVGID_7_" gradientUnits="userSpaceOnUse" x1="-4726.458" y1="3070.1074" x2="-4726.458" y2="3057.7832" gradientTransform="matrix(-0.7071 0.7071 0.7071 0.7071 -5348.5923 1280.5605)">
<stop offset="0" style="stop-color:#999999"/>
<stop offset="0.31" style="stop-color:#4D4D4D"/>
<stop offset="1" style="stop-color:#000000"/>
</linearGradient>
<circle fill="url(#SVGID_7_)" cx="160.001" cy="104.998" r="6.162"/>
<path fill="#E6E6E6" d="M156.129,101.124c2.135-2.133,5.609-2.136,7.749,0c2.134,2.136,2.134,5.61-0.003,7.747   c-2.137,2.136-5.612,2.136-7.746,0C153.992,106.734,153.994,103.261,156.129,101.124L156.129,101.124z"/>
</g>
<rect fill="none" width="320" height="210"/>
</svg>
