<?xml version="1.0" encoding="UTF-8" standalone="no"?>
<!-- Created with Inkscape (http://www.inkscape.org/) -->
<svg
   xmlns:a="http://ns.adobe.com/AdobeSVGViewerExtensions/3.0/"
   xmlns:svg="http://www.w3.org/2000/svg"
   xmlns="http://www.w3.org/2000/svg"
   version="1.0"
   width="100%"
   height="100%"
   viewBox="0 0 87.999512 88.000488"
   id="svg76799">
  <defs
     id="defs76881">
    <radialGradient
       cx="16.93359"
       cy="17.94434"
       r="10.21466"
       fx="16.93359"
       fy="17.94434"
       id="XMLID_12_"
       gradientUnits="userSpaceOnUse">
      <stop
         style="stop-color:#bdcede;stop-opacity:1"
         offset="0"
         id="stop2443" />
      <stop
         style="stop-color:#b3b6ed;stop-opacity:1"
         offset="1"
         id="stop2445" />
      <a:midPointStop
         style="stop-color:#BDCEDE"
         offset="0" />
      <a:midPointStop
         style="stop-color:#BDCEDE"
         offset="0.5" />
      <a:midPointStop
         style="stop-color:#B3B6ED"
         offset="1" />
    </radialGradient>
    <linearGradient
       x1="7.6855502"
       y1="33.568359"
       x2="9.2402296"
       y2="35.123051"
       id="XMLID_11_"
       gradientUnits="userSpaceOnUse">
      <stop
         style="stop-color:#647490;stop-opacity:1"
         offset="0"
         id="stop2374" />
      <stop
         style="stop-color:#3b5375;stop-opacity:1"
         offset="1"
         id="stop2376" />
      <a:midPointStop
         style="stop-color:#647490"
         offset="0" />
      <a:midPointStop
         style="stop-color:#647490"
         offset="0.5" />
      <a:midPointStop
         style="stop-color:#3B5375"
         offset="1" />
    </linearGradient>
    <linearGradient
       x1="-87.874023"
       y1="86.413094"
       x2="-68.792519"
       y2="59.91861"
       id="XMLID_10_"
       gradientUnits="userSpaceOnUse"
       gradientTransform="matrix(1,0,0,-1,106.50049,93.23242)">
      <stop
         style="stop-color:#ffffff;stop-opacity:1"
         offset="0"
         id="stop2363" />
      <stop
         style="stop-color:#f5f5f5;stop-opacity:1"
         offset="0.12323"
         id="stop2365" />
      <stop
         style="stop-color:#dcdcdc;stop-opacity:1"
         offset="0.62667"
         id="stop2367" />
      <stop
         style="stop-color:#b2b2b2;stop-opacity:1"
         offset="1"
         id="stop2369" />
      <a:midPointStop
         style="stop-color:#FFFFFF"
         offset="0" />
      <a:midPointStop
         style="stop-color:#FFFFFF"
         offset="0.5" />
      <a:midPointStop
         style="stop-color:#F5F5F5"
         offset="0.12323" />
      <a:midPointStop
         style="stop-color:#F5F5F5"
         offset="0.5" />
      <a:midPointStop
         style="stop-color:#DCDCDC"
         offset="0.62667" />
      <a:midPointStop
         style="stop-color:#DCDCDC"
         offset="0.5" />
      <a:midPointStop
         style="stop-color:#B2B2B2"
         offset="1" />
    </linearGradient>
    <linearGradient
       x1="-354.65088"
       y1="-320.31396"
       x2="-346.3559"
       y2="-290.57343"
       id="XMLID_9_"
       gradientUnits="userSpaceOnUse"
       gradientTransform="translate(381.50049,321.26758)">
      <stop
         style="stop-color:#5e5f5f;stop-opacity:1"
         offset="0"
         id="stop2332" />
      <stop
         style="stop-color:#7b7c7c;stop-opacity:1"
         offset="0.0454"
         id="stop2334" />
      <stop
         style="stop-color:#bfbfc0;stop-opacity:1"
         offset="0.13559"
         id="stop2336" />
      <stop
         style="stop-color:#c8c8c9;stop-opacity:1"
         offset="0.16057999"
         id="stop2338" />
      <stop
         style="stop-color:#e2e2e2;stop-opacity:1"
         offset="0.20213"
         id="stop2340" />
      <stop
         style="stop-color:#ffffff;stop-opacity:1"
         offset="0.24011"
         id="stop2342" />
      <stop
         style="stop-color:#ffffff;stop-opacity:1"
         offset="0.28248999"
         id="stop2344" />
      <stop
         style="stop-color:#e9e9e9;stop-opacity:1"
         offset="0.34463"
         id="stop2346" />
      <stop
         style="stop-color:#919191;stop-opacity:1"
         offset="0.639"
         id="stop2348" />
      <stop
         style="stop-color:#4a4a4a;stop-opacity:1"
         offset="0.81300002"
         id="stop2350" />
      <stop
         style="stop-color:#1e1e1e;stop-opacity:1"
         offset="0.93730003"
         id="stop2352" />
      <stop
         style="stop-color:#0d0d0d;stop-opacity:1"
         offset="1"
         id="stop2354" />
      <a:midPointStop
         style="stop-color:#5E5F5F"
         offset="0" />
      <a:midPointStop
         style="stop-color:#5E5F5F"
         offset="0.5" />
      <a:midPointStop
         style="stop-color:#7B7C7C"
         offset="0.0454" />
      <a:midPointStop
         style="stop-color:#7B7C7C"
         offset="0.5" />
      <a:midPointStop
         style="stop-color:#BFBFC0"
         offset="0.13559" />
      <a:midPointStop
         style="stop-color:#BFBFC0"
         offset="0.5" />
      <a:midPointStop
         style="stop-color:#C8C8C9"
         offset="0.16058" />
      <a:midPointStop
         style="stop-color:#C8C8C9"
         offset="0.5" />
      <a:midPointStop
         style="stop-color:#E2E2E2"
         offset="0.20213" />
      <a:midPointStop
         style="stop-color:#E2E2E2"
         offset="0.5" />
      <a:midPointStop
         style="stop-color:#FFFFFF"
         offset="0.24011" />
      <a:midPointStop
         style="stop-color:#FFFFFF"
         offset="0.5" />
      <a:midPointStop
         style="stop-color:#FFFFFF"
         offset="0.28249" />
      <a:midPointStop
         style="stop-color:#FFFFFF"
         offset="0.5" />
      <a:midPointStop
         style="stop-color:#E9E9E9"
         offset="0.34463" />
      <a:midPointStop
         style="stop-color:#E9E9E9"
         offset="0.5" />
      <a:midPointStop
         style="stop-color:#919191"
         offset="0.639" />
      <a:midPointStop
         style="stop-color:#919191"
         offset="0.5" />
      <a:midPointStop
         style="stop-color:#4A4A4A"
         offset="0.813" />
      <a:midPointStop
         style="stop-color:#4A4A4A"
         offset="0.5" />
      <a:midPointStop
         style="stop-color:#1E1E1E"
         offset="0.9373" />
      <a:midPointStop
         style="stop-color:#1E1E1E"
         offset="0.5" />
      <a:midPointStop
         style="stop-color:#0D0D0D"
         offset="1" />
    </linearGradient>
  </defs>
  <g
     transform="matrix(2.0830394,0,0,2.0830394,-2.7158205,-1.6551108)"
     id="g2735">
    <path
       d="M 38.8125,4.88574 C 34.00684,3.94433 18.62012,2.92529 18.03369,2.92529 C 17.44531,2.92529 15.28808,3.38379 14.93457,3.72607 C 14.8291,3.8291 14.81787,3.8291 14.82666,3.80273 L 14.84229,3.81884 C 15.94922,3.68505 34.9375,5.16064 37.96583,6.06396 C 38.61817,6.61084 38.69044,8.49218 38.74708,9.29345 C 38.89845,11.35302 38.59474,28.32031 38.46388,29.6621 C 38.3379,30.95702 38.4131,31.27929 37.8213,32.16796 C 37.62013,32.46484 37.45607,32.63671 37.11232,32.74413 C 37.12013,32.74022 37.23146,32.73241 37.23634,32.73046 C 37.93751,32.58983 40.54493,30.97069 40.78029,30.22265 C 41.29982,28.34179 41.70607,10.79247 41.46584,8.16992 C 41.48438,5.16064 39.57227,5.03418 38.8125,4.88574 z "
       style="fill:url(#XMLID_9_)"
       id="path2356" />
    <path
       d="M 37.82031,32.16797 C 38.41211,31.28125 38.33789,30.95899 38.46386,29.66211 C 38.59472,28.32422 38.93652,11.7793 38.82909,9.86133 C 38.72069,7.94385 38.708,6.57862 38.00975,6.1001 C 36.80176,5.3623 16.21094,3.75537 14.84131,3.81885 C 13.47217,3.8833 13.29639,26.92383 14.1211,27.20508 C 14.67237,28.03125 35.43848,32.70508 36.86719,32.74414 C 37.32813,32.7832 37.60938,32.48438 37.82031,32.16797 z "
       style="fill:#ffffff"
       id="path2358" />
    <path
       d="M 37.67578,10.2373 C 37.62598,8.34619 37.70117,7.6372 37.0664,7.16308 C 36.52051,6.604 17.74316,4.69287 16.24512,4.88672 C 16.13379,4.89942 15.62403,5.13428 15.5625,5.16211 C 16.45996,4.77881 36.09863,6.8208 36.64648,7.37891 C 37.32519,7.87012 37.20507,8.56006 37.25586,10.45215 C 37.32813,13.60108 37.24414,27.40235 37.12793,28.65235 C 37.03613,30.91016 36.35645,31.37501 35.68652,31.45508 C 35.76367,31.44922 35.83886,31.44336 35.90136,31.43164 C 36.73534,31.24609 37.46093,30.61133 37.54687,28.43945 C 37.66504,27.1875 37.74805,13.38574 37.67578,10.2373 z "
       style="fill:#464646"
       id="path2360" />
    <path
       d="M 37.12695,28.68359 C 37.25,27.46875 37.34765,13.40722 37.27148,10.3413 C 37.21875,8.4995 37.34277,7.82665 36.63085,7.34862 C 36.05858,6.80516 16.6494,4.791 15.70995,5.16405 C 14.76855,5.5376 14.6792,7.93262 14.6665,15.2085 C 14.66015,18.84766 14.62109,21.4668 14.6499,23.27344 C 14.67822,25.07813 14.77295,26.06836 15.03515,26.45117 C 15.70214,27.38086 33.5039,31.45508 35.22167,31.42187 C 35.35546,31.42578 35.5664,31.42382 35.75097,31.4121 C 36.45313,31.33594 37.03027,30.88477 37.12695,28.68359 z "
       style="fill:url(#XMLID_10_)"
       id="path2371" />
    <path
       d="M 13.88525,26.61621 C 14.35742,26.95703 14.54834,27.49902 14.31298,27.82519 L 4.11621,41.89746 C 3.87988,42.22363 3.30566,42.20996 2.83301,41.86914 L 2.83301,41.86914 C 2.36231,41.52637 2.1709,40.98535 2.40723,40.6582 L 12.60303,26.58691 C 12.83936,26.26074 13.41357,26.27344 13.88525,26.61621 L 13.88525,26.61621 z "
       style="fill:url(#XMLID_11_)"
       id="path2378" />
    <path
       d="M 19.96289,20.87451 L 19.0415,20.7124 C 18.20654,20.56592 17.53418,21.12256 17.54052,21.95801 L 17.56249,25.24707 C 17.56835,26.08008 18.24755,26.88477 19.08007,27.04102 L 19.9995,27.2129 C 20.83348,27.3711 21.50389,26.81446 21.4995,25.97462 L 21.48095,22.6631 C 21.47559,21.82031 20.79688,21.021 19.96289,20.87451 z M 21.12646,25.59375 C 21.13037,26.27344 20.58593,26.72559 19.91015,26.60059 L 19.16259,26.46094 C 18.48779,26.33301 17.93505,25.68067 17.93114,25.00489 L 17.91356,22.33448 C 17.90917,21.65626 18.45458,21.20362 19.13036,21.32276 L 19.87938,21.45557 C 20.55663,21.57422 21.1079,22.22608 21.1118,22.90625 L 21.12646,25.59375 z "
       id="path2380" />
    <path
       d="M 28.68457,23.13477 L 28.04687,23.02247 C 27.46875,22.9209 27,23.31738 27.00195,23.9082 L 27.00976,26.2334 C 27.01171,26.82422 27.48242,27.3916 28.05956,27.5 L 28.69628,27.61914 C 29.27441,27.72852 29.74023,27.33301 29.73925,26.73828 L 29.73339,24.39453 C 29.73242,23.80078 29.26367,23.23633 28.68457,23.13477 z M 29.48047,26.4707 C 29.48145,26.95312 29.10449,27.27343 28.63477,27.18652 L 28.11719,27.08886 C 27.65039,27.00292 27.26758,26.54198 27.26563,26.06249 L 27.25977,24.17089 C 27.25879,23.69335 27.63868,23.37109 28.10645,23.45409 L 28.625,23.54589 C 29.0957,23.6289 29.47461,24.08788 29.47559,24.56835 L 29.48047,26.4707 z "
       id="path2382" />
    <polygon
       points="15.91357,26.36426 15.12744,26.21777 15.08936,21.15137 15.87598,21.29004 15.91357,26.36426 "
       id="polygon2384" />
    <polygon
       points="15.21777,22.12402 13.8667,21.88379 15.21045,21.19824 15.21777,22.12402 "
       id="polygon2386" />
    <polygon
       points="24.64063,27.96387 23.85449,27.81738 23.81641,22.75098 24.60352,22.88965 24.64063,27.96387 "
       id="polygon2388" />
    <polygon
       points="23.94434,23.72363 22.59375,23.48242 23.9375,22.79785 23.94434,23.72363 "
       id="polygon2390" />
    <polygon
       points="32.44043,28.25 31.7959,28.12988 31.79004,23.80859 32.43555,23.92285 32.44043,28.25 "
       id="polygon2392" />
    <polygon
       points="31.88867,24.6377 30.78223,24.44043 31.8877,23.84766 31.88867,24.6377 "
       id="polygon2394" />
    <polygon
       points="35.36426,28.73633 34.71973,28.61523 34.71875,24.26465 35.36426,24.37793 35.36426,28.73633 "
       id="polygon2396" />
    <polygon
       points="34.81641,25.09863 33.70996,24.90137 34.81641,24.30371 34.81641,25.09863 "
       id="polygon2398" />
    <path
       d="M 20.7041,8.17773 L 20.0625,8.08886 C 19.48047,8.00878 19.0127,8.4121 19.01611,8.99072 L 19.03174,11.26806 C 19.03565,11.84667 19.50928,12.38574 20.08936,12.47314 L 20.72999,12.56933 C 21.31104,12.65673 21.77833,12.25488 21.77491,11.67236 L 21.76221,9.37793 C 21.75879,8.79492 21.28564,8.25781 20.7041,8.17773 z M 21.51514,11.41895 C 21.51758,11.89063 21.13868,12.21778 20.66748,12.14747 L 20.14697,12.06983 C 19.67627,11.99903 19.2915,11.56104 19.28857,11.0918 L 19.27636,9.24121 C 19.27343,8.77197 19.65331,8.44433 20.1245,8.50976 L 20.646,8.58252 C 21.11768,8.64844 21.50196,9.08496 21.50489,9.55713 L 21.51514,11.41895 z "
       id="path2400" />
    <path
       d="M 24.59961,8.75439 L 23.95703,8.66601 C 23.37695,8.58544 22.90723,8.99365 22.91015,9.5791 L 22.92187,11.87988 C 22.9248,12.46484 23.39843,13.00927 23.97851,13.09619 L 24.61914,13.19287 C 25.20117,13.28027 25.66797,12.87353 25.66602,12.28467 L 25.65723,9.96631 C 25.65527,9.37744 25.18262,8.83496 24.59961,8.75439 z M 25.40625,12.02881 C 25.4082,12.50537 25.0293,12.83692 24.55664,12.76611 L 24.03516,12.68798 C 23.56641,12.61816 23.18164,12.17577 23.17969,11.70165 L 23.16992,9.83202 C 23.16699,9.35741 23.54883,9.02587 24.01953,9.0913 L 24.54101,9.16454 C 25.01464,9.22997 25.3955,9.67089 25.39746,10.14745 L 25.40625,12.02881 z "
       id="path2402" />
    <path
       d="M 28.64648,9.25537 L 28.00586,9.1665 C 27.42383,9.08642 26.95313,9.5 26.95508,10.09082 L 26.96289,12.41748 C 26.96484,13.0083 27.43848,13.55762 28.01855,13.64502 L 28.65918,13.74121 C 29.24121,13.82861 29.70898,13.4165 29.70801,12.82178 L 29.70313,10.47852 C 29.70117,9.8833 29.23047,9.33594 28.64648,9.25537 z M 29.44824,12.56348 C 29.44922,13.04493 29.07031,13.38037 28.59765,13.30957 L 28.07617,13.23242 C 27.60644,13.16211 27.22265,12.71582 27.2207,12.23681 L 27.21484,10.34618 C 27.21289,9.86669 27.5957,9.53124 28.06543,9.59667 L 28.58789,9.66942 C 29.06152,9.73534 29.44141,10.17967 29.44238,10.6621 L 29.44824,12.56348 z "
       id="path2404" />
    <polygon
       points="17.6748,11.98242 17.02686,11.88525 16.99512,7.73242 17.64453,7.82227 17.6748,11.98242 "
       id="polygon2406" />
    <polygon
       points="17.10156,8.52637 15.98779,8.36963 17.0957,7.76709 17.10156,8.52637 "
       id="polygon2408" />
    <polygon
       points="32.4248,14.23389 31.77637,14.13623 31.76953,9.81738 32.41992,9.90723 32.4248,14.23389 "
       id="polygon2410" />
    <polygon
       points="31.87012,10.64258 30.75684,10.48584 31.86914,9.85303 31.87012,10.64258 "
       id="polygon2412" />
    <polygon
       points="35.36426,14.61377 34.71582,14.5166 34.71484,10.16455 35.36426,10.25439 35.36426,14.61377 "
       id="polygon2414" />
    <polygon
       points="34.81348,10.99561 33.7002,10.83887 34.81348,10.19971 34.81348,10.99561 "
       id="polygon2416" />
    <path
       d="M 24.27832,14.48389 L 23.49707,14.36133 C 22.78906,14.25049 22.21875,14.73779 22.22266,15.45069 L 22.23682,18.25782 C 22.24024,18.97071 22.81641,19.64552 23.52051,19.76563 L 24.30078,19.89698 C 25.00683,20.0171 25.57617,19.53126 25.57422,18.81348 L 25.56348,15.98535 C 25.55957,15.26709 24.98535,14.59521 24.27832,14.48389 z M 25.25781,18.49561 C 25.25976,19.07764 24.79883,19.47217 24.22461,19.37598 L 23.59082,19.26856 C 23.02051,19.17286 22.55273,18.62501 22.54883,18.0459 L 22.53809,15.76563 C 22.53613,15.1875 23,14.79102 23.57227,14.88184 L 24.20606,14.98243 C 24.78126,15.07374 25.24708,15.61915 25.24805,16.20118 L 25.25781,18.49561 z "
       id="path2418" />
    <path
       d="M 28.66602,16.29541 L 28.02637,16.19482 C 27.44629,16.104 26.97657,16.50878 26.97852,17.09961 L 26.98731,19.42627 C 26.98926,20.0166 27.45997,20.5752 28.04004,20.67334 L 28.67774,20.78125 C 29.25782,20.87939 29.72462,20.47607 29.72364,19.88135 L 29.71876,17.5376 C 29.7168,16.94287 29.24707,16.38672 28.66602,16.29541 z M 29.46484,19.61768 C 29.46582,20.09961 29.08789,20.42774 28.61621,20.34864 L 28.09668,20.26124 C 27.62891,20.18263 27.24609,19.72901 27.24414,19.24952 L 27.23828,17.35938 C 27.23633,16.88038 27.61719,16.55127 28.08594,16.62549 L 28.60645,16.70752 C 29.07813,16.78272 29.45899,17.23438 29.45997,17.7168 L 29.46484,19.61768 z "
       id="path2420" />
    <polygon
       points="15.85449,18.26416 15.06592,18.13037 15.02881,13.06592 15.81787,13.19043 15.85449,18.26416 "
       id="polygon2422" />
    <polygon
       points="15.15674,14.03613 13.80176,13.82031 15.1499,13.10986 15.15674,14.03613 "
       id="polygon2424" />
    <polygon
       points="20.29785,20.33643 19.2832,20.16504 19.23535,13.64795 20.25049,13.80811 20.29785,20.33643 "
       id="polygon2426" />
    <polygon
       points="19.3999,14.89648 17.65625,14.61865 19.39111,13.70459 19.3999,14.89648 "
       id="polygon2428" />
    <polygon
       points="32.43262,21.34326 31.78613,21.23438 31.78027,16.91504 32.42773,17.01709 32.43262,21.34326 "
       id="polygon2430" />
    <polygon
       points="31.87988,17.7417 30.76953,17.56494 31.87891,16.95215 31.87988,17.7417 "
       id="polygon2432" />
    <polygon
       points="35.36426,21.77783 34.71777,21.66895 34.7168,17.31641 35.36426,17.41846 35.36426,21.77783 "
       id="polygon2434" />
    <polygon
       points="34.81543,18.14941 33.70508,17.97217 34.81543,17.35352 34.81543,18.14941 "
       id="polygon2436" />
    <path
       d="M 19.2666,10.71484 C 14.11426,10.71484 9.9375,14.8916 9.9375,20.04394 C 9.9375,25.19531 14.11426,29.37207 19.2666,29.37207 C 24.41797,29.37207 28.59375,25.19531 28.59375,20.04394 C 28.59375,14.8916 24.41797,10.71484 19.2666,10.71484 z M 19.22803,28.43945 C 14.56983,28.43945 10.79297,24.66308 10.79297,20.00537 C 10.79297,15.34717 14.56983,11.57031 19.22803,11.57031 C 23.88574,11.57031 27.66114,15.34717 27.66114,20.00537 C 27.66113,24.66309 23.88574,28.43945 19.22803,28.43945 z "
       style="fill:#3b5375"
       id="path2438" />
    <path
       d="M 19.22803,11.57031 C 14.56983,11.57031 10.79297,15.34717 10.79297,20.00537 C 10.79297,24.66308 14.56983,28.43945 19.22803,28.43945 C 23.88574,28.43945 27.66114,24.66308 27.66114,20.00537 C 27.66113,15.34717 23.88574,11.57031 19.22803,11.57031 z M 19.30566,27.66211 C 15.12011,27.66211 11.72607,24.26856 11.72607,20.08301 C 11.72607,15.89746 15.12011,12.50342 19.30566,12.50342 C 23.49121,12.50342 26.88379,15.89746 26.88379,20.08301 C 26.88379,24.26856 23.49121,27.66211 19.30566,27.66211 z "
       style="fill:#f8f1df"
       id="path2440" />
    <circle
       cx="19.30566"
       cy="20.08276"
       r="7.57935"
       style="opacity:0.35;fill:url(#XMLID_12_)"
       id="circle2447" />
  </g>
</svg>
