<?xml version="1.0" encoding="UTF-8"?>
<!DOCTYPE svg PUBLIC "-//W3C//DTD SVG 1.1 Tiny//EN" "http://www.w3.org/Graphics/SVG/1.1/DTD/svg11-tiny.dtd">
<svg width="84" height="58" viewBox="-1.884 -0.817 84 58">
<g fill-opacity="0.8" stroke-opacity="0.8">
<linearGradient id="_14" gradientUnits="userSpaceOnUse" x1="33.3" y1="5.36" x2="13.63" y2="34.17">
<stop stop-color="#A2C2DD" offset="0.1"/>
<stop stop-color="#6C83BB" offset="0.71"/>
<stop stop-color="#003D6D" offset="0.99"/>
</linearGradient>
<path fill="url(#_14)" d="M25.842,8.3c-8.629,3.225-17.035,9.365-17.035,15.963 c0.215,4.915,3.531,10.465,8.252,12.719l-0.479-3.623c0,0-0.725-0.627-0.811-0.885c-0.188-0.76-0.283-1.484-0.283-2.174 c0-5.745,6.096-9.069,11.148-11.159c0.01,0.184,0.053,0.973,0.053,0.973L44.354,8.883l-18.816-5.57 C25.538,3.312,25.817,7.851,25.842,8.3z"/>
<linearGradient id="_15" gradientUnits="userSpaceOnUse" x1="14.38" y1="41.14" x2="22.83" y2="16.07">
<stop stop-color="#FFFFFF" offset="0"/>
<stop stop-color="#A2C2DD" offset="0.35"/>
<stop stop-color="#6C83BB" offset="0.7"/>
<stop stop-color="#003D6D" offset="1"/>
</linearGradient>
<path fill="url(#_15)" d="M15.926,34.127c-3.744-9.36,6.65-13.801,12.1-15.924 c-0.684-1.658-0.453-1.881-1.139-3.541C14.717,19.404,10.215,26.336,15.926,34.127"/>
<path fill="#496DA2" d="M16.256,33.572c-4.707-2.646-7.328-6.674-7.02-9.782 c-0.264,4.508,3.184,10.516,7.391,12.588L16.256,33.572z"/>
<linearGradient id="_16" gradientUnits="userSpaceOnUse" x1="33.31" y1="-4.43" x2="24.52" y2="21.29">
<stop stop-color="#FFFFFF" offset="0.05"/>
<stop stop-color="#A2C2DD" offset="1"/>
</linearGradient>
<path fill="url(#_16)" d="M16.256,33.572c-14.549-8.258-4.498-19.739,9.951-25.045 l-0.291-4.736L43.516,9l-16.51,10.498l-0.242-4.6C15.717,19.203,9.606,26.631,16.256,33.572z"/>
<linearGradient id="_17" gradientUnits="userSpaceOnUse" x1="42.43" y1="8.33" x2="55.15" y2="34.72">
<stop stop-color="#FFFFFF" offset="0"/>
<stop stop-color="#A2C2DD" offset="0.35"/>
<stop stop-color="#6C83BB" offset="0.7"/>
<stop stop-color="#003D6D" offset="1"/>
</linearGradient>
<path fill="url(#_17)" d="M32.038,10.318l4.539-2.406c-0.029,0.018,5.496-2.225,10.221-0.994 c4.566,1.188,7.303,3.672,9.932,7.73c2.629,4.055,3.244,11.162,1.51,14.95c-1.74,3.785-3.348,5.117-4.619,6.318L32.038,10.318z"/>
<radialGradient id="_18" gradientUnits="userSpaceOnUse" cx="31.83" cy="13.47" r="22.73">
<stop stop-color="#FFFFFF" offset="0.05"/>
<stop stop-color="#A2C2DD" offset="1"/>
</radialGradient>
<path fill="url(#_18)" d="M55.084,25.972c0.453,9.104-6.096,16.18-14.625,15.813 c-8.535-0.367-15.818-8.057-16.27-17.163c-0.453-9.102,6.098-16.182,14.629-15.814C47.352,9.183,54.633,16.873,55.084,25.972z"/>
<linearGradient id="_19" gradientUnits="userSpaceOnUse" x1="9.83" y1="17.47" x2="50.55" y2="26.99">
<stop stop-color="#FFFFFF" offset="0"/>
<stop stop-color="#A2C2DD" offset="0.35"/>
<stop stop-color="#6C83BB" offset="0.7"/>
<stop stop-color="#003D6D" offset="1"/>
</linearGradient>
<path fill="url(#_19)" d="M35.313,19.787c-0.229-0.055-0.781-0.188-0.781-0.188l0.035,2.07 c0,0,0.564,0.139,0.777,0.191c0.016,0.826,0.068,4.307,0.068,4.307c0.01,0.766,0.023,1.561,0.357,2.309 c0.543,1.211,1.693,1.481,2.809,1.741l0.982,0.242l-0.02-2.047l-0.592-0.133c-0.459-0.096-0.979-0.203-1.252-0.461 c-0.262-0.246-0.303-0.686-0.303-1.123c0-0.102-0.037-3.818-0.045-4.346c0.422,0.104,1.844,0.449,1.844,0.449l-0.027-2.084 c0,0-1.6-0.385-1.895-0.457c-0.004-0.316-0.027-2.414-0.027-2.414l-1.969-0.467C35.276,17.375,35.305,19.318,35.313,19.787z"/>
<path fill="url(#_19)" d="M40.407,21.009c-0.232-0.057-0.793-0.191-0.793-0.191l0.021,2.07 c0,0,0.578,0.141,0.793,0.193c0.004,0.283,0.047,4.354,0.047,4.354c0.006,0.779,0.014,1.588,0.355,2.35 c0.561,1.242,1.822,1.531,2.939,1.785l0.918,0.223l-0.006-2.059l-0.617-0.143c-0.414-0.086-0.885-0.186-1.184-0.396 c-0.334-0.238-0.383-0.725-0.383-1.211c0-0.104-0.023-3.959-0.027-4.402c0.424,0.105,1.869,0.457,1.869,0.457l-0.018-2.084 c0,0-1.645-0.393-1.941-0.465c-0.002-0.318-0.012-2.436-0.012-2.436l-1.992-0.477C40.379,18.576,40.403,20.543,40.407,21.009z"/>
<path fill="url(#_19)" d="M45.454,22.529l0.072,12.331l2.023,0.541 c0,0-0.014-2.584-0.014-3.096c0.102,0.027,0.211,0.061,0.211,0.061l1.49,0.336c1.578,0.189,2.729-0.736,3.078-2.477 c0.604-3.01-0.406-6.45-3.502-7.194l-3.361-0.807L45.454,22.529z M47.504,24.877c0.119,0.023,0.242,0.053,0.242,0.053 c0.777,0.156,1.658,0.334,2.049,0.908c0.459,0.67,0.461,1.791,0.463,2.389c0,0.545,0,1.555-0.438,2.006 c-0.459,0.475-1.354,0.211-2.066,0.002c0,0-0.115-0.033-0.229-0.066C47.526,29.85,47.508,25.394,47.504,24.877z"/>
<path fill="url(#_19)" d="M27.952,27.451l1.902,0.494L29.7,20.929 c-0.002-0.014-0.002-0.043,0.063-0.096c0.234-0.189,0.799-0.238,0.955-0.197c1.322,0.318,1.305,1.9,1.291,3.17l0.08,4.717 l1.979,0.516l-0.1-5.565c-0.01-0.803-0.021-1.631-0.291-2.43c-0.318-0.945-0.955-1.725-1.74-2.129 c-0.682-0.354-1.576-0.531-2.285-0.191c-0.014-0.654-0.084-3.855-0.084-3.855l-1.918-0.436L27.952,27.451z"/>
<linearGradient id="_23" gradientUnits="userSpaceOnUse" x1="53.71" y1="35.41" x2="61.1" y2="49.97">
<stop stop-color="#A2C2DD" offset="0.1"/>
<stop stop-color="#6C83BB" offset="0.71"/>
<stop stop-color="#003D6D" offset="0.99"/>
</linearGradient>
<path fill="url(#_23)" d="M58.948,14.433c-0.098,0.238,0.225,0.461,0.225,0.461 c4.404,2.811,7.193,6.908,6.559,10.752c-0.6,4.596-5.18,8.879-11.975,11.272c-0.039-0.77-0.246-4.721-0.246-4.721L36.289,43.25 l0.428,3.709l18.586,5.84l-0.076-3.953c0,0-0.033-0.178-0.066-0.352c2.115-0.857,16.264-7.051,16.264-19.207 c0-6.526-2.871-11.624-11.938-15.012C59.487,14.273,59.075,14.111,58.948,14.433z M71.155,26.353l-0.004-0.033 C71.153,26.324,71.155,26.347,71.155,26.353z"/>
<linearGradient id="_24" gradientUnits="userSpaceOnUse" x1="73.47" y1="28.81" x2="40.77" y2="51.09">
<stop stop-color="#FFFFFF" offset="0"/>
<stop stop-color="#A2C2DD" offset="0.35"/>
<stop stop-color="#6C83BB" offset="0.7"/>
<stop stop-color="#003D6D" offset="1"/>
</linearGradient>
<path fill="url(#_24)" d="M70.038,23.492c0,0-16.184,20.426-16.186,20.426 c0.002,0,0.82,4.389,0.82,4.389C55.147,48.172,75.883,40.084,70.038,23.492z"/>
<linearGradient id="_25" gradientUnits="userSpaceOnUse" x1="40.45" y1="37.87" x2="53.26" y2="60.89">
<stop stop-color="#FFFFFF" offset="0"/>
<stop stop-color="#A2C2DD" offset="0.35"/>
<stop stop-color="#6C83BB" offset="0.7"/>
<stop stop-color="#003D6D" offset="1"/>
</linearGradient>
<polygon fill="url(#_25)" points="54.877,48.854 54.944,52.319 37.039,46.694 36.663,43.426 "/>
<linearGradient id="_26" gradientUnits="userSpaceOnUse" x1="47.53" y1="54.33" x2="55.32" y2="31.78">
<stop stop-color="#FFFFFF" offset="0.05"/>
<stop stop-color="#A2C2DD" offset="1"/>
</linearGradient>
<path fill="url(#_26)" d="M59.364,14.601c20.027,7.488,11.043,25.288-5.373,29.831l0.887,4.422 l-18.215-5.428l16.529-10.607l0.24,4.602C66.084,33.176,71.454,22.556,59.364,14.601z"/>
<path fill-opacity="0.4" fill="#FFFFFF" d="M71.424,29.287c0-6.526-2.871-11.624-11.938-15.012 c0,0-0.412-0.162-0.541,0.158c-0.096,0.238,0.225,0.461,0.225,0.461c4.406,2.811,7.195,6.908,6.559,10.752 c-0.598,4.596-5.178,8.879-11.973,11.272c-0.01-0.195-0.031-0.594-0.057-1.08c1.26-1.182,2.834-2.535,4.537-6.24 c1.734-3.788,1.119-10.895-1.512-14.95c-2.627-4.059-5.361-6.543-9.93-7.73c-2.855-0.744-5.996-0.219-8.035,0.311L25.538,3.312 c0,0,0.279,4.539,0.305,4.988c-8.629,3.225-17.035,9.365-17.035,15.963c0.215,4.915,3.531,10.465,8.252,12.719l-0.479-3.623 c0,0-0.725-0.627-0.811-0.885c-0.188-0.76-0.283-1.484-0.283-2.174c0-4.981,4.582-8.141,9.096-10.254 c-0.326,1.443-0.473,2.977-0.393,4.574c0.422,8.52,6.822,15.797,14.635,17l-2.537,1.627l0.428,3.711l18.586,5.838l-0.074-3.951 c0,0-0.035-0.178-0.068-0.352C57.276,47.637,71.424,41.444,71.424,29.287z"/>
</g>
</svg>