<?xml version="1.0" encoding="UTF-8"?>
<!DOCTYPE svg PUBLIC "-//W3C//DTD SVG 1.1 Tiny//EN" "http://www.w3.org/Graphics/SVG/1.1/DTD/svg11-tiny.dtd">
<svg baseProfile="tiny" height="13" version="1.1" viewBox="0 0 13 13" width="13" xmlns="http://www.w3.org/2000/svg" xmlns:xlink="http://www.w3.org/1999/xlink">
<g>
<rect fill="none" height="13" width="13"/>
<g>
<path d="M5.924,2.246c0.34-0.385,0.847-0.573,1.553-0.573C6.771,1.673,6.263,1.861,5.924,2.246z" fill="none"/>
<path d="M9.563,3.708C9.521,3.247,9.393,2.665,9.02,2.246C8.763,1.957,8.414,1.779,7.963,1.708    c0.451,0.071,0.8,0.25,1.057,0.539C9.393,2.666,9.521,3.248,9.563,3.708z" fill="none"/>
<path d="M9.563,3.708c-0.041-0.46-0.17-1.042-0.543-1.461c-0.257-0.29-0.605-0.468-1.057-0.539    C7.813,1.685,7.65,1.673,7.477,1.673c-0.706,0-1.212,0.188-1.553,0.573c-0.093,0.105-0.17,0.222-0.234,0.343    C5.498,2.954,5.427,3.37,5.403,3.708H9.563z" fill="none"/>
<path d="M11.688,3.708h-0.625C11.014,3,10.818,2.019,10.148,1.259c-0.635-0.72-1.535-1.085-2.674-1.085    c-1.148,0-2.053,0.367-2.685,1.09C4.122,2.028,3.94,3.012,3.902,3.708H3.229c-0.276,0-0.5,0.224-0.5,0.5V11.5    c0,0.275,0.224,0.5,0.5,0.5h8.46c0.275,0,0.5-0.225,0.5-0.5V4.208C12.188,3.932,11.965,3.708,11.688,3.708z M5.689,2.589    c0.064-0.122,0.141-0.238,0.234-0.343c0.339-0.385,0.847-0.573,1.553-0.573c0.174,0,0.336,0.012,0.486,0.035    c0.451,0.071,0.8,0.249,1.057,0.538c0.373,0.419,0.502,1.001,0.543,1.462h-4.16H5.402C5.427,3.37,5.498,2.954,5.689,2.589z     M10.984,8.734c0,0-0.594-0.01-1.5-0.01s-1.063,1.484-2.734,1.484c-1.656,0-1.953-0.885-1.953-1.443h2.313l0.548-0.479V7.135    L7.109,6.656H4.797c0-0.558,0.297-1.443,1.953-1.443c1.672,0,1.828,1.485,2.734,1.485s1.5-0.01,1.5-0.01V8.734z"/>
<path d="M5.689,2.589C5.498,2.954,5.427,3.37,5.402,3.708h0.001C5.427,3.37,5.498,2.954,5.689,2.589z"/>
</g>
</g>
</svg>
