<?xml version="1.0" encoding="UTF-8"?>
<!DOCTYPE svg PUBLIC "-//W3C//DTD SVG 1.1 Tiny//EN" "http://www.w3.org/Graphics/SVG/1.1/DTD/svg11-tiny.dtd">
<svg baseProfile="tiny" height="60" viewBox="0 0 60 60" width="60" xmlns="http://www.w3.org/2000/svg" xmlns:xlink="http://www.w3.org/1999/xlink">
<g>
<path d="M46.691,42.35c-1.665-0.866-9.918-3.756-10.072-3.936l-0.002,0.002  c-0.934-1.068-0.896-3.433-0.43-4.46c0.001-0.001,0.002-0.001,0.002-0.002c0.032-0.071,0.065-0.139,0.104-0.197  c0.113-0.177,0.219-0.354,0.326-0.533l0,0c0.813-1.329,1.494-2.651,2.054-3.892c1.009,0.349,2.307-0.59,2.95-2.18  c0.667-1.645,0.379-3.354-0.645-3.815c-0.058-0.026-0.119-0.03-0.178-0.048c0-0.001,0-0.002,0-0.002  c0.133-0.521,0.191-0.826,0.191-0.826c1.77-7.934-2.078-14.223-11.402-14.533c-3.832,0-5.617,0.578-7.039,2.398  c-2.313,0.357-6.039,3.642-3.453,12.927c-0.098,0.016-0.195,0.031-0.289,0.071c-1.032,0.436-1.355,2.128-0.724,3.782  c0.633,1.653,1.983,2.643,3.017,2.208c0.063-0.027,0.117-0.072,0.176-0.11c0.568,1.279,1.266,2.646,2.104,4.02H23.38  c0.022,0.037,0.046,0.073,0.067,0.11c0.023,0.038,0.045,0.076,0.068,0.114c0.002,0.003,0.005,0.005,0.007,0.008  c0.061,0.101,0.12,0.201,0.185,0.301c0.532,0.833,0.663,3.229-0.166,4.457c-0.208,0.283-8.346,3.135-10.23,4.136  c-2.161,1.147-5.688,3.782-5.688,9.723h44.756C52.378,46.132,48.354,43.216,46.691,42.35z" fill="url(#SVGID_1_)"/>
<path d="M7.659,51.072c-0.022,0.323-0.037,0.655-0.037,1h44.756c0-0.345-0.017-0.676-0.042-1H7.659z" fill="#FFFFFF" fill-opacity="0.15" stroke-opacity="0.15"/>
<path d="M22.551,11.326c1.422-1.82,3.207-2.398,7.039-2.398c7.565,0.252,11.524,4.44,11.804,10.248  C41.535,12.856,37.58,8.194,29.59,7.928c-3.832,0-5.617,0.578-7.039,2.398c-1.81,0.279-4.472,2.367-4.311,7.704  C18.419,13.429,20.858,11.588,22.551,11.326z" fill="#FFFFFF" fill-opacity="0.5" stroke-opacity="0.5"/>
<path d="M36.617,38.416c-0.441-0.505-0.66-1.3-0.725-2.106c-0.086,1.09,0.098,2.389,0.725,3.106  l0.002-0.002c0.154,0.18,8.407,3.069,10.072,3.936c1.566,0.816,5.225,3.453,5.645,8.723h0.042c0-5.94-4.024-8.856-5.687-9.723  c-1.665-0.866-9.918-3.756-10.072-3.936L36.617,38.416z" fill="#FFFFFF" fill-opacity="0.5" stroke-opacity="0.5"/>
<path d="M13.311,43.35c1.885-1.001,10.022-3.853,10.23-4.136c0.508-0.752,0.652-1.938,0.568-2.938  c-0.053,0.717-0.225,1.429-0.568,1.938c-0.208,0.283-8.346,3.135-10.23,4.136c-2.161,1.147-5.688,3.782-5.688,9.723h0.037  C8.029,46.833,11.275,44.431,13.311,43.35z" fill="#FFFFFF" fill-opacity="0.5" stroke-opacity="0.5"/>
<rect fill="none" height="60" width="60"/>
<defs>
<linearGradient gradientUnits="userSpaceOnUse" id="SVGID_1_" x1="29.9995" x2="29.9995" y1="8.5967" y2="52.3536">
<stop offset="0" style="stop-color:#8E8E8E"/>
<stop offset="1" style="stop-color:#444444"/>
</linearGradient>
</defs>
</g>
</svg>
