<?xml version="1.0" encoding="UTF-8" standalone="no"?>
<!-- Created with Inkscape (http://www.inkscape.org/) -->
<svg
   xmlns:svg="http://www.w3.org/2000/svg"
   xmlns="http://www.w3.org/2000/svg"
   version="1.0"
   width="100%"
   height="100%"
   viewBox="0 0 87.999512 88.000488"
   id="svg76799">
  <defs
     id="defs76881" />
  <path
     d="M 9.0713171,59.555059 L 9.0713171,59.555059 L 29.815483,31.95446 L 53.905481,46.690373 L 77.99548,28.212006"
     style="fill:none;fill-opacity:0.46710528;stroke:#0000ff;stroke-width:6;stroke-miterlimit:4;stroke-dasharray:none;stroke-opacity:1"
     id="path4569" />
  <path
     d="M 9.5317326,73.333448 L 30.06138,52.248151 L 53.681509,63.493643 L 77.30164,60.213707"
     style="fill:none;fill-opacity:0.46710528;stroke:#ff0000;stroke-width:6;stroke-miterlimit:4;stroke-dasharray:none;stroke-opacity:1"
     id="path4571" />
  <g
     transform="matrix(0.1348839,0,0,0.1348839,12.762244,-36.73138)"
     style="fill:#00a300;fill-opacity:1;stroke:none;stroke-opacity:1"
     id="g2303">
    <path
       d="M 114.897,303.361 C 139.482,303.361 151.775,322.648 151.775,361.221 C 151.775,380.714 148.599,395.205 142.247,404.695 C 135.895,414.184 126.778,418.928 114.897,418.928 C 90.3641,418.928 78.0977,399.692 78.0977,361.221 C 78.0977,341.728 81.2737,327.211 87.6258,317.671 C 93.9779,308.131 103.068,303.361 114.897,303.361 z M 114.897,407.51 C 122.356,407.51 127.988,403.897 131.794,396.671 C 135.6,389.445 137.503,377.628 137.503,361.221 C 137.503,349.804 136.667,340.816 134.995,334.259 C 133.323,327.701 130.803,322.815 127.434,319.6 C 124.066,316.386 119.836,314.779 114.744,314.779 C 107.287,314.779 101.68,318.456 97.9254,325.811 C 94.1705,333.165 92.293,344.968 92.293,361.221 C 92.293,372.485 93.1418,381.409 94.8395,387.992 C 96.5372,394.576 99.0573,399.474 102.4,402.689 C 105.743,405.903 109.908,407.51 114.897,407.51 z "
       transform="translate(-33.85833,40)"
       style="fill:#00a300;fill-opacity:1;stroke:none;stroke-opacity:1"
       id="path2305" />
    <path
       d="M 218.098,417 L 204.211,417 L 204.211,328.51 C 197.268,335.093 187.984,340.674 176.361,345.251 L 176.361,331.828 C 192.357,324.165 203.261,314.676 209.072,303.361 L 218.098,303.361 L 218.098,417 z "
       transform="translate(-33.85833,40)"
       style="fill:#00a300;fill-opacity:1;stroke:none;stroke-opacity:1"
       id="path2307" />
    <path
       d="M 290.593,303.361 C 315.178,303.361 327.471,322.648 327.471,361.221 C 327.471,380.714 324.295,395.205 317.943,404.695 C 311.591,414.184 302.474,418.928 290.593,418.928 C 266.06,418.928 253.794,399.692 253.794,361.221 C 253.794,341.728 256.97,327.211 263.322,317.671 C 269.674,308.131 278.764,303.361 290.593,303.361 z M 290.593,407.51 C 298.052,407.51 303.684,403.897 307.49,396.671 C 311.296,389.445 313.199,377.628 313.199,361.221 C 313.199,349.804 312.363,340.816 310.691,334.259 C 309.019,327.701 306.499,322.815 303.13,319.6 C 299.762,316.386 295.532,314.779 290.44,314.779 C 282.983,314.779 277.376,318.456 273.621,325.811 C 269.866,333.165 267.989,344.968 267.989,361.221 C 267.989,372.485 268.838,381.409 270.535,387.992 C 272.233,394.576 274.753,399.474 278.096,402.689 C 281.439,405.903 285.604,407.51 290.593,407.51 z "
       transform="translate(-33.85833,40)"
       style="fill:#00a300;fill-opacity:1;stroke:none;stroke-opacity:1"
       id="path2309" />
    <path
       d="M 393.794,417 L 379.907,417 L 379.907,328.51 C 372.964,335.093 363.68,340.674 352.057,345.251 L 352.057,331.828 C 368.053,324.165 378.957,314.676 384.768,303.361 L 393.794,303.361 L 393.794,417 z "
       transform="translate(-33.85833,40)"
       style="fill:#00a300;fill-opacity:1;stroke:none;stroke-opacity:1"
       id="path2311" />
    <path
       d="M 466.289,303.361 C 490.874,303.361 503.167,322.648 503.167,361.221 C 503.167,380.714 499.991,395.205 493.639,404.695 C 487.287,414.184 478.17,418.928 466.289,418.928 C 441.756,418.928 429.49,399.692 429.49,361.221 C 429.49,341.728 432.666,327.211 439.018,317.671 C 445.37,308.131 454.46,303.361 466.289,303.361 z M 466.289,407.51 C 473.748,407.51 479.38,403.897 483.186,396.671 C 486.992,389.445 488.895,377.628 488.895,361.221 C 488.895,349.804 488.059,340.816 486.387,334.259 C 484.715,327.701 482.195,322.815 478.826,319.6 C 475.458,316.386 471.228,314.779 466.136,314.779 C 458.679,314.779 453.072,318.456 449.317,325.811 C 445.562,333.165 443.685,344.968 443.685,361.221 C 443.685,372.485 444.534,381.409 446.231,387.992 C 447.929,394.576 450.449,399.474 453.792,402.689 C 457.135,405.903 461.3,407.51 466.289,407.51 z "
       transform="translate(-33.85833,40)"
       style="fill:#00a300;fill-opacity:1;stroke:none;stroke-opacity:1"
       id="path2313" />
  </g>
</svg>
