<?xml version="1.0" encoding="UTF-8" standalone="no"?>
<!DOCTYPE svg PUBLIC "-//W3C//DTD SVG 1.1 Tiny//EN" "http://www.w3.org/Graphics/SVG/1.1/DTD/svg11-tiny.dtd">
<svg xmlns="http://www.w3.org/2000/svg" xmlns:xlink="http://www.w3.org/1999/xlink" baseProfile="tiny" height="60" viewBox="0 0 60 60" width="60">
<g>
<rect fill="none" height="60" width="60"/>
<linearGradient gradientUnits="userSpaceOnUse" id="SVGID_1_" x1="30" x2="30" y1="4.5" y2="55.3778">
<stop offset="0" style="stop-color:#E8E8E8"/>
<stop offset="0.3576" style="stop-color:#B2BDC2"/>
<stop offset="0.7455" style="stop-color:#595C5E"/>
<stop offset="1" style="stop-color:#A1ABB0"/>
</linearGradient>
<path d="M6.412,55.5c-1.055,0-1.912-0.857-1.912-1.911V6.411C4.5,5.357,5.357,4.5,6.412,4.5h47.176  c1.055,0,1.913,0.857,1.913,1.911v47.178c0,1.054-0.858,1.911-1.913,1.911H6.412z" fill="url(#SVGID_1_)"/>
<linearGradient gradientUnits="userSpaceOnUse" id="SVGID_2_" x1="30.001" x2="30.001" y1="5.7139" y2="54.1698">
<stop offset="0" style="stop-color:#FFFFFF"/>
<stop offset="0.1455" style="stop-color:#D7DDDE"/>
<stop offset="0.3212" style="stop-color:#FFFFFF"/>
<stop offset="0.7333" style="stop-color:#8E9699"/>
<stop offset="1" style="stop-color:#D5E2E6"/>
</linearGradient>
<path d="M6.412,54.286c-0.385,0-0.697-0.313-0.697-0.697V6.411c0-0.384,0.313-0.697,0.697-0.697h47.176  c0.387,0,0.699,0.313,0.699,0.697v47.178c0,0.385-0.313,0.697-0.699,0.697H6.412z" fill="url(#SVGID_2_)"/>
<path d="M53.588,5.106H6.412c-0.719,0-1.305,0.586-1.305,1.305v47.178  c0,0.719,0.586,1.305,1.305,1.305h47.176c0.72,0,1.307-0.586,1.307-1.305V6.411C54.895,5.692,54.308,5.106,53.588,5.106z   M53.68,53.589c0,0.05-0.041,0.09-0.092,0.09H6.412c-0.049,0-0.09-0.04-0.09-0.09V6.411c0-0.049,0.041-0.09,0.09-0.09h47.176  c0.051,0,0.092,0.041,0.092,0.09V53.589z" fill="#FFFFFF" fill-opacity="0.5"/>
<linearGradient gradientUnits="userSpaceOnUse" id="SVGID_3_" x1="13.6074" x2="13.6074" y1="11.021" y2="48.3899">
<stop offset="0" style="stop-color:#FFFFFF"/>
<stop offset="1" style="stop-color:#000000"/>
</linearGradient>
<path d="M13,48.519c-1.339,0-2.428-1.09-2.428-2.429V13.304c0-1.34,1.089-2.43,2.428-2.43  h1.215c1.339,0,2.429,1.09,2.429,2.43V46.09c0,1.339-1.09,2.429-2.429,2.429H13z" fill="url(#SVGID_3_)" fill-opacity="0.3"/>
<linearGradient gradientUnits="userSpaceOnUse" id="SVGID_4_" x1="15.9473" x2="11.1119" y1="29.6973" y2="29.6973">
<stop offset="0" style="stop-color:#595C5E"/>
<stop offset="0.3" style="stop-color:#ABB2B5"/>
<stop offset="0.7" style="stop-color:#ABB2B5"/>
<stop offset="1" style="stop-color:#595C5E"/>
</linearGradient>
<path d="M16.036,46.09c0,1.006-0.815,1.822-1.821,1.822H13c-1.006,0-1.821-0.816-1.821-1.822V13.304  c0-1.008,0.815-1.821,1.821-1.821h1.215c1.006,0,1.821,0.813,1.821,1.821V46.09z" fill="url(#SVGID_4_)"/>
<path d="M14.215,11.482H13c-1.006,0-1.821,0.813-1.821,1.821V46.09c0,1.006,0.815,1.822,1.821,1.822h1.215  c1.006,0,1.821-0.816,1.821-1.822V13.304C16.036,12.296,15.221,11.482,14.215,11.482z M15.429,46.09  c0,0.669-0.544,1.214-1.214,1.214H13c-0.67,0-1.214-0.545-1.214-1.214V13.304c0-0.67,0.544-1.215,1.214-1.215h1.215  c0.67,0,1.214,0.545,1.214,1.215V46.09z" fill-opacity="0.1"/>
<linearGradient gradientUnits="userSpaceOnUse" id="SVGID_5_" x1="11.7861" x2="15.4287" y1="36.0713" y2="36.0713">
<stop offset="0" style="stop-color:#5AA913"/>
<stop offset="0.497" style="stop-color:#A2ED21"/>
<stop offset="1" style="stop-color:#58A813"/>
</linearGradient>
<path d="M13,47.304c-0.67,0-1.214-0.545-1.214-1.214V26.054c0-0.668,0.544-1.215,1.214-1.215h1.215  c0.67,0,1.214,0.547,1.214,1.215V46.09c0,0.669-0.544,1.214-1.214,1.214H13z" fill="url(#SVGID_5_)"/>
<linearGradient gradientUnits="userSpaceOnUse" id="SVGID_6_" x1="13.6074" x2="13.6074" y1="19.6782" y2="28.6905">
<stop offset="0" style="stop-color:#666666"/>
<stop offset="1" style="stop-color:#000000"/>
</linearGradient>
<path d="M10.572,28.483c-1.34,0-2.43-1.09-2.43-2.43v-4.25c0-1.34,1.09-2.428,2.43-2.428  h6.071c1.339,0,2.429,1.088,2.429,2.428v4.25c0,1.34-1.09,2.43-2.429,2.43H10.572z" fill="url(#SVGID_6_)" fill-opacity="0.2"/>
<linearGradient gradientUnits="userSpaceOnUse" id="SVGID_7_" x1="13.6074" x2="13.6074" y1="19.4058" y2="27.2627">
<stop offset="0" style="stop-color:#A6A8AB"/>
<stop offset="1" style="stop-color:#231F20"/>
</linearGradient>
<path d="M10.572,27.268c-1.006,0-1.822-0.816-1.822-1.82v-4.252  c0-1.004,0.816-1.819,1.822-1.819h6.071c1.004,0,1.821,0.815,1.821,1.819v4.252c0,1.004-0.817,1.82-1.821,1.82H10.572z" fill="url(#SVGID_7_)" fill-opacity="0.6"/>
<linearGradient gradientUnits="userSpaceOnUse" id="SVGID_8_" x1="13.6074" x2="13.6074" y1="20.2031" y2="26.8131">
<stop offset="0" style="stop-color:#FFFFFF"/>
<stop offset="0.1212" style="stop-color:#FFFFFF"/>
<stop offset="0.4182" style="stop-color:#B0B6B8"/>
<stop offset="0.4182" style="stop-color:#9FA6A8"/>
<stop offset="0.6606" style="stop-color:#7D8588"/>
<stop offset="0.9697" style="stop-color:#ADB3B5"/>
<stop offset="0.9697" style="stop-color:#595C5E"/>
<stop offset="1" style="stop-color:#ADB3B5"/>
<stop offset="1" style="stop-color:#595C5E"/>
</linearGradient>
<path d="M17.857,25.447c0,0.671-0.543,1.214-1.214,1.214h-6.071c-0.672,0-1.215-0.543-1.215-1.214v-4.252  c0-0.669,0.543-1.214,1.215-1.214h6.071c0.671,0,1.214,0.545,1.214,1.214V25.447z" fill="url(#SVGID_8_)"/>
<linearGradient gradientUnits="userSpaceOnUse" id="SVGID_9_" x1="13.6074" x2="13.6074" y1="20.7715" y2="26.1783">
<stop offset="0" style="stop-color:#E5E9EB"/>
<stop offset="0.1212" style="stop-color:#E5E9EB"/>
<stop offset="0.4182" style="stop-color:#B0B6B8"/>
<stop offset="0.4182" style="stop-color:#9FA6A8"/>
<stop offset="0.6606" style="stop-color:#7D8588"/>
<stop offset="1" style="stop-color:#ADB3B5"/>
</linearGradient>
<path d="M10.572,26.054c-0.336,0-0.607-0.272-0.607-0.606v-4.252c0-0.335,0.271-0.605,0.607-0.605h6.071  c0.335,0,0.606,0.271,0.606,0.605v4.252c0,0.334-0.271,0.606-0.606,0.606H10.572z" fill="url(#SVGID_9_)"/>
<linearGradient gradientUnits="userSpaceOnUse" id="SVGID_10_" x1="25.75" x2="25.75" y1="11.021" y2="48.3899">
<stop offset="0" style="stop-color:#FFFFFF"/>
<stop offset="1" style="stop-color:#000000"/>
</linearGradient>
<path d="M25.143,48.519c-1.339,0-2.428-1.09-2.428-2.429V13.304  c0-1.34,1.089-2.43,2.428-2.43h1.215c1.339,0,2.429,1.09,2.429,2.43V46.09c0,1.339-1.09,2.429-2.429,2.429H25.143z" fill="url(#SVGID_10_)" fill-opacity="0.3"/>
<linearGradient gradientUnits="userSpaceOnUse" id="SVGID_11_" x1="28.0898" x2="23.2554" y1="29.6973" y2="29.6973">
<stop offset="0" style="stop-color:#595C5E"/>
<stop offset="0.3" style="stop-color:#ABB2B5"/>
<stop offset="0.7" style="stop-color:#ABB2B5"/>
<stop offset="1" style="stop-color:#595C5E"/>
</linearGradient>
<path d="M28.179,46.09c0,1.006-0.815,1.822-1.821,1.822h-1.215c-1.005,0-1.82-0.816-1.82-1.822V13.304  c0-1.008,0.815-1.821,1.82-1.821h1.215c1.006,0,1.821,0.813,1.821,1.821V46.09z" fill="url(#SVGID_11_)"/>
<path d="M26.357,11.482h-1.215c-1.005,0-1.82,0.813-1.82,1.821V46.09c0,1.006,0.815,1.822,1.82,1.822h1.215  c1.006,0,1.821-0.816,1.821-1.822V13.304C28.179,12.296,27.363,11.482,26.357,11.482z M27.571,46.09  c0,0.669-0.544,1.214-1.214,1.214h-1.215c-0.67,0-1.214-0.545-1.214-1.214V13.304c0-0.67,0.544-1.215,1.214-1.215h1.215  c0.67,0,1.214,0.545,1.214,1.215V46.09z" fill-opacity="0.1"/>
<linearGradient gradientUnits="userSpaceOnUse" id="SVGID_12_" x1="23.9287" x2="27.5713" y1="37.5898" y2="37.5898">
<stop offset="0" style="stop-color:#5AA913"/>
<stop offset="0.497" style="stop-color:#A2ED21"/>
<stop offset="1" style="stop-color:#58A813"/>
</linearGradient>
<path d="M25.143,47.304c-0.67,0-1.214-0.545-1.214-1.214v-17c0-0.67,0.544-1.214,1.214-1.214h1.215  c0.67,0,1.214,0.544,1.214,1.214v17c0,0.669-0.544,1.214-1.214,1.214H25.143z" fill="url(#SVGID_12_)"/>
<linearGradient gradientUnits="userSpaceOnUse" id="SVGID_13_" x1="25.75" x2="25.75" y1="26.9634" y2="35.9757">
<stop offset="0" style="stop-color:#666666"/>
<stop offset="1" style="stop-color:#000000"/>
</linearGradient>
<path d="M22.715,35.769c-1.339,0-2.429-1.09-2.429-2.43V29.09  c0-1.34,1.09-2.429,2.429-2.429h6.071c1.339,0,2.429,1.089,2.429,2.429v4.249c0,1.34-1.09,2.43-2.429,2.43H22.715z" fill="url(#SVGID_13_)" fill-opacity="0.2"/>
<linearGradient gradientUnits="userSpaceOnUse" id="SVGID_14_" x1="25.75" x2="25.75" y1="26.6909" y2="34.5488">
<stop offset="0" style="stop-color:#A6A8AB"/>
<stop offset="1" style="stop-color:#231F20"/>
</linearGradient>
<path d="M22.715,34.554c-1.005,0-1.822-0.816-1.822-1.821v-4.249  c0-1.006,0.817-1.822,1.822-1.822h6.071c1.005,0,1.821,0.816,1.821,1.822v4.249c0,1.005-0.816,1.821-1.821,1.821H22.715z" fill="url(#SVGID_14_)" fill-opacity="0.6"/>
<linearGradient gradientUnits="userSpaceOnUse" id="SVGID_15_" x1="25.75" x2="25.75" y1="27.4893" y2="34.0982">
<stop offset="0" style="stop-color:#FFFFFF"/>
<stop offset="0.1212" style="stop-color:#FFFFFF"/>
<stop offset="0.4182" style="stop-color:#B0B6B8"/>
<stop offset="0.4182" style="stop-color:#9FA6A8"/>
<stop offset="0.6606" style="stop-color:#7D8588"/>
<stop offset="0.9697" style="stop-color:#ADB3B5"/>
<stop offset="0.9697" style="stop-color:#595C5E"/>
<stop offset="1" style="stop-color:#ADB3B5"/>
<stop offset="1" style="stop-color:#595C5E"/>
</linearGradient>
<path d="M30,32.732c0,0.671-0.543,1.214-1.214,1.214h-6.071c-0.671,0-1.215-0.543-1.215-1.214v-4.249  c0-0.672,0.544-1.216,1.215-1.216h6.071c0.671,0,1.214,0.544,1.214,1.216V32.732z" fill="url(#SVGID_15_)"/>
<linearGradient gradientUnits="userSpaceOnUse" id="SVGID_16_" x1="25.75" x2="25.75" y1="28.0571" y2="33.463">
<stop offset="0" style="stop-color:#E5E9EB"/>
<stop offset="0.1212" style="stop-color:#E5E9EB"/>
<stop offset="0.4182" style="stop-color:#B0B6B8"/>
<stop offset="0.4182" style="stop-color:#9FA6A8"/>
<stop offset="0.6606" style="stop-color:#7D8588"/>
<stop offset="1" style="stop-color:#ADB3B5"/>
</linearGradient>
<path d="M22.715,33.339c-0.335,0-0.607-0.271-0.607-0.606v-4.249c0-0.336,0.272-0.607,0.607-0.607h6.071  c0.335,0,0.607,0.271,0.607,0.607v4.249c0,0.335-0.272,0.606-0.607,0.606H22.715z" fill="url(#SVGID_16_)"/>
<linearGradient gradientUnits="userSpaceOnUse" id="SVGID_17_" x1="42.1426" x2="42.1426" y1="14.0352" y2="45.034">
<stop offset="0" style="stop-color:#999999"/>
<stop offset="1" style="stop-color:#000000"/>
</linearGradient>
<path d="M36.982,45.179c-1.034,0-1.877-0.842-1.877-1.876V16.091  c0-1.035,0.843-1.876,1.877-1.876h10.322c1.035,0,1.876,0.841,1.876,1.876v27.212c0,1.034-0.841,1.876-1.876,1.876H36.982z" fill="url(#SVGID_17_)" fill-opacity="0.1"/>
<linearGradient gradientUnits="userSpaceOnUse" id="SVGID_18_" x1="42.1426" x2="42.1426" y1="14.5083" y2="44.5696">
<stop offset="0" style="stop-color:#999999"/>
<stop offset="1" style="stop-color:#000000"/>
</linearGradient>
<path d="M36.982,44.71c-0.775,0-1.407-0.632-1.407-1.407V16.091  c0-0.775,0.632-1.408,1.407-1.408h10.322c0.775,0,1.406,0.633,1.406,1.408v27.212c0,0.775-0.631,1.407-1.406,1.407H36.982z" fill="url(#SVGID_18_)" fill-opacity="0.3"/>
<linearGradient gradientUnits="userSpaceOnUse" id="SVGID_19_" x1="42.1436" x2="42.1436" y1="44.3218" y2="15.0707">
<stop offset="0" style="stop-color:#5F6366"/>
<stop offset="1" style="stop-color:#3E4142"/>
</linearGradient>
<path d="M48.242,43.303c0,0.519-0.419,0.938-0.938,0.938H36.982c-0.518,0-0.938-0.42-0.938-0.938V16.091  c0-0.518,0.42-0.938,0.938-0.938h10.322c0.519,0,0.938,0.42,0.938,0.938V43.303z" fill="url(#SVGID_19_)"/>
<linearGradient gradientUnits="userSpaceOnUse" id="SVGID_20_" x1="42.1436" x2="42.1436" y1="16.8999" y2="43.2099">
<stop offset="0" style="stop-color:#9CA4A6"/>
<stop offset="0.1" style="stop-color:#F0F2F3"/>
<stop offset="0.5" style="stop-color:#BBBEBF"/>
<stop offset="0.9" style="stop-color:#F3F5F5"/>
<stop offset="0.95" style="stop-color:#8E9699"/>
<stop offset="1" style="stop-color:#686E70"/>
</linearGradient>
<path d="M36.982,43.771c-0.258,0-0.469-0.21-0.469-0.468V17.03c0-0.26,0.211-0.471,0.469-0.471h10.322  c0.259,0,0.469,0.211,0.469,0.471v26.272c0,0.258-0.21,0.468-0.469,0.468H36.982z" fill="url(#SVGID_20_)"/>
<path d="M47.305,18.437H36.982c-0.258,0-0.469,0.211-0.469,0.469v0.471c0-0.26,0.211-0.471,0.469-0.471h10.322  c0.259,0,0.469,0.211,0.469,0.471v-0.471C47.773,18.647,47.563,18.437,47.305,18.437z" fill="#FFFFFF"/>
<path d="M47.305,43.303H36.982c-0.258,0-0.469-0.21-0.469-0.47v0.47c0,0.258,0.211,0.468,0.469,0.468h10.322  c0.259,0,0.469-0.21,0.469-0.468v-0.47C47.773,43.093,47.563,43.303,47.305,43.303z" fill-opacity="0.3"/>
<path d="M36.982,41.427c-0.259,0-0.469-0.212-0.469-0.47V19.376c0-0.26,0.21-0.471,0.469-0.471  h10.322c0.259,0,0.469,0.211,0.469,0.471v21.581c0,0.258-0.21,0.47-0.469,0.47H36.982z" fill="#FFFFFF" fill-opacity="0.3"/>
<path d="M36.514,30.165v10.792c0,0.258,0.21,0.47,0.469,0.47h10.322  c0.259,0,0.469-0.212,0.469-0.47V30.165H36.514z" fill="#FFFFFF" fill-opacity="0.4"/>
<linearGradient gradientUnits="userSpaceOnUse" id="SVGID_21_" x1="42.1436" x2="42.1436" y1="22.582" y2="19.8827">
<stop offset="0" style="stop-color:#FFFFFF"/>
<stop offset="1" style="stop-color:#808080"/>
</linearGradient>
<path d="M38.859,22.66c-0.26,0-0.469-0.212-0.469-0.471v-1.876  c0-0.26,0.209-0.47,0.469-0.47h6.568c0.26,0,0.469,0.21,0.469,0.47v1.876c0,0.259-0.209,0.471-0.469,0.471H38.859z" fill="url(#SVGID_21_)" fill-opacity="0.4"/>
<rect fill="#FF1D25" height="1.876" width="6.568" x="38.859" y="20.313"/>
<polygon fill-opacity="0.3" points="44.959,20.313 39.328,20.313 38.859,20.313 38.859,20.782 38.859,22.189 39.328,22.189   39.328,20.782 44.959,20.782 44.959,22.189 45.428,22.189 45.428,20.782 45.428,20.313 "/>
<rect fill="none" height="60" width="60"/>
</g>
</svg>
