<?xml version="1.0" encoding="UTF-8"?>
<!DOCTYPE svg PUBLIC "-//W3C//DTD SVG 1.1 Tiny//EN" "http://www.w3.org/Graphics/SVG/1.1/DTD/svg11-tiny.dtd">
<svg baseProfile="tiny" height="100px" version="1.1" viewBox="0 0 100 100" width="100px" x="0px" xmlns="http://www.w3.org/2000/svg" xmlns:xlink="http://www.w3.org/1999/xlink" y="0px">
<g>
<g>
<rect fill="none" height="100" width="100"/>
</g>
<g>
<g>
<linearGradient gradientTransform="matrix(0.309 0.9511 -0.9511 0.309 -338.8947 140.6591)" gradientUnits="userSpaceOnUse" id="SVGID_1_" x1="14.979" x2="29.785" y1="-411.1528" y2="-392.4803">
<stop offset="0" style="stop-color:#000000;stop-opacity:0.98"/>
<stop offset="1" style="stop-color:#000000;stop-opacity:0.6"/>
</linearGradient>
<path d="M9.569,62.154c-0.21-0.703-0.403-1.416-0.579-2.137C2.794,34.479,20.589,11.619,43.933,8.227     c21.842-3.174,42.187,10.986,47.145,32.078l-5.858,8.239l-0.011,0.016l-8.573-5.367C73.208,29.733,60.099,20.759,46.05,22.8     c-9.587,1.393-17.291,7.573-21.046,15.767c-0.78,1.699-1.39,3.484-1.812,5.331l3.43-4.589     c3.654-7.975,11.014-13.488,19.685-14.747c14.75-2.144,26.35,8.227,28.778,19.762l10.655,6.647l7.276-10.19     C90.254,26.192,73.049,2.197,43.677,6.465C18.116,10.18,1.118,35.147,7.261,60.438c0.261,1.077,0.568,2.155,0.908,3.207     c0,0.003,0,0.001,0,0.001C8.169,63.646,9.569,62.154,9.569,62.154z" fill="url(#SVGID_1_)"/>
<linearGradient gradientTransform="matrix(0.309 0.9511 -0.9511 0.309 -338.8947 140.6591)" gradientUnits="userSpaceOnUse" id="SVGID_2_" x1="38.6948" x2="63.3091" y1="-367.3481" y2="-411.3369">
<stop offset="0" style="stop-color:#000000;stop-opacity:0.6"/>
<stop offset="0.9158" style="stop-color:#000000;stop-opacity:0"/>
<stop offset="1" style="stop-color:#000000;stop-opacity:0"/>
</linearGradient>
<path d="M81.763,80.52L66.901,69.428c-0.676,0.413-5.178,4.85-13.205,6.019     c-20.325,2.949-35.511-17.758-27.074-36.138l-3.43,4.589c-4.388,19.216,11.982,36.035,30.76,33.31     c4.912-0.715,9.328-2.688,12.975-5.539l12.075,9.014c-6.101,5.779-13.98,9.799-22.931,11.098     c-20.984,3.049-40.6-9.897-46.502-29.625l-1.4,1.491c0,0.003,0,0.001,0,0.001c6.632,20.412,26.887,32.985,48.158,29.895     C72.419,91.205,81.4,80.84,81.763,80.52z" fill="url(#SVGID_2_)"/>
<path d="M23.192,43.897C25.225,35.002,32.756,24.73,46.05,22.8c14.048-2.041,27.158,6.934,30.584,20.393     l8.573,5.367l0.011-0.016l5.858-8.239C86.119,19.213,65.774,5.053,43.933,8.227C19.211,11.819,1.943,36.648,9.569,62.154     L23.192,43.897z" fill="#FFFFFF"/>
<linearGradient gradientTransform="matrix(0.309 0.9511 -0.9511 0.309 -338.8947 140.6591)" gradientUnits="userSpaceOnUse" id="SVGID_3_" x1="44.0215" x2="54.9851" y1="-368.2529" y2="-409.3896">
<stop offset="0" style="stop-color:#FFFFFF"/>
<stop offset="1" style="stop-color:#F2F2F2;stop-opacity:0"/>
</linearGradient>
<path d="M79.002,80.682l-12.075-9.014C46.816,87.4,17.356,69.461,23.192,43.897L9.569,62.154     C18.612,92.375,56.312,102.174,79.002,80.682z" fill="url(#SVGID_3_)"/>
</g>
</g>
</g>
</svg>
