<?xml version="1.0" encoding="UTF-8"?>
<!DOCTYPE svg PUBLIC "-//W3C//DTD SVG 1.1 Tiny//EN" "http://www.w3.org/Graphics/SVG/1.1/DTD/svg11-tiny.dtd">
<svg baseProfile="tiny" height="100px" version="1.1" viewBox="0 0 100 100" width="100px" x="0px" xmlns="http://www.w3.org/2000/svg" xmlns:xlink="http://www.w3.org/1999/xlink" y="0px">
<g>
<g>
<rect fill="none" height="100" width="100" x="0" y="0"/>
</g>
<g>
<g>
<linearGradient gradientTransform="matrix(-1 0 0 -1 -490.8594 -341.2744)" gradientUnits="userSpaceOnUse" id="SVGID_1_" x1="-559.835" x2="-545.0289" y1="-404.5513" y2="-385.8788">
<stop offset="0" style="stop-color:#000000;stop-opacity:0.98"/>
<stop offset="1" style="stop-color:#000000;stop-opacity:0.6"/>
</linearGradient>
<path d="M50.935,7.792c0.733,0.017,1.471,0.054,2.209,0.11C79.35,9.901,95.592,33.888,91.605,57.139     c-3.732,21.752-23.486,36.727-45.079,34.924l-6.024-8.117L40.49,83.93l7.754-6.496c13.86,0.9,26.446-8.793,28.846-22.785     c1.639-9.547-1.859-18.784-8.49-24.889c-1.375-1.265-2.885-2.398-4.51-3.37l3.303,4.681c6.455,5.939,9.426,14.643,7.941,23.277     c-2.518,14.691-15.967,22.52-27.686,21.264l-9.615,8.08l7.443,10.068c14.727,1.881,42.866-7.066,47.883-36.32     C97.725,31.981,79.232,8.101,53.281,6.126C52.174,6.042,51.055,6.001,49.951,6c-0.003-0.001-0.003,0-0.003,0     C49.951,6,50.935,7.792,50.935,7.792z" fill="url(#SVGID_1_)"/>
<linearGradient gradientTransform="matrix(-1 0 0 -1 -490.8594 -341.2744)" gradientUnits="userSpaceOnUse" id="SVGID_2_" x1="-536.1182" x2="-511.5043" y1="-360.7461" y2="-404.7341">
<stop offset="0" style="stop-color:#000000;stop-opacity:0.6"/>
<stop offset="0.9158" style="stop-color:#000000;stop-opacity:0"/>
<stop offset="1" style="stop-color:#000000;stop-opacity:0"/>
</linearGradient>
<path d="M11.16,70.775L26.3,60.07c-0.183-0.77-3.012-6.424-1.643-14.419     C28.134,25.41,52.52,17.366,67.393,31.071L64.09,26.39c-16.921-10.111-37.976,0.26-41.186,18.962     c-0.838,4.892-0.327,9.701,1.258,14.05l-12.303,8.699C8.249,60.514,6.86,51.777,8.39,42.864     C11.973,21.965,30.349,7.31,50.935,7.792L49.951,6c-0.003-0.001-0.003,0-0.003,0C28.486,6,10.269,21.377,6.636,42.563     C3.885,58.588,10.966,70.332,11.16,70.775z" fill="url(#SVGID_2_)"/>
<path d="M64.09,26.39c7.832,4.682,15.271,15.019,13,28.258c-2.4,13.992-14.986,23.686-28.846,22.785L40.49,83.93     l0.013,0.016l6.024,8.117c21.592,1.803,41.346-13.172,45.079-34.924c4.221-24.622-14.057-48.718-40.67-49.347L64.09,26.39z" fill="#FFFFFF"/>
<linearGradient gradientTransform="matrix(-1 0 0 -1 -490.8594 -341.2744)" gradientUnits="userSpaceOnUse" id="SVGID_3_" x1="-530.7939" x2="-519.8303" y1="-361.6519" y2="-402.7888">
<stop offset="0" style="stop-color:#FFFFFF"/>
<stop offset="1" style="stop-color:#F2F2F2;stop-opacity:0"/>
</linearGradient>
<path d="M11.859,68.102l12.303-8.699C15.416,35.414,41.579,12.94,64.09,26.39L50.935,7.792     C19.399,7.053-1.57,39.88,11.859,68.102z" fill="url(#SVGID_3_)"/>
</g>
</g>
</g>
</svg>
