<?xml version="1.0" encoding="UTF-8"?>
<!DOCTYPE svg PUBLIC "-//W3C//DTD SVG 1.1 Tiny//EN" "http://www.w3.org/Graphics/SVG/1.1/DTD/svg11-tiny.dtd">
<svg baseProfile="tiny" height="100px" version="1.1" viewBox="0 0 100 100" width="100px" x="0px" xmlns="http://www.w3.org/2000/svg" xmlns:xlink="http://www.w3.org/1999/xlink" y="0px">
<g>
<g>
<rect fill="none" height="100" width="100"/>
</g>
<g>
<g>
<linearGradient gradientTransform="matrix(-0.309 0.9511 -0.9511 -0.309 -411.8564 82.0563)" gradientUnits="userSpaceOnUse" id="SVGID_1_" x1="-192.1846" x2="-177.3785" y1="-442.623" y2="-423.9505">
<stop offset="0" style="stop-color:#000000;stop-opacity:0.98"/>
<stop offset="1" style="stop-color:#000000;stop-opacity:0.6"/>
</linearGradient>
<path d="M10.146,36.068c0.243-0.693,0.506-1.382,0.788-2.068c9.999-24.304,37.832-32.338,58.71-21.362     C89.18,22.909,97.316,46.323,88.93,66.301l-9.582,3.222l-0.018,0.007l-3.781-9.382c5.139-12.902-0.191-27.868-12.756-34.475     c-8.574-4.509-18.44-4.036-26.294,0.385c-1.629,0.916-3.173,2.002-4.599,3.248l5.472-1.696c7.644-4.304,16.839-4.438,24.593-0.36     c13.193,6.936,16.482,22.143,11.666,32.902l4.713,11.642l11.877-3.968c6.34-13.426,6.523-42.951-19.748-56.763     C47.612-0.957,19.184,9.252,9.288,33.323c-0.422,1.025-0.808,2.078-1.15,3.128c-0.001,0.002,0,0.001,0,0.001     C8.138,36.452,10.146,36.068,10.146,36.068z" fill="url(#SVGID_1_)"/>
<linearGradient gradientTransform="matrix(-0.309 0.9511 -0.9511 -0.309 -411.8564 82.0563)" gradientUnits="userSpaceOnUse" id="SVGID_2_" x1="-168.4673" x2="-143.8531" y1="-398.8184" y2="-442.8069">
<stop offset="0" style="stop-color:#000000;stop-opacity:0.6"/>
<stop offset="0.9158" style="stop-color:#000000;stop-opacity:0"/>
<stop offset="1" style="stop-color:#000000;stop-opacity:0"/>
</linearGradient>
<path d="M57.758,93.36l-5.504-17.708c-0.789-0.063-7.04,0.88-14.221-2.894     C19.856,63.198,19.742,37.52,37.372,27.61l-5.472,1.696c-14.845,12.967-11.487,36.196,5.307,45.029     c4.394,2.309,9.126,3.309,13.751,3.145l4.472,14.389c-8.333,1.09-17.07-0.289-25.075-4.5     c-18.769-9.866-27.029-31.871-20.208-51.3l-2.009,0.383c-0.001,0.002,0,0.001,0,0.001c-6.632,20.412,2.364,42.489,21.389,52.491     C43.917,96.513,57.275,93.407,57.758,93.36z" fill="url(#SVGID_2_)"/>
<path d="M31.899,29.306c6.874-6.002,19.003-9.885,30.894-3.633c12.564,6.606,17.895,21.572,12.756,34.475     l3.781,9.382l0.018-0.007l9.582-3.222c8.387-19.978,0.25-43.392-19.285-53.663c-22.111-11.624-50.675-1.687-59.498,23.43     L31.899,29.306z" fill="#FFFFFF"/>
<linearGradient gradientTransform="matrix(-0.309 0.9511 -0.9511 -0.309 -411.8564 82.0563)" gradientUnits="userSpaceOnUse" id="SVGID_3_" x1="-163.1406" x2="-152.1769" y1="-399.7231" y2="-440.8601">
<stop offset="0" style="stop-color:#FFFFFF"/>
<stop offset="1" style="stop-color:#F2F2F2;stop-opacity:0"/>
</linearGradient>
<path d="M55.43,91.868l-4.472-14.389c-25.517,0.906-38.806-30.923-19.058-48.174l-21.753,6.763     C-0.301,65.833,24.439,95.919,55.43,91.868z" fill="url(#SVGID_3_)"/>
</g>
</g>
</g>
</svg>
