<?xml version="1.0" encoding="UTF-8"?>
<!DOCTYPE svg PUBLIC "-//W3C//DTD SVG 1.1 Tiny//EN" "http://www.w3.org/Graphics/SVG/1.1/DTD/svg11-tiny.dtd">
<svg baseProfile="tiny" height="100px" version="1.1" viewBox="0 0 100 100" width="100px" x="0px" xmlns="http://www.w3.org/2000/svg" xmlns:xlink="http://www.w3.org/1999/xlink" y="0px">
<g>
<g>
<rect fill="none" height="100" width="100"/>
</g>
<g>
<g>
<linearGradient gradientTransform="matrix(-0.309 -0.9511 0.9511 -0.309 123.9503 -812.8466)" gradientUnits="userSpaceOnUse" id="SVGID_1_" x1="-816.7397" x2="-801.9335" y1="-350.2422" y2="-331.5694">
<stop offset="0" style="stop-color:#000000;stop-opacity:0.98"/>
<stop offset="1" style="stop-color:#000000;stop-opacity:0.6"/>
</linearGradient>
<path d="M90.432,37.846c0.211,0.703,0.403,1.415,0.578,2.137c6.196,25.54-11.599,48.398-34.942,51.793     C34.227,94.948,13.88,80.788,8.923,59.695l5.858-8.238l0.011-0.018l8.573,5.367c3.428,13.461,16.536,22.436,30.585,20.395     c9.586-1.394,17.29-7.574,21.047-15.768c0.778-1.697,1.389-3.483,1.811-5.33l-3.43,4.589     c-3.654,7.976-11.015,13.487-19.686,14.745c-14.75,2.146-26.35-8.227-28.776-19.76L14.259,49.03l-7.275,10.19     c2.763,14.588,19.968,38.584,49.34,34.314c25.562-3.714,42.559-28.682,36.417-53.973c-0.262-1.078-0.569-2.156-0.909-3.206     c0-0.004-0.002-0.003-0.002-0.003C91.831,36.356,90.432,37.846,90.432,37.846z" fill="url(#SVGID_1_)"/>
<linearGradient gradientTransform="matrix(-0.309 -0.9511 0.9511 -0.309 123.9503 -812.8466)" gradientUnits="userSpaceOnUse" id="SVGID_2_" x1="-793.0225" x2="-768.4084" y1="-306.437" y2="-350.4253">
<stop offset="0" style="stop-color:#000000;stop-opacity:0.6"/>
<stop offset="0.9158" style="stop-color:#000000;stop-opacity:0"/>
<stop offset="1" style="stop-color:#000000;stop-opacity:0"/>
</linearGradient>
<path d="M18.238,19.48l14.859,11.091c0.677-0.411,5.18-4.849,13.207-6.017     c20.325-2.949,35.51,17.758,27.073,36.138l3.43-4.589c4.388-19.217-11.982-36.036-30.761-33.31     c-4.911,0.715-9.328,2.686-12.974,5.537l-12.075-9.013c6.101-5.778,13.98-9.798,22.931-11.097     c20.983-3.051,40.6,9.896,46.503,29.624l1.399-1.489c0-0.004-0.002-0.003-0.002-0.003C85.198,15.942,64.944,3.368,43.673,6.46     C27.583,8.796,18.6,19.159,18.238,19.48z" fill="url(#SVGID_2_)"/>
<path d="M76.808,56.104C74.774,65,67.244,75.27,53.95,77.201c-14.049,2.041-27.157-6.934-30.585-20.395     l-8.573-5.367l-0.011,0.018l-5.858,8.238c4.957,21.093,25.304,35.253,47.145,32.08c24.722-3.594,41.989-28.424,34.364-53.93     L76.808,56.104z" fill="#FFFFFF"/>
<linearGradient gradientTransform="matrix(-0.309 -0.9511 0.9511 -0.309 123.9503 -812.8466)" gradientUnits="userSpaceOnUse" id="SVGID_3_" x1="-787.6963" x2="-776.7325" y1="-307.3418" y2="-348.4791">
<stop offset="0" style="stop-color:#FFFFFF"/>
<stop offset="1" style="stop-color:#F2F2F2;stop-opacity:0"/>
</linearGradient>
<path d="M20.998,19.318l12.075,9.013c20.111-15.73,49.57,2.207,43.734,27.772l13.624-18.258     C81.389,7.625,43.689-2.173,20.998,19.318z" fill="url(#SVGID_3_)"/>
</g>
</g>
</g>
</svg>
