<?xml version="1.0" encoding="UTF-8"?>
<!DOCTYPE svg PUBLIC "-//W3C//DTD SVG 1.1 Tiny//EN" "http://www.w3.org/Graphics/SVG/1.1/DTD/svg11-tiny.dtd">
<svg baseProfile="tiny" height="100px" version="1.1" viewBox="0 0 100 100" width="100px" x="0px" xmlns="http://www.w3.org/2000/svg" xmlns:xlink="http://www.w3.org/1999/xlink" y="0px">
<g>
<g>
<rect fill="none" height="100" width="100"/>
</g>
<g>
<g>
<linearGradient gradientTransform="matrix(-0.809 0.5878 -0.5878 -0.809 -364.1781 15.2496)" gradientUnits="userSpaceOnUse" id="SVGID_1_" x1="-333.6265" x2="-318.8204" y1="-284.8394" y2="-266.1668">
<stop offset="0" style="stop-color:#000000;stop-opacity:0.98"/>
<stop offset="1" style="stop-color:#000000;stop-opacity:0.6"/>
</linearGradient>
<path d="M25.946,15.304c0.604-0.418,1.222-0.821,1.853-1.21c22.375-13.786,49.615-3.926,60.055,17.228     c9.768,19.791,2.588,43.517-15.939,54.75l-9.646-3.026L62.25,83.04l2.455-9.813c11.74-7.419,16.225-22.659,9.943-35.39     c-4.287-8.687-12.547-14.104-21.498-15.145c-1.857-0.216-3.744-0.245-5.63-0.075l5.423,1.845     c8.715,1.011,16.232,6.307,20.107,14.164c6.598,13.366,0.32,27.603-9.9,33.476l-3.029,12.189l11.939,3.771     c13.021-7.136,30.525-30.914,17.389-57.529C78.02,7.371,49.02-1.079,26.865,12.577c-0.944,0.582-1.875,1.207-2.769,1.855     c-0.002,0.001-0.002,0.002-0.002,0.002C24.096,14.433,25.946,15.304,25.946,15.304z" fill="url(#SVGID_1_)"/>
<linearGradient gradientTransform="matrix(-0.809 0.5878 -0.5878 -0.809 -364.1781 15.2496)" gradientUnits="userSpaceOnUse" id="SVGID_2_" x1="-309.9097" x2="-285.2954" y1="-241.0337" y2="-285.0222">
<stop offset="0" style="stop-color:#000000;stop-opacity:0.6"/>
<stop offset="0.9158" style="stop-color:#000000;stop-opacity:0"/>
<stop offset="1" style="stop-color:#000000;stop-opacity:0"/>
</linearGradient>
<path d="M30.789,89.639l5.956-17.561c-0.6-0.516-6.211-3.427-9.803-10.7     c-9.086-18.419,5.915-39.26,26.002-36.915l-5.423-1.845C27.888,24.384,16.951,45.15,25.346,62.167     c2.198,4.45,5.438,8.041,9.277,10.627l-4.84,14.27c-7.381-4.017-13.639-10.268-17.64-18.379     C2.757,49.671,9.008,27.014,25.946,15.304l-1.85-0.871c-0.002,0.001-0.002,0.002-0.002,0.002     C6.731,27.05,1.033,50.197,10.545,69.472C17.74,84.054,30.372,89.394,30.789,89.639z" fill="url(#SVGID_2_)"/>
<path d="M47.52,22.618c9.089-0.815,21.185,3.173,27.128,15.22c6.281,12.73,1.797,27.971-9.943,35.39L62.25,83.04     l0.018,0.005l9.646,3.026c18.527-11.233,25.707-34.959,15.939-54.75C76.797,8.92,47.847,0.17,25.946,15.304L47.52,22.618z" fill="#FFFFFF"/>
<linearGradient gradientTransform="matrix(-0.809 0.5878 -0.5878 -0.809 -364.1781 15.2496)" gradientUnits="userSpaceOnUse" id="SVGID_3_" x1="-304.5845" x2="-293.6208" y1="-241.939" y2="-283.0757">
<stop offset="0" style="stop-color:#FFFFFF"/>
<stop offset="1" style="stop-color:#F2F2F2;stop-opacity:0"/>
</linearGradient>
<path d="M29.782,87.063l4.84-14.27C13.447,58.528,21.404,24.968,47.52,22.618l-21.574-7.314     C0,33.242,2.33,72.125,29.782,87.063z" fill="url(#SVGID_3_)"/>
</g>
</g>
</g>
</svg>
