<?xml version="1.0" encoding="UTF-8"?>
<!DOCTYPE svg PUBLIC "-//W3C//DTD SVG 1.1 Tiny//EN" "http://www.w3.org/Graphics/SVG/1.1/DTD/svg11-tiny.dtd">
<svg baseProfile="tiny" height="100px" version="1.1" viewBox="0 0 100 100" width="100px" x="0px" xmlns="http://www.w3.org/2000/svg" xmlns:xlink="http://www.w3.org/1999/xlink" y="0px">
<g>
<g>
<rect fill="none" height="100" width="100"/>
</g>
<g>
<g>
<linearGradient gradientTransform="matrix(0.309 -0.9511 0.9511 0.309 609.3144 -653.2726)" gradientUnits="userSpaceOnUse" id="SVGID_1_" x1="-860.6665" x2="-845.8603" y1="-327.8945" y2="-309.2218">
<stop offset="0" style="stop-color:#000000;stop-opacity:0.98"/>
<stop offset="1" style="stop-color:#000000;stop-opacity:0.6"/>
</linearGradient>
<path d="M89.854,63.933c-0.242,0.691-0.506,1.381-0.788,2.067c-9.999,24.304-37.832,32.339-58.712,21.362     C10.82,77.091,2.682,53.677,11.07,33.698l9.581-3.221l0.019-0.007l3.781,9.381c-5.138,12.904,0.191,27.87,12.757,34.476     c8.574,4.508,18.439,4.035,26.295-0.385c1.628-0.916,3.171-2.002,4.598-3.248l-5.472,1.697     c-7.645,4.303-16.839,4.438-24.593,0.357C24.842,65.815,21.554,50.606,26.37,39.848l-4.715-11.642L9.779,32.175     C3.44,45.6,3.255,75.126,29.526,88.937c22.863,12.021,51.29,1.813,61.187-22.26c0.422-1.025,0.807-2.078,1.149-3.127     c0.002-0.004,0-0.004,0-0.004C91.862,63.55,89.854,63.933,89.854,63.933z" fill="url(#SVGID_1_)"/>
<linearGradient gradientTransform="matrix(0.309 -0.9511 0.9511 0.309 609.3144 -653.2726)" gradientUnits="userSpaceOnUse" id="SVGID_2_" x1="-836.9487" x2="-812.3344" y1="-284.0884" y2="-328.0771">
<stop offset="0" style="stop-color:#000000;stop-opacity:0.6"/>
<stop offset="0.9158" style="stop-color:#000000;stop-opacity:0"/>
<stop offset="1" style="stop-color:#000000;stop-opacity:0"/>
</linearGradient>
<path d="M42.243,6.64l5.503,17.707c0.789,0.065,7.04-0.878,14.222,2.895     c18.177,9.561,18.29,35.238,0.661,45.15l5.472-1.697c14.846-12.968,11.487-36.197-5.307-45.029     c-4.394-2.308-9.126-3.31-13.751-3.146L44.571,8.131c8.332-1.089,17.069,0.291,25.074,4.5     c18.77,9.866,27.028,31.871,20.209,51.301l2.008-0.383c0.002-0.004,0-0.004,0-0.004c6.633-20.411-2.362-42.488-21.389-52.49     C56.084,3.488,42.725,6.592,42.243,6.64z" fill="url(#SVGID_2_)"/>
<path d="M68.101,70.694c-6.874,6.002-19.003,9.885-30.893,3.633c-12.565-6.606-17.895-21.572-12.757-34.476     L20.67,30.47l-0.019,0.007l-9.581,3.221c-8.389,19.979-0.25,43.393,19.284,53.664c22.112,11.623,50.677,1.686,59.5-23.43     L68.101,70.694z" fill="#FFFFFF"/>
<linearGradient gradientTransform="matrix(0.309 -0.9511 0.9511 0.309 609.3144 -653.2726)" gradientUnits="userSpaceOnUse" id="SVGID_3_" x1="-831.6211" x2="-820.6572" y1="-284.9922" y2="-326.1298">
<stop offset="0" style="stop-color:#FFFFFF"/>
<stop offset="1" style="stop-color:#F2F2F2;stop-opacity:0"/>
</linearGradient>
<path d="M44.571,8.131l4.472,14.389c25.517-0.905,38.806,30.922,19.058,48.174l21.754-6.762     C100.302,34.167,75.562,4.082,44.571,8.131z" fill="url(#SVGID_3_)"/>
</g>
</g>
</g>
</svg>
