<?xml version="1.0" encoding="UTF-8"?>
<!DOCTYPE svg PUBLIC "-//W3C//DTD SVG 1.1 Tiny//EN" "http://www.w3.org/Graphics/SVG/1.1/DTD/svg11-tiny.dtd">
<svg baseProfile="tiny" height="100px" version="1.1" viewBox="0 0 100 100" width="100px" x="0px" xmlns="http://www.w3.org/2000/svg" xmlns:xlink="http://www.w3.org/1999/xlink" y="0px">
<g>
<g>
<rect fill="none" height="100" width="100"/>
</g>
<g>
<g>
<linearGradient gradientTransform="matrix(0.809 0.5878 -0.5878 0.809 -184.5148 125.3866)" gradientUnits="userSpaceOnUse" id="SVGID_1_" x1="126.4404" x2="141.2466" y1="-212.1113" y2="-193.4386">
<stop offset="0" style="stop-color:#000000;stop-opacity:0.98"/>
<stop offset="1" style="stop-color:#000000;stop-opacity:0.6"/>
</linearGradient>
<path d="M24.435,83.599c-0.584-0.446-1.159-0.908-1.724-1.389C2.687,65.19,3.646,36.237,20.538,19.771     C36.342,4.366,61.125,3.863,77.533,18.012l0.104,10.109v0.019l-10.09,0.697c-10.684-8.875-26.564-8.43-36.73,1.479     c-6.938,6.761-9.537,16.29-7.759,25.126c0.368,1.833,0.923,3.637,1.667,5.377l0.078-5.728c-1.731-8.6,0.982-17.386,7.257-23.501     c10.673-10.405,26.152-8.833,34.896-0.928l12.527-0.885l-0.102-12.521C68.572,7.079,40.549-2.221,19.295,18.496     C0.8,36.525,1.724,66.716,21.559,83.566c0.844,0.718,1.727,1.411,2.62,2.062c0.001,0.001,0.001,0,0.001,0     C24.179,85.628,24.435,83.599,24.435,83.599z" fill="url(#SVGID_1_)"/>
<linearGradient gradientTransform="matrix(0.809 0.5878 -0.5878 0.809 -184.5148 125.3866)" gradientUnits="userSpaceOnUse" id="SVGID_2_" x1="150.1572" x2="174.7711" y1="-168.3066" y2="-212.2946">
<stop offset="0" style="stop-color:#000000;stop-opacity:0.6"/>
<stop offset="0.9158" style="stop-color:#000000;stop-opacity:0"/>
<stop offset="1" style="stop-color:#000000;stop-opacity:0"/>
</linearGradient>
<path d="M93.635,56.021l-18.541-0.237c-0.305,0.73-1.34,6.966-7.146,12.63     c-14.709,14.333-39.167,6.507-43.144-13.322l-0.078,5.728c7.746,18.127,30.875,22.111,44.464,8.869     c3.553-3.466,5.967-7.658,7.24-12.107l15.068,0.193c-1.539,8.262-5.553,16.146-12.029,22.457     c-15.184,14.801-38.663,15.857-55.034,3.367l-0.256,2.029c0.001,0.001,0.001,0,0.001,0c17.364,12.615,41.14,10.882,56.531-4.121     C92.355,70.158,93.531,56.493,93.635,56.021z" fill="url(#SVGID_2_)"/>
<path d="M24.725,60.819c-3.584-8.391-3.528-21.127,6.092-30.503c10.166-9.909,26.046-10.354,36.73-1.479     l10.09-0.697v-0.019l-0.104-10.109C61.125,3.863,36.342,4.366,20.538,19.771C2.649,37.209,3.274,67.445,24.435,83.599     L24.725,60.819z" fill="#FFFFFF"/>
<linearGradient gradientTransform="matrix(0.809 0.5878 -0.5878 0.809 -184.5148 125.3866)" gradientUnits="userSpaceOnUse" id="SVGID_3_" x1="155.4834" x2="166.4473" y1="-169.21" y2="-210.3475">
<stop offset="0" style="stop-color:#FFFFFF"/>
<stop offset="1" style="stop-color:#F2F2F2;stop-opacity:0"/>
</linearGradient>
<path d="M91.498,57.774L76.43,57.581c-7.021,24.548-41.4,27.352-51.705,3.238l-0.29,22.779     C49.514,102.731,85.773,88.5,91.498,57.774z" fill="url(#SVGID_3_)"/>
</g>
</g>
</g>
</svg>
