<?xml version="1.0" encoding="UTF-8"?>
<!DOCTYPE svg PUBLIC "-//W3C//DTD SVG 1.1 Tiny//EN" "http://www.w3.org/Graphics/SVG/1.1/DTD/svg11-tiny.dtd">
<svg baseProfile="tiny" height="100px" version="1.1" viewBox="0 0 100 100" width="100px" x="0px" xmlns="http://www.w3.org/2000/svg" xmlns:xlink="http://www.w3.org/1999/xlink" y="0px">
<g>
<g>
<rect fill="none" height="100" width="100"/>
</g>
<g>
<g>
<linearGradient gradientTransform="matrix(0.809 -0.5878 0.5878 0.809 976.0805 -216.836)" gradientUnits="userSpaceOnUse" id="SVGID_1_" x1="-925.0332" x2="-910.2272" y1="-341.7402" y2="-323.0677">
<stop offset="0" style="stop-color:#000000;stop-opacity:0.98"/>
<stop offset="1" style="stop-color:#000000;stop-opacity:0.6"/>
</linearGradient>
<path d="M74.054,84.697c-0.604,0.418-1.222,0.82-1.854,1.21C49.825,99.692,22.586,89.832,12.145,68.68     C2.379,48.888,9.558,25.161,28.087,13.929l9.645,3.026l0.02,0.005l-2.455,9.813c-11.741,7.419-16.228,22.659-9.944,35.39     c4.287,8.687,12.546,14.104,21.499,15.145c1.855,0.216,3.742,0.244,5.629,0.075l-5.424-1.844     c-8.715-1.012-16.231-6.308-20.106-14.165c-6.599-13.366-0.319-27.604,9.9-33.476l3.028-12.189l-11.939-3.771     C14.918,19.073-2.587,42.851,10.55,69.467c11.432,23.162,40.43,31.613,62.585,17.956c0.944-0.583,1.874-1.208,2.768-1.855     c0.004-0.001,0.003-0.003,0.003-0.003C75.902,85.567,74.054,84.697,74.054,84.697z" fill="url(#SVGID_1_)"/>
<linearGradient gradientTransform="matrix(0.809 -0.5878 0.5878 0.809 976.0805 -216.836)" gradientUnits="userSpaceOnUse" id="SVGID_2_" x1="-901.3149" x2="-876.7007" y1="-297.9341" y2="-341.9226">
<stop offset="0" style="stop-color:#000000;stop-opacity:0.6"/>
<stop offset="0.9158" style="stop-color:#000000;stop-opacity:0"/>
<stop offset="1" style="stop-color:#000000;stop-opacity:0"/>
</linearGradient>
<path d="M69.21,10.361l-5.955,17.56c0.6,0.517,6.211,3.429,9.804,10.702     c9.085,18.419-5.915,39.259-26.003,36.915l5.424,1.844c19.633-1.766,30.569-22.532,22.174-39.549     c-2.198-4.449-5.438-8.042-9.275-10.627l4.84-14.27c7.381,4.016,13.638,10.269,17.64,18.379     c9.387,19.014,3.134,41.671-13.804,53.382l1.849,0.87c0.004-0.001,0.003-0.003,0.003-0.003     c17.362-12.613,23.063-35.762,13.549-55.037C82.26,15.947,69.628,10.606,69.21,10.361z" fill="url(#SVGID_2_)"/>
<path d="M52.479,77.382c-9.089,0.814-21.184-3.174-27.128-15.22c-6.283-12.73-1.797-27.971,9.944-35.39     l2.455-9.813l-0.02-0.005l-9.645-3.026C9.558,25.161,2.379,48.888,12.145,68.68c11.058,22.4,40.008,31.15,61.909,16.018     L52.479,77.382z" fill="#FFFFFF"/>
<linearGradient gradientTransform="matrix(0.809 -0.5878 0.5878 0.809 976.0805 -216.836)" gradientUnits="userSpaceOnUse" id="SVGID_3_" x1="-895.9897" x2="-885.0259" y1="-298.8389" y2="-339.9761">
<stop offset="0" style="stop-color:#FFFFFF"/>
<stop offset="1" style="stop-color:#F2F2F2;stop-opacity:0"/>
</linearGradient>
<path d="M70.218,12.937l-4.84,14.27c21.175,14.266,13.219,47.825-12.898,50.176l21.574,7.315     C100.001,66.757,97.67,27.876,70.218,12.937z" fill="url(#SVGID_3_)"/>
</g>
</g>
</g>
</svg>
