<?xml version="1.0" encoding="UTF-8"?>
<!DOCTYPE svg PUBLIC "-//W3C//DTD SVG 1.1 Tiny//EN" "http://www.w3.org/Graphics/SVG/1.1/DTD/svg11-tiny.dtd">
<svg baseProfile="tiny" height="100px" version="1.1" viewBox="0 0 100 100" width="100px" x="0px" xmlns="http://www.w3.org/2000/svg" xmlns:xlink="http://www.w3.org/1999/xlink" y="0px">
<g>
<g>
<rect fill="none" height="100" width="100"/>
</g>
<g>
<g>
<linearGradient gradientUnits="userSpaceOnUse" id="SVGID_1_" x1="31.0244" x2="45.8306" y1="36.7227" y2="55.3954">
<stop offset="0" style="stop-color:#000000;stop-opacity:0.98"/>
<stop offset="1" style="stop-color:#000000;stop-opacity:0.6"/>
</linearGradient>
<path d="M49.066,92.209c-0.734-0.018-1.471-0.054-2.21-0.11C20.651,90.1,4.409,66.111,8.396,42.862     C12.127,21.109,31.881,6.136,53.473,7.938l6.025,8.117l0.012,0.015l-7.753,6.495c-13.86-0.899-26.446,8.794-28.846,22.786     c-1.638,9.548,1.86,18.785,8.492,24.889c1.375,1.267,2.884,2.398,4.509,3.37l-3.303-4.681     c-6.456-5.939-9.425-14.643-7.942-23.278c2.519-14.691,15.966-22.518,27.688-21.263l9.613-8.079l-7.443-10.07     c-14.727-1.88-42.864,7.068-47.882,36.321C2.276,68.019,20.77,91.9,46.721,93.873c1.105,0.085,2.226,0.127,3.331,0.128     c0.002,0,0.001,0,0.001,0C50.052,94.001,49.066,92.209,49.066,92.209z" fill="url(#SVGID_1_)"/>
<linearGradient gradientUnits="userSpaceOnUse" id="SVGID_2_" x1="54.7412" x2="79.3552" y1="80.5283" y2="36.5402">
<stop offset="0" style="stop-color:#000000;stop-opacity:0.6"/>
<stop offset="0.9158" style="stop-color:#000000;stop-opacity:0"/>
<stop offset="1" style="stop-color:#000000;stop-opacity:0"/>
</linearGradient>
<path d="M88.84,29.224L73.699,39.93c0.186,0.771,3.012,6.423,1.643,14.419     C71.867,74.59,47.481,82.635,32.608,68.93l3.303,4.681c16.92,10.111,37.975-0.261,41.186-18.962     c0.838-4.892,0.326-9.702-1.26-14.051l12.305-8.699c3.609,7.589,4.998,16.325,3.467,25.238     C88.025,78.036,69.65,92.691,49.066,92.209l0.986,1.792c0.002,0,0.001,0,0.001,0c21.463,0,39.68-15.378,43.313-36.563     C96.115,41.412,89.033,29.667,88.84,29.224z" fill="url(#SVGID_2_)"/>
<path d="M35.912,73.61c-7.832-4.683-15.273-15.019-13.001-28.259c2.4-13.992,14.986-23.686,28.846-22.786     l7.753-6.495l-0.012-0.015l-6.025-8.117C31.881,6.136,12.127,21.109,8.396,42.862C4.174,67.484,22.452,91.579,49.066,92.209     L35.912,73.61z" fill="#FFFFFF"/>
<linearGradient gradientUnits="userSpaceOnUse" id="SVGID_3_" x1="60.0684" x2="71.0321" y1="79.623" y2="38.4858">
<stop offset="0" style="stop-color:#FFFFFF"/>
<stop offset="1" style="stop-color:#F2F2F2;stop-opacity:0"/>
</linearGradient>
<path d="M88.143,31.898l-12.305,8.699C84.586,64.586,58.42,87.061,35.912,73.61l13.154,18.599     C80.602,92.947,101.572,60.12,88.143,31.898z" fill="url(#SVGID_3_)"/>
</g>
</g>
</g>
</svg>
