<?xml version="1.0" encoding="UTF-8"?>
<!DOCTYPE svg PUBLIC "-//W3C//DTD SVG 1.1 Tiny//EN" "http://www.w3.org/Graphics/SVG/1.1/DTD/svg11-tiny.dtd">
<svg baseProfile="tiny" height="100px" version="1.1" viewBox="0 0 100 100" width="100px" x="0px" xmlns="http://www.w3.org/2000/svg" xmlns:xlink="http://www.w3.org/1999/xlink" y="0px">
<g>
<g>
<rect fill="none" height="100" width="100"/>
</g>
<g>
<g>
<linearGradient gradientTransform="matrix(-0.809 -0.5878 0.5878 -0.809 -300.0517 -676.9433)" gradientUnits="userSpaceOnUse" id="SVGID_1_" x1="-729.4595" x2="-714.6534" y1="-395.6313" y2="-376.9588">
<stop offset="0" style="stop-color:#000000;stop-opacity:0.98"/>
<stop offset="1" style="stop-color:#000000;stop-opacity:0.6"/>
</linearGradient>
<path d="M75.565,16.402c0.584,0.444,1.158,0.907,1.724,1.388c20.025,17.021,19.064,45.973,2.174,62.44     c-15.805,15.404-40.588,15.908-56.997,1.757l-0.103-10.108l-0.001-0.02l10.091-0.697c10.685,8.875,26.564,8.43,36.73-1.479     c6.937-6.762,9.536-16.291,7.76-25.126c-0.368-1.831-0.924-3.636-1.668-5.377l-0.078,5.729     c1.731,8.599-0.982,17.386-7.258,23.499c-10.673,10.406-26.153,8.833-34.896,0.928l-12.528,0.887l0.104,12.521     c10.81,10.177,38.833,19.478,60.087-1.24c18.496-18.029,17.571-48.22-2.263-65.07c-0.846-0.719-1.728-1.41-2.62-2.06     c-0.002-0.003-0.003-0.001-0.003-0.001C75.822,14.374,75.565,16.402,75.565,16.402z" fill="url(#SVGID_1_)"/>
<linearGradient gradientTransform="matrix(-0.809 -0.5878 0.5878 -0.809 -300.0517 -676.9433)" gradientUnits="userSpaceOnUse" id="SVGID_2_" x1="-705.7446" x2="-681.1305" y1="-351.8281" y2="-395.8166">
<stop offset="0" style="stop-color:#000000;stop-opacity:0.6"/>
<stop offset="0.9158" style="stop-color:#000000;stop-opacity:0"/>
<stop offset="1" style="stop-color:#000000;stop-opacity:0"/>
</linearGradient>
<path d="M6.365,43.979l18.541,0.238c0.306-0.73,1.34-6.967,7.147-12.631     c14.71-14.333,39.166-6.506,43.144,13.323l0.078-5.729c-7.746-18.126-30.876-22.111-44.465-8.868     c-3.554,3.466-5.968,7.656-7.241,12.106L8.503,42.225c1.539-8.261,5.551-16.144,12.028-22.456     C35.714,4.967,59.194,3.912,75.565,16.402l0.257-2.028c-0.002-0.003-0.003-0.001-0.003-0.001     C58.457,1.758,34.681,3.49,19.289,18.494C7.645,29.842,6.469,43.506,6.365,43.979z" fill="url(#SVGID_2_)"/>
<path d="M75.275,39.181c3.584,8.392,3.528,21.126-6.092,30.503c-10.166,9.908-26.046,10.354-36.73,1.479     l-10.091,0.697l0.001,0.02l0.103,10.108c16.409,14.151,41.192,13.647,56.997-1.757c17.888-17.439,17.264-47.677-3.897-63.828     L75.275,39.181z" fill="#FFFFFF"/>
<linearGradient gradientTransform="matrix(-0.809 -0.5878 0.5878 -0.809 -300.0517 -676.9433)" gradientUnits="userSpaceOnUse" id="SVGID_3_" x1="-700.416" x2="-689.4524" y1="-352.731" y2="-393.8676">
<stop offset="0" style="stop-color:#FFFFFF"/>
<stop offset="1" style="stop-color:#F2F2F2;stop-opacity:0"/>
</linearGradient>
<path d="M8.503,42.225l15.066,0.194c7.024-24.548,41.4-27.352,51.706-3.238l0.29-22.778     C50.486-2.732,14.228,11.5,8.503,42.225z" fill="url(#SVGID_3_)"/>
</g>
</g>
</g>
</svg>
