<?xml version="1.0" encoding="UTF-8"?>
<!DOCTYPE svg PUBLIC "-//W3C//DTD SVG 1.1 Tiny//EN" "http://www.w3.org/Graphics/SVG/1.1/DTD/svg11-tiny.dtd">
<svg baseProfile="tiny" height="44px" version="1.1" viewBox="0 0 44 44" width="44px" x="0px" xmlns="http://www.w3.org/2000/svg" xmlns:xlink="http://www.w3.org/1999/xlink" y="0px">
<g>
<g>
<path d="M39.93,26.113L33.107,9.192c-0.342-0.854-1.299-1.439-2.246-1.273L5.592,12.24    c-1.207,0.207-1.889,1.304-1.604,2.353l5.404,19.943c0.373,1.384,1.789,1.756,2.672,1.496l26.732-7.411    C39.99,28.281,40.297,27.022,39.93,26.113z" fill-opacity="0.2" stroke-opacity="0.2"/>
<path d="M5.064,13.609c-0.157,0.214-0.202,0.477-0.133,0.729l5.403,19.941    c0.157,0.58,0.789,1.004,1.468,0.813l26.727-7.414c0.512-0.144,0.693-0.704,0.494-1.2l-0.734-1.828    C38.285,24.651,5.219,13.401,5.064,13.609z" fill-opacity="0.5" stroke-opacity="0.5"/>
<path d="M31.027,7.904L5.756,12.228c-0.627,0.104-0.961,0.632-0.824,1.134l5.403,19.941    c0.203,0.747,0.974,0.955,1.468,0.813l26.727-7.413c0.471-0.132,0.713-0.663,0.494-1.201L32.199,8.575    C32.027,8.152,31.525,7.82,31.027,7.904z" fill="#9E3434"/>
<polygon fill="#C41200" points="31.191,8.462 5.434,12.943 11.063,33.507 38.674,25.947 31.633,8.386   "/>
<linearGradient gradientTransform="matrix(0.9758 -0.2187 -0.2187 -0.9758 -392.924 -999.3136)" gradientUnits="userSpaceOnUse" id="SVGID_1_" x1="182.1484" x2="182.1484" y1="-1076.46" y2="-1095.4785">
<stop offset="0" style="stop-color:#DCDCDC"/>
<stop offset="0.0225" style="stop-color:#DCDCDC"/>
<stop offset="0.1404" style="stop-color:#FFFFFF"/>
<stop offset="0.8146" style="stop-color:#FFFFFF"/>
<stop offset="0.9663" style="stop-color:#E9E9E9"/>
<stop offset="1" style="stop-color:#E9E9E9"/>
</linearGradient>
<polygon fill="url(#SVGID_1_)" points="6.135,13.334 31.363,8.89 38.016,25.575 11.503,32.753   "/>
<linearGradient gradientTransform="matrix(0.9758 -0.2187 -0.2187 -0.9758 -392.924 -999.3136)" gradientUnits="userSpaceOnUse" id="SVGID_2_" x1="182.1543" x2="182.1543" y1="-1084.5869" y2="-1097.6411">
<stop offset="0" style="stop-color:#DF3900"/>
<stop offset="1" style="stop-color:#B30C00"/>
</linearGradient>
<polygon fill="url(#SVGID_2_)" points="25.547,9.734 21.746,16.667 12.137,12.086 5.932,13.175 11.374,32.908 15.432,31.808     10.737,15.837 23.396,22.109 29.457,12 35.027,26.491 38.205,25.628 31.443,8.7   "/>
<polygon fill="#C41230" fill-opacity="0.4" points="25.125,19.798 24.959,20.087 37.676,25.401   "/>
<polygon fill="#C41230" fill-opacity="0.4" points="20.182,20.908 20.523,21.092 11.696,32.399   "/>
</g>
<rect fill="none" height="44" width="44"/>
</g>
</svg>
