<?xml version="1.0" encoding="UTF-8"?>
<!DOCTYPE svg PUBLIC "-//W3C//DTD SVG 1.1 Tiny//EN" "http://www.w3.org/Graphics/SVG/1.1/DTD/svg11-tiny.dtd">
<svg baseProfile="tiny" height="44px" version="1.1" viewBox="0 0 44 44" width="44px" x="0px" xmlns="http://www.w3.org/2000/svg" xmlns:xlink="http://www.w3.org/1999/xlink" y="0px">
<g>
<path d="M37.778,10.364c-4.158,1.571-7.277,2.283-11.252-0.597   c-0.313-0.222-0.77-0.281-1.186-0.092c0.031-0.379-0.156-0.803-0.51-1.053c-1.781-1.102-5.235-4.021-13.006-0.786   c-0.274,0.114-0.54,0.411-0.621,0.696L8.063,19.427c-0.047,0.229-0.039,0.582,0.263,0.96c0.03,0.037,0.073,0.086,0.127,0.141   c-0.099,0.039-0.198,0.079-0.296,0.121c-0.137,0.059-0.483,0.246-0.631,0.709L4.427,32.214c-0.062,0.307-0.002,0.743,0.41,1.111   l0.207,0.162c0.325,0.258,0.786,0.284,1.078,0.174c4.319-1.614,6.833-1.822,10.51,0.549c0.298,0.188,0.665,0.249,1.093,0.058   c-0.002,0.463,0.269,0.851,0.555,1.007c4.27,2.857,8.704,3.091,13.845,0.901c0.355-0.179,0.578-0.429,0.666-0.735l3.029-10.604   c0.133-0.729-0.289-1.026-0.465-1.183c0.584-0.235,0.895-0.384,1.043-0.881l3.143-10.785C39.862,10.954,38.63,10.058,37.778,10.364   z" fill-opacity="0.2" stroke-opacity="0.2"/>
<path d="M20.73,22.326c0.004-0.031-0.01-0.106-0.047-0.134   c-2.603-1.686-5.517-3.396-12.201-0.63L5.385,32.406l0,0c-0.001,0.009-0.011,0.09,0.051,0.145c-0.002,0-0.002,0-0.002,0   l0.004,0.003l0.209,0.162c0,0,0-0.001,0,0c0.069,0.044,0.092,0.026,0.135,0.031c5.3-1.982,7.922-1.588,11.382,0.64l-0.002,0.001   c0,0,0.021,0.011,0.047,0.018l0,0c0.09,0.024,0.331-0.151,0.345-0.214c0,0,0.002,0,0.002,0.002l0.002-0.002v0.002L20.73,22.326z    M34.812,24.471l-0.254-0.2c-0.021-0.024-14.95,6.821-14.952,6.846L18.715,34.2v0.001c-0.057,0.17,0.109,0.263,0.109,0.263v-0.001   c2.744,1.841,6.72,3.457,12.913,0.813c0,0,0.004-0.002,0.01-0.002c0.018-0.011,0.074-0.044,0.102-0.101L34.86,24.66   c0-0.002,0-0.002-0.002-0.004C34.878,24.561,34.856,24.521,34.812,24.471z M9.365,19.978L9.365,19.978c0.002,0,0,0.007,0.006,0.006   c0.025-0.004,0.09-0.032,0.09-0.032c7.083-2.807,9.955-0.169,11.38,0.596c0.001,0,0.001,0.002,0.002,0.002   c0.003,0.001,0.003,0.002,0.005,0.002l0,0l0,0c0.07,0.043,0.365-0.054,0.396-0.172l0.001,0.002l0.001-0.007   c0.001-0.001,0.001-0.001,0.001-0.001l0,0l3.121-10.776l0,0V9.595c0.006-0.023-0.029-0.124-0.045-0.131l0,0l0,0   c-2.114-1.278-5.175-3.579-12.132-0.728c-0.045,0.019-3.176,10.882-3.176,10.882l0,0C8.997,19.729,9.262,19.975,9.365,19.978z    M38.604,11.697c0,0.001,0,0.002,0,0.002c0.041-0.121-0.264-0.518-0.48-0.42c-3.604,1.362-15.287,8.693-15.328,8.777l-0.431,1.49   c-0.057,0.169,0.096,0.252,0.096,0.252h0.002c2.858,1.915,6.606,3.415,12.884,0.804c0,0,0.002,0,0.006-0.002   c0.02-0.009,0.076-0.042,0.105-0.101L38.604,11.697L38.604,11.697L38.604,11.697z" fill-opacity="0.5" stroke-opacity="0.5"/>
<radialGradient cx="22.0581" cy="22.0171" gradientUnits="userSpaceOnUse" id="SVGID_1_" r="20.4721">
<stop offset="0" style="stop-color:#D1E7EE"/>
<stop offset="0.0051" style="stop-color:#D1E7EE"/>
<stop offset="0.7411" style="stop-color:#3474AA"/>
<stop offset="1" style="stop-color:#244B93"/>
</radialGradient>
<path d="M20.684,21.216c-2.604-1.686-5.47-3.405-12.154-0.642c0,0-0.051,0.03-0.064,0.074l-3.081,10.78l0,0   l0,0l0,0c-0.001,0.009-0.011,0.09,0.05,0.144l0,0l0.002,0.003l0.209,0.163c0,0,0.002-0.002,0.002,0   c0.068,0.044,0.09,0.026,0.135,0.031c5.299-1.983,7.921-1.587,11.381,0.639L17.16,32.41c0,0,0.02,0.011,0.047,0.018l0,0   c0.09,0.024,0.331-0.151,0.345-0.215l0,0c0,0.001,0.001,0.001,0.003,0.002v-0.002c0,0.001,0,0.001,0,0.002l3.174-10.865   C20.734,21.316,20.721,21.242,20.684,21.216z" fill="url(#SVGID_1_)"/>
<radialGradient cx="22.0356" cy="21.9517" gradientTransform="matrix(1 0 0 -1 -0.0225 43.8779)" gradientUnits="userSpaceOnUse" id="SVGID_2_" r="17.3888">
<stop offset="0" style="stop-color:#FFE23D"/>
<stop offset="0.2386" style="stop-color:#FFE23D"/>
<stop offset="0.3435" style="stop-color:#FDDB3A"/>
<stop offset="0.494" style="stop-color:#F7C832"/>
<stop offset="0.671" style="stop-color:#EEA925"/>
<stop offset="0.8325" style="stop-color:#E48717"/>
<stop offset="1" style="stop-color:#E48717"/>
</radialGradient>
<path d="M34.812,23.492l-0.254-0.201c-0.021-0.022-0.07-0.049-0.17-0.032l0,0l0,0   c-6.318,2.14-9.357,0.88-12.103-0.971c-0.246-0.119-0.484,0.23-0.487,0.257l0.003-0.002l-0.002,0.002h0.002l-0.003,0.004   l-3.082,10.674v0.001c-0.057,0.17,0.109,0.261,0.109,0.261l0,0c2.743,1.841,6.721,3.458,12.914,0.814l0,0   c0,0,0.004-0.003,0.008-0.003c0.018-0.013,0.074-0.044,0.104-0.103l3.012-10.51c0-0.002-0.002-0.002-0.002-0.004   C34.878,23.584,34.856,23.545,34.812,23.492z" fill="url(#SVGID_2_)"/>
<radialGradient cx="21.9673" cy="22.0635" gradientUnits="userSpaceOnUse" id="SVGID_3_" r="17.6608">
<stop offset="0" style="stop-color:#FFE23D"/>
<stop offset="0.0152" style="stop-color:#FFE23D"/>
<stop offset="0.6701" style="stop-color:#E48717"/>
<stop offset="0.821" style="stop-color:#E7521F"/>
<stop offset="0.9373" style="stop-color:#E92F25"/>
<stop offset="1" style="stop-color:#EA2227"/>
</radialGradient>
<path d="M21.25,19.395l3.12-10.775l0,0l0,0l0,0V8.617c0.008-0.023-0.029-0.124-0.043-0.132l0,0l0,0l0,0   c-2.13-1.286-5.074-3.659-12.126-0.722c-0.006,0.006-0.053,0.048-0.059,0.064L9.018,18.641l0,0   c-0.021,0.109,0.246,0.354,0.35,0.357l0,0c0.001,0,0,0.008,0.004,0.007c0.027-0.004,0.091-0.032,0.091-0.032   c7.083-2.807,9.955-0.17,11.38,0.596c0.001,0,0.001,0.002,0.002,0.002c0.002,0.001,0.004,0.002,0.006,0.002l0,0v0.001   c0.069,0.041,0.364-0.055,0.396-0.173l0,0l0.001,0.002l0.001-0.007C21.25,19.396,21.25,19.396,21.25,19.395   C21.25,19.396,21.25,19.396,21.25,19.395z" fill="url(#SVGID_3_)"/>
<radialGradient cx="22.0356" cy="21.9521" gradientTransform="matrix(1 0 0 -1 -0.0225 43.8779)" gradientUnits="userSpaceOnUse" id="SVGID_4_" r="19.9665">
<stop offset="0" style="stop-color:#D1E787"/>
<stop offset="0.0152" style="stop-color:#D1E787"/>
<stop offset="0.1256" style="stop-color:#C4DD7F"/>
<stop offset="0.33" style="stop-color:#A2C268"/>
<stop offset="0.5635" style="stop-color:#739D4A"/>
<stop offset="1" style="stop-color:#29621A"/>
</radialGradient>
<path d="M38.604,10.724c0.041-0.122-0.264-0.52-0.48-0.42c-3.604,1.36-7.473,2.683-12.17-0.719   c-0.063-0.028-0.143-0.036-0.23,0.016V9.6c0.004-0.006-0.211,0.142-0.252,0.228l-3.106,10.744   c-0.057,0.169,0.097,0.252,0.097,0.252h0.002c2.859,1.916,6.605,3.414,12.883,0.805l0,0c0,0,0.004,0,0.008-0.003   c0.02-0.01,0.074-0.042,0.104-0.101L38.604,10.724L38.604,10.724v-0.003C38.604,10.723,38.604,10.724,38.604,10.724z" fill="url(#SVGID_4_)"/>
<rect fill="none" height="44" width="43.999"/>
</g>
</svg>
