<?xml version="1.0" encoding="UTF-8"?>
<!DOCTYPE svg PUBLIC "-//W3C//DTD SVG 1.1 Tiny//EN" "http://www.w3.org/Graphics/SVG/1.1/DTD/svg11-tiny.dtd">
<svg baseProfile="tiny" height="44px" version="1.1" viewBox="0 0 44 44" width="44px" x="0px" xmlns="http://www.w3.org/2000/svg" xmlns:xlink="http://www.w3.org/1999/xlink" y="0px">
<path d="M40,8.998H4C3.448,8.998,3,9.446,3,10V36C3,36.554,3.448,37.001,4,37.001H40C40.553,37.001,41,36.554,41,36  V10C41,9.446,40.553,8.998,40,8.998z" fill-opacity="0.2" stroke-opacity="0.2"/>
<rect fill-opacity="0.5" height="26" stroke-opacity="0.5" width="36" x="4" y="10"/>
<rect fill="none" height="44" width="44"/>
<rect fill="#44A51C" height="26" width="36" x="4" y="9"/>
<path d="M26.924,28.059c-0.383,1.178-0.953,1.984-2.575,1.984c-1.617,0-2.223-0.809-2.585-1.984l-3.309-11.441h3.852  l2.351,9.901l2.494-9.901h3.257L26.924,28.059z" fill="#FFFFFF"/>
<path d="M35.577,28.346c0,1.625-1.213,1.696-1.845,1.696c-0.604,0-1.829-0.097-1.829-1.696v-9.61  c0,0-0.094,0-0.212,0c-0.498,0-1.075-0.092-1.075-1.057c0-1.065,0.678-1.062,1.075-1.062c0.122,0,3.886,0,3.886,0V28.346z" fill="#FFFFFF"/>
<path d="M33.771,15.23c-1.18,0-2.027-0.599-2.027-1.707c0-1.11,0.832-1.708,2.027-1.708  c1.133,0,2.032,0.623,2.032,1.708C35.803,14.632,34.949,15.23,33.771,15.23z" fill="#FFFFFF"/>
<path d="M13.239,16.432c-3.99,0-6.094,2.722-6.094,6.598c0,3.923,1.545,7.013,6.046,7.013  c4.15,0,6.063-2.792,6.063-6.921C19.256,19.177,17.367,16.432,13.239,16.432z M13.193,27.918c-2.125,0-2.217-3-2.217-4.96  c0-1.913,0.163-4.406,2.217-4.406c1.959,0,2.238,2.63,2.238,4.406C15.432,25.244,15.313,27.918,13.193,27.918z" fill="#FFFFFF"/>
</svg>
