<?xml version="1.0" encoding="UTF-8"?>
<!DOCTYPE svg PUBLIC "-//W3C//DTD SVG 1.1 Tiny//EN" "http://www.w3.org/Graphics/SVG/1.1/DTD/svg11-tiny.dtd">
<svg baseProfile="tiny" height="44px" version="1.1" viewBox="0 0 44 44" width="44px" x="0px" xmlns="http://www.w3.org/2000/svg" xmlns:xlink="http://www.w3.org/1999/xlink" y="0px">
<g>
<path d="M42.004,12.443c0.128-0.507-0.186-1.124-0.825-1.206l-7.533-0.952   c-0.493-0.054-1.104,0.284-1.099,0.973l0.016,10.396c-0.201-6.839-6.434-11.582-15.292-11.582c-9.01,0-15.303,4.903-15.303,11.926   c0,7.023,6.293,11.932,15.303,11.932c8.877,0,15.114-4.767,15.294-11.626l0.006,3.711c0,0.149,0.034,0.296,0.096,0.422   c-0.254,0.104-0.563,0.354-0.616,0.794l-0.567,4.635c-0.064,0.536,0.316,1.021,0.852,1.088l5.004,0.612   c0.51,0.058,1.018-0.284,1.089-0.852l0.569-4.631c0.068-0.558-0.328-0.95-0.703-1.06c0.057-0.088,0.102-0.186,0.127-0.292   L42.004,12.443z" fill-opacity="0.2" stroke-opacity="0.2"/>
<path d="M2.943,21.997c0,6.449,5.893,10.954,14.327,10.954   c8.433,0,14.321-4.509,14.321-10.954C31.592,15.55,2.943,15.55,2.943,21.997z M32.453,31.981l5.004,0.612l0.568-4.63l-5.006-0.617   L32.453,31.981z M37.473,26.494l3.583-14.287l-7.534-0.951l0.025,14.756L37.473,26.494z" fill-opacity="0.5" stroke-opacity="0.5"/>
<linearGradient gradientTransform="matrix(1 0 0 -1 -147.5254 -1025.9395)" gradientUnits="userSpaceOnUse" id="SVGID_1_" x1="164.792" x2="164.792" y1="-1036.0117" y2="-1057.9141">
<stop offset="0" style="stop-color:#8418A8"/>
<stop offset="1" style="stop-color:#4A005C"/>
</linearGradient>
<path d="M17.271,31.975c-8.435,0-14.327-4.505-14.327-10.954c0-6.447,5.893-10.948,14.327-10.948   c8.433,0,14.321,4.501,14.321,10.948C31.592,27.466,25.703,31.975,17.271,31.975L17.271,31.975z" fill="url(#SVGID_1_)"/>
<linearGradient gradientTransform="matrix(1 0 0 -1 -147.5254 -1025.9395)" gradientUnits="userSpaceOnUse" id="SVGID_2_" x1="182.7646" x2="182.7646" y1="-1052.3096" y2="-1057.5557">
<stop offset="0" style="stop-color:#8418A8"/>
<stop offset="1" style="stop-color:#4A005C"/>
</linearGradient>
<polygon fill="url(#SVGID_2_)" points="37.457,31.616 32.453,31.005 33.02,26.37 38.027,26.986 37.92,27.844  "/>
<linearGradient gradientTransform="matrix(1 0 0 -1 -147.5254 -1025.9395)" gradientUnits="userSpaceOnUse" id="SVGID_3_" x1="184.8135" x2="184.8135" y1="-1036.2168" y2="-1051.457">
<stop offset="0" style="stop-color:#8418A8"/>
<stop offset="1" style="stop-color:#4A005C"/>
</linearGradient>
<polygon fill="url(#SVGID_3_)" points="37.473,25.518 33.548,25.033 33.522,10.277 41.056,11.229  "/>
<linearGradient gradientTransform="matrix(1 0 0 -1 -147.5254 -1025.9395)" gradientUnits="userSpaceOnUse" id="SVGID_4_" x1="164.793" x2="164.793" y1="-1036.873" y2="-1057.0449">
<stop offset="0" style="stop-color:#B340D9"/>
<stop offset="1" style="stop-color:#58006D"/>
</linearGradient>
<path d="M17.271,31.105c-7.928,0-13.462-4.148-13.462-10.088c0-5.937,5.533-10.084,13.462-10.084   c7.923,0,13.459,4.147,13.459,10.084C30.728,26.962,25.193,31.105,17.271,31.105z" fill="url(#SVGID_4_)"/>
<linearGradient gradientTransform="matrix(1 0 0 -1 -147.5254 -1025.9395)" gradientUnits="userSpaceOnUse" id="SVGID_5_" x1="182.7637" x2="182.7637" y1="-1053.2764" y2="-1056.5957">
<stop offset="0" style="stop-color:#B340D9"/>
<stop offset="1" style="stop-color:#7B0099"/>
</linearGradient>
<polygon fill="url(#SVGID_5_)" points="36.703,30.656 33.416,30.251 33.772,27.337 37.063,27.736  "/>
<linearGradient gradientTransform="matrix(1 0 0 -1 -147.5254 -1025.9395)" gradientUnits="userSpaceOnUse" id="SVGID_6_" x1="184.708" x2="184.708" y1="-1037.2012" y2="-1050.5059">
<stop offset="0" style="stop-color:#B340D9"/>
<stop offset="1" style="stop-color:#7B0099"/>
</linearGradient>
<polygon fill="url(#SVGID_6_)" points="34.387,11.262 34.41,24.27 36.818,24.566 39.98,11.966  "/>
<linearGradient gradientTransform="matrix(1 0 0 -1 -0.0225 43.8779)" gradientUnits="userSpaceOnUse" id="SVGID_7_" x1="17.2905" x2="17.2905" y1="33.8818" y2="19.3638">
<stop offset="0" style="stop-color:#FFFFFF"/>
<stop offset="1" style="stop-color:#8A26A3"/>
</linearGradient>
<path d="M17.271,26.594c-6.336,0-10.76-3.183-10.76-7.735s4.425-7.733,10.76-7.733   c6.334,0,10.755,3.182,10.755,7.733C28.025,23.413,23.604,26.594,17.271,26.594L17.271,26.594z" fill="url(#SVGID_7_)"/>
<path d="M21.867,28.293L11.195,28.26l0.424-2.414c1.35-0.168,1.533,0.064,2.617-0.145   c0.051-0.657,0.024-2.126-0.016-2.642c-0.518-0.847-3.793-4.909-4.828-5.836c-0.264-0.048-3.079-0.481-3.079-0.481L6.25,14.824   l0.453-0.238C6.938,14.462,7.22,14.44,7.8,14.44c0.239,0,8.187,0.014,8.528,0.056l0.826,0.098l-0.283,2.046   c-0.963,0.209-0.963,0.209-2.106,0.287c0.627,0.855,2.461,3.224,2.687,3.521c0.182-0.15,1.595-1.3,2.067-1.725   c-0.942-0.132-0.39-0.156-1.575-0.128l-0.439-2.347l0.82-0.134c0.139-0.021,6.521-0.138,9.508,0.15l-1.59,2.304l-2.416,0.457   c-0.765,0.396-4.396,3.288-4.858,4.034c-0.155,0.802-0.093,1.777,0.007,2.604c0.23,0.002,3.027,0.173,3.027,0.173L21.867,28.293   L21.867,28.293z" fill="#6F0F8D"/>
<path d="M25.781,17.799c-0.334,0.033-1.732,0.346-2.201,0.443c-0.502,0.137-5.092,3.683-5.395,4.552   c-0.232,1.071-0.117,2.411,0.073,3.652c0.303,0.064,2.487,0.008,2.887,0.074l-0.049,0.9c-0.392-0.026-8.142,0.065-8.933,0.044   l0.149-0.856c0.435-0.034,2.238,0.076,2.634-0.34c0.197-0.21,0.135-2.978,0.067-3.447c-0.168-0.502-4.209-5.549-5.248-6.352   c-0.3-0.103-2.19-0.291-2.66-0.391l-0.024-0.771c0.234-0.12,2.336,0.027,4.375-0.048c1.34-0.051,4.397,0,4.773,0.044l-0.095,0.68   c-0.401,0.103-2.339,0.136-2.843,0.271c1.307,1.941,3.373,4.444,4.043,5.415c0.371-0.535,3.607-2.766,3.707-3.533   c-0.502-0.103-2.166-0.34-2.435-0.34l-0.159-0.876c0.457-0.074,2.854,0,4.047,0c1.028,0,3.229,0,3.854,0.048L25.781,17.799z" fill="#FFFFFF"/>
<linearGradient gradientTransform="matrix(1 0 0 -1 -0.0225 43.8779)" gradientUnits="userSpaceOnUse" id="SVGID_8_" x1="37.2061" x2="37.2061" y1="32.6162" y2="20.7104">
<stop offset="0" style="stop-color:#FFFFFF"/>
<stop offset="1" style="stop-color:#8A26A3"/>
</linearGradient>
<polygon fill="url(#SVGID_8_)" fill-opacity="0.5" points="39.98,11.966 34.387,11.262 34.408,23.168    37.535,21.71  " stroke-opacity="0.5"/>
<linearGradient gradientTransform="matrix(1 0 0 -1 -0.0225 43.8779)" gradientUnits="userSpaceOnUse" id="SVGID_9_" x1="35.2959" x2="35.2959" y1="16.541" y2="14.1934">
<stop offset="0" style="stop-color:#FFFFFF"/>
<stop offset="1" style="stop-color:#8A26A3"/>
</linearGradient>
<polygon fill="url(#SVGID_9_)" fill-opacity="0.5" points="33.772,27.337 33.484,29.685 37.027,28.032    37.063,27.736  " stroke-opacity="0.5"/>
<rect fill="none" height="44" width="44"/>
</g>
</svg>
