<?xml version="1.0" encoding="UTF-8"?>
<!DOCTYPE svg PUBLIC "-//W3C//DTD SVG 1.1 Tiny//EN" "http://www.w3.org/Graphics/SVG/1.1/DTD/svg11-tiny.dtd">
<svg width="100%" height="100%" viewBox="0 0 88 88.002">
<linearGradient id="_12" gradientUnits="userSpaceOnUse" x1="20.62" y1="40.48" x2="51.38" y2="63.3">
<stop stop-color="#A2C2DD" offset="0.1"/>
<stop stop-color="#6C83BB" offset="0.71"/>
<stop stop-color="#003D6D" offset="0.99"/>
</linearGradient>
<path fill="url(#_12)" d="M10.515,39.972c-1.14,6.467,3.667,12.14,9.753,12.989l0,0c6.414,0.896,12.521-3.419,13.612-9.616 c1.151-6.554-3.696-12.155-9.751-12.999C17.711,29.453,11.604,33.772,10.515,39.972z"/>
<linearGradient id="_13" gradientUnits="userSpaceOnUse" x1="37.6" y1="18.04" x2="67.61" y2="40.71">
<stop stop-color="#A2C2DD" offset="0.1"/>
<stop stop-color="#6C83BB" offset="0.71"/>
<stop stop-color="#003D6D" offset="0.99"/>
</linearGradient>
<path fill="url(#_13)" d="M21.932,24.181c1.781,6.297,10.24,10.088,16.264,7.807c4.352-4.593,10.608-7.451,16.604-7.245 c6.381,0.22,12.303,3.534,17.125,9.586c0.43,0.537,1.279,0.177,1.248-0.47c-0.426-8.993-6.947-16.983-16.615-20.356 C39.797,7.686,26.547,18.644,21.932,24.181z"/>
<linearGradient id="_14" gradientUnits="userSpaceOnUse" x1="56.69" y1="51.11" x2="13.94" y2="68.86">
<stop stop-color="#A2C2DD" offset="0.1"/>
<stop stop-color="#6C83BB" offset="0.71"/>
<stop stop-color="#003D6D" offset="0.99"/>
</linearGradient>
<path fill="url(#_14)" d="M51.254,47.311l3.391,4.157l-6.223,1.093c-5.236,5.883-12.876,8.72-20.708,7.588 c-6.251-0.903-11.604-4.274-13.637-8.589c-0.329-0.699-1.46-0.351-1.326,0.392c0.337,2.942,2.347,16.659,18.23,20.95 c11.951,3.229,25.607-1.507,34.357-12.091l-2.475-3.428l6.725-0.488l9.416-12.792l-9.875-10.125l-10.334-0.292L51.254,47.311z"/>
<linearGradient id="_15" gradientUnits="userSpaceOnUse" x1="26.58" y1="21.38" x2="73.09" y2="24.13">
<stop stop-color="#FFFFFF" offset="0"/>
<stop stop-color="#F4F8FB" offset="0.13"/>
<stop stop-color="#CEDFF2" offset="1"/>
</linearGradient>
<path fill="url(#_15)" d="M22.738,24.307c19.166-21.918,48.815-9.881,49.735,9.585 c-9.178-13.661-27.043-12.124-34.547-2.55C32.267,33.139,24.547,30.338,22.738,24.307z"/>
<linearGradient id="_16" gradientUnits="userSpaceOnUse" x1="42.81" y1="25.63" x2="70.19" y2="34.26">
<stop stop-color="#A2C2DD" offset="0.1"/>
<stop stop-color="#6C83BB" offset="0.71"/>
<stop stop-color="#003D6D" offset="0.99"/>
</linearGradient>
<path fill="url(#_16)" d="M31.199,31.543c17-20.527,37.215-9.651,41.274,2.349c-11.422-14.327-26.699-11.114-34.547-2.55 C35.917,32.176,31.811,31.9,31.199,31.543z"/>
<radialGradient id="_17" gradientUnits="userSpaceOnUse" cx="24.97" cy="37.28" r="10.14">
<stop stop-color="#E3DFE4" offset="0"/>
<stop stop-color="#C03A3A" offset="1"/>
</radialGradient>
<path fill="url(#_17)" d="M33.196,43.191c-1.031,5.857-6.793,9.917-12.864,9.07c-6.073-0.848-10.165-6.279-9.134-12.137 c1.029-5.861,6.791-9.924,12.866-9.08C30.136,31.892,34.226,37.33,33.196,43.191z"/>
<linearGradient id="_18" gradientUnits="userSpaceOnUse" x1="54.1" y1="64.19" x2="59.35" y2="49.07">
<stop stop-color="#FFFFFF" offset="0.15"/>
<stop stop-color="#A2C2DD" offset="1"/>
</linearGradient>
<polygon fill="url(#_18)" points="48.797,53.139 54.672,62.889 64.422,60.784 57.922,51.639 "/>
<linearGradient id="_19" gradientUnits="userSpaceOnUse" x1="49.11" y1="67.1" x2="25.24" y2="57.85">
<stop stop-color="#A2C2DD" offset="0.1"/>
<stop stop-color="#6C83BB" offset="0.71"/>
<stop stop-color="#003D6D" offset="0.99"/>
</linearGradient>
<path fill="url(#_19)" d="M13.582,52.281c2.325,22.06,32.715,29.482,50.84,8.503l-9.75,2.104 C54.672,62.889,20.627,71.41,13.582,52.281z"/>
<linearGradient id="_20" gradientUnits="userSpaceOnUse" x1="50.54" y1="69.11" x2="19.1" y2="50.05">
<stop stop-color="#FFFFFF" offset="0"/>
<stop stop-color="#F4F8FB" offset="0.13"/>
<stop stop-color="#CEDFF2" offset="1"/>
</linearGradient>
<path fill="url(#_20)" d="M54.672,62.889c-10.853,9.942-38.048,12.523-41.228-11.031 c4.542,9.641,23.864,14.191,35.353,1.281L54.672,62.889z"/>
<polygon fill="#58A015" points="59.922,56.889 52.047,47.139 59.243,34.435 68.086,44.42 "/>
<polygon fill="#17594C" points="59.922,56.889 69.241,56.229 78.04,44.174 67.723,44.188 "/>
<linearGradient id="_21" gradientUnits="userSpaceOnUse" x1="59.54" y1="33.81" x2="77.32" y2="45.22">
<stop stop-color="#DCE8E4" offset="0"/>
<stop stop-color="#43910A" offset="1"/>
</linearGradient>
<polygon fill="url(#_21)" points="59.172,34.389 67.723,44.188 78.004,44.15 68.813,34.644 "/>
<linearGradient id="_22" gradientUnits="userSpaceOnUse" x1="46.42" y1="50.77" x2="62.78" y2="51.84">
<stop stop-color="#DCE8E4" offset="0"/>
<stop stop-color="#43910A" offset="1"/>
</linearGradient>
<polygon fill="url(#_22)" points="63.815,50.22 59.922,56.889 52.047,47.139 63.807,46.668 "/>
<rect fill="none" height="88.002" width="88"/>
</svg>