<?xml version="1.0" encoding="UTF-8"?>
<!DOCTYPE svg PUBLIC "-//W3C//DTD SVG 1.1 Tiny//EN" "http://www.w3.org/Graphics/SVG/1.1/DTD/svg11-tiny.dtd">
<svg baseProfile="tiny" height="40px" version="1.1" viewBox="0 0 40 40" width="40px" x="0px" xmlns="http://www.w3.org/2000/svg" xmlns:xlink="http://www.w3.org/1999/xlink" y="0px">
<rect fill="none" fill-opacity="0.5" height="40" stroke-opacity="0.5" width="40"/>
<rect height="2" transform="matrix(-0.7071 -0.7071 0.7071 -0.7071 -15.7259 63.0843)" width="6" x="2.201" y="33.799"/>
<path d="M34.192,5.807c-5.077-5.076-13.308-5.076-18.385,0c-4.594,4.595-5.016,11.766-1.294,16.851l-2.241,2.24l-0.707-0.707  l-6.364,6.364l4.243,4.243l6.364-6.364l-0.707-0.707l2.241-2.241c5.085,3.721,12.256,3.299,16.851-1.295  C39.27,19.115,39.269,10.883,34.192,5.807z M31.364,21.363c-3.51,3.508-9.22,3.509-12.728,0C16.937,19.664,16,17.403,16,15  c0-2.405,0.937-4.665,2.636-6.365c3.508-3.508,9.219-3.508,12.728,0C34.873,12.145,34.873,17.854,31.364,21.363z"/>
</svg>
