<?xml version="1.0" encoding="utf-8"?>
<!-- Generator: Adobe Illustrator 14.0.0, SVG Export Plug-In  -->
<!DOCTYPE svg PUBLIC "-//W3C//DTD SVG 1.1//EN" "http://www.w3.org/Graphics/SVG/1.1/DTD/svg11.dtd" [
	<!ENTITY ns_flows "http://ns.adobe.com/Flows/1.0/">
]>
<svg version="1.1"
	 xmlns="http://www.w3.org/2000/svg" xmlns:xlink="http://www.w3.org/1999/xlink" xmlns:a="http://ns.adobe.com/AdobeSVGViewerExtensions/3.0/"
	 x="0px" y="0px" width="30px" height="30px" viewBox="0 0 30 30" enable-background="new 0 0 30 30" xml:space="preserve">
<defs>
</defs>
<rect x="8" y="11" width="2" height="2"/>
<rect x="11.059" y="11" width="8.941" height="2"/>
<rect x="8" y="6" width="2" height="2"/>
<rect x="11.059" y="6" width="8.941" height="2"/>
<polygon points="8,25 5,25 5,3 23,3 23,13 26,13 26,0 2,0 2,28 8,28 "/>
<path d="M26,17v11H12V17H26 M28,15H10v15h18V15L28,15z"/>
<rect x="14" y="19" width="10" height="1"/>
<rect x="14" y="22" width="10" height="1"/>
<rect x="14" y="25" width="10" height="1"/>
<rect fill="none" width="30" height="30"/>
</svg>
