<?xml version="1.0" encoding="utf-8"?>
<!-- Generator: Adobe Illustrator 14.0.0, SVG Export Plug-In  -->
<!DOCTYPE svg PUBLIC "-//W3C//DTD SVG 1.1//EN" "http://www.w3.org/Graphics/SVG/1.1/DTD/svg11.dtd" [
	<!ENTITY ns_flows "http://ns.adobe.com/Flows/1.0/">
]>
<svg version="1.1"
	 xmlns="http://www.w3.org/2000/svg" xmlns:xlink="http://www.w3.org/1999/xlink" xmlns:a="http://ns.adobe.com/AdobeSVGViewerExtensions/3.0/"
	 x="0px" y="0px" width="30px" height="30px" viewBox="0 0 30 30" enable-background="new 0 0 30 30" xml:space="preserve">
<defs>
</defs>
<path d="M15,5c5.514,0,10,4.486,10,10s-4.486,10-10,10S5,20.514,5,15S9.486,5,15,5 M15,2C7.821,2,2,7.821,2,15s5.821,13,13,13
	s13-5.821,13-13S22.179,2,15,2L15,2z"/>
<path d="M16.851,23h-3.315v-9.857h-1.139v-1.888h4.454V23z M15.192,10.036c-0.539,0-0.974-0.135-1.303-0.404
	c-0.33-0.27-0.495-0.642-0.495-1.113c0-0.467,0.162-0.836,0.484-1.109C14.202,7.137,14.641,7,15.192,7
	c0.526,0,0.959,0.138,1.299,0.414C16.83,7.691,17,8.059,17,8.519c0,0.472-0.164,0.844-0.494,1.113
	C16.177,9.901,15.739,10.036,15.192,10.036z"/>
<rect fill="none" width="30" height="30"/>
</svg>
