<?xml version="1.0" encoding="UTF-8" standalone="no"?>
<!-- Created with Inkscape (http://www.inkscape.org/) -->
<svg
   xmlns:svg="http://www.w3.org/2000/svg"
   xmlns="http://www.w3.org/2000/svg"
   version="1.0"
   width="100%"
   height="100%"
   viewBox="0 0 88.000488 88.000488"
   id="svg2384">
  <defs
     id="defs2568" />
  <path
     d="M 92.562272,40.587092 C 92.562272,40.539915 92.562272,40.492737 92.562272,40.587092 z "
     style="fill:#deaa87;fill-opacity:1;stroke:none"
     id="path4589" />
  <path
     d="M 59.869601,34.19566 C 61.463087,33.186059 64.570066,32.712826 66.883961,32.335134 C 69.325288,31.936642 71.523774,31.762664 74.044456,31.762664 C 76.43802,31.762664 78.799579,34.270637 80.620419,35.340599 C 81.649767,35.945465 82.958539,39.560266 82.958539,40.77906 C 82.958539,42.460983 81.373013,43.169098 80.620419,44.643229 C 79.961438,45.933997 76.50304,47.39368 75.213515,47.934931 C 74.872539,48.078047 74.531563,48.221165 74.190587,48.364283 C 72.224802,49.189378 70.085492,49.509222 67.90689,49.509222 C 66.640408,49.509222 65.373925,49.509222 64.107444,49.509222 C 63.147628,49.509222 62.494214,49.07987 61.477059,49.07987 C 60.498073,49.07987 59.648418,48.650517 58.554408,48.650517"
     style="fill:#806600;fill-opacity:1;stroke:none"
     id="path4603" />
  <path
     d="M 58.846672,38.05983 C 58.582814,38.214879 60.464851,36.914891 62.938384,36.914891 C 64.00489,36.914891 64.952424,36.771774 66.007167,36.771774 C 66.649872,36.771774 67.235643,36.485538 68.053021,36.485538 C 68.979759,36.485538 69.831044,36.056186 70.829539,36.056186 C 71.608914,36.056186 72.388287,36.056186 73.16766,36.056186 C 74.014376,36.056186 74.853503,36.003819 75.651913,36.199304 C 76.479983,36.402051 76.745312,36.90981 77.113238,37.630478 C 77.414129,38.219843 77.52268,38.805102 77.697768,39.491003 C 77.858235,40.11963 77.843901,40.723695 77.843901,41.494648 C 77.843901,42.010665 77.202737,42.321165 76.967105,42.782704 C 76.595804,43.509985 76.038323,43.523748 75.213515,43.927643 C 74.425127,44.313704 73.799243,44.166578 73.021527,44.356995 C 72.032407,44.599174 71.384653,44.385805 70.683407,45.072582 C 69.658456,46.076387 67.941862,46.217521 66.591696,46.217521 C 65.706564,46.217521 64.737092,46.360639 63.815178,46.360639 C 63.006586,46.360639 62.208946,46.396718 61.477059,46.217521 C 60.662477,46.018078 59.762202,46.074405 58.992806,46.074405 C 58.034351,46.074405 57.835929,45.94322 57.385348,45.501935 C 57.077939,45.200869 57.239216,43.921154 57.239216,43.355174 C 57.239216,42.651785 57.259075,41.846199 57.385348,41.351529 C 57.563388,40.65406 57.384702,39.922885 57.531481,39.347886 C 57.67107,38.801049 58.246912,38.412262 58.846672,38.05983 z "
     style="fill:#deaa87;fill-opacity:1;stroke:none"
     id="path4605" />
  <path
     d="M 28.283831,32.335134 C 26.690345,31.325532 23.583365,30.8523 21.26947,30.474608 C 18.828144,30.076116 16.629658,29.902138 14.108976,29.902138 C 11.715412,29.902138 9.353853,32.410111 7.5330128,33.480073 C 6.5036648,34.084939 5.1948929,37.699739 5.1948929,38.918533 C 5.1948929,40.600456 6.7804184,41.30857 7.5330128,42.782703 C 8.1919934,44.073471 11.650392,45.533154 12.939916,46.074405 C 13.280892,46.217521 13.621868,46.360639 13.962845,46.503755 C 15.928629,47.328851 18.06794,47.648694 20.246542,47.648694 C 21.513024,47.648694 22.779506,47.648694 24.045988,47.648694 C 25.005804,47.648694 25.659217,47.219344 26.676373,47.219344 C 27.655358,47.219344 28.505014,46.789991 29.599023,46.789991"
     style="fill:#806600;fill-opacity:1;stroke:none"
     id="path4587" />
  <path
     d="M 29.306759,36.199303 C 29.570618,36.354353 27.68858,35.054365 25.215048,35.054365 C 24.148542,35.054365 23.201007,34.911247 22.146265,34.911247 C 21.503559,34.911247 20.917788,34.625012 20.10041,34.625012 C 19.173673,34.625012 18.322388,34.19566 17.323893,34.19566 C 16.544518,34.19566 15.765145,34.19566 14.985772,34.19566 C 14.139056,34.19566 13.299929,34.143293 12.501518,34.338777 C 11.673449,34.541524 11.408119,35.049282 11.040193,35.769952 C 10.739302,36.359317 10.630752,36.944575 10.455664,37.630477 C 10.295196,38.259103 10.309531,38.863169 10.309531,39.634121 C 10.309531,40.150139 10.950695,40.460637 11.186327,40.922178 C 11.557628,41.649459 12.115109,41.663222 12.939916,42.067117 C 13.728305,42.453177 14.354188,42.306052 15.131904,42.496468 C 16.121025,42.738648 16.768778,42.525279 17.470024,43.212056 C 18.494976,44.215859 20.211569,44.356995 21.561736,44.356995 C 22.446867,44.356995 23.41634,44.500113 24.338253,44.500113 C 25.146846,44.500113 25.944486,44.536192 26.676373,44.356995 C 27.490954,44.157551 28.39123,44.213878 29.160626,44.213878 C 30.119081,44.213878 30.317502,44.082693 30.768083,43.641408 C 31.075493,43.340342 30.914216,42.060628 30.914216,41.494648 C 30.914216,40.791259 30.894357,39.985673 30.768083,39.491003 C 30.590044,38.793534 30.76873,38.062358 30.621951,37.48736 C 30.482361,36.940522 29.906519,36.551735 29.306759,36.199303 z "
     style="fill:#deaa87;fill-opacity:1;stroke:none"
     id="path4595" />
  <path
     d="M 44.212275,10.58129 C 44.2345,10.603057 41.002223,9.7502562 38.220842,10.295055 C 34.550458,11.013986 31.881682,10.928739 28.576095,12.871168 C 26.740276,13.949934 25.555975,16.067552 24.630517,17.880278 C 23.686516,19.729326 22.370775,20.941694 21.707867,22.889386 C 21.150289,24.527607 20.392675,26.352057 20.392675,28.041612 C 20.392675,29.520492 20.392675,30.999371 20.392675,32.478251 C 20.392675,33.891206 21.123337,35.160307 21.123337,36.628656 C 21.123337,38.211553 23.834473,38.982567 22.730794,40.063474 C 21.819559,40.955908 20.337894,41.852417 19.515879,42.925822 C 18.07587,44.806219 17.282954,47.030553 16.885494,49.366104 C 16.42949,52.045674 14.839639,54.130522 14.839639,56.808209 C 14.839639,59.013809 14.69247,61.382896 15.131904,63.534727 C 15.609467,65.873277 17.514459,67.94023 19.515879,69.116305 C 21.509135,70.287582 23.212938,71.785399 25.361179,72.837357 C 25.750868,73.02818 26.140553,73.219004 26.53024,73.409828 C 28.496085,74.372468 30.808323,75.745337 32.960072,76.272175 C 33.349757,76.367586 33.739444,76.462998 34.129131,76.558409 C 36.704288,77.188916 38.963263,77.76633 41.58189,78.132701 C 44.262074,78.507685 46.936842,78.663031 49.619179,78.991405 C 52.186124,79.305654 55.603781,78.325754 57.948732,77.560232 C 60.307975,76.790042 62.318179,76.286403 64.086298,74.554767 C 65.79103,72.885206 67.626803,71.516662 69.347069,69.831891 C 71.609737,67.615908 72.977226,65.051402 74.607839,62.389788 C 75.589833,60.7869 74.753972,56.685268 74.753972,54.804565 C 74.753972,52.794861 74.473592,51.536148 73.584912,49.795457 C 72.718469,48.098324 71.871975,46.114219 70.516129,44.786347 C 69.392472,43.685874 67.765549,42.951226 66.716683,41.924 C 66.119702,41.339337 65.688673,40.912225 65.401489,40.349709 C 65.06473,39.690086 67.354427,37.400497 67.73961,36.771773 C 68.601292,35.365269 68.238992,30.940018 67.73961,29.472786 C 67.011887,27.334662 65.980425,25.360955 64.81696,23.461855 C 64.601372,23.109957 64.329851,22.793974 64.086298,22.460034 C 62.633818,20.468517 61.099625,18.574327 59.117792,17.021572 C 57.510912,15.762592 55.737829,14.793991 53.857022,13.872991 C 53.564756,13.729873 53.272491,13.586755 52.980226,13.443638 C 51.89167,12.910591 50.922122,12.150783 50.203708,11.869347 C 49.436956,11.568975 48.831155,11.555024 48.303985,11.296877 C 47.534861,10.92025 46.221225,10.867524 45.381335,10.867524 C 44.816725,10.867524 44.907972,10.853827 44.212275,10.58129 z "
     style="fill:#806600;stroke:#806600;stroke-width:1.02179408"
     id="path2594" />
  <path
     d="M 43.627744,23.461855 C 43.444601,23.020581 42.753719,22.140055 42.020287,21.601329 C 41.159391,20.968979 40.313262,20.288894 39.243769,20.027038 C 39.048925,19.979332 38.854082,19.931628 38.659238,19.883921 C 37.306569,19.55273 35.96343,19.311451 34.567529,19.311451 C 33.836866,19.311451 33.106203,19.311451 32.375541,19.311451 C 31.220078,19.311451 31.005557,19.365112 30.329685,20.027038 C 29.885249,20.462304 29.167519,20.586004 28.722229,21.458213 C 28.339717,22.20745 28.317984,23.008376 28.137697,23.891208 C 27.9311,24.90289 27.845433,25.987192 27.845433,27.039791 C 27.845433,28.346937 27.6993,29.579009 27.6993,30.90396 C 27.6993,31.921753 28.203232,32.448748 28.429962,33.336955 C 28.594839,33.982851 28.756585,34.978543 29.014494,35.483717 C 29.349387,36.139685 29.401555,36.957456 29.745155,37.630478 C 30.171579,38.465729 30.329685,39.043906 30.329685,39.920357 C 30.329685,41.155941 30.90055,40.076857 29.745155,41.208412 C 29.323234,41.62163 27.743563,42.320839 27.114771,42.782704 C 26.490018,43.2416 26.054675,43.928472 25.507312,44.64323 C 24.895884,45.441646 24.510308,46.309863 24.045988,47.219343 C 23.360082,48.562851 22.983175,50.016697 22.292397,51.369749 C 21.881637,52.174319 21.931541,53.212744 21.707867,54.088979 C 21.440691,55.135636 21.707867,56.585877 21.707867,57.666913 C 21.707867,59.657175 21.770313,61.530666 22.584662,63.391609 C 22.670474,63.587706 22.779505,63.773256 22.876928,63.964079 C 23.485836,65.15677 24.157466,66.407399 25.507312,67.398895 C 26.23025,67.929912 28.464255,68.872127 29.452891,69.259422 C 30.758305,69.770814 31.985095,70.296466 33.106203,71.119949 C 34.36628,72.045507 37.001085,72.486866 38.513107,72.980475 C 40.322996,73.571324 41.842542,73.775741 43.627744,74.125414 C 45.70602,74.532493 47.772786,74.697883 49.911443,74.697883 C 51.896628,74.697883 53.627389,74.628368 55.464479,74.268531 C 57.458354,73.877984 58.506167,72.557757 60.286852,72.12177 C 62.264584,71.637539 63.176162,69.721427 64.524694,68.400718 C 65.663347,67.285559 66.306551,66.63717 67.155081,65.252135 C 68.15914,63.613231 70.07773,62.806122 70.07773,60.815496 C 70.07773,59.770434 70.184863,58.659074 69.931598,57.666913 C 69.621811,56.453331 69.454251,55.18631 69.200935,53.945861 C 68.907434,52.50863 67.892522,50.663013 67.008948,49.509222 C 66.340191,48.635944 65.694813,47.649732 64.963092,46.933108 C 64.331139,46.314194 63.850473,45.557211 63.209503,44.929465 C 62.61449,44.346731 61.282493,43.9076 60.72525,43.498292 C 60.256351,43.153874 59.877458,42.667991 59.556189,42.353353 C 58.726673,41.540951 61.357059,40.875874 62.186575,40.063474 C 62.799019,39.463665 62.401919,37.788698 62.624971,36.914892 C 63.10147,35.048227 63.063369,33.302428 63.063369,31.333313 C 63.063369,29.732748 62.784098,28.359658 62.186575,26.896673 C 62.032008,26.518228 61.894309,26.133381 61.748177,25.751734 C 61.227627,24.39224 60.718004,23.01831 60.14072,21.887564 C 59.974816,21.562604 59.848454,21.219683 59.702322,20.885743 C 59.228729,19.803494 57.880003,19.156571 56.925805,18.595864 C 55.430415,17.717144 54.066297,17.307809 52.395696,17.307809 C 51.404363,17.307809 50.627488,17.243407 49.911443,17.594043 C 49.085643,17.998424 48.661324,17.582024 47.865587,18.166512 C 46.949155,18.839655 46.734143,19.787094 46.111998,20.599508 C 45.582415,21.291051 45.198022,21.637743 44.796804,22.030682 C 44.27166,22.544992 43.849292,22.593953 43.627744,23.461855 z "
     style="fill:#deaa87;stroke:#806600;stroke-width:1.02179408"
     id="path2598" />
  <path
     d="M 28.084882,56.092622 C 27.999183,56.020034 28.499334,58.973884 28.760751,59.52744 C 29.274724,60.615798 31.180968,61.5774 32.140086,62.389788 C 33.075109,63.181765 34.00683,63.795085 35.350455,64.250314 C 36.284513,64.566777 37.377917,65.287886 38.560824,65.53837 C 40.41885,65.931814 42.104276,66.826426 43.967762,66.826426 C 45.803759,66.826426 47.706322,67.112661 49.543665,67.112661 C 50.756895,67.112661 52.803761,66.018222 53.936802,65.53837 C 55.274656,64.971779 57.295056,64.226417 58.160973,63.248491 C 58.69085,62.65007 59.755702,61.924537 60.357539,61.244849 C 60.941448,60.585408 61.533935,59.819072 62.216176,59.241205 C 62.515065,58.988041 62.435117,57.354477 62.554109,56.951326 C 62.738309,56.32724 62.554109,55.451665 62.554109,54.804565 C 62.554109,53.658453 62.152438,54.4292 61.709274,54.804565 C 61.069544,55.346427 61.346291,56.415476 60.951105,57.084934 C 60.554099,57.757475 60.20877,58.491717 59.681674,59.086993 C 59.176477,59.657538 59.426063,59.786189 58.896068,60.235103 C 58.254907,60.778176 57.269144,61.448265 56.416436,61.809393 C 55.783098,62.077616 55.173285,62.53735 54.530367,62.809631 C 53.544404,63.227194 53.061487,63.348519 52.109963,63.952985 C 51.375595,64.419502 50.722542,64.382337 49.744429,64.382337 C 48.843272,64.382337 47.659051,64.806934 46.757894,64.806934 C 45.744095,64.806934 44.447229,64.240804 43.433427,64.240804 C 42.588592,64.240804 41.74376,63.957739 40.898926,63.957739 C 39.800703,63.957739 39.180675,63.224769 38.222891,62.81914 C 37.306238,62.43093 36.570701,62.119425 35.519422,61.6742 C 34.794779,61.367309 33.683204,61.519938 33.432591,61.095391 C 33.063645,60.470385 32.335877,60.046836 31.770357,59.807335 C 30.863505,59.423276 30.427799,58.229803 29.774551,57.953148 C 29.208861,57.713574 28.957945,57.118353 28.591784,56.808209 C 28.35956,56.611513 28.253851,56.331152 28.084882,56.092622 z "
     style="fill:#784421;stroke:none"
     id="path4558" />
  <path
     d="M 54.357063,39.011125 C 54.357063,41.3525 52.622178,43.252746 50.484551,43.252746 C 48.346925,43.252746 46.61204,41.3525 46.61204,39.011125 C 46.61204,36.669751 48.346925,34.769506 50.484551,34.769506 C 52.622178,34.769506 54.357063,36.669751 54.357063,39.011125 z "
     style="fill:#050607;fill-opacity:1;stroke:#07040b;stroke-width:1.06075895;stroke-opacity:1"
     id="path6786" />
  <path
     d="M 43.218553,39.030234 C 43.218553,41.371608 41.483668,43.271854 39.346042,43.271854 C 37.208415,43.271854 35.47353,41.371608 35.47353,39.030234 C 35.47353,36.688859 37.208415,34.788615 39.346042,34.788615 C 41.483668,34.788615 43.218553,36.688859 43.218553,39.030234 z "
     style="fill:#050607;fill-opacity:1;stroke:#07040b;stroke-width:1.06075895;stroke-opacity:1"
     id="path7845" />
</svg>
