<?xml version="1.0" encoding="utf-8"?>
<!-- Generator: Adobe Illustrator 15.0.0, SVG Export Plug-In . SVG Version: 6.00 Build 0)  -->
<!DOCTYPE svg PUBLIC "-//W3C//DTD SVG 1.1//EN" "http://www.w3.org/Graphics/SVG/1.1/DTD/svg11.dtd">
<svg version="1.1" xmlns="http://www.w3.org/2000/svg" xmlns:xlink="http://www.w3.org/1999/xlink" x="0px" y="0px" width="360px"
	 height="360px" viewBox="0 0 360 360" enable-background="new 0 0 360 360" xml:space="preserve">
<g id="outline">
	<circle fill="none" stroke="#99CCFF" stroke-width="18" stroke-miterlimit="10" cx="179.998" cy="181.07" r="121.977"/>
	<circle fill="none" stroke="#0066CC" stroke-width="8" stroke-miterlimit="10" cx="179.998" cy="181.07" r="121.977"/>
</g>
<g id="back">
	<radialGradient id="SVGID_1_" cx="234.8599" cy="242.4453" r="150.0417" gradientUnits="userSpaceOnUse">
		<stop  offset="0" style="stop-color:#33CCFF"/>
		<stop  offset="1" style="stop-color:#0033CC"/>
	</radialGradient>
	<circle fill="url(#SVGID_1_)" cx="179.998" cy="181.07" r="121.977"/>
</g>
<g id="earth_-_fronrt">
	<path fill="#CCFFFF" d="M128.642,291.741c0.809-0.269,16.876-11.755,17.821-11.35c0.944,0.404,11.867,6.741,11.867,6.741
		l13.351,1.079l8.898-0.675c0,0,6.475-1.618,6.88-2.157c0.404-0.538,4.988-3.234,5.663-2.966s3.507,2.428,5.53,2.562
		c2.022,0.135,5.394,0.81,7.416,0.81c2.023,0,3.64,0.27,4.585-0.405c0.944-0.675,2.832-2.562,3.507-2.697
		c0.675-0.134,2.832-0.539,2.832-0.539s6.877,4.855,7.282,4.855c0.404,0,11.132,2.767,11.132,2.767
		c-16.627,8.491-35.458,13.281-55.409,13.281C161.651,303.047,144.251,298.996,128.642,291.741z"/>
	<path fill="#CCFFFF" d="M170.872,71.973h-9.709c0,0,0.541,1.82,1.08,2.225c0.539,0.405,1.887,2.967,2.966,2.967
		c1.079,0,2.293-0.81,2.293-0.81l1.82-1.079L170.872,71.973z"/>
	<path fill="#CCFFFF" d="M277.273,219.572c0,0-9.979,9.44-10.653,10.789c-0.675,1.348-5.531,6.608-5.396,7.687
		c0.136,1.077-1.22,5.664-0.003,5.798c1.217,0.135,6.612,0,6.612,0s5.933-7.418,6.337-7.957s3.911-7.416,3.911-7.416l0.539-7.148
		L277.273,219.572z"/>
	<path fill="#CCFFFF" d="M81.45,109.176C93.768,92.32,110.306,78.743,129.51,70c-0.405,0.304-10.961,12.694-11.096,13.099
		c-0.135,0.405-6.339,10.518-6.744,10.788c-0.404,0.271-6.743,0.134-7.282,0c-0.539-0.134-6.067,4.45-7.012,5.395
		s-9.44,7.013-9.44,7.013L81.45,109.176z"/>
	<path fill="#CCFFFF" d="M148.515,63.195c10.043-2.675,20.597-4.101,31.483-4.101c10.641,0,20.964,1.363,30.805,3.923
		c0,0-21.187,3.09-22.534,2.416s-14.429-0.747-14.429-0.747l-5.664,3.579l-7.147,1.888c0,0-5.259,2.697-5.799,2.832
		c-0.54,0.135-8.766,0.944-8.766,0.944l-2.564,0.944c0,0-3.37,0.539-3.235,1.483s-0.674,3.776-0.674,3.776l-7.957-0.674v-2.292
		c0,0,8.9-6.609,10.519-7.957C144.17,67.86,148.515,63.195,148.515,63.195z"/>
	<linearGradient id="SVGID_2_" gradientUnits="userSpaceOnUse" x1="221.1353" y1="73.2783" x2="221.1352" y2="260.7821">
		<stop  offset="0" style="stop-color:#CCFFFF"/>
		<stop  offset="0.3041" style="stop-color:#CAFDFF"/>
		<stop  offset="0.4137" style="stop-color:#C3F6FD"/>
		<stop  offset="0.4918" style="stop-color:#B8EBFA"/>
		<stop  offset="0.5549" style="stop-color:#A7DAF6"/>
		<stop  offset="0.6089" style="stop-color:#91C4F0"/>
		<stop  offset="0.6568" style="stop-color:#75A8EA"/>
		<stop  offset="0.6991" style="stop-color:#5689E2"/>
		<stop  offset="0.7117" style="stop-color:#4B7EDF"/>
	</linearGradient>
	<path fill="url(#SVGID_2_)" d="M240.785,75.295c28.329,16.318,49.489,43.69,57.585,76.224l-4.239-0.454l-1.755-3.641
		c0,0-4.045-5.664-4.719-6.338c-0.673-0.674-2.563-0.405-3.507-0.675c-0.943-0.271-10.652-7.417-11.058-7.417
		c-0.404,0,5.26,7.956,5.26,7.956l8.765,2.832l0.54,9.305l-3.341,5.529l-6.505,7.417l-4.719,0.54l-0.944-3.641l-17.531-27.105
		l-1.752,0.539l19.688,31.152l0.136,2.562l3.775,0.54l0.943-1.349c0,0,5.935-0.404,6.609-0.404s0,5.799,0,5.799l-2.023,6.203
		c0,0-6.204,10.25-6.608,10.789s-10.639,10.114-10.639,10.114s-0.15,3.236-0.01,3.641s-1.22,4.989-1.49,5.394
		c-0.271,0.405,1.618,4.855,1.483,5.664c-0.134,0.81,0,10.25,0,10.25l-15.508,9.306l-0.809,8.63l-8.632,6.202l-11.867,11.464
		c0,0-5.663,0.405-8.361,0.539c-2.697,0.135-4.18-1.214-4.989-2.022c-0.809-0.81-4.315-4.989-5.664-6.068
		c-1.348-1.08,0-15.239,0-15.239l-4.584-6.474c0,0,1.078-7.551,1.078-7.955s3.506-5.26,3.506-5.26v-6.608l-1.752-7.417l-5.529-8.091
		c0,0,0.404-3.507,0.404-4.316c0-0.809,1.079-6.607,1.079-6.607s-5.529-2.831-6.743-3.236c-1.214-0.404-6.068-4.315-6.068-4.315
		s-16.048,2.697-18.61,1.889c-2.562-0.81-11.328,0-12.271,0c-0.944,0-15.509-17.937-15.509-17.937l0.944-18.476
		c0,0,4.315-9.035,4.45-9.709s13.485-10.114,16.183-12.542c2.698-2.428,7.687-9.439,7.687-9.439s-5.258-0.405-5.258-0.944
		s0.27-6.068,0.27-6.068l1.888-5.124h13.621l-0.136-1.619l-4.315-4.45l0.765-1.618l0.582-1.618v-1.349l-2.427-1.753
		c0,0-0.541-6.743,0-6.743c0.542,0,2.427-1.214,2.427-1.214l5.127,2.562c0,0,1.348,2.427,1.348,3.237c0,0.809-1.214,3.371,0,3.371
		s5.125-0.134,5.53-0.27c0.404-0.135,2.695-1.349,2.695-1.349l2.428-1.618l-4.45-5.259l-0.539-3.102l3.371-2.427l8.228-2.697h15.237
		c0,0,8.361,3.235,8.766,3.371c0.405,0.135,2.967-0.674,2.967-0.674L240.785,75.295z M213.215,113.979v-4.045l-8.9-8.091h-8.632
		l-12.405,9.709l-5.125,2.427c0,0,1.532,2.428,1.845,2.428s18.653-2.967,18.653-2.967l3.775-0.54l4.046,1.619l1.348,4.854
		l16.453,7.552l5.394-4.584l6.204,4.584l10.249-1.348l3.775,1.348l1.889-3.237l-1.08-2.966l-8.63-2.427l-7.553-3.911l-4.854-4.72
		l-1.078,8.361l-7.552-7.012l-0.271-3.776l-8.9-5.395c0,0,0.271,1.618,0.54,2.427s2.562,3.236,2.562,3.236l1.483,1.08l1.349,2.157
		l-2.832-0.27v3.911L213.215,113.979z M212.003,76.355c0,0-2.159,2.562-2.159,2.967c0,0.404,1.079,4.585,1.079,4.585v2.562
		c0,0,4.181,0.944,4.585,0.54s0-4.72,0-4.72l-0.54-3.776L212.003,76.355z M244.233,100.899l-3.642,1.888
		c0,0-3.911,0.269-4.046,0.809c-0.134,0.54-2.291,2.292-2.291,2.292s0.133,1.214,0.673,1.349c0.541,0.135,2.563,1.483,3.507,1.618
		c0.943,0.135,8.36-0.405,9.844,0c1.484,0.404,4.721,0.022,4.721,0.022l-4.584-3.907L244.233,100.899z M260.281,101.843
		l-1.618,2.562v2.562l5.26,6.742l1.079,3.372l1.887,1.618h4.046v-2.293c0,0-4.314-3.237-4.314-3.642
		c0-0.404-4.991-6.068-4.991-6.068L260.281,101.843z"/>
	<linearGradient id="SVGID_3_" gradientUnits="userSpaceOnUse" x1="80.5977" y1="73.2783" x2="80.5976" y2="260.7821">
		<stop  offset="0" style="stop-color:#CCFFFF"/>
		<stop  offset="0.3041" style="stop-color:#CAFDFF"/>
		<stop  offset="0.4137" style="stop-color:#C3F6FD"/>
		<stop  offset="0.4918" style="stop-color:#B8EBFA"/>
		<stop  offset="0.5549" style="stop-color:#A7DAF6"/>
		<stop  offset="0.6089" style="stop-color:#91C4F0"/>
		<stop  offset="0.6568" style="stop-color:#75A8EA"/>
		<stop  offset="0.6991" style="stop-color:#5689E2"/>
		<stop  offset="0.7117" style="stop-color:#4B7EDF"/>
	</linearGradient>
	<path fill="url(#SVGID_3_)" d="M86.838,259.812c-17.941-21.237-28.817-48.764-28.817-78.742
		c-0.001-10.235,1.26-20.176,3.635-29.676l7.266,5.739l4.854,12.002l6.608,11.058c0,0,8.227,8.496,9.305,8.765
		c1.079,0.271,9.575,7.014,10.519,7.014s2.967,1.214,2.967,1.214v8.765l-5.395,7.147v18.881h-7.956l-1.888,3.236
		c0,0,0.675,2.966,1.753,3.775c1.079,0.81,2.158,4.046,2.158,4.046l-0.809,4.45l-2.293,3.507L86.838,259.812z"/>
</g>
<g id="browserIcon_x5F_alpha.svg">
	<g>
		<path fill="#054E9E" stroke="#054E9E" stroke-width="12" stroke-linejoin="round" stroke-miterlimit="10" d="M111.253,247.28
			l-2.984-9.814H92.083l-3.042,9.814h-5.769l14.119-42.786h6.859l13.459,42.786H111.253z M106.977,233.247l-6.772-22.239
			l-6.83,22.239H106.977z"/>
		<path fill="#054E9E" stroke="#054E9E" stroke-width="12" stroke-linejoin="round" stroke-miterlimit="10" d="M128.724,247.28
			v-42.786h6.285v38.481h16.701v4.305H128.724z"/>
		<path fill="#054E9E" stroke="#054E9E" stroke-width="12" stroke-linejoin="round" stroke-miterlimit="10" d="M163.269,204.494
			h13.286c4.477,0,7.84,1.103,10.087,3.312c2.247,2.211,3.372,5.516,3.372,9.915c0,4.363-1.363,7.802-4.09,10.317
			c-2.726,2.517-6.366,3.772-10.919,3.772h-5.452v15.469h-6.284V204.494z M169.553,208.597v19.054h5.051
			c2.927,0,5.146-0.836,6.658-2.51c1.511-1.675,2.267-4.09,2.267-7.245c0-2.985-0.632-5.281-1.894-6.888
			c-1.264-1.608-3.387-2.411-6.371-2.411H169.553z"/>
		<path fill="#054E9E" stroke="#054E9E" stroke-width="12" stroke-linejoin="round" stroke-miterlimit="10" d="M231.502,204.494
			v42.786h-6.284v-21.149h-15.696v21.149h-6.285v-42.786h6.285v17.447h15.696v-17.447H231.502z"/>
		<path fill="#054E9E" stroke="#054E9E" stroke-width="12" stroke-linejoin="round" stroke-miterlimit="10" d="M270.411,247.28
			l-2.985-9.814h-16.184l-3.043,9.814h-5.768l14.118-42.786h6.859l13.458,42.786H270.411z M266.134,233.247l-6.771-22.239
			l-6.83,22.239H266.134z"/>
	</g>
	<g>
		<path fill="#FFFFFF" stroke="#FFFFFF" stroke-width="3" stroke-miterlimit="10" d="M111.253,247.28l-2.984-9.814H92.083
			l-3.042,9.814h-5.769l14.119-42.786h6.859l13.459,42.786H111.253z M106.977,233.247l-6.772-22.239l-6.83,22.239H106.977z"/>
		<path fill="#FFFFFF" stroke="#FFFFFF" stroke-width="3" stroke-miterlimit="10" d="M128.724,247.28v-42.786h6.285v38.481h16.701
			v4.305H128.724z"/>
		<path fill="#FFFFFF" stroke="#FFFFFF" stroke-width="3" stroke-miterlimit="10" d="M163.269,204.494h13.286
			c4.477,0,7.84,1.103,10.087,3.312c2.247,2.211,3.372,5.516,3.372,9.915c0,4.363-1.363,7.802-4.09,10.317
			c-2.726,2.517-6.366,3.772-10.919,3.772h-5.452v15.469h-6.284V204.494z M169.553,208.597v19.054h5.051
			c2.927,0,5.146-0.836,6.658-2.51c1.511-1.675,2.267-4.09,2.267-7.245c0-2.985-0.632-5.281-1.894-6.888
			c-1.264-1.608-3.387-2.411-6.371-2.411H169.553z"/>
		<path fill="#FFFFFF" stroke="#FFFFFF" stroke-width="3" stroke-miterlimit="10" d="M231.502,204.494v42.786h-6.284v-21.149
			h-15.696v21.149h-6.285v-42.786h6.285v17.447h15.696v-17.447H231.502z"/>
		<path fill="#FFFFFF" stroke="#FFFFFF" stroke-width="3" stroke-miterlimit="10" d="M270.411,247.28l-2.985-9.814h-16.184
			l-3.043,9.814h-5.768l14.118-42.786h6.859l13.458,42.786H270.411z M266.134,233.247l-6.771-22.239l-6.83,22.239H266.134z"/>
	</g>
</g>
</svg>
