<?xml version="1.0" encoding="UTF-8"?>
<!DOCTYPE svg PUBLIC "-//W3C//DTD SVG 1.1 Tiny//EN" "http://www.w3.org/Graphics/SVG/1.1/DTD/svg11-tiny.dtd">
<svg baseProfile="tiny" xmlns="http://www.w3.org/2000/svg" xmlns:xlink="http://www.w3.org/1999/xlink" width="100%" height="100%" viewBox="0 0 88 88">
  <defs
     id="defs6909" />
  <rect
     id="rect7683"
     style="fill:#ffd800;fill-opacity:1.0000000;fill-rule:evenodd;stroke:#000000;stroke-width:0.12500001;stroke-linecap:butt;stroke-linejoin:miter;stroke-miterlimit:4.0000000;stroke-opacity:1.0000000;stroke-dasharray:none"
     transform="matrix(0.707097,0.707117,-0.707116,0.707097,0.000000,0.000000)"
     y="-27.734158"
     x="34.175232"
     height="55.153564"
     width="55.155079" />
  <rect
     id="rect10008"
     style="fill:#ffd800;fill-opacity:0.00000000;stroke:#000000;stroke-width:1.4641515;stroke-miterlimit:4.0000000;stroke-opacity:1.0000000"
     transform="matrix(0.707807,0.706406,-0.707368,0.706845,0.000000,0.000000)"
     y="-24.579279"
     x="37.081882"
     height="49.570164"
     width="49.602535" />
  <path
     id="path13048"
     style="fill:none;fill-opacity:0.75000000;fill-rule:evenodd;stroke:#000000;stroke-width:1.6682692;stroke-linecap:butt;stroke-linejoin:miter;stroke-miterlimit:4.0000000;stroke-opacity:1.0000000"
     d="M 27.031591,57.263037 L 60.609963,57.263037" />
  <path
     style="stroke-opacity:1.0000000;stroke-miterlimit:4.0000000;stroke-linejoin:miter;stroke-linecap:butt;stroke-width:0.12965260;stroke:#000000;fill-rule:evenodd;fill-opacity:1.0000000;fill:#000000"
     d="M 53.055235,56.214138 C 52.624696,55.783599 53.895322,55.268316 54.042996,54.677621 C 54.177132,54.141074 54.531315,54.216369 54.372250,53.580108 C 54.255651,53.113713 53.875841,52.644696 53.603991,52.372845 C 53.309600,52.078454 53.118192,51.620750 52.945484,51.275333 C 52.703517,50.791400 52.280433,50.498349 51.957723,50.068070 C 51.603941,49.596361 51.413359,49.198844 51.189464,48.751055 C 50.899300,48.170724 50.368976,47.381811 49.982201,46.995036 C 49.704954,46.717789 49.601842,45.905065 49.433445,45.568270 C 49.184790,45.070960 49.138813,44.724882 48.774938,44.361006 C 48.320481,43.906550 47.740713,44.517222 47.567675,44.690260 C 47.298191,44.959743 46.811103,45.340001 46.360411,45.678021 C 45.855798,46.056480 45.501514,46.517804 45.262898,46.995036 C 45.012812,47.495209 44.962345,48.087501 44.823894,48.641303 C 44.672748,49.245890 44.626653,49.759521 44.494640,50.287572 C 44.374994,50.766160 44.494640,51.437604 44.494640,51.933840 C 44.494640,52.473242 44.479725,53.091014 44.384889,53.470358 C 44.236156,54.065293 43.580797,53.654026 44.165387,54.238616 C 44.585434,54.658664 44.644693,54.758223 44.933645,55.336128 C 45.224512,55.917862 44.973069,56.284464 44.714142,56.543391 C 44.460419,56.797114 43.654774,56.762894 43.177626,56.762894 C 42.469818,56.762894 41.865291,56.872645 41.202104,56.872645 C 40.653348,56.872645 40.104592,56.872645 39.555835,56.872645 C 39.007079,56.872645 38.458323,56.872645 37.909567,56.872645 C 37.360811,56.872645 36.812055,56.872645 36.263299,56.872645 C 35.361025,56.872645 34.513340,56.762894 33.629270,56.762894 C 33.007346,56.762894 32.385423,56.762894 31.763499,56.762894 C 31.141575,56.762894 30.519651,56.762894 29.897729,56.762894 C 29.316629,56.762894 28.811179,56.765634 28.361211,56.653142 C 28.294677,56.636509 28.361211,54.800636 28.361211,54.677621 C 28.361211,54.122622 28.373835,53.419862 28.470963,53.031353 C 28.595884,52.531668 28.801084,52.149872 28.909968,51.714338 C 29.009519,51.316133 29.389366,50.975043 29.568474,50.616825 C 29.828283,50.097211 29.986001,49.824729 30.117231,49.299811 C 30.235460,48.826894 30.775433,48.531857 30.995240,48.312050 C 31.322699,47.984592 31.766969,47.981929 32.202504,47.873045 C 32.844620,47.712517 33.143720,48.218959 33.300016,48.531553 C 33.507317,48.946154 33.940327,49.281615 34.178026,49.519314 C 34.504402,49.845689 34.655723,50.255205 34.836533,50.616825 C 35.036987,51.017734 35.283331,51.306507 35.385290,51.714338 C 35.510174,52.213877 35.484864,52.661395 35.604792,53.141103 C 35.720800,53.605133 36.020969,53.996287 36.263299,54.238616 C 36.590757,54.566074 37.035027,54.568737 37.470562,54.677621 C 37.877196,54.779280 38.450774,54.787372 39.007079,54.787372 C 39.499561,54.787372 39.726237,54.336816 39.885089,54.019113 C 40.048252,53.692788 39.994840,52.735696 39.994840,52.372845 C 39.994840,51.764083 39.885089,51.340231 39.885089,50.836328 C 39.885089,50.227207 39.994840,49.666649 39.994840,49.080309 C 39.994840,48.594446 40.231693,47.913395 40.324094,47.543792 C 40.463214,46.987311 40.640950,46.471075 40.872850,46.007275 C 41.112138,45.528699 41.332188,45.417852 41.531357,45.019514 C 41.798584,44.485060 41.919124,44.478034 41.641109,43.922001 C 41.427678,43.495140 41.418998,43.033558 41.311854,42.604987 C 41.183697,42.092355 41.189896,41.666058 41.311854,41.178221 C 41.441133,40.661112 41.531357,40.378202 41.531357,39.751456 C 41.531357,39.357313 41.147280,38.983300 40.982601,38.653943 C 40.761616,38.211972 40.577118,38.019774 40.433845,37.446679 C 40.293896,36.886882 40.102128,36.558816 39.994840,36.129665 C 39.884579,35.688622 39.615766,35.371517 39.446084,35.032153 C 39.247021,34.634025 39.226582,34.204135 39.226582,33.605387 C 39.226582,32.945903 39.466503,32.796291 39.665587,32.398124 C 39.865488,31.998320 40.030648,31.703808 40.324094,31.410363 C 40.648346,31.086110 40.792597,30.722357 41.092353,30.422602 C 41.497139,30.017815 40.746419,29.764094 40.324094,29.764094 C 39.766471,29.764094 39.381552,29.512327 39.007079,29.325090 C 38.644368,29.143734 38.429384,28.550821 38.348572,28.227577 C 38.239216,27.790154 37.911825,27.569635 37.470562,27.459319 C 36.870536,27.309312 36.716357,27.816679 36.373050,27.130065 C 36.166333,26.716631 36.263299,26.084628 36.263299,25.593549 C 36.263299,25.032763 36.269922,24.469546 36.373050,24.057031 C 36.480019,23.629153 36.767491,23.268149 36.921806,22.959519 C 37.118553,22.566025 37.706265,22.347787 38.019318,22.191261 C 38.389122,22.006359 39.035295,22.081510 39.555835,22.081510 C 40.104592,22.081510 40.653348,22.081510 41.202104,22.081510 C 41.550777,22.081510 42.048741,22.504828 42.299615,22.630266 C 42.779900,22.870407 43.095825,22.877718 43.397128,23.179022 C 43.856580,23.638474 43.334114,23.790792 43.067875,24.057031 C 42.608660,24.516246 42.293774,24.264849 42.628870,24.935041 C 42.796868,25.271038 43.241637,25.657560 43.506879,25.922802 C 43.829866,26.245788 44.071833,26.471558 44.604392,26.471558 C 45.231133,26.471558 45.468527,26.258992 45.921406,26.032553 C 46.380507,25.803003 46.621967,25.682272 47.018918,25.483797 C 47.432354,25.277079 48.064355,25.374046 48.555436,25.374046 C 48.881562,25.374046 49.547228,25.870950 49.762698,26.032553 C 50.233060,26.385325 50.346134,26.562541 50.860211,26.691060 C 51.323258,26.806822 51.603308,27.096337 52.177225,27.239816 C 52.669260,27.362825 53.085679,27.686432 53.494239,27.788572 C 54.085273,27.936331 54.424563,27.883965 54.921006,28.008075 C 55.515417,28.156678 55.672225,28.522753 55.908767,28.995836 C 56.129829,29.437960 56.491410,29.722118 56.677025,30.093348 C 56.910943,30.561183 56.502923,30.880558 56.238021,31.410363 C 56.056374,31.773656 55.750791,32.117094 55.469761,32.398124 C 55.126451,32.741435 54.982268,33.373113 54.811255,33.715138 C 54.580847,34.175955 54.213651,34.581092 53.933245,35.141904 C 53.665425,35.677541 53.569455,36.088987 53.384489,36.458918 C 53.193251,36.841393 53.274738,37.478767 53.274738,37.995435 C 53.274738,38.355483 53.637246,38.896713 53.713742,39.202699 C 53.826257,39.652756 54.049119,39.995451 54.152747,40.409962 C 54.261646,40.845559 54.246127,41.441991 54.372250,41.946479 C 54.491897,42.425068 54.372250,43.096512 54.372250,43.592748 C 54.372250,44.221105 54.406333,44.648676 54.591752,45.019514 C 54.805887,45.447783 54.950405,45.736818 55.140508,46.117026 C 55.318283,46.472575 55.666926,46.862946 56.018518,47.214537 C 56.421894,47.617914 56.456093,48.089688 56.677025,48.531553 C 56.956851,49.091204 57.024443,49.445891 57.225781,49.848567 C 57.525499,50.448001 57.843039,50.781081 57.994040,51.385084 C 58.121209,51.893759 58.424571,52.009700 58.542796,52.482597 C 58.645326,52.892716 58.958398,53.157244 59.091552,53.689860 C 59.206608,54.150081 59.311055,54.491721 59.311055,55.116625 C 59.311055,55.745296 59.151256,56.154433 58.872050,56.433641 C 58.548620,56.757070 57.979019,56.653142 57.445283,56.653142 C 57.019297,56.653142 56.409259,56.762894 55.908767,56.762894 C 55.327666,56.762894 54.822217,56.760154 54.372250,56.872645 C 53.888809,56.993505 53.322734,56.966958 52.945484,56.872645 C 52.548865,56.773490 53.055235,56.085649 53.055235,55.665381"
     id="path2140" />
  <path
     style="fill:#000000;fill-opacity:1.0000000;fill-rule:evenodd;stroke:#000000;stroke-width:0.15643996;stroke-linecap:butt;stroke-linejoin:miter;stroke-miterlimit:4.0000000;stroke-opacity:1.0000000"
     d="M 38.428125,47.795987 C 38.311148,47.854477 36.965297,46.068306 36.706578,45.809587 C 36.275090,45.378099 35.986619,44.957203 35.647163,44.617746 C 35.160123,44.130704 34.556573,44.434693 34.190469,44.617746 C 33.723208,44.851375 33.274878,45.075540 32.866201,45.279879 C 32.358140,45.533910 32.262581,46.015925 31.939214,46.339294 C 31.632132,46.646376 31.393272,47.331218 31.277080,47.795987 C 31.083157,48.571681 31.468244,48.972877 31.674360,49.385108 C 31.912314,49.861016 32.778380,50.223928 33.131055,50.312097 C 33.776711,50.473511 34.431575,50.444524 35.117456,50.444524 C 35.382879,50.444524 36.028034,49.885811 36.441723,49.782389 C 36.905836,49.666361 37.228511,49.190356 37.633565,48.987829 C 37.959970,48.824626 38.265273,48.203119 38.428125,47.795987 z "
     id="path2902" />
  <path
     style="fill:none;fill-opacity:0.75000000;fill-rule:evenodd;stroke:#000000;stroke-width:1.0000000px;stroke-linecap:butt;stroke-linejoin:miter;stroke-opacity:1.0000000"
     d="M 36.399595,46.098141 C 41.690234,42.288881 41.690234,42.288881 41.690234,42.288881"
     id="path3662" />
  <path
     style="fill:#ffd800;fill-opacity:1.0000000;fill-rule:evenodd;stroke:#000000;stroke-width:0.00000000;stroke-linecap:butt;stroke-linejoin:miter;stroke-miterlimit:4.0000000;stroke-opacity:1.0000000"
     d="M 51.177526,33.514353 C 51.643815,33.290634 52.117036,32.810504 52.277706,32.050272 C 52.490950,31.041286 52.186388,30.532180 51.727616,30.260839 C 51.228746,29.965782 50.690078,29.935489 49.939823,29.935489 C 48.958188,29.935489 48.839642,29.898727 48.839642,31.074218 C 48.839642,31.604089 49.483749,32.272697 49.664777,32.700974 C 49.972897,33.429925 50.486789,33.514353 51.177526,33.514353 z "
     id="path3666" />
  <path
     style="fill:#ffd800;fill-opacity:1.0000000;fill-rule:evenodd;stroke:none;stroke-width:0.00000000;stroke-linecap:butt;stroke-linejoin:miter;stroke-miterlimit:4.0000000;stroke-opacity:1.0000000"
     d="M 43.339938,38.616989 C 43.358543,38.676580 44.048989,37.735278 44.132320,37.601827 C 44.413539,37.151472 44.464358,36.937090 44.370034,36.332872 C 44.312608,35.965007 43.825038,35.713886 43.656891,35.444606 C 43.366077,34.978882 43.133760,34.623676 42.864509,34.048757 C 42.530139,33.334791 42.389080,34.076845 42.389080,34.683233 C 42.389080,35.330477 42.556959,35.728514 42.706032,36.205977 C 42.849733,36.666232 42.864509,37.134957 42.864509,37.855617 C 42.864509,38.303047 43.016630,38.409884 43.339938,38.616989 z "
     id="path4426" />
  <path
     style="fill:#000000;fill-opacity:1.0000000;fill-rule:evenodd;stroke:#000000;stroke-width:0.00000000;stroke-linecap:butt;stroke-linejoin:miter;stroke-miterlimit:4.0000000;stroke-opacity:1.0000000"
     d="M 43.635359,9.6022099 C 40.526110,12.711459 40.475138,12.762431 40.475138,12.762431 L 46.795580,12.762431 L 43.635359,9.6022099 z "
     id="path8982" />
  <path
     style="fill:#000000;fill-opacity:1.0000000;fill-rule:evenodd;stroke:#000000;stroke-width:0.00000000;stroke-linecap:butt;stroke-linejoin:miter;stroke-miterlimit:4.0000000;stroke-opacity:1.0000000"
     d="M 43.878453,78.154696 C 40.769204,75.045447 40.718232,74.994475 40.718232,74.994475 L 47.038674,74.994475 L 43.878453,78.154696 z "
     id="path9742" />
  <path
     style="fill:#000000;fill-opacity:1.0000000;fill-rule:evenodd;stroke:#000000;stroke-width:0.00000000;stroke-linecap:butt;stroke-linejoin:miter;stroke-miterlimit:4.0000000;stroke-opacity:1.0000000"
     d="M 9.4806628,43.878454 C 12.589911,46.987703 12.640883,47.038675 12.640883,47.038675 L 12.640883,40.718232 L 9.4806628,43.878454 z "
     id="path9744" />
  <path
     style="fill:#000000;fill-opacity:1.0000000;fill-rule:evenodd;stroke:#000000;stroke-width:0.00000000;stroke-linecap:butt;stroke-linejoin:miter;stroke-miterlimit:4.0000000;stroke-opacity:1.0000000"
     d="M 78.033148,43.756906 C 74.923900,46.866155 74.872928,46.917127 74.872928,46.917127 L 74.872928,40.596684 L 78.033148,43.756906 z "
     id="path9746" />
</svg>
