<?xml version="1.0" encoding="UTF-8" standalone="no"?>
<svg
   xmlns:dc="http://purl.org/dc/elements/1.1/"
   xmlns:cc="http://web.resource.org/cc/"
   xmlns:rdf="http://www.w3.org/1999/02/22-rdf-syntax-ns#"
   xmlns:svg="http://www.w3.org/2000/svg"
   xmlns="http://www.w3.org/2000/svg"
   xmlns:xlink="http://www.w3.org/1999/xlink"
   xmlns:sodipodi="http://sodipodi.sourceforge.net/DTD/sodipodi-0.dtd"
   xmlns:inkscape="http://www.inkscape.org/namespaces/inkscape"
   baseProfile="tiny"
   height="100%"
   preserveAspectRatio="xMidYMid meet"
   version="1.0"
   viewBox="0 0 87.9995117 88.0004883"
   width="100%"
   zoomAndPan="magnify"
   id="svg76799"
   sodipodi:version="0.32"
   inkscape:version="0.44"
   sodipodi:docname="qgn_menu_filebrowser.svg"
   sodipodi:docbase="Z:\">
  <metadata
     id="metadata76883">
    <rdf:RDF>
      <cc:Work
         rdf:about="">
        <dc:format>image/svg+xml</dc:format>
        <dc:type
           rdf:resource="http://purl.org/dc/dcmitype/StillImage" />
      </cc:Work>
    </rdf:RDF>
  </metadata>
  <defs
     id="defs76881">
    <linearGradient
       inkscape:collect="always"
       xlink:href="#XMLID_4_"
       id="linearGradient76934"
       gradientUnits="userSpaceOnUse"
       gradientTransform="matrix(-0.105,-0.4005,0.3754,-9.84e-2,-314.9889,-11.936)"
       x1="-316.0620117"
       y1="809.9614258"
       x2="-323.5102844"
       y2="840.2769165" />
    <linearGradient
       inkscape:collect="always"
       xlink:href="#XMLID_4_"
       id="linearGradient76936"
       gradientUnits="userSpaceOnUse"
       gradientTransform="matrix(-0.105,-0.4005,0.3754,-9.84e-2,-314.9889,-11.936)"
       x1="-316.0620117"
       y1="809.9614258"
       x2="-323.5102844"
       y2="840.2769165" />
  </defs>
  <sodipodi:namedview
     inkscape:window-height="820"
     inkscape:window-width="952"
     inkscape:pageshadow="2"
     inkscape:pageopacity="0.0"
     guidetolerance="10.0"
     gridtolerance="10.0"
     objecttolerance="10.0"
     borderopacity="1.0"
     bordercolor="#666666"
     pagecolor="#ffffff"
     id="base"
     inkscape:zoom="4.2840671"
     inkscape:cx="43.999756"
     inkscape:cy="62.674088"
     inkscape:window-x="66"
     inkscape:window-y="87"
     inkscape:current-layer="svg76799" />
  <g
     id="g76801"
     transform="matrix(0.875332,0,0,0.875332,0.2333,0.23342)">
    <g
       id="g76803">
      <rect
         height="88.000488"
         width="87.999512"
         id="rect76805"
         x="0"
         y="0"
         style="fill:none" />
      <path
         d="M 39.916016,17.900391 C 39.919434,17.900391 39.92334,17.900391 39.927246,17.900391 C 39.885742,17.900391 39.873047,17.902832 31.596191,19.527832 C 31.416992,19.476074 26.807617,18.142578 26.807617,18.142578 C 26.736816,18.128906 26.474609,18.099121 26.474609,18.099121 L 21.785645,18.360352 C 21.785645,18.360352 21.786621,18.360352 21.786621,18.36084 C 21.786621,18.369629 21.067871,18.680664 21.067871,18.680664 C 20.967774,18.724121 20.907227,18.80127 20.869629,18.903809 L 20.679199,19.42041 C 20.674317,19.433594 20.675293,19.444824 20.671875,19.456543 C 19.964844,19.278809 18.22168,18.841309 18.22168,18.841309 C 17.789551,18.730469 17.334961,18.868652 17.03711,19.200684 C 17.004883,19.236816 16.972656,19.297363 16.955078,19.342285 L 16.756348,19.858399 C 16.738281,19.905274 16.729004,19.955078 16.729004,20.004883 C 16.729004,20.026367 16.730957,20.047852 16.734375,20.068848 L 16.776367,20.324707 C 16.787109,20.368652 17.119141,21.356934 17.320801,21.956055 C 16.562012,22.062988 13.388672,22.510254 13.388672,22.510254 C 12.800293,22.592285 12.355957,23.102539 12.355957,23.697754 C 12.356445,23.719238 12.67627,28.669434 12.778809,30.25586 C 12.211426,30.143067 11.284668,29.958985 11.284668,29.958985 C 11.206543,29.951172 10.875,29.95459 10.875,29.95459 L 6.378418,30.950684 C 5.8271485,31.072266 5.440918,31.553711 5.440918,32.121094 C 5.440918,32.149902 5.440918,32.149902 6.6865235,55.366699 C 6.7143555,55.878418 7.0634766,56.315918 7.5556641,56.456543 C 7.5576172,56.45752 12.411621,57.834473 13.638184,58.184082 C 13.654785,58.691895 13.769043,62.250489 13.769043,62.250489 C 13.785156,62.762207 14.125,63.20752 14.614746,63.358887 L 53.833496,75.559082 C 53.884277,75.574707 53.937012,75.580567 53.988769,75.57666 L 54.601074,75.52002 C 54.653809,75.51416 54.70459,75.499512 54.751465,75.475098 L 76.42334,63.968262 C 76.804199,63.765137 77.04834,63.371582 77.060059,62.940918 L 78.158691,24.119629 C 78.17627,23.507324 77.729981,22.980957 77.121582,22.896973 L 40.238281,17.896484 C 40.18457,17.893066 39.916016,17.900391 39.916016,17.900391 z "
         id="path76807"
         style="fill:#7c6800;fill-opacity:0.25;stroke-opacity:0.25" />
      <polygon
         points="14.077148,31.736816 13.555664,23.698242 18.919922,22.943359 17.928711,20.003906 22.00293,21.028809 21.854492,19.558594 26.473633,19.29541 31.541992,20.761231 40.077148,19.085938 76.958496,24.085938 75.86084,62.908691 54.188965,74.414551 14.96875,62.212402 14.80957,57.268066 7.8847656,55.302246 6.640625,32.121094 11.050781,31.136231 14.077148,31.736816 "
         id="polygon76809"
         style="fill:white" />
      <polygon
         points="53.817871,71.10791 73.304199,61.252441 74.040527,25.139648 52.780762,30.843262 53.817871,71.10791 "
         id="polygon76811"
         style="fill:#06f" />
      <polygon
         points="53.817871,71.10791 53.083496,30.885254 15.444336,24.263672 16.897461,60.968262 53.817871,71.10791 "
         id="polygon76813"
         style="fill:#09f" />
      <polygon
         points="74.040527,25.139648 38.993164,20.189453 15.444336,24.263672 53.083496,30.885254 74.040527,25.139648 "
         id="polygon76815"
         style="fill:#0cf" />
      <polygon
         points="19.116211,28.543945 19.602539,52.943848 48.778809,60.572754 48.942871,34.204102 19.116211,28.543945 "
         id="polygon76817"
         style="fill:#070791" />
      <polygon
         points="29.621094,31.085938 19.97168,34.612305 28.161133,36.790039 29.621094,31.085938 "
         id="polygon76819"
         style="fill:#0046b7" />
      <polyline
         points="19.6669922,34.8325195 31.8251953,30.7675781 29.9619141,30.3671875       17.9521484,34.1640625 "
         id="polyline76821"
         style="fill:#b3ddff" />
      <polygon
         points="23.104492,38.689453 22.814453,20 46.210449,26.876953 45.011719,46.129394 43.783203,47.189941 23.104492,38.689453 "
         id="polygon76823"
         style="fill:white" />
      <polygon
         points="22.835938,20.076172 45.976074,26.93457 49.001465,26.404297 26.605469,20.072266 22.835938,20.076172 "
         id="polygon76825"
         style="fill:#ffc400" />
      <polygon
         points="45.976074,26.93457 43.477539,47.744629 46.04834,46.354004 49.001465,26.404297 45.976074,26.93457 "
         id="polygon76827"
         style="fill:#d98204" />
      <path
         d="M 43.552734,47.766113 L 22.87207,38.785156 C 21.706543,27.642578 18.78418,20.716309 18.78418,20.716309 C 23.080078,22.266113 42.229492,28.328613 42.229492,28.328613 C 45.289063,40.192383 43.37207,42.625 43.552734,47.766113 z "
         id="path76829"
         style="fill:#fc0" />
      <linearGradient
         gradientTransform="matrix(-0.105,-0.4005,0.3754,-9.84e-2,-314.9889,-11.936)"
         gradientUnits="userSpaceOnUse"
         id="XMLID_4_"
         x1="-316.06201"
         x2="-323.51028"
         y1="809.96143"
         y2="840.27692">
        <stop
           offset="0"
           style="stop-color:#FFFFFF"
           id="stop76832" />
        <stop
           offset="1"
           style="stop-color:#FFCC00"
           id="stop76834" />
      </linearGradient>
      <path
         d="M 22.844727,22.126953 C 29.491211,24 42.229492,28.328613 42.229492,28.328613 C 45.283203,38.26123 43.242188,45.841309 43.552734,47.766113 L 22.800781,38.818359 L 22.844727,22.126953 z "
         id="path76836"
         style="fill:url(#linearGradient76936)" />
      <polygon
         points="41.004883,42.025391 40.986328,40.810059 48.065918,37.460449 48.069824,38.693359 41.004883,42.025391 "
         id="polygon76838"
         style="fill:#b3ddff" />
      <polygon
         points="8.1904297,32.516113 38.138672,39.671875 38.34668,62.253418 9.2324219,54.01416 8.1904297,32.516113 "
         id="polygon76840"
         style="fill:#0cf" />
      <polygon
         points="10.730469,32.03125 8.1904297,32.516113 38.138672,39.671875 40.969727,38.604004 10.730469,32.03125 "
         id="polygon76842"
         style="fill:#cfecff" />
      <polygon
         points="17.31543,46.994629 16.231445,47.297363 28.15918,50.725098 29.324219,50.242676 17.31543,46.994629 "
         id="polygon76844"
         style="fill:#cfecff" />
      <polygon
         points="18.113281,38.503906 18.243164,42.424316 28.248047,45.068359 28.248047,40.839844 18.113281,38.503906 "
         id="polygon76846"
         style="fill:#f9f9f9" />
      <polygon
         points="28.163086,50.70166 28.295898,52.703613 29.241211,52.10791 29.324219,50.242676 28.163086,50.70166 "
         id="polygon76848"
         style="fill:#06f" />
      <linearGradient
         gradientUnits="userSpaceOnUse"
         id="XMLID_5_"
         x1="11.963867"
         x2="34.643429"
         y1="53.834473"
         y2="60.526596">
        <stop
           offset="0"
           style="stop-color:#66F2EE"
           id="stop76851" />
        <stop
           offset="1"
           style="stop-color:#464646"
           id="stop76853" />
      </linearGradient>
      <polygon
         points="9.3466797,52.802246 38.393555,60.729981 38.337891,62.307129 9.2617188,53.941894 9.3466797,52.802246 "
         id="polygon76855"
         style="fill:url(#XMLID_5_)" />
      <polygon
         points="38.138672,39.671875 40.969727,38.604004 40.969727,42.076172 48.075684,38.633301 48.083496,56.816894 38.34668,62.253418 38.138672,39.671875 "
         id="polygon76857"
         style="fill:#0852bc" />
      <linearGradient
         gradientUnits="userSpaceOnUse"
         id="XMLID_6_"
         x1="53.26709"
         x2="73.433105"
         y1="48.185059"
         y2="48.185059">
        <stop
           offset="0"
           style="stop-color:#00FFFF"
           id="stop76860" />
        <stop
           offset="0.0490068"
           style="stop-color:#00E1FF"
           id="stop76862" />
        <stop
           offset="0.1141682"
           style="stop-color:#00C0FF"
           id="stop76864" />
        <stop
           offset="0.1871896"
           style="stop-color:#00A4FF"
           id="stop76866" />
        <stop
           offset="0.2686932"
           style="stop-color:#008DFF"
           id="stop76868" />
        <stop
           offset="0.3624018"
           style="stop-color:#007BFF"
           id="stop76870" />
        <stop
           offset="0.4758376"
           style="stop-color:#006FFF"
           id="stop76872" />
        <stop
           offset="0.6294785"
           style="stop-color:#0068FF"
           id="stop76874" />
        <stop
           offset="1"
           style="stop-color:#0066FF"
           id="stop76876" />
      </linearGradient>
      <polygon
         points="55.04834,70.125488 53.849121,71.018066 53.26709,30.977051 73.433105,25.351563 55.04834,70.125488 "
         id="polygon76878"
         style="fill:url(#XMLID_6_)" />
    </g>
  </g>
  <g
     id="g66764"
     transform="matrix(0.580892,0,0,0.580892,30.46276,33.49717)">
    <g
       id="g66766">
      <rect
         height="88.000488"
         width="87.998535"
         id="rect66768"
         x="0"
         y="0"
         style="fill:none" />
      <path
         d="M 12.445313,23.541992 C 12.450684,23.536621 12.459961,23.538574 12.46582,23.533203 C 12.399902,23.605469 12.33252,23.711426 12.217773,23.902832 L 11.669434,25.508789 C 11.420898,28.112793 8.7612305,29.766601 7.7451172,29.761719 C 7.7431641,29.761719 7.1030274,29.961914 7.1030274,29.961914 C 7.0551758,29.977051 7.0234376,29.996582 6.9838868,30.027832 L 2.6176759,33.564941 C 2.5869142,33.593262 2.2260743,34.223144 2.2260743,34.223144 C 2.1948243,34.276855 2.1816407,34.330566 2.1782227,34.393066 C 2.1782227,34.393066 2.0952149,35.925781 2.0952149,35.926269 C 2.0952149,41.897461 5.9643555,44.13623 8.7773438,44.98584 C 8.597168,45.19873 8.4672852,45.446777 8.4672852,45.736816 L 11.043945,64.936035 C 11.108399,65.408691 11.444824,65.79834 11.901367,65.929199 L 60.859863,80.074707 C 61.250488,80.188965 61.67041,80.096191 61.980957,79.82666 L 84.133301,60.395019 C 84.172363,60.359863 84.205566,60.315918 84.229004,60.270019 L 84.497559,59.734863 C 84.521973,59.687988 84.535645,59.637207 84.539551,59.585449 C 86.019043,40.415527 86.019043,40.415527 86.019043,40.373535 C 86.019043,39.777344 85.573731,39.266601 84.98291,39.185058 C 84.98291,39.185058 75.30127,37.846191 72.290527,37.430176 C 72.355957,37.376953 72.479004,37.276367 72.479004,37.276367 C 72.439942,37.308594 72.407715,37.306152 72.374512,37.311035 C 72.496582,37.270996 72.809082,37.124023 74.008301,36.560547 C 75.133301,36.081055 76.311035,35.579101 77.156738,34.694824 C 78.469238,33.407715 79.227051,31.364746 79.227051,29.098144 L 79.223145,28.824219 C 79.144043,25.855469 77.844238,23.051758 75.656738,21.126465 C 75.621582,21.094726 75.574707,21.067871 75.529785,21.051269 L 75.010254,20.853515 C 74.965332,20.836914 74.918457,20.827637 74.869629,20.827637 L 71.266113,20.810058 C 70.694824,20.810058 70.199707,21.215332 70.088379,21.773926 C 70.088379,21.773926 69.250488,25.944824 69.046387,26.961426 C 68.818848,26.751465 68.604004,26.479492 68.442871,26.118164 C 68.489746,25.844726 69.39502,20.551269 69.39502,20.551269 C 69.400879,20.512207 69.421387,20.455566 69.421387,20.412109 C 69.421387,20.404785 69.42041,20.399414 69.42041,20.393555 L 69.390137,20.219726 L 69.240723,19.757324 C 69.211426,19.66748 69.222168,19.646973 69.143066,19.597168 L 68.535644,19.21582 C 68.488769,19.186523 68.441894,19.17041 68.387207,19.162597 L 65.260254,18.697754 L 64.92041,18.696777 C 62.097168,19.086914 59.969238,20.297363 58.596191,22.293945 C 57.271973,24.219726 57.074707,26.316894 57.074707,27.395996 L 57.247559,29.104492 C 57.26709,29.184082 57.461426,30.003418 57.461426,30.003418 C 57.737793,31.127441 58.049316,32.395019 58.049316,33.294433 C 58.049316,33.294433 57.946777,33.943359 57.935059,34.017578 C 57.82959,34.20459 57.615723,34.613769 57.205566,35.407715 C 56.671387,35.333984 41.949219,33.300781 41.638672,33.257812 C 41.459961,33.027832 37.396484,27.795898 36.745117,26.957519 C 39.82373,26.290527 47.033691,26.475586 52.600098,27.415527 C 53.043457,27.487793 53.484863,27.312988 53.754395,26.958008 C 54.025879,26.602051 54.07666,26.128906 53.887207,25.723144 L 49.924316,17.249023 C 49.902832,17.205566 49.875488,17.166015 49.840332,17.132324 L 49.436035,16.737793 C 49.401855,16.704101 49.361816,16.676757 49.316895,16.657226 C 38.896973,12.099121 23.738281,11.51416 12.445313,23.541992 z M 16.739746,39.831055 C 16.741211,38.884277 18.64502,37.631348 19.720703,36.945801 C 19.999512,37.088867 21.273926,37.740234 22.068359,38.146484 C 21.14502,38.611816 18.191406,40.099121 16.487305,40.95752 C 16.497559,40.934082 16.739746,40.380859 16.739746,40.380859 C 16.756836,40.341309 16.763184,40.260254 16.763184,40.180664 C 16.763184,40.109375 16.758301,40.039551 16.750488,40.001465 L 16.758789,40.042481 L 16.739746,39.831055 z M 72.281738,37.328613 C 72.303223,37.328613 72.322754,37.327149 72.35498,37.317383 C 72.333496,37.318848 72.312988,37.328613 72.281738,37.328613 z "
         id="path66770"
         style="fill:#7c6800;fill-opacity:0.25;stroke-opacity:0.25" />
      <path
         d="M 69.965332,38.319824 L 84.818848,40.374023 L 83.342285,59.492676 L 61.191894,78.922363 L 12.233398,64.775879 L 9.6669922,45.736816 L 24.719727,38.153809 L 19.647461,35.561523 C 17.205567,37.086914 15.258789,38.483398 15.573242,40.220703 L 11.157227,44.286621 C 7.8017578,43.873047 2.5927735,41.928711 3.3735352,34.498047 L 7.7392579,30.961426 C 9.4326173,30.969727 12.573242,28.71875 12.807617,25.889649 L 13.319336,24.36377 C 23.454102,13.569824 37.645508,12.861817 48.836426,17.757324 L 52.799317,26.231445 C 46.812988,25.22168 36.821289,24.815918 34.748535,26.342774 L 40.991211,34.379883 L 57.881348,36.712891 L 59.064942,34.420899 C 59.588379,33.134766 58.85791,30.745117 58.424317,28.882813 C 57.906738,26.655762 58.391113,20.8125 65.084473,19.884766 L 68.211426,20.349121 L 67.191895,26.3125 C 67.713379,27.916992 69.350098,28.623047 69.350098,28.623047 L 70.010254,28.255859 L 71.26416,22.009766 L 74.86377,22.027344 C 78.686035,25.392578 78.896973,31.307617 76.289551,33.865234 C 75.240723,34.961426 73.248535,35.453125 71.885254,36.233398 C 70.322754,37.124023 69.965332,38.319824 69.965332,38.319824 z "
         id="path66772"
         style="fill:white" />
      <polygon
         points="82.98877,41.490234 34.850586,34.807617 10.897461,46.449707 59.643066,56.678223 82.98877,41.490234 "
         id="polygon66774"
         style="fill:#ff6" />
      <polygon
         points="34.645508,36.333008 77.516113,42.653809 59.053223,54.161621 34.930664,49.486816 34.645508,36.333008 "
         id="polygon66776"
         style="fill:#c15200" />
      <polygon
         points="34.645508,36.333008 15.549805,45.724121 34.930664,49.486816 34.645508,36.333008 "
         id="polygon66778"
         style="fill:#ff7300" />
      <g
         id="g66780">
        <g
           id="g66782">
          <path
             d="M 76.352051,31.694824 C 76.67041,30.902832 76.869629,29.890625 76.838379,28.59375 C 76.791504,27.172852 76.148926,24.931641 74.311035,22.837891 L 71.859863,22.851563 C 73.848144,25.124023 74.611816,27.337891 74.234863,30.358398 C 74.176269,30.860352 74.059082,31.303711 73.904785,31.695801 L 76.352051,31.694824 z "
             id="path66784"
             style="fill:url(#linearGradient76934)" />
          <g
             id="g66786">
            <defs
               id="defs66788">
              <path
                 d="M 55.395019,59.633301 L 52.963379,59.641113 C 53.992676,59.63916 54.779785,59.342285 54.828613,59.32666 L 57.260254,59.316895 C 57.213379,59.334473 56.424316,59.628418 55.395019,59.633301 z "
                 id="XMLID_2_" />
            </defs>
            <use
               xlink:actuate="onLoad"
               xlink:href="#XMLID_2_"
               xlink:show="embed"
               xlink:type="simple"
               id="use66791"
               style="fill:#0046b7"
               x="0"
               y="0"
               width="87.999512"
               height="88.000488" />
            <g
               id="g66793">
              <path
                 d="M 54.828613,59.32666 L 57.260254,59.316895 C 57.213379,59.334473 56.424316,59.628418 55.39502,59.633301 L 52.963379,59.641113 C 53.992676,59.63916 54.779785,59.342285 54.828613,59.32666"
                 id="path66795"
                 style="fill:#0046b7" />
            </g>
          </g>
          <g
             id="g66797">
            <polygon
               points="65.090332,20.790527 67.375488,21.078125 66.404785,26.494141 63.975098,26.501953 65.090332,20.790527 "
               id="polygon66799"
               style="fill:#b7b9b9" />
          </g>
          <path
             d="M 73.904785,31.695801 C 73.131348,33.666992 71.398926,34.34668 70.73877,34.55957 C 69.943848,34.8125 67.314942,35.589844 66.088379,37.922852 L 66.104004,37.922852 C 65.13916,39.753418 55.355957,58.328613 54.828613,59.32666 L 57.260254,59.316895 C 57.797363,58.299316 67.977051,38.970703 68.588379,37.811523 L 68.570801,37.811523 C 69.730957,35.546875 72.955566,34.633789 73.383301,34.485352 C 73.703613,34.375 75.479004,33.878418 76.352051,31.694824 L 73.904785,31.695801 z "
             id="path66801"
             style="fill:#6d6d6d" />
          <path
             d="M 63.971191,26.500977 L 66.393066,26.485352 C 66.766113,27.546875 67.797363,29.191406 69.502441,29.476563 C 66.766113,30.402832 64.658691,28.758789 63.971191,26.500977 z "
             id="path66803"
             style="fill:#c9c9c9" />
          <path
             d="M 72.650879,33.527832 L 75.080566,33.520019 C 74.645019,33.931641 74.137207,34.241211 73.572754,34.421875 C 71.439941,35.101563 70.23291,35.813477 69.477051,36.530762 L 67.047363,36.539063 C 67.80127,35.820801 69.008301,35.109375 71.141113,34.428711 C 71.70752,34.248047 72.215332,33.940918 72.650879,33.527832"
             id="path66805"
             style="fill:#333" />
          <g
             id="g66807">
            <path
               d="M 71.88916,22.849121 C 76.004395,27.4375 74.67627,33.291992 71.242676,34.388672 C 67.799316,35.486816 66.768066,36.667969 66.158691,37.819824 C 65.54541,38.979492 55.365723,58.307129 54.828613,59.32666 C 54.771973,59.346191 53.721191,59.737793 52.449707,59.615723 C 50.994629,59.477051 49.32666,58.63916 48.854004,55.686035 L 59.963379,34.609375 C 60.756348,32.59082 59.32666,29.636719 59.172363,27.599121 C 59.025879,25.561523 60.932129,21.179687 65.090332,20.790527 L 63.975098,26.501953 C 64.508301,28.180664 65.984863,29.490234 67.687988,29.652344 C 68.600098,29.742187 69.57666,29.5 70.510254,28.811523 L 71.88916,22.849121 z "
               id="path66809"
               style="fill:#919191" />
          </g>
          <circle
             cx="52.789551"
             cy="55.814941"
             r="1.6933594"
             id="circle66811"
             sodipodi:cx="52.789551"
             sodipodi:cy="55.814941"
             sodipodi:rx="1.6933594"
             sodipodi:ry="1.6933594"
             style="fill:#36c" />
          <defs
             id="defs66813">
            <linearGradient
               gradientUnits="userSpaceOnUse"
               id="linearGradient76911"
               x1="74.182129"
               x2="74.765144"
               y1="24.07373"
               y2="29.573807">
              <stop
                 offset="0"
                 style="stop-color:#B7B9B9"
                 id="stop66816" />
              <stop
                 offset="0.005618"
                 style="stop-color:#B7B9B9"
                 id="stop66818" />
              <stop
                 offset="1"
                 style="stop-color:#6D6D6D"
                 id="stop66820" />
            </linearGradient>
          </defs>
        </g>
        <g
           id="g66822">
          <g
             id="g66824">
            <path
               d="M 50.832519,44.053711 C 43.444336,39.834961 37.477539,33.416992 34.688476,29.511719 L 33.342773,32.220703 C 33.342773,32.220703 46.459473,45.211426 50.13916,46.160645 L 50.832519,44.053711 z "
               id="path66826"
               style="fill:#333" />
            <path
               d="M 50.469238,45.766113 C 43.623535,42.766602 34.067383,31.725586 34.067383,31.725586 L 27.676758,36.816406 C 31.770508,39.287109 38.879883,43.388672 45.479004,49.699707 L 50.469238,45.766113 z "
               id="path66828"
               style="fill:#6d6d6d" />
            <path
               d="M 48.385254,20.231445 L 47.199707,19.206055 C 37.325195,15.119141 28.913086,16.099121 16.15918,23.868164 C 15.344727,24.647461 14.579102,24.813477 13.959961,27.211426 C 13.50293,28.967774 12.106445,31.232422 8.3349609,32.696777 L 7.915039,32.555664 L 5.305664,34.822754 C 4.2705077,36.157227 5.0185546,42.132813 11.46582,42.494141 L 13.651367,40.511719 L 13.651367,39.290527 C 14.12793,36.078125 18.623535,34.112793 20.125977,34.132813 L 26.737305,37.532227 C 28.920899,36.6875 34.623535,32.71875 34.852539,31.164063 C 35.080566,29.604492 34.55957,28.042969 34.55957,28.042969 L 32.520508,25.804687 C 32.520508,25.804687 36.00293,22.625 50.541504,24.591797 C 50.541504,24.591797 50.477051,24.333008 48.998535,22.310547 C 48.998535,22.310547 41.084961,19.855469 32.688477,18.334961 C 36.459961,17.017578 42.286133,17.490234 48.385254,20.231445 z "
               id="path66830"
               style="fill:#919191" />
            <path
               d="M 34.631836,31.655762 C 35.020508,31.074219 35.165039,30.155762 34.55957,28.042969 L 32.520508,25.804687 C 31.510742,26.799316 30.780273,27.730469 32.039551,28.901367 C 33.299805,30.068359 34.631836,31.655762 34.631836,31.655762 z "
               id="path66832"
               style="fill:#6d6d6d" />
            <path
               d="M 50.541504,24.591797 C 50.541504,24.591797 51.102051,24.30957 49.621582,22.289063 C 49.621582,22.289063 44.786133,18.80957 35.485352,18.399414 C 39.358398,18.367188 42.692383,18.016602 48.793457,20.757324 L 47.498535,18.779297 C 37.625977,14.6875 28.192383,14.202149 16.25293,23.478516 C 15.719727,23.984375 15.051758,24.650391 14.555664,25.546875 L 15.793945,29.016602 C 31.30957,16.411621 45.932129,22.136719 50.541504,24.591797"
               id="path66834"
               style="fill:#c9c9c9" />
            <path
               d="M 16.586914,32.304688 C 16.586914,32.304688 12.022461,35.138672 10.043945,38.625 L 7.2333984,41.441406 C 8.0732422,41.981445 12.514648,40.385742 13.717773,40.462891 L 13.854492,39.743164 C 13.963867,38.047852 17.163086,34.486816 20.125977,34.132812 L 16.586914,32.304688 z "
               id="path66836"
               style="fill:#333" />
            <path
               d="M 16.600586,32.283203 C 14.96582,33.356445 11.579101,35.924805 10.036133,38.587891 L 7.2509765,41.455078 C 6.2861327,40.680664 5.1923827,39.529297 4.8251952,38.158203 L 7.5341796,35.494141 C 8.9443359,34.972656 12.993164,32.606445 15.793945,29.016602 L 16.600586,32.283203 z "
               id="path66838"
               style="fill:#6d6d6d" />
            <path
               d="M 7.7998047,32.655762 L 7.5068359,35.485352 L 4.8154296,38.153808 C 4.5791015,37.099121 4.5419921,35.902344 4.9482421,35.053223 L 7.7998047,32.655762 z "
               id="path66840"
               style="fill:#c9c9c9" />
            <path
               d="M 7.5068359,35.485352 C 7.5068359,35.485352 9.3134765,37.180664 10.02832,38.601563 L 7.2666015,41.444824 C 6.6435546,41.074219 5.0283202,39.418945 4.8154296,38.153809 L 7.5068359,35.485352 z "
               id="path66842"
               style="fill:#b7b9b9" />
            <path
               d="M 7.2666016,41.444824 L 10.02832,38.601563 C 10.811524,38.779297 12.194336,39.764648 13.711914,40.511719 L 11.188477,42.78418 C 9.6630859,42.866211 8.0732422,42.018555 7.2666016,41.444824 z "
               id="path66844"
               style="fill:#6d6d6d" />
            <path
               d="M 44.65332,48.95166 C 47.324707,48.807129 48.992676,46.717285 49.498535,43.475586 L 50.787598,42.709961 L 73.391113,58.754395 C 74.699707,63.26416 70.836426,69.141113 65.439941,69.166504 L 44.274414,50.365723 L 44.65332,48.95166 z "
               id="path66846"
               style="fill:#8e8e8e" />
            <path
               d="M 44.274414,50.365723 L 44.65332,48.95166 C 47.070801,48.23291 48.980957,46.559082 49.45752,43.18457 L 50.787598,42.709961 C 51.586426,44.164063 49.070801,49.775879 44.274414,50.365723 z "
               id="path66848"
               style="fill:#c9c9c9" />
          </g>
          <path
             d="M 50.787598,42.709961 C 50.805176,43.702148 50.92041,44.510742 50.230957,45.887207 L 67.062988,58.01416 L 70.17041,56.402832 L 50.787598,42.709961 z "
             id="path66850"
             style="fill:#464646" />
        </g>
      </g>
      <polygon
         points="24.135742,47.375488 23.672852,49.090332 59.643066,56.678223 80.211426,43.274414 76.771973,43.078125 59.053223,54.161621 24.135742,47.375488 "
         id="polygon66852"
         style="fill:#ff6" />
      <polygon
         points="60.791504,76.643066 13.458008,62.793457 11.22168,46.449707 59.973144,56.678223 60.791504,76.643066 "
         id="polygon66854"
         style="fill:#f90" />
      <polygon
         points="60.791504,76.643066 81.945801,58.510254 82.98877,41.490234 59.893066,56.594238 60.791504,76.643066 "
         id="polygon66856"
         style="fill:#ff7300" />
    </g>
  </g>
</svg>
