<?xml version="1.0" encoding="utf-8"?>
<!-- Generator: Adobe Illustrator 13.0.2, SVG Export Plug-In  -->
<!DOCTYPE svg PUBLIC "-//W3C//DTD SVG 1.1//EN" "http://www.w3.org/Graphics/SVG/1.1/DTD/svg11.dtd" [
	<!ENTITY ns_flows "http://ns.adobe.com/Flows/1.0/">
]>
<svg version="1.1"
	 xmlns="http://www.w3.org/2000/svg" xmlns:xlink="http://www.w3.org/1999/xlink" xmlns:a="http://ns.adobe.com/AdobeSVGViewerExtensions/3.0/"
	 x="0px" y="0px" width="36px" height="36px" viewBox="0 0 36 36" enable-background="new 0 0 36 36" xml:space="preserve">
<defs>
</defs>
<path fill="#FFFFFF" d="M2.631,9.923l9.245-7.078c0.286-0.164,0.637-0.164,0.923,0c0.285,0.166,0.461,0.471,0.461,0.801v4.633h7.069
	c7.455,0.001,13.498,5.043,13.501,12.498c-0.003,7.459-6.046,12.498-13.501,12.502c0,0-0.604,0-1.207,0s-1-0.473-1-1.129
	c0-0.654,0-2.432,0-2.871s0.493-1.002,1-1.002s2.207,0,2.207,0c4.137-0.008,7.492-3.361,7.499-7.5
	c-0.007-4.139-3.362-7.493-7.499-7.5H13.26V17.8c0,0.33-0.176,0.635-0.461,0.799c-0.286,0.164-0.637,0.166-0.923,0l-9.245-7.078
	c-0.285-0.164-0.461-0.469-0.461-0.799C2.17,10.394,2.346,10.089,2.631,9.923z"/>
<rect fill-rule="evenodd" clip-rule="evenodd" fill="none" width="36" height="36"/>
</svg>
