<?xml version="1.0" encoding="UTF-8"?>
<!DOCTYPE svg PUBLIC "-//W3C//DTD SVG 1.1 Tiny//EN" "http://www.w3.org/Graphics/SVG/1.1/DTD/svg11-tiny.dtd">
<svg width="84" height="58" viewBox="-1.091 -0.148 84 58">
<linearGradient id="_14" gradientUnits="userSpaceOnUse" x1="34.09" y1="6.03" x2="14.42" y2="34.84">
<stop stop-color="#A2C2DD" offset="0.1"/>
<stop stop-color="#6C83BB" offset="0.71"/>
<stop stop-color="#003D6D" offset="0.99"/>
</linearGradient>
<path fill="url(#_14)" d="M26.636,8.969c-8.63,3.226-17.035,9.366-17.035,15.963c0.214,4.915,3.531,10.465,8.251,12.718 l-0.479-3.623c0,0-0.724-0.627-0.81-0.883c-0.188-0.759-0.284-1.485-0.284-2.174c0-5.745,6.096-9.069,11.15-11.158 c0.009,0.183,0.051,0.972,0.051,0.972L45.146,9.552L26.33,3.983C26.33,3.983,26.609,8.522,26.636,8.969z"/>
<linearGradient id="_15" gradientUnits="userSpaceOnUse" x1="24.74" y1="26.75" x2="17.03" y2="21.63">
<stop stop-color="#E6EEF4" offset="0"/>
<stop stop-color="#4A9900" offset="0.44"/>
<stop stop-color="#0E4E58" offset="0.94"/>
</linearGradient>
<path fill="url(#_15)" d="M16.72,34.797c-3.745-9.36,6.649-13.8,12.099-15.924c-0.684-1.658-0.453-1.881-1.138-3.54 C15.51,20.074,11.009,27.005,16.72,34.797"/>
<path fill="#17594C" d="M17.049,34.241c-4.707-2.647-7.327-6.673-7.02-9.781c-0.262,4.508,3.185,10.516,7.391,12.587L17.049,34.241z "/>
<linearGradient id="_16" gradientUnits="userSpaceOnUse" x1="20.59" y1="-1.22" x2="27.45" y2="18.88">
<stop stop-color="#DCE8E4" offset="0"/>
<stop stop-color="#43910A" offset="1"/>
</linearGradient>
<path fill="url(#_16)" d="M17.049,34.241C2.5,25.984,12.553,14.503,27.001,9.198L26.71,4.46l17.599,5.209L27.8,20.168 l-0.243-4.601C16.511,19.874,10.398,27.3,17.049,34.241z"/>
<linearGradient id="_17" gradientUnits="userSpaceOnUse" x1="43.22" y1="9" x2="55.94" y2="35.39">
<stop stop-color="#FFFFFF" offset="0"/>
<stop stop-color="#A2C2DD" offset="0.35"/>
<stop stop-color="#6C83BB" offset="0.7"/>
<stop stop-color="#003D6D" offset="1"/>
</linearGradient>
<path fill="url(#_17)" d="M32.83,10.989l4.54-2.407C37.34,8.6,42.864,6.358,47.59,7.587c4.566,1.189,7.303,3.673,9.93,7.732 c2.629,4.055,3.246,11.162,1.51,14.948c-1.74,3.786-3.346,5.118-4.619,6.318L32.83,10.989z"/>
<radialGradient id="_18" gradientUnits="userSpaceOnUse" cx="32.63" cy="14.14" r="22.73">
<stop stop-color="#FFFFFF" offset="0.05"/>
<stop stop-color="#A2C2DD" offset="1"/>
</radialGradient>
<path fill="url(#_18)" d="M55.877,26.643c0.453,9.102-6.096,16.178-14.625,15.811c-8.535-0.366-15.818-8.057-16.269-17.161 C24.53,16.191,31.08,9.11,39.611,9.477C48.145,9.853,55.426,17.542,55.877,26.643z"/>
<linearGradient id="_19" gradientUnits="userSpaceOnUse" x1="54.5" y1="36.08" x2="61.89" y2="50.64">
<stop stop-color="#A2C2DD" offset="0.1"/>
<stop stop-color="#6C83BB" offset="0.71"/>
<stop stop-color="#003D6D" offset="0.99"/>
</linearGradient>
<path fill="url(#_19)" d="M59.74,15.102c-0.096,0.239,0.225,0.462,0.225,0.462c4.405,2.811,7.194,6.907,6.558,10.752 c-0.598,4.594-5.178,8.876-11.973,11.272c-0.04-0.773-0.247-4.723-0.247-4.723l-17.22,11.053l0.428,3.709l18.586,5.84l-0.076-3.953 c0,0-0.034-0.178-0.067-0.352c2.115-0.857,16.265-7.052,16.265-19.209c0-6.524-2.87-11.62-11.938-15.01 C60.28,14.944,59.868,14.782,59.74,15.102z M71.948,27.023l-0.004-0.033C71.945,26.994,71.948,27.016,71.948,27.023z"/>
<linearGradient id="_20" gradientUnits="userSpaceOnUse" x1="68.14" y1="39.97" x2="57.59" y2="32.79">
<stop stop-color="#E6EEF4" offset="0"/>
<stop stop-color="#2F8E9A" offset="0.44"/>
<stop stop-color="#003D6D" offset="0.94"/>
</linearGradient>
<path fill="url(#_20)" d="M70.831,24.163c0,0-16.184,20.426-16.186,20.426c0.002,0,0.82,4.387,0.82,4.387 C55.94,48.841,76.676,40.753,70.831,24.163z"/>
<linearGradient id="_21" gradientUnits="userSpaceOnUse" x1="36.23" y1="44.22" x2="63.23" y2="55.05">
<stop stop-color="#E6EEF4" offset="0"/>
<stop stop-color="#2F8E9A" offset="0.44"/>
<stop stop-color="#003D6D" offset="0.94"/>
</linearGradient>
<polygon fill="url(#_21)" points="55.67,49.522 55.737,52.988 37.832,47.363 37.455,44.095 "/>
<linearGradient id="_22" gradientUnits="userSpaceOnUse" x1="46.81" y1="16.39" x2="69.94" y2="71.96">
<stop stop-color="#E6EEF4" offset="0"/>
<stop stop-color="#2F8E9A" offset="0.44"/>
<stop stop-color="#003D6D" offset="0.94"/>
</linearGradient>
<path fill="url(#_22)" d="M60.157,15.272C80.184,22.76,71.2,40.558,54.784,45.103l0.887,4.419l-18.216-5.427l16.53-10.607 l0.24,4.602C66.877,33.846,72.247,23.227,60.157,15.272z"/>
<linearGradient id="_23" gradientUnits="userSpaceOnUse" x1="20.98" y1="20.82" x2="56.48" y2="28.57">
<stop stop-color="#E6EEF4" offset="0"/>
<stop stop-color="#4A9900" offset="0.44"/>
<stop stop-color="#0E4E58" offset="0.94"/>
</linearGradient>
<path fill="url(#_23)" d="M36.105,20.456c-0.228-0.055-0.781-0.188-0.781-0.188l0.035,2.071c0,0,0.566,0.139,0.779,0.192 c0.015,0.826,0.068,4.305,0.068,4.305c0.01,0.767,0.022,1.561,0.357,2.31c0.543,1.21,1.694,1.48,2.808,1.74l0.982,0.242 l-0.018-2.047l-0.591-0.133c-0.459-0.095-0.978-0.202-1.253-0.461c-0.261-0.245-0.302-0.685-0.302-1.123 c0-0.102-0.037-3.818-0.045-4.346c0.422,0.104,1.844,0.45,1.844,0.45l-0.027-2.084c0,0-1.6-0.385-1.895-0.457 c-0.004-0.317-0.028-2.414-0.028-2.414l-1.969-0.468C36.068,18.045,36.099,19.988,36.105,20.456z"/>
<path fill="url(#_23)" d="M41.199,21.68c-0.232-0.057-0.793-0.191-0.793-0.191l0.022,2.069c0,0,0.578,0.142,0.793,0.194 c0.004,0.284,0.047,4.353,0.047,4.353c0.006,0.779,0.014,1.588,0.356,2.348c0.561,1.243,1.821,1.533,2.939,1.787l0.918,0.221 l-0.006-2.058l-0.617-0.14c-0.414-0.087-0.884-0.187-1.184-0.399c-0.334-0.237-0.383-0.724-0.383-1.209 c0-0.104-0.023-3.96-0.027-4.403c0.423,0.105,1.869,0.457,1.869,0.457l-0.018-2.083c0,0-1.643-0.394-1.941-0.466 c-0.002-0.319-0.012-2.435-0.012-2.435l-1.994-0.475C41.172,19.246,41.195,21.211,41.199,21.68z"/>
<path fill="url(#_23)" d="M46.247,23.199l0.071,12.329l2.024,0.539c0,0-0.013-2.584-0.013-3.092 c0.101,0.026,0.21,0.057,0.21,0.057l1.49,0.337c1.579,0.19,2.729-0.736,3.078-2.476c0.604-3.01-0.406-6.449-3.502-7.192 l-3.361-0.808L46.247,23.199z M48.297,25.547c0.119,0.024,0.242,0.052,0.242,0.052c0.777,0.157,1.658,0.335,2.049,0.909 c0.459,0.67,0.461,1.79,0.463,2.389c0,0.543,0,1.555-0.438,2.004c-0.459,0.477-1.352,0.212-2.066,0.002c0,0-0.115-0.032-0.229-0.064 C48.319,30.519,48.301,26.064,48.297,25.547z"/>
<path fill="url(#_23)" d="M28.745,28.12l1.901,0.494L30.492,21.6c-0.002-0.014-0.002-0.044,0.063-0.097 c0.234-0.188,0.798-0.237,0.956-0.197c1.321,0.319,1.304,1.901,1.29,3.171l0.08,4.717l1.979,0.514l-0.099-5.563 c-0.01-0.802-0.022-1.63-0.291-2.43c-0.32-0.945-0.956-1.723-1.741-2.128c-0.681-0.354-1.577-0.531-2.285-0.192 c-0.014-0.653-0.084-3.854-0.084-3.854l-1.919-0.436L28.745,28.12z"/>
</svg>