<?xml version="1.0" encoding="UTF-8"?>
<!DOCTYPE svg PUBLIC "-//W3C//DTD SVG 1.1 Tiny//EN" "http://www.w3.org/Graphics/SVG/1.1/DTD/svg11-tiny.dtd">
<svg baseProfile="tiny" version="1.1" xmlns="http://www.w3.org/2000/svg" xmlns:xlink="http://www.w3.org/1999/xlink" x="0px" y="0px" width="100%" height="100%" viewBox="0 0 57 49">
<g>
<rect fill="none" width="57" height="49"/>
<g>
<g>
<polygon points="46.238,43.598 4.997,43.598 4.997,10.992 46.228,10.994    "/>
<g>
<polygon fill="#B2B2B2" points="44.428,17.543 44.428,41.768 6.791,41.768 6.791,36.24     "/>
<polygon fill="#D9D9D9" points="44.369,17.854 44.369,12.662 6.846,12.662 6.846,36.552     "/>
<polygon fill="#8A8A8A" points="44.369,12.055 44.369,41.688 6.813,41.688 6.813,42.395 45.077,42.395 45.077,12.055     "/>
<polygon fill="#F5F5F5" points="44.369,12.055 6.138,12.055 6.138,42.395 6.846,42.395 6.846,12.76 44.369,12.76     "/>
<rect x="18.815" y="37.402" fill="#595959" width="2.897" height="2.875"/>
<polygon points="21.758,36.75 18.172,36.75 18.172,40.322 18.881,40.322 18.881,37.456 21.758,37.456     "/>
<polygon fill="#F5F5F5" points="21.713,36.75 21.713,40.277 18.172,40.277 18.172,40.982 22.42,40.982 22.42,36.75     "/>
<rect x="29.445" y="37.402" fill="#595959" width="2.889" height="2.875"/>
<polygon points="32.367,36.75 28.793,36.75 28.793,40.313 29.5,40.313 29.5,37.456 32.367,37.456     "/>
<polygon fill="#F5F5F5" points="32.334,36.75 32.334,40.277 28.793,40.277 28.793,40.982 33.042,40.982 33.042,36.75     "/>
<rect x="40.055" y="37.391" fill="#595959" width="2.898" height="2.887"/>
<polygon points="42.996,36.75 39.412,36.75 39.412,40.322 40.12,40.322 40.12,37.456 42.996,37.456     "/>
<polygon fill="#F5F5F5" points="42.953,36.75 42.953,40.277 39.412,40.277 39.412,40.982 43.66,40.982 43.66,36.75     "/>
<rect x="8.195" y="37.402" fill="#595959" width="2.899" height="2.875"/>
<polygon points="11.126,36.75 7.554,36.75 7.554,40.313 8.262,40.313 8.262,37.456 11.126,37.456     "/>
<polygon fill="#F5F5F5" points="11.095,36.75 11.095,40.277 7.554,40.277 7.554,40.982 11.803,40.982 11.803,36.75     "/>
<rect x="18.826" y="14.13" fill="#595959" width="2.887" height="2.864"/>
<polygon points="21.747,13.467 18.172,13.467 18.172,17.027 18.881,17.027 18.881,14.172 21.747,14.172     "/>
<polygon fill="#F5F5F5" points="21.713,13.467 21.713,16.994 18.172,16.994 18.172,17.699 22.42,17.699 22.42,13.467     "/>
<rect x="29.435" y="14.106" fill="#595959" width="2.899" height="2.888"/>
<polygon points="32.367,13.467 28.793,13.467 28.793,17.039 29.5,17.039 29.5,14.172 32.367,14.172     "/>
<polygon fill="#F5F5F5" points="32.334,13.467 32.334,16.994 28.793,16.994 28.793,17.699 33.042,17.699 33.042,13.467     "/>
<rect x="40.076" y="14.106" fill="#595959" width="2.877" height="2.888"/>
<polygon points="42.986,13.467 39.412,13.467 39.412,17.039 40.12,17.039 40.12,14.172 42.986,14.172     "/>
<polygon fill="#F5F5F5" points="42.953,13.467 42.953,16.994 39.412,16.994 39.412,17.699 43.66,17.699 43.66,13.467     "/>
<rect x="8.195" y="14.118" fill="#595959" width="2.899" height="2.876"/>
<polygon points="11.126,13.467 7.554,13.467 7.554,17.039 8.262,17.039 8.262,14.172 11.126,14.172     "/>
<polygon fill="#F5F5F5" points="11.095,13.467 11.095,16.994 7.554,16.994 7.554,17.699 11.803,17.699 11.803,13.467     "/>
</g>
</g>
<g>
<polygon fill="#00395D" points="30.344,34.621 25.454,32.046 20.558,34.617 21.494,29.17 17.537,25.309 23.008,24.515      25.456,19.559 27.901,24.516 33.371,25.314 29.412,29.17    "/>
<polygon fill="#2882C8" points="22.55,31.879 22.972,29.424 23.105,28.645 22.542,28.096 20.76,26.357 23.223,25.999      24.004,25.886 24.353,25.178 25.455,22.947 26.557,25.18 26.905,25.888 27.684,26.001 30.146,26.359 28.365,28.096 27.8,28.645      27.933,29.422 28.354,31.877 26.154,30.719 25.455,30.351 24.757,30.719 22.55,31.879    "/>
</g>
</g>
</g>
</svg>
