<?xml version="1.0" encoding="utf-8"?>
<!-- Generator: Adobe Illustrator 12.0.1, SVG Export Plug-In . SVG Version: 6.00 Build 51448)  -->
<!DOCTYPE svg PUBLIC "-//W3C//DTD SVG 1.1//EN" "http://www.w3.org/Graphics/SVG/1.1/DTD/svg11.dtd" [
	<!ENTITY ns_svg "http://www.w3.org/2000/svg">
	<!ENTITY ns_xlink "http://www.w3.org/1999/xlink">
]>
<svg  version="1.1" id="Layer_1" xmlns="&ns_svg;" xmlns:xlink="&ns_xlink;" width="24" height="24" viewBox="0 0 24 24"
	 overflow="visible" enable-background="new 0 0 24 24" xml:space="preserve">
<g>
	<rect x="0" width="24" height="24"/>
	<rect x="2.789" y="9.479" fill="#FFFFFF" stroke="#000000" stroke-width="1.071" width="18.917" height="7.793"/>
	<g>
		<polygon fill="#FFFFFF" points="5.461,2.047 5.461,9.224 18.9,9.224 18.9,5.433 14.76,2.047 		"/>
		<path d="M14.993,1.393h-0.467h-8.41h-1.31v1.31V8.57v1.31h1.31h12.128h1.311V8.57V5.744V5.123L19.074,4.73l-3.719-3.041
			L14.993,1.393L14.993,1.393z M6.116,2.703h8.41l3.719,3.041V8.57l0,0l0,0H6.116V2.703L6.116,2.703L6.116,2.703z"/>
	</g>
	<g>
		<rect x="5.671" y="14.12" fill="#FFFFFF" width="13.009" height="7.008"/>
		<path d="M19.128,13.67h-0.897H6.12H5.222v0.898v6.11v0.897H6.12h12.111h0.897v-0.897v-6.11V13.67L19.128,13.67z M6.12,14.569
			h12.111v6.11l0,0l0,0H6.12V14.569L6.12,14.569L6.12,14.569z"/>
	</g>
</g>
</svg>
