<?xml version="1.0" encoding="UTF-8"?>
<!DOCTYPE svg PUBLIC "-//W3C//DTD SVG 1.1 Tiny//EN" "http://www.w3.org/Graphics/SVG/1.1/DTD/svg11-tiny.dtd">
<svg baseProfile="tiny" xmlns="http://www.w3.org/2000/svg" xmlns:xlink="http://www.w3.org/1999/xlink" width="32" height="32" viewBox="0 0 32 32">
<g>
<g>
<g>
<path fill-rule="evenodd" fill="#FFFFFF" d="M24.351,3.984       c-1.875-2.179-4.605-3.238-8.35-3.238s-6.475,1.06-8.35,3.238C5.521,6.461,4.485,10.391,4.485,16s1.035,9.539,3.166,12.015       c1.875,2.18,4.605,3.238,8.35,3.238s6.475-1.06,8.35-3.238c2.129-2.476,3.164-6.405,3.164-12.015S26.479,6.461,24.351,3.984z"/>
<path fill-rule="evenodd" fill="#0B3D91" d="M17.153,8.785l2.355,2.357l-2.355,2.355       V8.785L17.153,8.785z M17.153,23.214l2.355-2.356l-2.355-2.355V23.214L17.153,23.214z M14.636,16L9.54,10.891l1.477-1.477       l4.061,4.061v-9.73l7.383,7.381L17.585,16l4.875,4.875l-7.383,7.381v-9.73l-4.061,4.06L9.54,21.108L14.636,16L14.636,16z        M16.001,30.253c6.225,0,10.514-2.956,10.514-14.253S22.226,1.746,16.001,1.746S5.485,4.703,5.485,16       S9.776,30.253,16.001,30.253L16.001,30.253z"/>
</g>
<rect fill="none" width="32" height="32"/>
</g>
</g>
</svg>
