<?xml version="1.0" encoding="utf-8"?>
<!-- Generator: Adobe Illustrator 12.0.1, SVG Export Plug-In . SVG Version: 6.00 Build 51448)  -->
<!DOCTYPE svg PUBLIC "-//W3C//DTD SVG 1.1//EN" "http://www.w3.org/Graphics/SVG/1.1/DTD/svg11.dtd" [
	<!ENTITY ns_svg "http://www.w3.org/2000/svg">
	<!ENTITY ns_xlink "http://www.w3.org/1999/xlink">
]>
<svg  version="1.1" id="Layer_1" xmlns="&ns_svg;" xmlns:xlink="&ns_xlink;" width="24" height="24" viewBox="0 0 24 24"
	 overflow="visible" enable-background="new 0 0 24 24" xml:space="preserve">
<rect width="24" height="24"/>
<g>
	<g>
		<path fill="#FFFFFF" d="M9.935,2.954H2.977v6.955h6.958v-1.3l0,0l0,0V2.954L9.935,2.954z M4.277,4.254h4.358v4.355H4.277V4.254
			L4.277,4.254z"/>
	</g>
	<g>
		<path fill="#FFFFFF" d="M21.022,2.954h-6.957v6.955h6.957v-1.3l0,0l0,0V2.954L21.022,2.954z M15.365,4.254h4.356v4.355h-4.356
			V4.254L15.365,4.254z"/>
	</g>
	<g>
		<path fill="#FFFFFF" d="M9.935,14.09H2.977v6.955h6.958v-1.3l0,0l0,0V14.09L9.935,14.09z M4.277,15.391h4.358v4.354H4.277V15.391
			L4.277,15.391z"/>
	</g>
	<g>
		<path fill="#FFFFFF" d="M21.022,14.09h-6.957v6.955h6.957v-1.3l0,0l0,0V14.09L21.022,14.09z M15.365,15.391h4.356v4.354h-4.356
			V15.391L15.365,15.391z"/>
	</g>
	<g>
		<path fill="#FFFFFF" d="M15.088,8.748H8.873v6.46h6.216v-1.3l0,0l0,0V8.748L15.088,8.748z M10.173,10.048h3.616v3.861h-3.616
			V10.048L10.173,10.048z"/>
	</g>
</g>
</svg>
