<?xml version="1.0" encoding="UTF-8"?>
<!DOCTYPE svg PUBLIC "-//W3C//DTD SVG 1.1 Tiny//EN" "http://www.w3.org/Graphics/SVG/1.1/DTD/svg11-tiny.dtd">
<svg baseProfile="tiny" xmlns="http://www.w3.org/2000/svg" xmlns:xlink="http://www.w3.org/1999/xlink" width="88" height="88" viewBox="0 0 88 88">
<g>
<g>
<rect fill="none" width="88" height="88"/>
<g>
<g>
<g>
<path fill-opacity="0.06" stroke-opacity="0.06" d="M30.127,59.293         c-1.682,0.835-18.246,4.503-19.252,5.035c-1.65,0.874-1.605,2.744,1.089,3.691c1.021,0.36,44.074,12.574,46.419,13.371         c2.354,0.806,4.623,0.207,5.656-0.797c1.033-0.997,16.514-10.781,17.885-12.381c1.256-1.473-0.342-3.088-2.063-3.628         c-1.723-0.54-42.836-4.948-44.798-5.576C33.102,58.395,31.813,58.469,30.127,59.293z"/>
<path fill-opacity="0.06" stroke-opacity="0.06" d="M30.293,59.882         c-1.405,0.688-17.384,4.056-18.371,4.581c-1.562,0.806-1.372,2.425,0.954,3.24c2.961,1.04,43.343,12.312,45.624,13.087         c2.236,0.772,4.35,0.182,5.258-0.69c0.979-0.938,16.121-10.326,17.176-11.7c1.25-1.213-0.201-2.896-1.906-3.441         c-3.51-1.104-42.379-4.799-44.08-5.349C33.057,59.009,31.866,59.102,30.293,59.882z"/>
<path fill-opacity="0.06" stroke-opacity="0.06" d="M30.459,60.451         c-1.125,0.56-16.521,3.624-17.488,4.135c-1.471,0.751-1.139,2.105,0.823,2.795c4.904,1.721,42.612,12.063,44.825,12.814         c2.127,0.727,4.084,0.147,4.863-0.599c0.693-0.662,15.535-9.781,16.459-11.019c1.152-1.109-0.061-2.719-1.74-3.244         c-5.295-1.687-41.921-4.656-43.357-5.12C33.015,59.627,31.928,59.73,30.459,60.451z"/>
<path fill-opacity="0.06" stroke-opacity="0.06" d="M30.62,61.026         c-0.842,0.422-15.653,3.191-16.602,3.688c-1.382,0.685-0.902,1.796,0.687,2.351c6.854,2.4,41.888,11.806,44.029,12.532         c2.014,0.692,3.82,0.128,4.477-0.5c0.516-0.494,14.922-9.541,15.744-10.337c1.037-1.014,0.082-2.527-1.584-3.053         c-7.074-2.251-41.464-4.52-42.636-4.893C32.971,60.26,31.986,60.358,30.62,61.026z"/>
<path fill-opacity="0.06" stroke-opacity="0.06" d="M30.785,61.61         c-0.565,0.272-14.792,2.747-15.714,3.23c-1.297,0.629-0.674,1.473,0.549,1.915c8.8,3.07,41.16,11.538,43.236,12.247         c1.896,0.65,3.553,0.094,4.076-0.4c0.342-0.331,14.4-9.035,15.033-9.656c0.934-0.928,0.223-2.351-1.432-2.876         c-8.863-2.822-41-4.362-41.915-4.661C32.93,60.879,32.044,60.986,30.785,61.61z"/>
<path fill-opacity="0.06" stroke-opacity="0.06" d="M30.948,62.189         c-0.278,0.14-13.928,2.311-14.829,2.774c-1.207,0.579-0.438,1.168,0.413,1.463c10.751,3.76,40.433,11.295,42.439,11.978         c1.785,0.611,3.287,0.066,3.689-0.305c0.168-0.159,13.18-8.52,13.637-8.972c0.824-0.829,1.045-2.159-0.59-2.685         c-10.646-3.397-40.549-4.217-41.191-4.429C32.886,61.497,32.096,61.62,30.948,62.189z"/>
<path fill-opacity="0.06" stroke-opacity="0.06" d="M31.114,62.759         c0,0-13.067,1.886-13.946,2.33c-1.121,0.516-0.208,0.85,0.276,1.017c12.699,4.442,39.706,11.035,41.643,11.707         c1.668,0.56,3.014,0.039,3.289-0.216c0,0.005,12.646-8.01,12.93-8.292c0.717-0.731,1.188-1.971-0.43-2.486         c-12.436-3.976-40.09-4.089-40.481-4.207C32.845,62.115,32.16,62.253,31.114,62.759z"/>
</g>
<g>
<polygon fill-opacity="0.06" stroke-opacity="0.06" points="19.882,63.886 8.396,72.429 43.977,82.654 54.262,72.744 20.074,63.746 "/>
<polygon fill-opacity="0.06" stroke-opacity="0.06" points="53.271,73.005          43.837,82.095 9.515,72.229 20.178,64.289 "/>
<polygon fill-opacity="0.06" stroke-opacity="0.06" points="19.262,60.627 1.686,73.63 44.817,86.012 60.203,71.18 19.453,60.488 "/>
<polygon fill-opacity="0.06" stroke-opacity="0.06" points="19.365,61.17 2.804,73.43 44.678,85.452 59.213,71.44 19.556,61.031 "/>
<polygon fill-opacity="0.06" stroke-opacity="0.06" points="19.469,61.713 3.923,73.229 44.537,84.893 58.223,71.701 19.659,61.574 "/>
<polygon fill-opacity="0.06" stroke-opacity="0.06" points="19.572,62.256 5.042,73.029 44.397,84.333 57.232,71.962 19.763,62.117 "/>
<polygon fill-opacity="0.06" stroke-opacity="0.06" points="19.676,62.799 6.16,72.829 44.258,83.773 56.242,72.223 19.866,62.66 "/>
<polygon fill-opacity="0.06" stroke-opacity="0.06" points="19.779,63.342 7.278,72.629 44.117,83.214 55.252,72.483 19.97,63.203 "/>
</g>
</g>
<g>
<g>
<polygon fill="#262626" points="27.128,37.535 32.975,35.981 32.975,38.812 27.245,38.812 "/>
<g>
<g>
<linearGradient id="XMLID_11_" gradientUnits="userSpaceOnUse" x1="38.3984" y1="15.4512" x2="68.6708" y2="45.7235">
<stop offset="0" style="stop-color:#FFFFFF"/>
<stop offset="0.0055" style="stop-color:#FFFFFF"/>
<stop offset="1" style="stop-color:#EEEDED"/>
</linearGradient>
<path fill="url(#XMLID_11_)" d="M70.123,44.271c2.732-15.5,2.751-15.497,3.765-21.512           c0.615-3.654-3.051-3.859-3.051-3.859L39.42,16.633c0,0-3.244-0.387-3.938,2.366l-4.286,19.565L70.123,44.271z"/>
<linearGradient id="XMLID_12_" gradientUnits="userSpaceOnUse" x1="75.6484" y1="20.4707" x2="67.3586" y2="43.2468">
<stop offset="0" style="stop-color:#FFFFFF"/>
<stop offset="0.0055" style="stop-color:#FFFFFF"/>
<stop offset="0.0492" style="stop-color:#FFFFFF"/>
<stop offset="0.0874" style="stop-color:#E8E7E8"/>
<stop offset="0.3607" style="stop-color:#9A9A9A"/>
<stop offset="0.5519" style="stop-color:#5C5B5C"/>
<stop offset="0.8361" style="stop-color:#2E2E2F"/>
<stop offset="0.929" style="stop-color:#121213"/>
<stop offset="1" style="stop-color:#000000"/>
</linearGradient>
<path fill="url(#XMLID_12_)" d="M70.837,18.9c0,0,3.666,0.205,3.051,3.859c-0.615,3.653-3.805,21.48-3.805,21.48           l2.575-0.762l3.34-19.7c0,0,0.483-2.41-2.34-3.814l-1.511-0.766C72.147,19.197,71.44,18.959,70.837,18.9z"/>
</g>
<g>
<linearGradient id="XMLID_13_" gradientUnits="userSpaceOnUse" x1="71.5361" y1="22.063" x2="64.0085" y2="42.7449">
<stop offset="0" style="stop-color:#BABABA"/>
<stop offset="0.071" style="stop-color:#333333"/>
<stop offset="0.1639" style="stop-color:#262626"/>
<stop offset="1" style="stop-color:#262626"/>
</linearGradient>
<path fill="url(#XMLID_13_)" d="M70.273,24.022c0,0,0.279-2.765-2.453-3.093l0.952,0.175           c3.053,0.63,2.417,3.811,2.417,3.811l-3.237,18.341l-1.176,0.497L70.273,24.022z"/>
<radialGradient id="XMLID_14_" cx="38.4966" cy="20.8086" r="32.4464" fx="38.4966" fy="20.8086" gradientUnits="userSpaceOnUse">
<stop offset="0" style="stop-color:#F4F3F3"/>
<stop offset="0.0056" style="stop-color:#F4F3F3"/>
<stop offset="0.1838" style="stop-color:#EDEDED"/>
<stop offset="0.4421" style="stop-color:#D9D9D9"/>
<stop offset="0.7474" style="stop-color:#B5B5B5"/>
<stop offset="1" style="stop-color:#919191"/>
</radialGradient>
<path fill="url(#XMLID_14_)" d="M66.907,43.08l3.366-19.058c0,0,0.279-2.765-2.453-3.093           C65.087,20.6,39.236,18.65,39.236,18.65s-2.923-0.462-3.548,2.212C35.063,23.538,32,38.069,32,38.069L66.907,43.08z"/>
</g>
</g>
</g>
<g>
<path fill="none" d="M77.423,66.822"/>
</g>
<g>
<linearGradient id="XMLID_15_" gradientUnits="userSpaceOnUse" x1="41.4722" y1="30.3418" x2="49.4886" y2="52.3668">
<stop offset="0" style="stop-color:#222221"/>
<stop offset="0.0984" style="stop-color:#5E5F5F"/>
<stop offset="0.8142" style="stop-color:#BFBFC0"/>
<stop offset="0.9344" style="stop-color:#E3E2E2"/>
<stop offset="1" style="stop-color:#FFFFFF"/>
</linearGradient>
<path fill="url(#XMLID_15_)" d="M70.546,41.653l-0.096-0.03l-2.999,1.14L28.082,37.28l3.606-0.957l0.116-0.534l-18.47,4.793         c1.15-0.309,2.299-0.039,2.299-0.039s36.829,5.644,41.969,6.497c1.075,0.179,1.9,0.556,2.534,1.04l0.339,0.287l16.95-6.796         c-1.179-1.002-2.396-1.194-2.396-1.194l-1.802-0.26l-0.099,0.59L70.546,41.653z"/>
<linearGradient id="XMLID_16_" gradientUnits="userSpaceOnUse" x1="63.2852" y1="46.6133" x2="74.5485" y2="70.7676">
<stop offset="0" style="stop-color:#FFFFFF"/>
<stop offset="0.0055" style="stop-color:#FFFFFF"/>
<stop offset="0.0601" style="stop-color:#FFFFFF"/>
<stop offset="0.1202" style="stop-color:#E8E7E8"/>
<stop offset="0.4426" style="stop-color:#9A9A9A"/>
<stop offset="0.6393" style="stop-color:#5C5B5C"/>
<stop offset="0.8361" style="stop-color:#2E2E2F"/>
<stop offset="0.929" style="stop-color:#121213"/>
<stop offset="1" style="stop-color:#000000"/>
</linearGradient>
<path fill="url(#XMLID_16_)" d="M77.423,66.822c2.263-1.404,2.198-3.914,2.198-3.914V47.071         c-0.003-3.172-1.299-4.862-2.512-5.751l-16.973,6.761c2.394,1.833,2.039,5.206,2.039,5.206s0,13.363,0,20.01         c0,2.146-0.698,3.354-1.645,4.007L77.423,66.822"/>
</g>
<g>
<g>
<linearGradient id="XMLID_17_" gradientUnits="userSpaceOnUse" x1="16.4624" y1="36.8472" x2="58.7645" y2="79.1493">
<stop offset="0" style="stop-color:#FFFFFF"/>
<stop offset="0.0055" style="stop-color:#FFFFFF"/>
<stop offset="0.5593" style="stop-color:#EEEDED"/>
<stop offset="1" style="stop-color:#E5E4E4"/>
</linearGradient>
<path fill="url(#XMLID_17_)" d="M15.633,40.544c0,0-4.603-1.083-4.603,3.556s0,17.863,0,17.863          s-0.465,3.519,4.213,4.778c4.679,1.263,40.234,10.858,40.234,10.858s6.697,2.343,6.697-4.304s0-20.01,0-20.01          s0.567-5.395-4.573-6.246C52.462,46.188,15.633,40.544,15.633,40.544z"/>
<g>
<linearGradient id="XMLID_18_" gradientUnits="userSpaceOnUse" x1="47.6025" y1="60.0303" x2="57.9474" y2="72.3588">
<stop offset="0" style="stop-color:#B2B2B2"/>
<stop offset="0.071" style="stop-color:#B2B2B2"/>
<stop offset="0.1967" style="stop-color:#333333"/>
<stop offset="0.3607" style="stop-color:#262626"/>
<stop offset="0.9016" style="stop-color:#262626"/>
<stop offset="0.9891" style="stop-color:#000000"/>
<stop offset="1" style="stop-color:#000000"/>
</linearGradient>
<path fill="url(#XMLID_18_)" d="M40.008,69.447l15.262,4.812c2.007-0.974,2.897-2.031,2.897-4.021           c0-5.137,0-14.17,0-14.17s0.042-2.194-1.492-3.65L40.008,69.447z"/>
<linearGradient id="XMLID_19_" gradientUnits="userSpaceOnUse" x1="22.75" y1="39.2256" x2="42.8448" y2="67.9239">
<stop offset="0" style="stop-color:#BABABA"/>
<stop offset="0.071" style="stop-color:#4D4D4D"/>
<stop offset="0.1366" style="stop-color:#404040"/>
<stop offset="0.6557" style="stop-color:#404040"/>
<stop offset="0.7268" style="stop-color:#545454"/>
<stop offset="0.7978" style="stop-color:#6B6B6B"/>
<stop offset="0.8743" style="stop-color:#B2B2B2"/>
<stop offset="1" style="stop-color:#B2B2B2"/>
</linearGradient>
<path fill="url(#XMLID_19_)" d="M40.463,69.591l-27.212-8.577V45.962           c1.536-1.535,3.222-1.181,3.222-1.181s33.211,5.733,37.697,6.457c1.277,0.208,2.148,0.758,2.739,1.418L40.463,69.591z"/>
</g>
<linearGradient id="XMLID_20_" gradientUnits="userSpaceOnUse" x1="17.521" y1="41.6763" x2="52.8252" y2="76.9805">
<stop offset="0" style="stop-color:#E6E6E6"/>
<stop offset="0.0056" style="stop-color:#E6E6E6"/>
<stop offset="0.15" style="stop-color:#CCCCCC"/>
<stop offset="0.3" style="stop-color:#B2B2B2"/>
<stop offset="0.45" style="stop-color:#999999"/>
<stop offset="0.6" style="stop-color:#808080"/>
<stop offset="0.75" style="stop-color:#666666"/>
<stop offset="1" style="stop-color:#4D4D4D"/>
</linearGradient>
<path fill="url(#XMLID_20_)" d="M15.36,45.523c0,0-3.018-0.693-3.018,2.894c0,3.585,0,13.187,0,13.187          s-0.199,2.603,2.63,3.37c4.059,1.099,36.227,9.331,36.227,9.331s5.855,1.812,5.855-3.326c0-5.136,0-14.169,0-14.169          s0.203-4.142-3.997-4.828C48.573,51.248,15.36,45.523,15.36,45.523z"/>
</g>
<path d="M54.826,70.989v-7.528c0-2.342-1.675-2.456-1.675-2.456c-4.466-0.652-37.595-7.541-37.607-7.546         c-0.742-0.094-1.718-0.636-1.718,0.85c0,0.001,0,7.514,0,7.554c0.017,0.429,0.222,1.084,1.26,1.364l37.005,9.502         C52.092,72.729,54.826,73.424,54.826,70.989z"/>
</g>
</g>
<g>
<path fill="#1BA8CB" d="M22.255,54.849L4.23,71.605l38.231,10.764l12.364-14.03v-4.878        c0,0,0.095-2.203-1.675-2.456C50.556,60.634,22.255,54.849,22.255,54.849z"/>
<path fill="#2589BD" d="M51.177,72.456c0,0-4.282-3.068-6.093-4.878c-1.81-1.809-6.03-1.485-8.351-0.093        c-2.32,1.391-4.779,3.201-6.125,1.855c-1.346-1.345-4.222-0.696-4.732-0.185c-0.511,0.51-14.639-4.064-14.639-4.064        l-1.717,1.595L46.37,77.924L51.177,72.456z"/>
<polyline fill="#7FCECF" points="10.319,65.98 4.741,71.251 42.973,82.014 47.782,76.588 "/>
<path fill="#8B6712" d="M47.572,76.934l-3.765,4.245L5.576,70.414l4.59-4.336c0,0,5.265,4.152,12.132,5.018        c6.867,0.866,8.784,2.165,12.125,3.712c3.341,1.546,13.328,1.945,13.328,1.945"/>
<path fill="#0E2131" d="M46.116,78.575l-2.309,2.604L5.576,70.414l3.253-3.073c0,0,4.87,4.497,9.076,4.497        c4.208,0,2.228-0.989,5.383,1.175C26.442,75.18,44.998,79.692,46.116,78.575z"/>
<path fill="#0E2131" d="M21.277,74.869c0,0,5.527-11.188,8.312-12.396c2.783-1.206,2.783-1.299,2.783,2.136        c0,3.434,1.114-1.3,1.114-1.95c0-0.649,2.597-2.505,2.041,0.465c-0.557,2.969,1.948-3.712,1.948-3.712        s0.372,3.712,1.021,2.134c0.65-1.576,1.038-3.193,1.038-3.193L28.71,56.164c0,0-5.433,0.278-5.71,0.559        c-0.278,0.276,3.943-0.048,4.918,0.927c0.974,0.973-6.403,1.484-6.403,2.413c0,0.927,6.033-1.021,6.033-1.021h1.298        c0,0-6.553,13.803-10.347,13.896c-3.794,0.092,2.516,1.67,2.516,1.67"/>
<polyline fill="#8C8C8C" points="42.462,82.369 54.826,68.303 54.826,69.263 42.462,83.561 42.462,82.369         "/>
<polygon fill="#D9D9D9" points="4.23,71.605 42.462,82.369 42.462,83.561 4.264,72.704 "/>
<path fill="#FFFFFF" d="M54.826,68.303v-2.151L41.895,80.604L7.568,71.023l16.327-15.835        c-1.034-0.215-1.64-0.34-1.64-0.34L4.263,71.573l38.232,10.765L54.826,68.303"/>
<path fill-opacity="0.74" stroke-opacity="0.74" d="M18.828,58.085l35.998,8.148v-2.772c0-2.342-1.675-2.456-1.675-2.456        c-3.187-0.465-20.969-4.107-30.898-6.156L18.828,58.085z"/>
</g>
</g>
</g>
</g>
</svg>
