<?xml version="1.0" encoding="UTF-8"?>
<!DOCTYPE svg PUBLIC "-//W3C//DTD SVG 1.1 Tiny//EN" "http://www.w3.org/Graphics/SVG/1.1/DTD/svg11-tiny.dtd">
<svg xmlns="http://www.w3.org/2000/svg" xmlns:xlink="http://www.w3.org/1999/xlink" baseProfile="tiny" height="40px" version="1.1" viewBox="0 0 30 40" width="30px" x="0px" y="0px">
<g>
<path d="M27.458,17.31l-0.81-0.416l0.81-0.418c0.624-0.317,0.62-1.024,0.405-1.392l-0.881-1.512   c-0.251-0.43-0.877-0.683-1.406-0.336l-0.748,0.484l0.051-0.892c0.025-0.453-0.309-1.056-0.998-1.056h-1.764   c-0.57,0-1.031,0.48-0.998,1.056l0.051,0.892l-0.748-0.484c-0.402-0.263-1.08-0.22-1.406,0.336l-0.879,1.512   c-0.219,0.376-0.126,0.735-0.049,0.916H6C4.346,16,3,17.345,3,19v12c0,1.621,1.293,2.944,2.901,2.997v2.695   c0,1.407,1.723,2.251,2.869,1.029l3.063-3.723h11.165C24.654,33.999,26,32.653,26,31V20.706c0.185,0.031,0.699-0.003,0.982-0.487   l0.881-1.516C28.278,17.989,27.701,17.435,27.458,17.31z" fill-opacity="0.2" stroke-opacity="0.2"/>
<path d="M27,15.588l-0.882-1.512c0,1.023-6.239,1.58-6.239,0L19,15.588l7.118,4.126L27,18.199l-2.536-1.305   L27,15.588z" fill-opacity="0.5" stroke-opacity="0.5"/>
<path d="M4,26.718V31c0,1.101,0.9,2,2,2h0.901v3.692c0,0.517,0.646,0.86,1.098,0.394L11.362,33H23c1.1,0,2-0.899,2-2   v-4.282c0-0.004-0.001-0.007-0.001-0.011L4,26.718z" fill-opacity="0.5" stroke-opacity="0.5"/>
<linearGradient gradientTransform="matrix(1 0 0 1 -1530 0)" gradientUnits="userSpaceOnUse" id="SVGID_1_" x1="1544.5" x2="1544.5" y1="13.4609" y2="38.8497">
<stop offset="0" style="stop-color:#FFE23D"/>
<stop offset="0.2239" style="stop-color:#FAD337"/>
<stop offset="0.6537" style="stop-color:#EFAB26"/>
<stop offset="1" style="stop-color:#E48717"/>
</linearGradient>
<path d="M23,16H6c-1.1,0-2,0.9-2,2v12c0,1.101,0.9,2,2,2h0.901v3.692c0,0.438,0.599,0.907,1.098,0.394   L11.362,32H23c1.1,0,2-0.899,2-2V18C25,16.9,24.1,16,23,16z" fill="url(#SVGID_1_)"/>
<rect fill="#A55B11" height="1" width="10" x="9.5" y="20.5"/>
<rect fill="#A55B11" height="1" width="10" x="9.5" y="23.5"/>
<rect fill="#A55B11" height="1" width="6.25" x="9.5" y="26.5"/>
<linearGradient gradientUnits="userSpaceOnUse" id="SVGID_2_" x1="14.7773" x2="14.7773" y1="17" y2="32.9845">
<stop offset="0" style="stop-color:#FFE23D"/>
<stop offset="0.2239" style="stop-color:#FAD337"/>
<stop offset="0.6537" style="stop-color:#EFAB26"/>
<stop offset="1" style="stop-color:#E48717"/>
</linearGradient>
<path d="M25,18c0-0.572-0.243-1.089-0.631-1.454l-0.706,0.705C23.869,17.435,24,17.702,24,18   v11.999c0,0.554-0.5,1.002-1,1.002H10.891l-2.989,3.627v-3.627H6c-0.263,0-0.499-0.107-0.678-0.274   c0.009,0.009,0.013,0.021,0.022,0.03l-0.79,0.616C4.92,31.757,5.432,32,6,32h0.901v3.692c0.005,0.61,0.755,0.782,1.098,0.394   L11.362,32H23c1.172,0,2-0.947,2-2V18z" fill="url(#SVGID_2_)" fill-opacity="0.2" stroke-opacity="0.2"/>
<path d="M7.901,34.628v-3.627l-1,0.999v3.692c0,0.262,0.164,0.494,0.411,0.583L7.901,34.628z" fill="#FFFFFF" fill-opacity="0.2" stroke-opacity="0.2"/>
<path d="M5.345,30.757c-0.212-0.184-0.347-0.455-0.347-0.758V18c0-0.552,0.449-1.001,1.002-1.001h17   c0.254,0,0.457,0.069,0.663,0.252l0.706-0.705C24.011,16.208,23.528,16,23,16H6c-1.1,0-2,0.9-2,2v12   c0,0.532,0.211,1.017,0.552,1.376L5.345,30.757z" fill="#FFFFFF" fill-opacity="0.4" stroke-opacity="0.4"/>
<path d="M7.901,31.001H6c-0.263,0-0.499-0.107-0.678-0.274c0.009,0.009,0.013,0.021,0.022,0.03l-0.79,0.616   C4.92,31.757,5.432,32,6,32h0.901L7.901,31.001z" fill-opacity="0.2" stroke-opacity="0.2"/>
<path d="M25,18c0-0.572-0.243-1.089-0.631-1.454l-0.706,0.705C23.869,17.435,24,17.702,24,18v11.999   c0,0.585-0.562,1.002-1,1.002H10.891l-2.989,3.627l-0.589,1.647c0.067,0.024,0.422,0.105,0.687-0.189L11.362,32H23   c0.984,0,2-0.775,2-2V18z" fill-opacity="0.2" stroke-opacity="0.2"/>
<path d="M25,16.619L24.25,16h-5.518c0.014,0.009,1.713,0.894,1.713,0.894l-1.675,0.86   c-0.317,0.205-0.271,0.577-0.204,0.694l0.879,1.515c0.352,0.402,0.623,0.224,0.705,0.171l1.574-1.017l-0.105,1.856   c0.021,0.438,0.361,0.527,0.498,0.527h1.764c0.4,0,0.508-0.391,0.498-0.527l-0.104-1.856L25,19.587V16.619z" fill-opacity="0.3" stroke-opacity="0.3"/>
<polygon fill="#EA2227" points="27,17.199 26.118,18.714 23.722,17.162 23.881,20 22.117,20 22.277,17.162 19.879,18.714    19,17.199 21.537,15.895 19,14.588 19.879,13.076 22.277,14.625 22.117,11.771 23.881,11.771 23.722,14.625 26.118,13.076    27,14.588 24.464,15.895  "/>
<rect fill="none" height="40" width="30"/>
</g>
</svg>
