<?xml version="1.0" encoding="UTF-8"?>
<!DOCTYPE svg PUBLIC "-//W3C//DTD SVG 1.1 Tiny//EN" "http://www.w3.org/Graphics/SVG/1.1/DTD/svg11-tiny.dtd">
<svg baseProfile="tiny" height="60" viewBox="0 0 60 60" width="60" xmlns="http://www.w3.org/2000/svg" xmlns:xlink="http://www.w3.org/1999/xlink">
<g>
<rect fill="none" height="60" width="60"/>
<linearGradient gradientUnits="userSpaceOnUse" id="SVGID_1_" x1="30" x2="30" y1="2.9995" y2="57.1831">
<stop offset="0" style="stop-color:#989C9E"/>
<stop offset="0.8182" style="stop-color:#44454A"/>
<stop offset="1" style="stop-color:#5D5F63"/>
</linearGradient>
<path d="M53.578,55.479c0,0.839-0.68,1.521-1.521,1.521H7.943c-0.84,0-1.521-0.681-1.521-1.521V4.521  C6.422,3.68,7.104,3,7.943,3h44.113c0.842,0,1.521,0.681,1.521,1.521V55.479z" fill="url(#SVGID_1_)"/>
<linearGradient gradientUnits="userSpaceOnUse" id="SVGID_2_" x1="30" x2="30" y1="2.9995" y2="57.1831">
<stop offset="0" style="stop-color:#D8DDE0"/>
<stop offset="0.8182" style="stop-color:#5F6169"/>
<stop offset="1" style="stop-color:#7D7F85"/>
</linearGradient>
<path d="M52.057,3H7.943C7.104,3,6.422,3.68,6.422,4.521v50.958C6.422,56.318,7.104,57,7.943,57h44.113  c0.842,0,1.521-0.681,1.521-1.521V4.521C53.578,3.68,52.898,3,52.057,3z M52.816,55.479c0,0.419-0.34,0.76-0.76,0.76H7.943  c-0.42,0-0.76-0.341-0.76-0.76V4.521c0-0.42,0.34-0.76,0.76-0.76h44.113c0.42,0,0.76,0.34,0.76,0.76V55.479z" fill="url(#SVGID_2_)"/>
<path d="M49.773,26.578c0,0.839-0.68,1.521-1.52,1.521H11.746c-0.84,0-1.52-0.682-1.52-1.521V8.323  c0-0.84,0.68-1.521,1.52-1.521h36.508c0.84,0,1.52,0.68,1.52,1.521V26.578z" fill="url(#SVGID_3_)"/>
<path d="M11.746,28.859c-1.258,0-2.281-1.023-2.281-2.281V8.323c0-1.258,1.023-2.281,2.281-2.281  h36.508c1.258,0,2.281,1.023,2.281,2.281v18.254c0,1.258-1.023,2.281-2.281,2.281H11.746z" fill="#020202" fill-opacity="0.2" stroke-opacity="0.2"/>
<path d="M49.773,26.578c0,0.839-0.68,1.521-1.52,1.521H11.746c-0.84,0-1.52-0.682-1.52-1.521V8.323  c0-0.84,0.68-1.521,1.52-1.521h36.508c0.84,0,1.52,0.68,1.52,1.521V26.578z" fill="url(#SVGID_3_)"/>
<linearGradient gradientUnits="userSpaceOnUse" id="SVGID_5_" x1="30" x2="30" y1="14.4082" y2="22.0395">
<stop offset="0" style="stop-color:#5B5B5B"/>
<stop offset="1" style="stop-color:#B0B0B0"/>
</linearGradient>
<rect fill="url(#SVGID_5_)" height="7.605" width="12.168" x="23.916" y="14.408"/>
<linearGradient gradientUnits="userSpaceOnUse" id="SVGID_6_" x1="30" x2="30" y1="15.1685" y2="21.2736">
<stop offset="0" style="stop-color:#E8E8E8"/>
<stop offset="1" style="stop-color:#828282"/>
</linearGradient>
<rect fill="url(#SVGID_6_)" height="6.084" width="10.648" x="24.676" y="15.168"/>
<path d="M48.254,6.803H11.746c-0.84,0-1.52,0.68-1.52,1.521v18.254c0,0.839,0.68,1.521,1.52,1.521  h36.508c0.84,0,1.52-0.682,1.52-1.521V8.323C49.773,7.483,49.094,6.803,48.254,6.803z M49.014,26.578c0,0.418-0.34,0.761-0.76,0.761  H11.746c-0.42,0-0.76-0.342-0.76-0.761V8.323c0-0.419,0.34-0.76,0.76-0.76h36.508c0.42,0,0.76,0.34,0.76,0.76V26.578z" fill="#FFFFFF" fill-opacity="0.5" stroke-opacity="0.5"/>
<polygon fill="#FFFFFF" fill-opacity="0.6" points="23.916,22.014 36.084,22.014 35.324,21.253 23.916,21.253 " stroke-opacity="0.6"/>
<path d="M10.227,36.464v-15.12c0-1.757,1.346-3.133,3.066-3.133h13.936  c2.424,0,2.928,2.088,3.094,2.775l-0.025,0.006c0.133,0.336,0.297,0.863,0.549,1.69c0.023,0.003,0.049,0.005,0.074,0.005  l15.703-0.001c1.738,0,3.15,1.404,3.15,3.131v10.647H10.227z" fill="#020202" fill-opacity="0.2" stroke-opacity="0.2"/>
<path d="M10.986,35.704v-14.36c0-1.331,1.012-2.373,2.307-2.373h13.936  c1.824,0,2.182,1.479,2.354,2.193c0,0,0.408,1.323,0.633,2.06c0.1,0.144,0.43,0.223,0.705,0.223l15.703-0.002  c1.318,0,2.391,1.064,2.391,2.371v9.887H10.986z" fill="#020202" fill-opacity="0.3" stroke-opacity="0.3"/>
<linearGradient gradientUnits="userSpaceOnUse" id="SVGID_7_" x1="30" x2="30" y1="18.1982" y2="34.3475">
<stop offset="0" style="stop-color:#FEEFA7"/>
<stop offset="0.3273" style="stop-color:#FEE570"/>
<stop offset="0.6485" style="stop-color:#F0C12B"/>
<stop offset="1" style="stop-color:#E6A501"/>
</linearGradient>
<path d="M46.623,23.446H30.992c0,0-1.135,0.069-1.484-0.693c-0.221-0.728-0.666-2.17-0.666-2.17  c-0.219-0.919-0.506-1.611-1.613-1.611H13.293c-0.881,0-1.547,0.722-1.547,1.611v13.6h36.508v-9.126  C48.254,24.168,47.502,23.446,46.623,23.446z" fill="url(#SVGID_7_)"/>
<path d="M46.623,23.446H30.992c0,0-1.135,0.069-1.484-0.693c-0.221-0.728-0.666-2.17-0.666-2.17  c-0.219-0.919-0.506-1.611-1.613-1.611H13.293c-0.881,0-1.547,0.722-1.547,1.611v0.761c0-0.89,0.666-1.612,1.547-1.612h13.936  c1.107,0,1.395,0.693,1.613,1.612c0,0,0.445,1.44,0.666,2.17c0.35,0.76,1.484,0.692,1.484,0.692h15.631  c0.879,0,1.631,0.722,1.631,1.61v-0.761C48.254,24.168,47.502,23.446,46.623,23.446z" fill="#FCF3D0" fill-opacity="0.8" stroke-opacity="0.8"/>
<path d="M50.535,52.436c0,0.839-0.682,1.521-1.521,1.521H10.986c-0.84,0-1.521-0.682-1.521-1.521V33.421  c0-0.84,0.682-1.52,1.521-1.52h38.027c0.84,0,1.521,0.68,1.521,1.52V52.436z" fill="url(#SVGID_8_)"/>
<path d="M10.986,56.239c-1.678,0-3.043-1.365-3.043-3.042V34.183c0-1.678,1.365-3.042,3.043-3.042  h38.027c1.678,0,3.043,1.364,3.043,3.042v19.014c0,1.677-1.365,3.042-3.043,3.042H10.986z" fill="#020202" fill-opacity="0.2" stroke-opacity="0.2"/>
<path d="M10.986,55.479c-1.26,0-2.283-1.023-2.283-2.282V34.183c0-1.258,1.023-2.281,2.283-2.281  h38.027c1.258,0,2.283,1.023,2.283,2.281v19.014c0,1.259-1.025,2.282-2.283,2.282H10.986z" fill="#020202" fill-opacity="0.3" stroke-opacity="0.3"/>
<path d="M50.535,52.436c0,0.839-0.682,1.521-1.521,1.521H10.986c-0.84,0-1.521-0.682-1.521-1.521V33.421  c0-0.84,0.682-1.52,1.521-1.52h38.027c0.84,0,1.521,0.68,1.521,1.52V52.436z" fill="url(#SVGID_8_)"/>
<linearGradient gradientUnits="userSpaceOnUse" id="SVGID_10_" x1="30" x2="30" y1="40.2671" y2="48.6622">
<stop offset="0" style="stop-color:#5B5B5B"/>
<stop offset="1" style="stop-color:#B0B0B0"/>
</linearGradient>
<rect fill="url(#SVGID_10_)" height="8.367" width="13.691" x="23.154" y="40.267"/>
<linearGradient gradientUnits="userSpaceOnUse" id="SVGID_11_" x1="30" x2="30" y1="41.0278" y2="47.8963">
<stop offset="0" style="stop-color:#E8E8E8"/>
<stop offset="1" style="stop-color:#828282"/>
</linearGradient>
<rect fill="url(#SVGID_11_)" height="6.845" width="12.168" x="23.916" y="41.028"/>
<path d="M49.014,31.901H10.986c-0.84,0-1.521,0.68-1.521,1.52v19.015c0,0.839,0.682,1.521,1.521,1.521  h38.027c0.84,0,1.521-0.682,1.521-1.521V33.421C50.535,32.581,49.854,31.901,49.014,31.901z M49.773,52.436  c0,0.419-0.34,0.761-0.76,0.761H10.986c-0.42,0-0.76-0.341-0.76-0.761V33.421c0-0.419,0.34-0.759,0.76-0.759h38.027  c0.42,0,0.76,0.34,0.76,0.759V52.436z" fill="#FFFFFF" fill-opacity="0.5" stroke-opacity="0.5"/>
<polygon fill="#FFFFFF" points="20.814,31.901 22.639,37.226 37.359,37.226 39.184,31.901 "/>
<linearGradient gradientUnits="userSpaceOnUse" id="SVGID_12_" x1="30" x2="30" y1="31.9014" y2="36.4799">
<stop offset="0" style="stop-color:#989C9E"/>
<stop offset="0.8182" style="stop-color:#44454A"/>
<stop offset="1" style="stop-color:#5D5F63"/>
</linearGradient>
<polygon fill="url(#SVGID_12_)" points="36.846,36.464 23.154,36.464 21.635,31.901 38.365,31.901 "/>
<polygon fill="#FFFFFF" points="21.576,6.803 23.4,11.366 36.6,11.366 38.424,6.803 "/>
<linearGradient gradientUnits="userSpaceOnUse" id="SVGID_13_" x1="30" x2="30" y1="6.8027" y2="10.6184">
<stop offset="0" style="stop-color:#989C9E"/>
<stop offset="0.8182" style="stop-color:#44454A"/>
<stop offset="1" style="stop-color:#5D5F63"/>
</linearGradient>
<polygon fill="url(#SVGID_13_)" points="36.084,10.605 23.916,10.605 22.395,6.803 37.605,6.803 "/>
<rect fill="#020202" fill-opacity="0.2" height="1.522" stroke-opacity="0.2" width="36.508" x="11.746" y="30.379"/>
<rect fill="#020202" fill-opacity="0.1" height="0.76" stroke-opacity="0.1" width="36.508" x="11.746" y="29.62"/>
<rect fill="#020202" fill-opacity="0.05" height="0.761" stroke-opacity="0.05" width="36.508" x="11.746" y="28.859"/>
<polygon fill="#FFFFFF" fill-opacity="0.8" points="36.846,48.634 23.154,48.634 23.916,47.873 36.084,47.873 " stroke-opacity="0.8"/>
<rect fill="none" height="60" width="60"/>
<defs>
<linearGradient gradientUnits="userSpaceOnUse" id="SVGID_3_" x1="30" x2="30" y1="6.8027" y2="28.1705">
<stop offset="0" style="stop-color:#FFFFFF"/>
<stop offset="0.7879" style="stop-color:#A6A6A6"/>
<stop offset="1" style="stop-color:#B1B1B1"/>
</linearGradient>
</defs>
<defs>
<linearGradient gradientUnits="userSpaceOnUse" id="SVGID_8_" x1="30" x2="30" y1="31.9014" y2="54.0325">
<stop offset="0" style="stop-color:#FFFFFF"/>
<stop offset="0.7879" style="stop-color:#A6A6A6"/>
<stop offset="1" style="stop-color:#B1B1B1"/>
</linearGradient>
</defs>
</g>
</svg>
