<?xml version="1.0" encoding="utf-8"?>
<!-- Generator: Adobe Illustrator 13.0.0, SVG Export Plug-In . SVG Version: 6.00 Build 14948)  -->
<!DOCTYPE svg PUBLIC "-//W3C//DTD SVG 1.1//EN" "http://www.w3.org/Graphics/SVG/1.1/DTD/svg11.dtd">
<svg version="1.1" id="Ebene_1" xmlns="http://www.w3.org/2000/svg" xmlns:xlink="http://www.w3.org/1999/xlink" x="0px" y="0px"
	 width="44.001px" height="44px" viewBox="0 0 44.001 44" enable-background="new 0 0 44.001 44" xml:space="preserve">
<path opacity="0.2" d="M39.107,17.439v-5.632c0-0.61-0.507-0.998-1-0.998h-2.971l0.002-1.997c-0.019-1.21-0.755-2.862-2.983-2.814
	h-4.717c-2.29-0.049-2.969,1.672-2.986,2.812c0,0.041,0.002,1.996,0.002,1.996H6c-0.614,0-1,0.518-1,1.001V34c0,0.594,0.495,1,1,1
	h32.107c0.551,0,1-0.45,1-1V19.973l0.698-0.947C40.368,18.259,39.688,17.502,39.107,17.439z"/>
<polygon opacity="0.5" points="39.001,18.434 6.001,18.434 6.001,34 38.108,34 38.108,19.646 "/>
<rect fill="none" width="44.001" height="44"/>
<linearGradient id="SVGID_1_" gradientUnits="userSpaceOnUse" x1="22.0547" y1="10.6733" x2="22.0547" y2="41.1739">
	<stop  offset="0" style="stop-color:#FFE23D"/>
	<stop  offset="0.2239" style="stop-color:#FAD337"/>
	<stop  offset="0.6537" style="stop-color:#EFAB26"/>
	<stop  offset="1" style="stop-color:#E48717"/>
</linearGradient>
<rect x="6.001" y="10.809" fill="url(#SVGID_1_)" width="32.107" height="22.191"/>
<polygon opacity="0.2" points="26.597,20.754 25.898,21.271 38.108,32.984 38.108,31.795 "/>
<polygon opacity="0.3" fill="#FFFFFF" enable-background="new    " points="17.572,20.742 6.001,31.787 6.001,32.975 18.272,21.262 
	"/>
<path opacity="0.2" d="M24.344,23.496c-1.487,1.053-3.186,0.919-4.508-0.01L6.001,13.244v1.066l13.396,9.916
	c1.692,1.199,3.972,1.132,5.446-0.031l13.266-9.865v-1.068L24.344,23.496z"/>
<path opacity="0.4" d="M6.001,12.182v1.062l13.835,10.242c1.227,0.874,2.997,1.116,4.508,0.01l13.765-10.234v-1.08H6.001z"/>
<linearGradient id="SVGID_2_" gradientUnits="userSpaceOnUse" x1="22.0547" y1="10.5483" x2="22.0547" y2="37.55">
	<stop  offset="0" style="stop-color:#FFE23D"/>
	<stop  offset="0.2239" style="stop-color:#FAD337"/>
	<stop  offset="0.6537" style="stop-color:#EFAB26"/>
	<stop  offset="1" style="stop-color:#E48717"/>
</linearGradient>
<path fill="url(#SVGID_2_)" d="M6.001,12.182l14.346,10.615c0,0,1.658,1.311,3.502,0l14.26-10.615v-1.373H6.001V12.182z"/>
<path opacity="0.3" d="M38.107,17.933h-3.472l0.002-7.124h-9.684l0.006,7.124h-4.366c-0.472,0-0.607,0.522-0.4,0.801l9.29,12.38
	c0.205,0.268,0.602,0.27,0.804-0.004l7.82-10.619V17.933z"/>
<linearGradient id="SVGID_3_" gradientUnits="userSpaceOnUse" x1="29.7979" y1="9.5723" x2="29.7978" y2="52.0605">
	<stop  offset="0" style="stop-color:#79CD19"/>
	<stop  offset="1" style="stop-color:#1B6332"/>
</linearGradient>
<path fill="url(#SVGID_3_)" d="M25.46,17.434h-4.865l9.289,12.381l9.117-12.381h-4.866l0.004-9.545c0,0,0.146-1.889-1.984-1.889
	h-4.716c-2.131,0-1.983,1.889-1.983,1.889L25.46,17.434z"/>
<path opacity="0.2" d="M29.884,29.814l9.117-12.381h-4.866l0.004-9.545c0,0,0.05-0.799-0.497-1.359l-0.666,0.668
	c0.223,0.232,0.213,0.627,0.211,0.633l-0.006,10.555h3.936l-7.238,9.832L29.884,29.814z"/>
<path opacity="0.3" fill="#FFFFFF" d="M29.878,28.217l-7.379-9.832h3.916L26.406,7.889c0-0.658,0.306-0.939,1.032-0.939h4.715
	c0.391,0,0.666,0.084,0.822,0.248l0.666-0.668C33.35,6.234,32.896,6,32.154,6h-4.716c-2.131,0-1.983,1.889-1.983,1.889l0.005,9.545
	h-4.865l9.289,12.381L29.878,28.217z"/>
</svg>
