<?xml version="1.0" encoding="utf-8"?>
<!-- Generator: Adobe Illustrator 14.0.0, SVG Export Plug-In . SVG Version: 6.00 Build 43363)  -->
<!DOCTYPE svg PUBLIC "-//W3C//DTD SVG 1.1//EN" "http://www.w3.org/Graphics/SVG/1.1/DTD/svg11.dtd">
<svg version="1.1"
	 id="svg3426" sodipodi:docname="Audio_downloading.svg" xmlns:cc="http://creativecommons.org/ns#" xmlns:rdf="http://www.w3.org/1999/02/22-rdf-syntax-ns#" xmlns:inkscape="http://www.inkscape.org/namespaces/inkscape" xmlns:dc="http://purl.org/dc/elements/1.1/" xmlns:sodipodi="http://sodipodi.sourceforge.net/DTD/sodipodi-0.dtd" xmlns:svg="http://www.w3.org/2000/svg" inkscape:version="0.47 r22583"
	 xmlns="http://www.w3.org/2000/svg" xmlns:xlink="http://www.w3.org/1999/xlink" x="0px" y="0px" width="32px" height="32px"
	 viewBox="0 0 32 32" enable-background="new 0 0 32 32" xml:space="preserve">
<sodipodi:namedview  id="namedview3470" objecttolerance="10" inkscape:window-y="0" inkscape:cy="16.00177" inkscape:window-x="300" inkscape:window-width="885" inkscape:current-layer="svg3426" pagecolor="#ffffff" inkscape:zoom="10.44997" inkscape:cx="16.00177" inkscape:window-height="659" borderopacity="1" inkscape:pageopacity="0" gridtolerance="10" showgrid="false" inkscape:pageshadow="2" guidetolerance="10" bordercolor="#666666" inkscape:window-maximized="0">
	</sodipodi:namedview>
<defs>
	
	
		<inkscape:perspective  id="perspective3474" inkscape:persp3d-origin="16 : 10.666667 : 1" inkscape:vp_z="32 : 16 : 1" inkscape:vp_x="0 : 16 : 1" sodipodi:type="inkscape:persp3d" inkscape:vp_y="0 : 1000 : 0">
		</inkscape:perspective>
	
		<inkscape:perspective  id="perspective3984" inkscape:persp3d-origin="0.5 : 0.33333333 : 1" inkscape:vp_z="1 : 0.5 : 1" inkscape:vp_x="0 : 0.5 : 1" sodipodi:type="inkscape:persp3d" inkscape:vp_y="0 : 1000 : 0">
		</inkscape:perspective>
</defs>
<g id="g3434">
	<g id="g3436">
		<g id="g3438">
			<path id="path3440" fill="#FFFFFF" d="M7.755,11.474l2.356-1.066c1.464-0.663,2.363-2.144,2.574-3.906l-9.564,4.331
				C4.587,11.834,6.292,12.138,7.755,11.474z"/>
			<path id="path3442" d="M4.227,11.977c-0.479-0.181-0.947-0.425-1.392-0.729l0,0l-0.739-0.506l11.199-5.07l-0.107,0.891
				c-0.064,0.529-0.188,1.041-0.368,1.525l0,0c-0.458,1.224-1.309,2.243-2.499,2.779l0,0l-2.357,1.067
				c-1.188,0.538-2.509,0.506-3.729,0.046l0,0C4.23,11.978,4.229,11.977,4.227,11.977L4.227,11.977z M4.583,11.031
				c1.021,0.382,2.049,0.393,2.964-0.018l0,0l2.356-1.067c0.914-0.416,1.584-1.194,1.97-2.216l0,0
				c0.044-0.118,0.084-0.238,0.12-0.362l0,0l-7.762,3.516C4.347,10.937,4.464,10.987,4.583,11.031L4.583,11.031z"/>
		</g>
		<g id="g3444">
			<path id="path3446" fill="#FDC82F" d="M29.889,20.371c0,0,0.527,0.434,1.036,0.201c0.51-0.23,0.562-0.926,0.562-0.926
				c-1.09-2.381-6.317-5.454-8.668-4.39c-2.353,1.067-3.382,3.87-2.298,6.267l1.896,4.188c0.675,1.493,0.032,3.248-1.437,3.912
				c-1.472,0.666-3.216-0.01-3.891-1.5l-0.324-0.714c1.346-0.851,1.532-2.911,1.055-4.554c-0.518-1.765-4.85-13.766-4.85-13.766
				l-8.233,3.73c0,0,6.165,11.171,7.154,12.721c0.727,1.141,1.924,2.146,3.146,2.301l0.456,1.004
				c1.082,2.395,3.87,3.473,6.227,2.404c2.349-1.064,3.382-3.871,2.295-6.266l-1.895-4.188c-0.677-1.492-0.03-3.248,1.436-3.914
				C25.021,16.222,29.209,18.889,29.889,20.371z"/>
			<path id="path3448" d="M29.57,20.764l-0.092-0.074l-0.052-0.106c-0.284-0.626-3.242-3.071-3.831-3.294l0,0
				c-0.579-0.219-1.23-0.217-1.83,0.057l0,0c-0.601,0.27-1.028,0.758-1.248,1.34l0,0c-0.224,0.594-0.221,1.274,0.066,1.905l0,0
				l1.894,4.185c0.603,1.334,0.613,2.791,0.138,4.056l0,0c-0.466,1.233-1.396,2.296-2.686,2.88l0,0
				c-1.286,0.581-2.696,0.588-3.932,0.123l0,0c-0.003-0.005-0.005-0.005-0.007-0.006l0,0c-1.265-0.473-2.354-1.439-2.957-2.777l0,0
				l-0.344-0.76c-0.175-0.038-0.35-0.09-0.519-0.152l0,0c-1.111-0.424-2.066-1.328-2.708-2.326l0,0
				c-1.016-1.599-7.165-12.739-7.17-12.75l0,0l-0.265-0.48l9.229-4.182l0.188,0.516c0.003,0.01,4.329,11.979,4.861,13.796l0,0
				c0.324,1.135,0.376,2.438-0.035,3.546l0,0c-0.188,0.494-0.472,0.952-0.875,1.31l0,0l0.154,0.345
				c0.283,0.626,0.794,1.079,1.391,1.303l0,0c0.577,0.218,1.233,0.218,1.832-0.052l0,0c0.597-0.275,1.03-0.764,1.248-1.342l0,0
				c0.222-0.594,0.219-1.275-0.064-1.904l0,0l-1.896-4.188c-0.604-1.336-0.613-2.793-0.139-4.058l0,0
				c0.467-1.234,1.397-2.294,2.688-2.878l0,0c1.29-0.585,2.687-0.738,3.934-0.121c1.247,0.617,0,0,0,0
				c1.26,0.472,4.795,3.438,5.401,4.764l0,0L32,19.557l-0.009,0.129c-0.003,0.033-0.021,0.242-0.12,0.514l0,0
				c-0.101,0.268-0.305,0.635-0.738,0.838l0,0c-0.409,0.179-0.802,0.105-1.062,0.006l0,0C29.773,20.932,29.595,20.785,29.57,20.764
				L29.57,20.764z M15.956,28.637c0.489,1.084,1.368,1.862,2.393,2.248l0,0c0.998,0.375,2.124,0.371,3.163-0.098l0,0
				c1.033-0.471,1.778-1.316,2.153-2.314l0,0c0.386-1.021,0.382-2.199-0.107-3.279l0,0l-1.896-4.187
				c-0.398-0.881-0.404-1.847-0.092-2.68l0,0c0.309-0.815,0.926-1.521,1.778-1.905l0,0c0.853-0.385,1.787-0.389,2.603-0.082l0,0
				c0.787,0.297,3.919,2.881,4.33,3.684l0,0c0.038,0.024,0.085,0.051,0.144,0.074l0,0c0.123,0.045,0.223,0.051,0.294,0.018l0,0
				c0.076-0.033,0.152-0.131,0.205-0.273l0,0c0.018-0.043,0.03-0.084,0.038-0.119l0,0c-0.504-1.009-3.799-3.736-4.771-4.103l0,0
				c-1-0.376-2.126-0.374-3.16,0.097l0,0c-1.037,0.471-1.782,1.316-2.16,2.314l0,0c-0.383,1.021-0.378,2.193,0.114,3.283l0,0
				l1.896,4.188c0.399,0.879,0.405,1.842,0.091,2.678l0,0c-0.309,0.815-0.927,1.516-1.777,1.903l0,0
				c-0.855,0.388-1.792,0.388-2.606,0.081l0,0c-0.838-0.316-1.554-0.955-1.955-1.835l0,0l-0.501-1.113l0.369-0.231
				c0.379-0.241,0.65-0.607,0.829-1.078l0,0c0.316-0.825,0.291-1.955,0.01-2.906l0,0c-0.437-1.505-3.82-10.909-4.655-13.223l0,0
				l-7.236,3.277c1.188,2.152,6.033,10.899,6.875,12.213l0,0c0.532,0.848,1.378,1.619,2.211,1.926l0,0
				c0.191,0.072,0.383,0.123,0.576,0.146l0,0l0.278,0.035L15.956,28.637L15.956,28.637z"/>
		</g>
		<g id="g3450">
			<path id="path3452" fill="#FFFFFF" d="M12.664,3.849l-0.2-0.439c-1.132-2.499-4.1-3.594-6.633-2.448L3.479,2.03
				c-2.533,1.144-3.666,4.1-2.534,6.597l0.2,0.44c0.309,0.681,0.757,1.255,1.293,1.71l10.66-4.827
				C13.107,5.246,12.973,4.53,12.664,3.849z"/>
			<path id="path3454_1_" d="M13.125,3.641c0.343,0.752,0.49,1.542,0.479,2.318l0,0l-0.005,0.319L2.354,11.37L2.11,11.162l0,0
				c-0.589-0.501-1.085-1.134-1.425-1.886l0,0l-0.2-0.44c-0.622-1.368-0.623-2.86-0.132-4.166l0,0c0.5-1.327,1.514-2.47,2.915-3.103
				l0,0l2.354-1.066C7.023-0.135,8.553-0.145,9.88,0.355l0,0c1.307,0.492,2.428,1.479,3.043,2.845l0,0l0.199,0.44l-0.46,0.209
				l-0.459,0.208l-0.2-0.44c-0.506-1.113-1.411-1.913-2.479-2.316l0,0C8.436,0.893,7.19,0.899,6.04,1.42l0,0L3.685,2.489
				c-1.15,0.52-1.977,1.451-2.388,2.537l0,0C0.898,6.094,0.9,7.303,1.407,8.419l0,0l0.198,0.44c0.23,0.509,0.548,0.95,0.928,1.322
				l0,0l10.053-4.554c-0.028-0.529-0.149-1.06-0.38-1.57l0,0"/>
		</g>
	</g>
</g>
<g id="g3954">
	<g id="g3956">
		<path id="path3958" fill="#8BD3F5" d="M22.29,17.153c-0.239,1.415-1.122,7.628-1.122,7.628l-4.481-0.156l6.571,6.799l7.785-6.301
			l-5.195-0.182c0,0-0.66-6.713-0.708-7.689C25.095,16.275,22.529,15.739,22.29,17.153z"/>
		<path id="path3960" d="M15.904,24.241l4.946,0.172c0.16-1.663,0.876-6.022,1.096-7.319l0,0h-0.001
			c0.14-0.849,0.922-1.177,1.584-1.161l0,0c0.853,0.027,1.841,0.381,1.96,1.299l0,0c0.042,0.861,0.57,5.673,0.687,7.361l0,0
			l5.729,0.201l-8.678,7.139L15.904,24.241L15.904,24.241z M22.635,17.215c-0.233,1.369-1.12,7.592-1.12,7.602l0,0l-0.032,0.332
			l-4.018-0.141l5.822,5.903l0,0l6.893-5.463l-4.66-0.163l-0.02-0.32c0-0.002-0.66-6.707-0.709-7.697l0,0
			c0.003-0.084-0.1-0.252-0.353-0.391l0,0c-0.243-0.141-0.594-0.23-0.91-0.23l0,0c-0.519,0.018-0.829,0.177-0.895,0.566l0,0
			L22.635,17.215z"/>
	</g>
</g>
</svg>
