<?xml version="1.0" encoding="utf-8"?>
<!-- Generator: Adobe Illustrator 14.0.0, SVG Export Plug-In . SVG Version: 6.00 Build 43363)  -->
<!DOCTYPE svg PUBLIC "-//W3C//DTD SVG 1.1//EN" "http://www.w3.org/Graphics/SVG/1.1/DTD/svg11.dtd">
<svg version="1.1" id="Layer_1" xmlns="http://www.w3.org/2000/svg" xmlns:xlink="http://www.w3.org/1999/xlink" x="0px" y="0px"
	 width="32px" height="32px" viewBox="0 0 32 32" enable-background="new 0 0 32 32" xml:space="preserve">
<g>
	<path fill="#FDC82F" d="M29.889,20.371c0,0,0.527,0.434,1.036,0.201c0.51-0.23,0.562-0.926,0.562-0.926
		c-1.09-2.381-6.317-5.454-8.668-4.39c-2.353,1.067-3.382,3.87-2.298,6.267l1.896,4.188c0.675,1.493,0.032,3.248-1.437,3.912
		c-1.472,0.666-3.216-0.01-3.891-1.5l-0.324-0.714c1.346-0.851,1.532-2.911,1.055-4.554c-0.518-1.765-4.85-13.766-4.85-13.766
		l-8.233,3.73c0,0,6.165,11.171,7.154,12.721c0.727,1.141,1.924,2.146,3.146,2.301l0.456,1.004c1.082,2.395,3.87,3.473,6.227,2.404
		c2.349-1.064,3.382-3.871,2.295-6.266l-1.895-4.188c-0.677-1.492-0.03-3.248,1.436-3.914
		C25.021,16.222,29.209,18.889,29.889,20.371z"/>
	<g>
		<g>
			<g>
				<path fill="#FFFFFF" d="M7.755,11.474l2.356-1.066c1.464-0.663,2.363-2.144,2.574-3.906l-9.564,4.331
					C4.587,11.834,6.292,12.138,7.755,11.474z"/>
				<path d="M4.227,11.977c-0.479-0.181-0.947-0.425-1.392-0.729l0,0l-0.739-0.506l11.199-5.07l-0.107,0.891
					c-0.064,0.529-0.188,1.041-0.368,1.525l0,0c-0.458,1.224-1.309,2.243-2.499,2.779l0,0l-2.357,1.067
					c-1.188,0.538-2.509,0.506-3.729,0.046l0,0C4.23,11.978,4.229,11.977,4.227,11.977L4.227,11.977z M4.583,11.031
					c1.021,0.382,2.049,0.393,2.964-0.018l0,0l2.356-1.067c0.914-0.416,1.584-1.194,1.97-2.216l0,0
					c0.044-0.118,0.084-0.238,0.12-0.362l0,0l-7.762,3.516C4.347,10.937,4.464,10.987,4.583,11.031L4.583,11.031z"/>
			</g>
			<g>
				<path d="M17.991,31.828c-1.265-0.473-2.354-1.439-2.957-2.777l0,0l-0.344-0.76c-0.175-0.038-0.35-0.09-0.519-0.152l0,0
					c-1.111-0.424-2.066-1.328-2.708-2.326l0,0c-1.016-1.599-7.165-12.739-7.17-12.75l0,0l-0.265-0.48l9.229-4.182l0.188,0.516
					c0.003,0.01,4.329,11.979,4.861,13.796l0,0c0.324,1.135,0.376,2.438-0.035,3.546l0,0c-0.188,0.494-0.472,0.952-0.875,1.31l0,0
					l0.154,0.345c0.283,0.626,0.794,1.079,1.391,1.303l0,0c0.577,0.218,1.233,0.218,1.832-0.052l0,0
					c0.597-0.275,1.03-0.764,1.248-1.342l0,0c0.222-0.594,0.219-1.275-0.064-1.904l0,0l-1.896-4.188
					c-0.604-1.336-0.613-2.793-0.139-4.058l0,0c0.467-1.234,1.397-2.294,2.688-2.878l0,0c1.29-0.585,2.687-0.738,3.934-0.121
					c1.247,0.617,0,0,0,0c1.26,0.472,4.795,3.438,5.401,4.764l0,0L32,19.557l-0.009,0.129c-0.003,0.033-0.021,0.242-0.12,0.514l0,0
					c-0.101,0.268-0.305,0.635-0.738,0.838l0,0c-0.409,0.179-0.802,0.105-1.062,0.006l0,0c-0.297-0.111-0.475-0.258-0.5-0.279l0,0
					l0.321-0.393l0.458-0.209l-0.458,0.209l-0.321,0.393l-0.092-0.074l-0.052-0.106c-0.284-0.626-3.242-3.071-3.831-3.294l0,0
					c-0.579-0.219-1.23-0.217-1.83,0.057l0,0c-0.601,0.27-1.028,0.758-1.248,1.34l0,0c-0.224,0.594-0.221,1.274,0.066,1.905l0,0
					l1.894,4.185c0.603,1.334,0.613,2.791,0.138,4.056l0,0c-0.466,1.233-1.396,2.296-2.686,2.88l0,0
					c-1.286,0.581-2.696,0.588-3.932,0.123l0,0C17.995,31.829,17.993,31.829,17.991,31.828L17.991,31.828z M15.956,28.637
					c0.489,1.084,1.368,1.862,2.393,2.248l0,0c0.998,0.375,2.124,0.371,3.163-0.098l0,0c1.033-0.471,1.778-1.316,2.153-2.314l0,0
					c0.386-1.021,0.382-2.199-0.107-3.279l0,0l-1.896-4.187c-0.398-0.881-0.404-1.847-0.092-2.68l0,0
					c0.309-0.815,0.926-1.521,1.778-1.905l0,0c0.853-0.385,1.787-0.389,2.603-0.082l0,0c0.787,0.297,3.919,2.881,4.33,3.684l0,0
					c0.038,0.024,0.085,0.051,0.144,0.074l0,0c0.123,0.045,0.223,0.051,0.294,0.018l0,0c0.076-0.033,0.152-0.131,0.205-0.273l0,0
					c0.018-0.043,0.03-0.084,0.038-0.119l0,0c-0.504-1.009-3.799-3.736-4.771-4.103l0,0c-1-0.376-2.126-0.374-3.16,0.097l0,0
					c-1.037,0.471-1.782,1.316-2.16,2.314l0,0c-0.383,1.021-0.378,2.193,0.114,3.283l0,0l1.896,4.188
					c0.399,0.879,0.405,1.842,0.091,2.678l0,0c-0.309,0.815-0.927,1.516-1.777,1.903l0,0c-0.855,0.388-1.792,0.388-2.606,0.081l0,0
					c-0.838-0.316-1.554-0.955-1.955-1.835l0,0l-0.501-1.113l0.369-0.231c0.379-0.241,0.65-0.607,0.829-1.078l0,0
					c0.316-0.825,0.291-1.955,0.01-2.906l0,0c-0.437-1.505-3.82-10.909-4.655-13.223l0,0l-7.236,3.277
					c1.188,2.152,6.033,10.899,6.875,12.213l0,0c0.532,0.848,1.378,1.619,2.211,1.926l0,0c0.191,0.072,0.383,0.123,0.576,0.146l0,0
					l0.278,0.035L15.956,28.637L15.956,28.637z"/>
			</g>
			<g>
				<path fill="#FFFFFF" d="M12.664,3.849l-0.2-0.439c-1.132-2.499-4.1-3.594-6.633-2.448L3.479,2.03
					c-2.533,1.144-3.666,4.1-2.534,6.597l0.2,0.44c0.309,0.681,0.757,1.255,1.293,1.71l10.66-4.827
					C13.107,5.246,12.973,4.53,12.664,3.849z"/>
				<path d="M2.11,11.162c-0.589-0.501-1.085-1.134-1.425-1.886l0,0l-0.2-0.44c-0.622-1.368-0.623-2.86-0.132-4.166l0,0
					c0.5-1.327,1.514-2.47,2.915-3.103l0,0l2.354-1.066C7.023-0.135,8.553-0.145,9.88,0.355l0,0
					c1.307,0.492,2.428,1.479,3.043,2.845l0,0l0.199,0.44l-0.46,0.209l-0.459,0.208l-0.2-0.44c-0.506-1.113-1.411-1.913-2.479-2.316
					l0,0C8.436,0.893,7.19,0.899,6.04,1.42l0,0L3.685,2.489c-1.15,0.52-1.977,1.451-2.388,2.537l0,0
					C0.898,6.094,0.9,7.303,1.407,8.419l0,0l0.198,0.44c0.23,0.509,0.548,0.95,0.928,1.322l0,0l10.053-4.554
					c-0.028-0.529-0.149-1.06-0.38-1.57l0,0l0.458-0.208l0.461-0.208c0.343,0.752,0.49,1.542,0.479,2.318l0,0l-0.005,0.319
					L2.354,11.37L2.11,11.162L2.11,11.162z"/>
			</g>
		</g>
	</g>
	<g>
		<g>
			<path fill="#FFFFFF" d="M31.667,27.561c0,0.887-0.6,1.604-1.339,1.604H17.469c-0.738,0-1.337-0.717-1.337-1.603v-6.198
				c0-0.885,0.599-1.602,1.337-1.602h12.859c0.739,0,1.339,0.717,1.339,1.602V27.561z"/>
			<path d="M17.469,29.443c-0.868,0-1.57-0.843-1.57-1.882l0,0v-6.198c0-1.039,0.703-1.881,1.57-1.881l0,0h12.859
				c0.868,0,1.57,0.842,1.57,1.881l0,0v6.196c0,1.041-0.702,1.884-1.57,1.884l0,0H17.469L17.469,29.443z M16.364,21.363v6.198
				c0.001,0.729,0.494,1.323,1.104,1.323l0,0h12.859c0.61,0,1.104-0.594,1.105-1.325l0,0v-6.196
				c-0.002-0.73-0.495-1.322-1.105-1.322l0,0H17.469C16.858,20.039,16.365,20.631,16.364,21.363L16.364,21.363z"/>
		</g>
		<g>
			<path fill="#FFFFFF" d="M31.667,30.051c0,0.886-0.6,1.604-1.339,1.604H17.469c-0.738,0-1.337-0.718-1.337-1.604v-6.197
				c0-0.885,0.599-1.602,1.337-1.602h12.859c0.739,0,1.339,0.717,1.339,1.602V30.051z"/>
			<path d="M17.469,31.933c-0.867,0-1.57-0.843-1.57-1.882l0,0v-6.197c0-1.04,0.703-1.881,1.57-1.881l0,0h12.859
				c0.868,0,1.57,0.841,1.57,1.881l0,0v6.195c0,1.041-0.702,1.884-1.57,1.884l0,0H17.469L17.469,31.933z M16.364,23.854v6.197
				c0.001,0.73,0.494,1.324,1.104,1.324l0,0h12.859c0.61,0,1.104-0.594,1.105-1.326l0,0v-6.195c-0.002-0.73-0.495-1.322-1.105-1.322
				l0,0H17.469C16.858,22.531,16.365,23.121,16.364,23.854L16.364,23.854z"/>
		</g>
		<g>
			<g>
				<path fill="#D5E14D" d="M22.521,16.969c-0.206,1.203-1.07,7.828-1.07,7.828l-3.852-0.131l5.646,5.772l6.69-5.353l-4.465-0.151
					c0,0-0.462-7.054-0.503-7.884C24.931,16.224,22.726,15.769,22.521,16.969z"/>
				<path d="M16.927,24.34l4.25,0.146c0.139-1.414,0.857-6.466,1.048-7.569l0,0h-0.001c0.121-0.718,0.793-0.999,1.361-0.983l0,0
					c0.73,0.024,1.581,0.324,1.685,1.104l0,0c0.036,0.731,0.386,6.168,0.483,7.604l0,0l4.924,0.169l-7.458,6.062L16.927,24.34
					L16.927,24.34z M23.272,30.004l5.924-4.639l-4.006-0.14l-0.018-0.272c0,0-0.46-7.047-0.502-7.888l0,0
					c0.002-0.071-0.086-0.214-0.304-0.333l0,0c-0.209-0.117-0.511-0.195-0.781-0.195l0,0c-0.445,0.016-0.714,0.15-0.77,0.482l0,0
					l-0.296-0.053l0.296,0.055c-0.201,1.163-1.067,7.797-1.067,7.805l0,0l-0.027,0.282l-3.452-0.118L23.272,30.004L23.272,30.004z"
					/>
			</g>
		</g>
	</g>
</g>
</svg>
