<?xml version="1.0" encoding="UTF-8" standalone="no"?>
<!DOCTYPE svg PUBLIC "-//W3C//DTD SVG 1.1 Tiny//EN" "http://www.w3.org/Graphics/SVG/1.1/DTD/svg11-tiny.dtd">
<svg xmlns="http://www.w3.org/2000/svg" baseProfile="tiny" height="64px" version="1.1" viewBox="0 0 64 64" width="64px" x="0px" y="0px">
<defs>
<linearGradient gradientTransform="matrix(1,0,0,-1,-8.3599,138.6704)" gradientUnits="userSpaceOnUse" id="SVGID_1_" x1="115.8752" x2="115.8752" y1="109.7727" y2="53.842999">
<stop offset="0" style="stop-color:#CEDADE"/>
<stop offset="1" style="stop-color:#919191"/>
</linearGradient>
<linearGradient gradientTransform="matrix(1,0,0,-1,-8.3599,138.6704)" gradientUnits="userSpaceOnUse" id="SVGID_2_" x1="115.8752" x2="115.8752" y1="83.032501" y2="55.353802">
<stop offset="0" style="stop-color:#FFCF75"/>
<stop offset="1" style="stop-color:#BA6B16"/>
</linearGradient>
</defs>
<g transform="matrix(0.8112284,0,0,0.8112284,-55.221247,-14.351236)">
<path d="m 140.27,55.624 c 0.005,-0.197 0.008,-0.392 0.008,-0.584 0,-17.17 -14.697,-31.142 -32.761,-31.142 -18.063,0 -32.76,13.972 -32.76,31.142 0,0.192 0.002,0.387 0.008,0.584 -3.405,3.744 -5.317,8.626 -5.317,13.744 0,11.28 9.179,20.459 20.46,20.459 h 5 v -2.432 c 1.31,0.587 2.757,0.921 4.283,0.921 h 16.655 c 1.525,0 2.974,-0.334 4.283,-0.922 v 2.433 h 5 c 11.28,0 20.458,-9.179 20.458,-20.459 -10e-4,-5.118 -1.913,-10 -5.317,-13.744 z" style="opacity:0.5"/>
<path d="m 135.125,59.592 c 0.09,-0.849 0.15,-1.697 0.15,-2.553 0,-14.413 -12.453,-26.142 -27.76,-26.142 -15.306,0 -27.76,11.729 -27.76,26.142 0,0.854 0.062,1.704 0.149,2.553 -3.336,2.834 -5.46,7.057 -5.46,11.775 0,8.534 6.922,15.459 15.46,15.459 V 55.911 c -1.34,0 -2.63,0.188 -3.868,0.508 0.358,-10.675 9.854,-19.256 21.479,-19.256 11.626,0 21.122,8.581 21.48,19.256 -1.238,-0.318 -2.529,-0.508 -3.868,-0.508 v 30.916 c 8.537,0 15.459,-6.925 15.459,-15.459 0,-4.719 -2.124,-8.942 -5.461,-11.776 z"/>
<path d="M 115.845,57.639 H 99.189 c -3.043,0 -5.513,2.468 -5.513,5.513 v 16.655 c 0,3.045 2.47,5.51 5.513,5.51 h 16.653 c 3.047,0 5.514,-2.465 5.514,-5.51 V 63.152 c 0,-3.045 -2.467,-5.513 -5.511,-5.513 z m -15.372,23.547 c -1.471,0 -2.662,-1.192 -2.662,-2.663 0,-1.468 1.191,-2.663 2.662,-2.663 1.469,0 2.66,1.195 2.66,2.663 0.001,1.47 -1.192,2.663 -2.66,2.663 z m 6.433,0 c 0,-5.022 -4.072,-9.096 -9.096,-9.096 v -3.773 c 7.105,0 12.866,5.763 12.866,12.869 h -3.77 z m 6.434,0 c 0,-8.578 -6.954,-15.53 -15.529,-15.53 v -3.884 c 10.721,0 19.413,8.691 19.413,19.414 h -3.884 z"/>
<linearGradient gradientTransform="matrix(1,0,0,-1,-8.3599,138.6704)" gradientUnits="userSpaceOnUse" x1="115.8752" x2="115.8752" y1="109.7727" y2="53.842999">
<stop offset="0" style="stop-color:#CEDADE"/>
<stop offset="1" style="stop-color:#919191"/>
</linearGradient>
<path d="m 135.125,57.592 c 0.09,-0.849 0.15,-1.697 0.15,-2.553 0,-14.413 -12.453,-26.142 -27.76,-26.142 -15.306,0 -27.76,11.729 -27.76,26.142 0,0.854 0.062,1.704 0.149,2.553 -3.336,2.834 -5.46,7.057 -5.46,11.775 0,8.534 6.922,15.459 15.46,15.459 V 53.911 c -1.34,0 -2.63,0.188 -3.868,0.508 0.358,-10.675 9.854,-19.256 21.479,-19.256 11.626,0 21.122,8.581 21.48,19.256 -1.238,-0.318 -2.529,-0.508 -3.868,-0.508 v 30.916 c 8.537,0 15.459,-6.925 15.459,-15.459 0,-4.719 -2.124,-8.942 -5.461,-11.776 z" style="fill:url(#SVGID_1_)"/>
<linearGradient gradientTransform="matrix(1,0,0,-1,-8.3599,138.6704)" gradientUnits="userSpaceOnUse" x1="115.8752" x2="115.8752" y1="83.032501" y2="55.353802">
<stop offset="0" style="stop-color:#FFCF75"/>
<stop offset="1" style="stop-color:#BA6B16"/>
</linearGradient>
<path d="M 115.845,55.639 H 99.189 c -3.043,0 -5.513,2.468 -5.513,5.513 v 16.655 c 0,3.045 2.47,5.51 5.513,5.51 h 16.653 c 3.047,0 5.514,-2.465 5.514,-5.51 V 61.152 c 0,-3.045 -2.467,-5.513 -5.511,-5.513 z m -15.372,23.547 c -1.471,0 -2.662,-1.192 -2.662,-2.663 0,-1.468 1.191,-2.663 2.662,-2.663 1.469,0 2.66,1.195 2.66,2.663 0.001,1.47 -1.192,2.663 -2.66,2.663 z m 6.433,0 c 0,-5.022 -4.072,-9.096 -9.096,-9.096 v -3.773 c 7.105,0 12.866,5.763 12.866,12.869 h -3.77 z m 6.434,0 c 0,-8.578 -6.954,-15.53 -15.529,-15.53 v -3.884 c 10.721,0 19.413,8.691 19.413,19.414 h -3.884 z" style="fill:url(#SVGID_2_)"/>
</g>
</svg>
