<?xml version="1.0" encoding="utf-8"?>
<!-- Generator: Adobe Illustrator 14.0.0, SVG Export Plug-In . SVG Version: 6.00 Build 43363)  -->
<!DOCTYPE svg PUBLIC "-//W3C//DTD SVG 1.1//EN" "http://www.w3.org/Graphics/SVG/1.1/DTD/svg11.dtd">
<svg version="1.1" id="Layer_6" xmlns="http://www.w3.org/2000/svg" xmlns:xlink="http://www.w3.org/1999/xlink" x="0px" y="0px"
	 width="32px" height="32px" viewBox="0 0 32 32" enable-background="new 0 0 32 32" xml:space="preserve">
<g>
	<path id="path3117" fill="#FFFFFF" d="M1.755,21.115c1.777,0.479,3.27,1.559,5.03,2.146c0.234,0.082,0.477,0.166,0.721,0.254
		c6.376,2.18,15.485,5.299,15.485,5.299c0.864,0.297,1.801-0.09,2.071-0.861l6.39-18.103c0.272-0.771-0.216-1.645-1.081-1.941
		c0,0-3.282-1.124-7.286-2.494c-0.21-0.072-0.423-0.146-0.64-0.218c-3.393-0.945-6.674-1.828-9.933-3.042
		c-0.316-0.088-0.632-0.183-0.947-0.285c-0.939-0.306-1.864-0.693-2.759-1.243c-0.397-0.196-0.896-0.196-1.253-0.06
		C7.18,0.717,6.879,1.006,6.742,1.391c0,0-0.72,2.036-1.674,4.741C4.995,6.341,4.921,6.553,4.845,6.768
		c-0.816,3.267-1.812,6.402-3.286,9.31c-0.144,0.405-0.278,0.783-0.399,1.131c-0.216,1.154-1.409,2.723-0.021,3.633
		C1.318,20.961,1.525,21.055,1.755,21.115z"/>
	<g id="g3115">
		<path id="path3119" d="M30.525,7.465c0.002,0-3.28-1.123-7.283-2.494c-0.213-0.071-0.424-0.143-0.639-0.218
			c-3.422-0.953-6.691-1.832-9.921-3.038c-0.35-0.099-0.66-0.191-0.969-0.291c-0.915-0.298-1.801-0.669-2.657-1.195
			C8.722,0.063,8.407,0.002,8.103,0.002c-0.252,0-0.499,0.04-0.726,0.129c-0.492,0.197-0.9,0.584-1.084,1.104
			C6.293,1.243,5.576,3.272,4.619,5.978c-0.073,0.21-0.148,0.42-0.225,0.637c-0.825,3.29-1.809,6.393-3.263,9.254l-0.014,0.024
			l-0.009,0.03c-0.145,0.406-0.278,0.786-0.4,1.13l-0.011,0.031l-0.007,0.039c-0.099,0.621-0.672,1.549-0.69,2.541
			c-0.015,0.555,0.255,1.176,0.873,1.562c0.223,0.148,0.476,0.262,0.754,0.338l0,0v0.002c1.669,0.442,3.154,1.514,5.003,2.141
			c0.231,0.08,0.472,0.164,0.715,0.25c6.379,2.182,15.471,5.295,15.488,5.301c0.248,0.084,0.502,0.123,0.749,0.123
			c0.003,0,0.003,0,0.005-0.003c0.837,0.002,1.632-0.466,1.923-1.271l6.39-18.105c0.07-0.198,0.101-0.4,0.101-0.596
			C31.997,8.547,31.408,7.767,30.525,7.465z M31.002,9.698L24.611,27.8c-0.133,0.377-0.537,0.644-1.029,0.646
			c-0.143,0-0.291-0.021-0.438-0.07c0.002,0-9.105-3.121-15.482-5.303c-0.243-0.084-0.485-0.166-0.72-0.25
			c-1.676-0.556-3.177-1.642-5.062-2.156v0.001l-0.002-0.002C1.7,20.613,1.538,20.542,1.4,20.452
			c-0.376-0.265-0.437-0.461-0.449-0.789c-0.02-0.599,0.478-1.476,0.666-2.33c0.114-0.33,0.242-0.692,0.38-1.075
			c1.489-2.944,2.49-6.106,3.309-9.379c0.062-0.174,0.137-0.386,0.209-0.594C6.471,3.58,7.188,1.544,7.188,1.544
			c0.089-0.249,0.284-0.441,0.543-0.545C7.82,0.964,7.959,0.937,8.102,0.937c0.17,0,0.349,0.037,0.489,0.106
			c0.896,0.554,1.858,0.956,2.824,1.269c0.322,0.106,0.646,0.203,0.967,0.291c3.248,1.215,6.548,2.099,9.932,3.043
			c0.188,0.063,0.401,0.136,0.613,0.209c4.002,1.371,7.276,2.491,7.285,2.494c0.522,0.176,0.842,0.641,0.838,1.058
			C31.052,9.508,31.034,9.604,31.002,9.698z"/>
	</g>
	<g id="g3121">
		<path id="path3125" d="M3.789,15.914l-0.196-0.068l-0.028-0.204c-0.02-0.143-0.029-0.291-0.029-0.44l0,0
			c0.021-2.18,1.803-4.889,2.131-7.11l0,0l0.003-0.028L5.68,8.035C5.808,7.66,5.927,7.323,6.028,7.038l0,0
			c0.2-0.564,0.326-0.918,0.326-0.918l0,0c0.115-0.319,0.43-0.461,0.713-0.458l0,0c0.101,0,0.21,0.017,0.317,0.055l0,0l9.239,3.162
			c0.326,0.115,0.581,0.378,0.588,0.738l0,0c0,0.072-0.012,0.137-0.033,0.209l0,0l-3.124,8.846
			c-0.118,0.318-0.429,0.455-0.712,0.455l0,0c-0.003,0.002-0.004,0.002-0.006,0.002l0,0c-0.105,0-0.208-0.018-0.314-0.051l0,0
			c0,0-4.524-1.551-7.243-2.48l0,0c-0.387-0.134-0.737-0.254-1.031-0.354l0,0c-0.592-0.201-0.956-0.327-0.958-0.327l0,0
			L3.789,15.914z M4.969,15.61c0.295,0.103,0.646,0.223,1.034,0.356l0,0c2.718,0.931,7.243,2.481,7.24,2.481l0,0
			c0.033,0.01,0.066,0.018,0.093,0.018l0,0c0.038,0,0.065-0.014,0.077-0.02l0,0l0.001,0.002l3.114-8.821l0.005-0.007
			c-0.007,0-0.024-0.073-0.135-0.106l0,0L7.158,6.346C7.126,6.334,7.097,6.331,7.067,6.329l0,0c-0.038,0-0.064,0.01-0.072,0.017l0,0
			L6.993,6.344C6.978,6.385,6.856,6.73,6.671,7.26l0,0C6.573,7.537,6.457,7.865,6.334,8.226l0,0c-0.399,2.409-2.14,5.14-2.117,6.977
			l0,0c0,0.052,0.001,0.102,0.004,0.152l0,0C4.383,15.412,4.64,15.499,4.969,15.61L4.969,15.61z"/>
	</g>
	<g id="g3127">
		<path id="path3131" d="M25.663,22.65c-0.12,0.317-0.431,0.453-0.711,0.453l0,0c-0.002,0-0.004,0-0.007,0l0,0
			c-0.104,0-0.211-0.018-0.312-0.053l0,0l-9.242-3.162c-0.323-0.115-0.58-0.377-0.59-0.738l0,0c0-0.064,0.008-0.145,0.037-0.209l0,0
			l3.122-8.843c0.118-0.321,0.434-0.462,0.717-0.458l0,0c0.102-0.001,0.213,0.017,0.318,0.054l0,0l9.235,3.163
			c0.324,0.114,0.58,0.377,0.59,0.736l0,0c0,0.072-0.016,0.137-0.033,0.209l0,0L25.663,22.65z M15.616,19.258l9.235,3.162
			c0.03,0.01,0.066,0.016,0.094,0.016l0,0c0.039,0,0.066-0.01,0.076-0.018l0,0l0.002,0.002l3.113-8.816l0.004-0.013
			c-0.004,0-0.021-0.071-0.133-0.105l0,0l-9.246-3.166c-0.027-0.01-0.056-0.015-0.087-0.015l0,0c-0.038,0-0.063,0.01-0.075,0.015
			l0,0l-3.119,8.833C15.488,19.164,15.515,19.227,15.616,19.258L15.616,19.258z"/>
	</g>
	<g id="g3133">
		<path id="path3135" d="M27.165,9.557c0.081-0.231,0.358-0.348,0.619-0.258l1.52,0.519c0.262,0.091,0.406,0.351,0.324,0.583
			l-0.463,1.315c-0.084,0.231-0.361,0.348-0.622,0.259l-1.52-0.52c-0.262-0.09-0.405-0.351-0.323-0.583L27.165,9.557z"/>
		<path id="path3137" d="M23.297,8.232c0.08-0.23,0.36-0.348,0.62-0.258l1.521,0.521c0.262,0.089,0.405,0.351,0.324,0.582
			l-0.465,1.314c-0.082,0.232-0.361,0.348-0.622,0.26l-1.521-0.521c-0.26-0.088-0.404-0.351-0.322-0.582L23.297,8.232z"/>
		<path id="path3139" d="M19.413,6.934c0.338-0.624,1.035-0.035,1.396-0.024c0.379,0.131,0.758,0.26,0.758,0.26
			c0.263,0.089,0.406,0.351,0.326,0.583l-0.466,1.315c-0.083,0.231-0.36,0.348-0.62,0.259l-1.521-0.521
			c-0.262-0.089-0.406-0.349-0.323-0.582c0,0,0.115-0.328,0.229-0.65C19.303,7.251,19.413,6.934,19.413,6.934z"/>
		<path id="path3141" d="M15.475,5.736c0.794-0.602,1.688,0.085,2.287,0.476c0.496,0.392,0,1.371-0.4,1.666
			c-0.795,0.392-2.784-0.295-2.083-1.547C15.38,6.032,15.475,5.736,15.475,5.736z"/>
		<path id="path3143" d="M11.651,4.343c0.16-0.144,0.348-0.211,0.55-0.223c1.479,0.034,2.375,0.916,1.479,2.287
			c-0.199,0.295-0.397,0.295-0.609,0.27c0,0-0.38-0.129-0.76-0.26c-0.381-0.13-0.76-0.26-0.76-0.26
			c-0.262-0.09-0.407-0.352-0.325-0.582c0,0,0.114-0.32,0.22-0.627C11.553,4.641,11.651,4.343,11.651,4.343z"/>
		<path id="path3145" d="M7.823,2.939c0.684-0.548,1.978,0.137,2.375,0.823c0.198,0.294-0.299,0.883-0.374,1.335
			c-0.082,0.229-0.361,0.346-0.62,0.255l-1.521-0.52C7.424,4.745,7.277,4.483,7.359,4.25c0,0,0.117-0.329,0.231-0.658
			C7.709,3.265,7.823,2.939,7.823,2.939z"/>
	</g>
	<g id="g3147">
		<path id="path3149" d="M8.5,21.129c-0.081,0.232-0.36,0.35-0.62,0.258c0,0-0.38-0.127-0.759-0.258
			c-0.404-0.021-0.702-0.219-1.001-0.414c-0.299-0.293,0-0.783,0.149-1.09c0.113-0.326,0.229-0.654,0.229-0.654
			c0.083-0.229,0.36-0.346,0.622-0.258l1.52,0.521c0.26,0.086,0.405,0.35,0.324,0.58L8.5,21.129z"/>
		<path id="path3151" d="M12.368,22.455c-0.082,0.23-0.36,0.348-0.621,0.258l-1.52-0.52c-0.262-0.09-0.406-0.354-0.326-0.584
			l0.466-1.312c0.079-0.232,0.36-0.348,0.62-0.26l1.521,0.521c0.26,0.088,0.404,0.35,0.325,0.578L12.368,22.455z"/>
		<path id="path3153" d="M20.104,25.102c-0.08,0.232-0.359,0.352-0.619,0.26l-1.521-0.52c-0.262-0.09-0.405-0.352-0.325-0.582
			l0.465-1.316c0.082-0.229,0.359-0.348,0.619-0.26l1.521,0.523c0.26,0.088,0.403,0.35,0.321,0.582L20.104,25.102z"/>
		<path id="path3155" d="M23.971,26.426c-0.082,0.232-0.361,0.348-0.621,0.26l-1.519-0.521c-0.262-0.088-0.406-0.351-0.324-0.58
			l0.466-1.315c0.079-0.229,0.357-0.349,0.619-0.259l1.52,0.521c0.262,0.088,0.406,0.352,0.324,0.582L23.971,26.426z"/>
		<path id="path3157" d="M14.235,21.621c0.082-0.234,0.36-0.35,0.619-0.26l1.522,0.52c0.261,0.09,0.405,0.352,0.324,0.582
			l-0.468,1.314c-0.079,0.23-0.358,0.348-0.618,0.26l-1.521-0.521c-0.259-0.088-0.405-0.352-0.322-0.582L14.235,21.621z"/>
		<path id="path3159" d="M2.642,17.635c0.689-0.643,1.785,0.043,2.282,0.531c0.498,0.492,0,1.471-0.397,1.668
			c-0.696,0.295-2.786-0.393-2.076-1.584C2.543,17.947,2.642,17.635,2.642,17.635z"/>
	</g>
	<path id="path3165" fill="#FDC82F" d="M25.465,12.287c-0.888-1.244-1.233-3.844-1.243-4.846c-0.008-1.004-0.074-1.862-0.912-2.148
		c-0.211-0.072-0.428-0.093-0.64-0.074c-0.213,0.02-0.419,0.083-0.61,0.183c-1.512,1.19-1.512,3.346-2.312,4.897
		c-0.077,0.207-0.154,0.417-0.234,0.634c-1.916,5.182-4.792,12.958-4.792,12.958c-0.903-0.682-2.065-1.176-3.389-1.363
		c-1.235-0.174-2.427-0.055-3.454,0.293c-0.344,0.113-0.667,0.256-0.969,0.419c-1.785,0.796-2.481,2.95-2.042,4.7
		c0.102,0.297,0.244,0.578,0.422,0.848c0.886,1.34,2.58,2.375,4.64,2.67c2.774,0.393,5.323-0.695,6.292-2.521
		c0.028-0.039,0.046-0.082,0.065-0.123c0.022-0.045,0.047-0.088,0.065-0.139c0.018-0.025,0.032-0.049,0.042-0.076l5.396-14.585
		c1.786,2.36,4.663,6.455,4.934,8.712c0.418,3.484-3.572,4.367-3.189,5.16c0.488,1,4.308-0.119,5.943-3.375
		C31.09,21.311,27.43,15.047,25.465,12.287z"/>
	<g id="g3161">
		<g id="g3163">
			<path id="path3167" d="M25.852,12.021l-0.002,0.001l0,0c-0.775-1.05-1.164-3.668-1.158-4.583
				c-0.004-0.511-0.016-1.013-0.166-1.483c-0.141-0.468-0.502-0.922-1.063-1.103c-0.211-0.072-0.43-0.109-0.648-0.109
				c-0.061,0-0.129,0.004-0.203,0.011c-0.264,0.026-0.527,0.107-0.774,0.235l-0.036,0.018l-0.039,0.03
				c-1.719,1.402-1.681,3.67-2.437,5.052l-0.015,0.021l-0.01,0.028c-0.078,0.209-0.154,0.421-0.234,0.636
				c-1.604,4.341-3.884,10.5-4.582,12.386c-0.878-0.543-1.927-0.933-3.085-1.095c-0.403-0.06-0.804-0.086-1.197-0.086
				c-0.878,0-1.719,0.137-2.48,0.396c-0.365,0.123-0.715,0.272-1.041,0.453c-1.618,0.726-2.416,2.43-2.416,4.055
				c0,0.394,0.045,0.785,0.144,1.168c0.127,0.375,0.29,0.691,0.484,0.988c0.978,1.474,2.79,2.562,4.97,2.877
				c0.402,0.058,0.805,0.082,1.197,0.083c2.44-0.002,4.605-1.062,5.567-2.816c0.059-0.086,0.08-0.15,0.093-0.168
				c0.011-0.023,0.035-0.066,0.06-0.123c0.02-0.031,0.044-0.076,0.063-0.135l5.095-13.768c1.763,2.384,4.125,5.972,4.316,7.791
				c0.018,0.156,0.026,0.302,0.026,0.447c-0.004,1.271-0.69,2.09-1.461,2.738c-0.381,0.322-0.774,0.586-1.098,0.83
				c-0.301,0.264-0.639,0.436-0.691,0.979c-0.002,0.105,0.029,0.228,0.078,0.322c0.25,0.479,0.771,0.609,1.252,0.609
				c1.593-0.023,4.183-1.334,5.545-3.988c0.318-0.635,0.445-1.352,0.445-2.104C30.328,19.021,27.498,14.353,25.852,12.021z
				 M29.053,24.302c-1.144,2.321-3.604,3.492-4.693,3.47c-0.131,0-0.233-0.018-0.301-0.037c0.242-0.209,0.908-0.657,1.539-1.194
				c0.807-0.705,1.633-1.771,1.631-3.312c0-0.183-0.012-0.365-0.035-0.558c-0.329-2.506-3.228-6.537-5.022-8.938l-0.523-0.692
				l-5.693,15.381l-0.029,0.041l-0.018,0.047c-0.008,0.014-0.021,0.045-0.045,0.088c-0.019,0.043-0.026,0.062-0.031,0.072
				l-0.016,0.018L15.8,28.719c-0.723,1.371-2.564,2.35-4.745,2.346c-0.349,0-0.702-0.021-1.06-0.072
				c-1.94-0.271-3.517-1.26-4.311-2.46c-0.158-0.24-0.284-0.486-0.371-0.738c-0.067-0.269-0.104-0.586-0.104-0.908
				c0-1.342,0.664-2.682,1.892-3.221c0.311-0.166,0.608-0.295,0.925-0.401c0.655-0.224,1.395-0.347,2.172-0.347
				c0.345,0,0.7,0.026,1.061,0.078c1.244,0.172,2.335,0.639,3.168,1.269l0.513,0.392l0.224-0.604c0,0,2.876-7.773,4.792-12.957
				c0.077-0.208,0.148-0.41,0.224-0.605c0.827-1.699,0.877-3.705,2.135-4.692c0.129-0.061,0.264-0.099,0.397-0.111
				c0.036-0.004,0.064-0.008,0.101-0.008c0.114,0,0.226,0.019,0.338,0.059c0.274,0.104,0.367,0.222,0.473,0.505
				c0.096,0.281,0.12,0.712,0.12,1.203c0.026,1.091,0.337,3.673,1.332,5.112l0.003,0.001c1.605,2.23,4.348,6.923,4.326,10.054
				C29.402,23.266,29.287,23.835,29.053,24.302z"/>
		</g>
	</g>
	<path id="path4596" fill="#FFFFFF" d="M31.667,27.561c0,0.888-0.6,1.604-1.339,1.604H17.469c-0.738,0-1.338-0.717-1.338-1.603
		v-6.198c0-0.886,0.6-1.603,1.338-1.603h12.858c0.739,0,1.339,0.717,1.339,1.603V27.561z"/>
	<g id="g4594">
		<path id="path4598" d="M17.469,29.443c-0.868,0-1.57-0.844-1.57-1.883l0,0v-6.197c0-1.039,0.703-1.881,1.57-1.881l0,0h12.858
			c0.868,0,1.57,0.842,1.57,1.881l0,0v6.195c0,1.041-0.702,1.885-1.57,1.885l0,0H17.469L17.469,29.443z M16.364,21.363v6.197
			c0.001,0.729,0.494,1.323,1.104,1.323l0,0h12.859c0.61,0,1.104-0.594,1.105-1.325l0,0v-6.195c-0.002-0.73-0.495-1.322-1.105-1.322
			l0,0H17.469C16.858,20.039,16.365,20.631,16.364,21.363L16.364,21.363z"/>
	</g>
	<g id="g4600">
		<path id="path4602" fill="#FFFFFF" d="M31.667,30.051c0,0.887-0.6,1.604-1.339,1.604H17.469c-0.738,0-1.338-0.718-1.338-1.604
			v-6.197c0-0.885,0.6-1.602,1.338-1.602h12.858c0.739,0,1.339,0.717,1.339,1.602V30.051z"/>
		<path id="path4604" d="M17.469,31.934c-0.867,0-1.57-0.844-1.57-1.883l0,0v-6.197c0-1.039,0.703-1.881,1.57-1.881l0,0h12.858
			c0.868,0,1.57,0.842,1.57,1.881l0,0v6.195c0,1.041-0.702,1.885-1.57,1.885l0,0H17.469L17.469,31.934z M16.364,23.854v6.197
			c0.001,0.73,0.494,1.324,1.104,1.324l0,0h12.859c0.61,0,1.104-0.594,1.105-1.326l0,0v-6.195c-0.002-0.729-0.495-1.321-1.105-1.321
			l0,0H17.469C16.858,22.531,16.365,23.121,16.364,23.854L16.364,23.854z"/>
	</g>
	<path id="path4610" fill="#D5E14D" d="M22.521,16.969c-0.206,1.203-1.07,7.828-1.07,7.828l-3.852-0.131l5.646,5.771l6.69-5.353
		l-4.465-0.151c0,0-0.463-7.054-0.504-7.884C24.931,16.224,22.726,15.769,22.521,16.969z"/>
	<g id="g4608">
		<path id="path4612" d="M16.927,24.34l4.25,0.146c0.14-1.414,0.857-6.467,1.049-7.569l0,0h-0.001
			c0.121-0.718,0.793-0.999,1.36-0.983l0,0c0.73,0.024,1.581,0.324,1.686,1.104l0,0c0.036,0.731,0.386,6.168,0.482,7.604l0,0
			l4.924,0.168l-7.457,6.062L16.927,24.34L16.927,24.34z M22.815,17.021c-0.201,1.162-1.067,7.797-1.067,7.805l0,0l-0.026,0.281
			l-3.452-0.117l5.003,5.014l0,0l5.924-4.639l-4.006-0.141l-0.019-0.271c0,0-0.46-7.047-0.502-7.889l0,0
			c0.002-0.07-0.086-0.213-0.304-0.332l0,0c-0.209-0.117-0.511-0.195-0.781-0.195l0,0c-0.444,0.016-0.714,0.15-0.77,0.482l0,0
			V17.021z"/>
	</g>
</g>
</svg>
