<?xml version="1.0" encoding="utf-8"?>
<!-- Generator: Adobe Illustrator 14.0.0, SVG Export Plug-In . SVG Version: 6.00 Build 43363)  -->
<!DOCTYPE svg PUBLIC "-//W3C//DTD SVG 1.1//EN" "http://www.w3.org/Graphics/SVG/1.1/DTD/svg11.dtd">
<svg version="1.1" id="Layer_1" xmlns="http://www.w3.org/2000/svg" xmlns:xlink="http://www.w3.org/1999/xlink" x="0px" y="0px"
	 width="32px" height="32px" viewBox="0 0 32 32" enable-background="new 0 0 32 32" xml:space="preserve">
<g>
	<g>
		<path fill="#FFFFFF" d="M1.754,21.113c1.777,0.479,3.27,1.559,5.03,2.147c0.235,0.082,0.477,0.166,0.721,0.253
			c6.376,2.18,15.485,5.299,15.485,5.299c0.865,0.297,1.801-0.09,2.072-0.861l6.389-18.103c0.273-0.771-0.215-1.645-1.081-1.941
			c0,0-3.282-1.124-7.286-2.494c-0.21-0.072-0.423-0.146-0.639-0.218c-3.393-0.945-6.674-1.828-9.933-3.042
			c-0.316-0.088-0.632-0.183-0.947-0.285C10.625,1.562,9.7,1.175,8.806,0.625C8.408,0.429,7.91,0.429,7.553,0.565
			C7.18,0.715,6.878,1.004,6.741,1.389c0,0-0.719,2.036-1.673,4.741C4.994,6.339,4.92,6.551,4.845,6.766
			c-0.816,3.267-1.812,6.402-3.286,9.31c-0.144,0.405-0.279,0.783-0.4,1.131c-0.215,1.154-1.409,2.723-0.02,3.633
			C1.318,20.959,1.525,21.053,1.754,21.113z"/>
		<path d="M30.525,7.463c0.002,0-3.281-1.123-7.284-2.494c-0.212-0.071-0.423-0.143-0.638-0.218
			c-3.422-0.953-6.692-1.832-9.921-3.038c-0.35-0.099-0.66-0.191-0.969-0.291c-0.915-0.298-1.801-0.669-2.657-1.195
			C8.722,0.061,8.406,0,8.103,0C7.851,0,7.604,0.04,7.377,0.129c-0.492,0.197-0.9,0.584-1.084,1.104
			C6.292,1.241,5.575,3.27,4.618,5.976c-0.073,0.21-0.148,0.42-0.224,0.637c-0.825,3.29-1.809,6.393-3.263,9.254l-0.014,0.024
			l-0.008,0.03c-0.145,0.406-0.279,0.786-0.401,1.13l-0.011,0.031l-0.006,0.039C0.592,17.742,0.019,18.67,0,19.662
			c-0.014,0.555,0.255,1.176,0.873,1.562c0.223,0.149,0.476,0.262,0.754,0.338h0l0,0.002c1.669,0.443,3.154,1.514,5.003,2.141
			c0.232,0.08,0.472,0.164,0.715,0.25c6.379,2.182,15.471,5.295,15.488,5.301c0.248,0.084,0.502,0.123,0.749,0.123
			c0.003,0,0.003,0,0.005-0.003c0.837,0.002,1.632-0.466,1.923-1.271L31.9,10c0.07-0.198,0.1-0.4,0.1-0.596
			C31.996,8.545,31.407,7.765,30.525,7.463z M31.001,9.696l-6.39,18.102c-0.133,0.377-0.538,0.644-1.03,0.646
			c-0.142,0-0.291-0.021-0.438-0.07c0.002,0-9.106-3.121-15.483-5.303c-0.243-0.084-0.485-0.166-0.719-0.25
			c-1.676-0.555-3.177-1.641-5.063-2.156v0.001l-0.002-0.002C1.699,20.611,1.537,20.54,1.4,20.45
			c-0.376-0.265-0.437-0.461-0.45-0.789c-0.019-0.599,0.478-1.476,0.666-2.33c0.115-0.33,0.243-0.692,0.38-1.075
			c1.49-2.944,2.491-6.106,3.309-9.379c0.062-0.174,0.137-0.386,0.209-0.594c0.957-2.705,1.674-4.741,1.674-4.741
			c0.089-0.249,0.284-0.441,0.543-0.545C7.82,0.962,7.958,0.935,8.102,0.935c0.17,0,0.348,0.037,0.489,0.106
			c0.896,0.554,1.858,0.956,2.824,1.269c0.323,0.106,0.646,0.203,0.967,0.291C15.63,3.816,18.93,4.7,22.314,5.644
			c0.188,0.063,0.401,0.136,0.613,0.209c4.002,1.371,7.276,2.491,7.285,2.494c0.523,0.176,0.842,0.641,0.838,1.058
			C31.051,9.506,31.033,9.602,31.001,9.696z"/>
	</g>
	<g>
		<path fill="#FFFFFF" d="M3.9,15.6c-0.27-2.039,1.719-4.979,2.101-7.458c0.128-0.373,0.247-0.71,0.347-0.993
			c0.2-0.565,0.325-0.92,0.325-0.92C6.742,6.03,7.011,5.942,7.272,6.032l9.242,3.164c0.26,0.088,0.413,0.324,0.342,0.521
			l-3.123,8.846c-0.07,0.197-0.338,0.289-0.599,0.199c0,0-4.526-1.549-7.245-2.48c-0.388-0.133-0.739-0.253-1.034-0.355
			C4.268,15.724,3.9,15.6,3.9,15.6z"/>
		<path d="M13.336,19.127c-0.105,0-0.208-0.018-0.314-0.051l0,0c0,0-4.525-1.551-7.243-2.48l0,0
			c-0.387-0.134-0.738-0.254-1.032-0.355l0,0c-0.592-0.201-0.956-0.327-0.958-0.327l0,0L3.9,15.598l0.336-0.043L3.9,15.598
			l-0.112,0.314l-0.196-0.068L3.564,15.64c-0.02-0.143-0.03-0.291-0.03-0.44l0,0c0.022-2.18,1.803-4.889,2.131-7.11l0,0l0.003-0.028
			L5.68,8.033c0.128-0.375,0.247-0.712,0.348-0.997l0,0c0.2-0.564,0.326-0.918,0.326-0.918l0,0C6.469,5.799,6.783,5.657,7.067,5.66
			l0,0c0.1,0,0.21,0.017,0.317,0.055l0,0l9.239,3.162c0.326,0.115,0.581,0.378,0.588,0.738l0,0c0,0.072-0.012,0.137-0.033,0.209l0,0
			l-3.124,8.846c-0.118,0.318-0.429,0.455-0.712,0.455l0,0C13.339,19.127,13.338,19.127,13.336,19.127L13.336,19.127z M4.969,15.608
			c0.295,0.103,0.646,0.223,1.034,0.356l0,0c2.718,0.931,7.243,2.481,7.24,2.481l0,0c0.034,0.01,0.067,0.018,0.093,0.018l0,0
			c0.038,0,0.066-0.014,0.077-0.02l0,0l0.001,0.002l3.115-8.821l0.004-0.007c-0.006,0-0.024-0.073-0.134-0.106l0,0L7.157,6.344
			c-0.032-0.012-0.06-0.015-0.09-0.017l0,0c-0.038,0-0.065,0.01-0.073,0.017l0,0L6.992,6.342C6.978,6.383,6.856,6.728,6.67,7.258
			l0,0C6.572,7.535,6.456,7.863,6.333,8.224l0,0c-0.399,2.409-2.139,5.14-2.117,6.977l0,0c0,0.052,0.001,0.102,0.004,0.152l0,0
			C4.382,15.41,4.64,15.497,4.969,15.608L4.969,15.608z"/>
	</g>
	<g>
		<path fill="#FFFFFF" d="M25.344,22.537c-0.07,0.197-0.34,0.287-0.6,0.197l-9.24-3.162c-0.26-0.09-0.416-0.326-0.346-0.523
			l3.124-8.846c0.067-0.199,0.34-0.288,0.599-0.197l9.24,3.163c0.261,0.089,0.415,0.323,0.346,0.521L25.344,22.537z"/>
		<path d="M24.945,23.102c-0.104,0-0.211-0.018-0.313-0.053l0,0l-9.242-3.162c-0.323-0.115-0.58-0.377-0.59-0.738l0,0
			c0-0.065,0.008-0.145,0.037-0.209l0,0l3.122-8.844c0.118-0.321,0.434-0.462,0.717-0.458l0,0c0.102-0.001,0.213,0.017,0.318,0.054
			l0,0l9.236,3.163c0.324,0.114,0.58,0.377,0.59,0.736l0,0c0,0.072-0.016,0.137-0.034,0.209l0,0l-3.124,8.848l-0.32-0.112
			l0.32,0.112c-0.12,0.318-0.43,0.453-0.711,0.453l0,0C24.949,23.102,24.947,23.102,24.945,23.102L24.945,23.102z M15.615,19.256
			l9.236,3.162c0.03,0.01,0.066,0.016,0.094,0.016l0,0c0.039,0,0.066-0.01,0.076-0.018l0,0l0.002,0.002l3.113-8.816l0.004-0.013
			c-0.004,0-0.021-0.071-0.133-0.105l0,0l-9.246-3.166c-0.027-0.01-0.056-0.015-0.087-0.015l0,0c-0.038,0-0.063,0.01-0.075,0.015
			l0,0l-3.119,8.833C15.488,19.162,15.515,19.225,15.615,19.256L15.615,19.256z"/>
	</g>
	<g>
		<path d="M27.164,9.555c0.081-0.231,0.359-0.348,0.619-0.258l1.52,0.519c0.262,0.091,0.406,0.351,0.324,0.583l-0.463,1.315
			c-0.084,0.231-0.361,0.348-0.622,0.259l-1.519-0.52c-0.262-0.09-0.406-0.351-0.324-0.583L27.164,9.555z"/>
		<path d="M23.296,8.23c0.08-0.23,0.36-0.348,0.62-0.258l1.521,0.521c0.261,0.089,0.405,0.351,0.324,0.582l-0.465,1.314
			c-0.082,0.232-0.361,0.348-0.622,0.26l-1.521-0.521c-0.26-0.088-0.405-0.351-0.323-0.582L23.296,8.23z"/>
		<path d="M19.412,6.932c0.338-0.624,1.035-0.035,1.396-0.024c0.379,0.131,0.758,0.26,0.758,0.26
			c0.262,0.089,0.406,0.351,0.326,0.583l-0.466,1.315c-0.083,0.231-0.36,0.348-0.62,0.259l-1.521-0.521
			c-0.261-0.089-0.406-0.349-0.323-0.582c0,0,0.115-0.328,0.229-0.65C19.303,7.249,19.412,6.932,19.412,6.932z"/>
		<path d="M15.475,5.734c0.794-0.602,1.688,0.085,2.287,0.476c0.496,0.392,0,1.371-0.4,1.666c-0.795,0.392-2.785-0.295-2.083-1.547
			C15.379,6.03,15.475,5.734,15.475,5.734z"/>
		<path d="M11.651,4.341c0.16-0.144,0.347-0.211,0.549-0.223c1.479,0.034,2.375,0.916,1.479,2.287C13.48,6.7,13.281,6.7,13.07,6.675
			c0,0-0.38-0.129-0.76-0.26c-0.381-0.13-0.76-0.26-0.76-0.26c-0.262-0.09-0.407-0.352-0.325-0.582c0,0,0.114-0.32,0.22-0.627
			C11.553,4.639,11.651,4.341,11.651,4.341z"/>
		<path d="M7.822,2.937C8.506,2.389,9.8,3.074,10.197,3.76c0.199,0.294-0.298,0.883-0.374,1.335C9.741,5.324,9.462,5.441,9.203,5.35
			L7.682,4.83C7.423,4.743,7.277,4.481,7.359,4.248c0,0,0.117-0.329,0.231-0.658C7.708,3.263,7.822,2.937,7.822,2.937z"/>
	</g>
	<g>
		<path d="M8.499,21.127c-0.081,0.232-0.36,0.35-0.62,0.258c0,0-0.38-0.127-0.759-0.258c-0.404-0.021-0.702-0.219-1.001-0.414
			c-0.298-0.293,0-0.783,0.15-1.09c0.113-0.326,0.229-0.654,0.229-0.654c0.083-0.229,0.361-0.346,0.622-0.258l1.52,0.521
			c0.26,0.086,0.405,0.35,0.324,0.58L8.499,21.127z"/>
		<path d="M12.367,22.453c-0.082,0.23-0.36,0.348-0.621,0.258l-1.519-0.52c-0.262-0.09-0.406-0.353-0.326-0.584l0.465-1.312
			c0.08-0.232,0.361-0.348,0.621-0.26l1.521,0.521c0.26,0.088,0.404,0.35,0.325,0.579L12.367,22.453z"/>
		<path d="M20.104,25.1c-0.08,0.232-0.36,0.351-0.619,0.26l-1.521-0.52c-0.262-0.09-0.405-0.352-0.325-0.582l0.465-1.316
			c0.082-0.229,0.359-0.348,0.619-0.26l1.521,0.523c0.26,0.088,0.404,0.35,0.322,0.582L20.104,25.1z"/>
		<path d="M23.971,26.424c-0.082,0.232-0.361,0.348-0.621,0.26l-1.519-0.521c-0.261-0.088-0.406-0.351-0.324-0.58l0.466-1.315
			c0.079-0.229,0.357-0.349,0.619-0.259l1.52,0.521c0.261,0.088,0.406,0.352,0.324,0.582L23.971,26.424z"/>
		<path d="M14.235,21.619c0.082-0.234,0.36-0.35,0.619-0.26l1.522,0.52c0.261,0.09,0.405,0.352,0.324,0.582l-0.467,1.314
			c-0.079,0.231-0.359,0.348-0.619,0.26l-1.52-0.521c-0.259-0.088-0.405-0.352-0.322-0.582L14.235,21.619z"/>
		<path d="M2.642,17.633c0.689-0.643,1.785,0.043,2.282,0.531c0.498,0.492,0,1.471-0.397,1.668C3.83,20.127,1.74,19.439,2.45,18.248
			C2.542,17.945,2.642,17.633,2.642,17.633z"/>
	</g>
	<g>
		<g>
			<path fill="#FDC82F" d="M25.464,12.285c-0.888-1.244-1.233-3.844-1.243-4.846c-0.008-1.004-0.074-1.862-0.912-2.148
				c-0.211-0.072-0.428-0.093-0.64-0.074C22.456,5.236,22.25,5.3,22.059,5.4c-1.512,1.19-1.512,3.346-2.312,4.897
				c-0.077,0.207-0.154,0.417-0.234,0.634c-1.916,5.182-4.792,12.958-4.792,12.958c-0.903-0.682-2.066-1.176-3.389-1.363
				c-1.235-0.174-2.427-0.055-3.454,0.293c-0.344,0.113-0.667,0.255-0.969,0.418c-1.785,0.796-2.481,2.951-2.042,4.701
				c0.102,0.297,0.245,0.578,0.422,0.847c0.886,1.34,2.58,2.375,4.64,2.67c2.774,0.392,5.323-0.695,6.292-2.521
				c0.028-0.039,0.046-0.082,0.065-0.123c0.023-0.045,0.047-0.088,0.066-0.139c0.017-0.025,0.032-0.049,0.042-0.076l5.396-14.586
				c1.786,2.36,4.663,6.455,4.934,8.713c0.418,3.484-3.572,4.367-3.19,5.16c0.489,1,4.308-0.119,5.944-3.375
				C31.089,21.309,27.43,15.045,25.464,12.285z"/>
			<path d="M25.852,12.019l-0.002,0.001v0c-0.776-1.05-1.164-3.668-1.158-4.583c-0.004-0.511-0.016-1.013-0.166-1.483
				c-0.141-0.468-0.502-0.922-1.064-1.103c-0.211-0.072-0.43-0.109-0.648-0.109c-0.061,0-0.129,0.004-0.203,0.011
				c-0.264,0.026-0.528,0.107-0.775,0.235l-0.036,0.018l-0.039,0.03c-1.719,1.402-1.681,3.67-2.437,5.052l-0.014,0.021l-0.01,0.028
				c-0.078,0.209-0.154,0.421-0.234,0.636c-1.605,4.341-3.884,10.5-4.582,12.386c-0.878-0.543-1.927-0.933-3.085-1.095
				c-0.404-0.059-0.804-0.086-1.198-0.086c-0.878,0-1.718,0.137-2.48,0.396c-0.365,0.123-0.715,0.273-1.041,0.453
				c-1.618,0.725-2.416,2.43-2.416,4.055c0,0.393,0.045,0.785,0.143,1.168c0.127,0.375,0.29,0.691,0.485,0.988
				c0.977,1.473,2.79,2.562,4.97,2.877c0.402,0.057,0.804,0.082,1.197,0.083c2.44-0.002,4.605-1.062,5.567-2.817
				c0.059-0.086,0.08-0.15,0.093-0.168c0.011-0.023,0.035-0.066,0.06-0.123c0.019-0.031,0.043-0.076,0.063-0.134l5.095-13.768
				c1.762,2.384,4.125,5.972,4.316,7.791c0.018,0.156,0.027,0.302,0.027,0.447c-0.004,1.272-0.691,2.09-1.461,2.739
				c-0.381,0.322-0.775,0.586-1.098,0.83c-0.301,0.263-0.639,0.435-0.691,0.978c-0.002,0.106,0.029,0.228,0.078,0.322
				c0.25,0.479,0.771,0.61,1.252,0.61c1.592-0.024,4.182-1.334,5.545-3.988c0.318-0.635,0.445-1.352,0.445-2.104
				C30.327,19.02,27.497,14.351,25.852,12.019z M29.053,24.3c-1.144,2.321-3.604,3.492-4.693,3.47c-0.131,0-0.234-0.018-0.301-0.037
				c0.242-0.209,0.908-0.658,1.539-1.195c0.807-0.705,1.633-1.77,1.631-3.312c0-0.182-0.012-0.365-0.035-0.557
				c-0.33-2.506-3.228-6.537-5.023-8.938l-0.523-0.692L15.954,28.42l-0.029,0.041l-0.018,0.047c-0.007,0.014-0.02,0.045-0.044,0.088
				c-0.019,0.043-0.027,0.061-0.032,0.072l-0.015,0.018l-0.017,0.031c-0.723,1.371-2.564,2.35-4.745,2.346
				c-0.349,0-0.702-0.021-1.06-0.073c-1.94-0.271-3.516-1.259-4.31-2.46C5.526,28.29,5.4,28.044,5.313,27.792
				c-0.068-0.269-0.104-0.586-0.104-0.908c0-1.342,0.664-2.682,1.892-3.221c0.31-0.166,0.608-0.295,0.925-0.402
				c0.655-0.223,1.394-0.346,2.171-0.346c0.345,0,0.701,0.026,1.061,0.078c1.244,0.172,2.335,0.639,3.168,1.268l0.513,0.392
				l0.223-0.603c0,0,2.876-7.773,4.792-12.957c0.077-0.208,0.149-0.41,0.224-0.605c0.827-1.699,0.877-3.705,2.135-4.692
				c0.129-0.061,0.263-0.099,0.397-0.111c0.036-0.004,0.065-0.008,0.101-0.008c0.114,0,0.225,0.019,0.338,0.059
				c0.274,0.105,0.367,0.222,0.472,0.505c0.096,0.281,0.12,0.712,0.12,1.203c0.027,1.091,0.337,3.673,1.332,5.112l0.003,0.001
				c1.606,2.23,4.348,6.924,4.327,10.054C29.402,23.264,29.286,23.833,29.053,24.3z"/>
		</g>
	</g>
</g>
</svg>
